<?xml version="1.0" encoding="UTF-8" standalone="no"?>
<!-- Created with Inkscape (http://www.inkscape.org/) -->

<svg
   width="300"
   height="100"
   viewBox="0 0 300 100"
   version="1.1"
   id="svg906"
   xmlns="http://www.w3.org/2000/svg"
   xmlns:svg="http://www.w3.org/2000/svg">
  <defs
     id="defs903">
    <style
       id="style1719">.cls-1,.cls-4{fill:none;}.cls-2{clip-path:url(#clip-path);}.cls-3{fill:#002f6c;}.cls-4{stroke:#002f6c;stroke-width:0.56px;}</style>
  </defs>
  <g
     id="layer1">
    <path
       id="rect52529"
       style="fill:#002f6c;stroke-linecap:round;stroke-linejoin:bevel"
       d="M 0,0 H 300 V 100 H 0 Z" />
    <g
       id="g55343"
       transform="translate(-41.282524,49.70146)">
      <path
         class="cls-3"
         d="m 144.69348,-33.12508 c 0.0753,-0.77546 0.11042,-1.505747 0.11042,-2.180823 a 1.5383708,1.5383708 0 0 0 0.21081,0.03513 4.0429287,4.0429287 0 0 0 0.0502,0.577203 c 0.52199,0.03262 1.42042,0.06274 2.69277,0.08533 q 2.10052,-0.03513 2.95127,-0.08533 c 0,0 0.0201,-0.09787 0.0577,-0.250958 0.0376,-0.153084 0.0602,-0.250957 0.0627,-0.291111 a 0.81561256,0.81561256 0 0 1 0.10791,-0.02008 l 0.10791,-0.01506 c -0.0326,0.18069 -0.0652,0.394004 -0.0929,0.637433 -0.0276,0.243429 -0.0677,0.552107 -0.11293,0.938582 -0.0452,0.386475 -0.0728,0.597279 -0.0778,0.637432 a 0.48434838,0.48434838 0 0 0 -0.18822,-0.04768 v -0.868313 a 1.0941756,1.0941756 0 0 0 -0.50192,-0.18069 c -0.30115,-0.06023 -0.60481,-0.105402 -0.91097,-0.138027 -0.30617,-0.03262 -0.61485,-0.05019 -0.83569,-0.05019 0,0.06776 -0.0176,0.210804 -0.0226,0.394003 -0.005,0.183199 0,0.434157 -0.0151,0.720249 -0.0151,0.286092 0,0.627394 -0.0151,1.028927 q 0.0351,3.046626 0.0527,3.232335 c 0.48435,0.05521 0.84823,0.09285 1.09417,0.110421 l 0.0377,0.188219 c -0.15309,-0.02008 -0.66002,-0.02761 -1.52081,-0.03011 h -1.03645 c -0.35134,0 -0.60983,0.01506 -0.78801,0.02008 l 0.0527,-0.170651 0.56215,-0.0527 c 0.30617,-0.03263 0.50191,-0.05521 0.54708,-0.06525 0.0276,-1.06908 0.0427,-2.042796 0.0427,-2.926167 q 0,-1.693965 -0.0427,-2.441819 -1.65883,0 -2.21344,0.351341 a 1.6362443,1.6362443 0 0 0 -0.10791,0.394004 c -0.0427,0.208295 -0.0703,0.351341 -0.0828,0.419099 a 0.50191542,0.50191542 0 0 1 -0.0853,0.03012 0.4165898,0.4165898 0 0 0 -0.0954,0.02761 z"
         id="path1726"
         style="fill:#fffdff;fill-opacity:1;stroke-width:1" />
      <path
         class="cls-3"
         d="m 151.47185,-34.540482 -0.0678,-0.198256 1.46308,0.07278 c 0.83569,-0.0276 1.32506,-0.0527 1.46309,-0.07278 l -0.0502,0.180689 a 2.5346729,2.5346729 0 0 0 -0.41659,0.05772 l -0.44921,0.08031 c -0.0351,0.564655 -0.0502,1.3627 -0.0502,2.394136 h 2.23603 c 0.2886,-0.01255 0.73029,-0.01757 1.32255,-0.01757 v -0.900938 c 0,-0.547088 -0.0151,-1.046493 -0.0427,-1.493198 a 3.6966071,3.6966071 0 0 1 -0.42161,-0.06023 c -0.18822,-0.03012 -0.33629,-0.05019 -0.4191,-0.06023 l -0.0527,-0.180689 a 1.2773747,1.2773747 0 0 0 0.25095,0.03262 c 0.12799,0 0.2861,0.01506 0.47682,0.02008 l 0.6801,0.02008 0.81561,-0.0251 a 5.1446331,5.1446331 0 0 0 0.6801,-0.03262 l -0.0502,0.160613 c -0.16062,0.03012 -0.44922,0.07027 -0.86079,0.12046 -0.0226,0.501915 -0.0477,1.432968 -0.0678,2.803197 0,0.752873 0.0201,1.377758 0.0351,1.904769 a 6.3115864,6.3115864 0 0 0 0.0427,0.785498 2.213447,2.213447 0 0 0 0.28609,0.05521 l 0.31621,0.04015 0.25096,0.03513 0.0527,0.17567 c -0.12046,0 -0.36389,-0.01757 -0.73029,-0.0251 l -0.81059,-0.02259 c -0.1556,0 -0.38899,0.01506 -0.70269,0.02259 -0.31369,0.0075 -0.53955,0.01506 -0.67507,0.0251 l 0.0527,-0.17567 c 0.28107,-0.0276 0.55963,-0.07027 0.83569,-0.125479 0.0276,-0.2359 0.0402,-1.161934 0.0427,-2.783121 q -0.41659,0 -1.95245,0.08282 c -1.02642,0.06023 -1.56849,0.09536 -1.62621,0.112931 0,0.17567 0,0.451724 0,0.820632 0,0.368908 0,0.685114 0.0201,0.94611 0.0201,0.260996 0.0251,0.539559 0.0527,0.83569 0.0954,0.02008 0.37644,0.05772 0.83569,0.112931 l 0.0351,0.190727 a 2.7730827,2.7730827 0 0 0 -0.32123,-0.0276 c -0.14305,0 -0.30868,-0.01255 -0.50192,-0.01506 l -0.66001,-0.01757 -0.75288,0.02008 c -0.35134,0 -0.57469,0.01757 -0.67507,0.0251 l 0.0502,-0.173161 a 7.7069113,7.7069113 0 0 0 0.90094,-0.127988 q 0.0151,-0.875843 0.0176,-2.532164 0,-1.982566 -0.0176,-2.938714 a 4.1809554,4.1809554 0 0 0 -0.87334,-0.117951 z"
         id="path1728"
         style="fill:#fffdff;fill-opacity:1;stroke-width:1" />
      <path
         class="cls-3"
         d="m 160.65188,-34.392417 c -0.1581,-0.03513 -0.45925,-0.08282 -0.90094,-0.138027 l -0.0301,-0.165632 0.90595,0.01506 c 0.43165,0 0.75288,0 0.95364,0.01757 q 2.07542,-0.03011 2.19839,-0.06776 c 0,0 0,-0.05521 0.0226,-0.148065 0.0226,-0.09285 0.0251,-0.17818 0.0376,-0.250957 l 0.2083,-0.03514 c -0.0251,0.200767 -0.0627,0.547088 -0.11293,1.043985 -0.0502,0.496896 -0.0728,0.752873 -0.0753,0.752873 l 0.0176,-0.01757 -0.18069,-0.06776 v -0.604808 q -0.0452,-0.105402 -0.3915,-0.188218 a 6.0430617,6.0430617 0 0 0 -0.79553,-0.130498 q -0.37644,-0.04015 -0.75288,-0.04517 c -0.0326,0.813103 -0.0527,1.621187 -0.0527,2.426761 a 9.3506843,9.3506843 0 0 0 1.77678,-0.145555 1.756704,1.756704 0 0 0 0.0853,-0.361379 l 0.19073,-0.0251 c -0.0151,0.06274 -0.0502,0.288601 -0.1029,0.672567 l -0.14304,0.951129 -0.16312,-0.07278 a 1.4053632,1.4053632 0 0 0 0.0176,-0.271035 2.100516,2.100516 0 0 1 0.0151,-0.291111 q -0.37644,-0.200766 -1.67138,-0.198256 a 1.8646158,1.8646158 0 0 1 -0.0176,0.313697 c 0,0.281073 0.0176,0.602298 0.0301,0.963678 0.0126,0.361379 0.008,0.667547 0.008,0.918505 0,0.250957 0,0.451724 0,0.624884 q 1.61868,-0.02259 2.05785,-0.303658 a 6.3115864,6.3115864 0 0 0 0.18822,-0.752874 l 0.19826,-0.0527 c -0.0577,0.321226 -0.11795,0.687624 -0.17818,1.101705 -0.0602,0.41408 -0.0904,0.705191 -0.10541,0.873333 l -0.18068,-0.03514 v -0.521992 a 4.4519898,4.4519898 0 0 0 -0.44922,-0.03513 l -0.83569,-0.0251 c -0.29362,0 -0.70017,-0.01757 -1.22216,-0.0251 -0.80056,0.02008 -1.30498,0.03764 -1.50575,0.05019 l 0.0502,-0.190728 a 6.1559926,6.1559926 0 0 0 0.88588,-0.11544 c 0,-0.148065 0,-0.366398 0.0151,-0.655 0.0151,-0.288601 0.0151,-0.569674 0.0201,-0.848237 0.005,-0.278563 0,-0.539559 0,-0.782988 0,-0.243429 0,-0.516973 0,-0.813103 0,-0.835689 -0.0176,-1.613658 -0.0527,-2.343945 z"
         id="path1730"
         style="fill:#fffdff;fill-opacity:1;stroke-width:1" />
      <path
         class="cls-3"
         d="m 149.25087,-15.136432 a 3.0390979,3.0390979 0 0 0 1.38278,0.401533 2.5095771,2.5095771 0 0 0 1.06155,-0.225862 1.8269721,1.8269721 0 0 0 0.79303,-0.685115 2.035267,2.035267 0 0 0 0.29864,-1.136838 2.9838872,2.9838872 0 0 0 -0.50192,-1.658831 3.5134079,3.5134079 0 0 0 -1.34764,-1.214635 3.9776797,3.9776797 0 0 0 -1.86211,-0.444195 v 1.395325 c 0,0.639942 0.0226,1.325056 0.0502,2.052834 a 11.355836,11.355836 0 0 0 0.12046,1.505746 z m -0.1832,-5.470878 a 3.2624502,3.2624502 0 0 0 1.75671,-0.419099 2.2259949,2.2259949 0 0 0 0.90846,-1.003831 2.9738489,2.9738489 0 0 0 0.25096,-1.176992 2.587374,2.587374 0 0 0 -0.27354,-1.192049 2.1758033,2.1758033 0 0 0 -0.77295,-0.875842 2.1281214,2.1281214 0 0 0 -1.15943,-0.321226 4.1734267,4.1734267 0 0 0 -0.66253,0.06525 c 0,0.03262 0,0.233391 -0.0151,0.602298 -0.0151,0.368908 0,1.114253 -0.0176,2.238543 -0.0176,1.124291 0,1.814424 -0.0151,2.065382 z m -1.92484,-4.810859 c -0.0929,-0.02761 -0.64998,-0.08282 -1.67138,-0.160613 l -0.0929,-0.313697 1.97504,-0.06776 q 1.90226,-0.06776 2.89103,-0.06776 a 6.3492301,6.3492301 0 0 1 2.4619,0.441685 1.7165507,1.7165507 0 0 1 1.12429,1.611149 2.8759754,2.8759754 0 0 1 -0.8131,2.108045 5.3579471,5.3579471 0 0 1 -1.73914,1.227183 v 0.03262 a 5.4257057,5.4257057 0 0 1 1.46308,0.486858 3.9651318,3.9651318 0 0 1 1.06406,0.777969 3.0114925,3.0114925 0 0 1 0.6274,0.958659 2.8533892,2.8533892 0 0 1 -0.21834,2.529653 3.1219139,3.1219139 0 0 1 -1.21965,1.141858 3.9826989,3.9826989 0 0 1 -1.87967,0.446705 q -0.27857,0 -1.39282,-0.04517 -1.11425,-0.04517 -2.49452,-0.07278 c -0.36389,0.03764 -0.98375,0.06023 -1.86461,0.06023 l 0.0652,-0.336283 c 0.10289,0 0.38647,-0.03012 0.85576,-0.09035 a 4.2110704,4.2110704 0 0 0 0.84824,-0.155594 q 0.0477,0 0.0928,-1.618677 0.0452,-1.618677 0.0402,-3.711664 0,-1.947432 -0.0402,-3.465726 a 16.374991,16.374991 0 0 0 -0.0828,-1.716551"
         id="path1732"
         style="fill:#fffdff;fill-opacity:1;stroke-width:1" />
      <path
         class="cls-3"
         d="m 159.35694,-20.301141 c 0.43666,0.01506 1.11425,0.03262 2.03527,0.04768 0.92101,0.01506 1.40285,0.03011 1.45053,0.03513 l -0.2108,-0.627395 c -0.14054,-0.419099 -0.33378,-0.978735 -0.58975,-1.71906 -0.25598,-0.740325 -0.43667,-1.282394 -0.55462,-1.626206 l -0.33377,-0.976225 v 0 q -0.2334,0.609827 -0.95615,2.579845 -0.72276,1.970018 -0.83569,2.283715 z m -4.32651,6.007927 0.0652,-0.366398 0.69013,-0.110421 a 6.5525058,6.5525058 0 0 0 0.73029,-0.133008 15.48911,15.48911 0 0 0 0.67005,-1.538371 q 0.57219,-1.405363 1.29746,-3.280017 0.72526,-1.874654 1.36019,-3.546033 0.6299,-1.671378 0.80055,-2.153217 -0.0928,-0.100383 -1.28741,-0.230881 l -0.0351,-0.346321 q 0.48937,0.04768 2.39414,0.11795 2.07793,-0.07529 2.57734,-0.11795 l -0.0326,0.346321 a 11.252944,11.252944 0 0 0 -1.25479,0.230881 q 0.47431,1.505747 1.32506,3.887335 0.85075,2.381589 1.6237,4.288868 a 19.032633,19.032633 0 0 0 1.04398,2.346454 c 0,0 0.2359,0.04768 0.67759,0.115441 0.44168,0.06776 0.68511,0.09787 0.75287,0.09787 l 0.0703,0.361379 -2.84335,-0.06023 c -0.30115,0 -0.78299,0.01757 -1.43799,0.03012 -0.655,0.01255 -1.07912,0.02008 -1.26734,0.03012 l 0.0979,-0.361379 a 8.2816044,8.2816044 0 0 0 1.08413,-0.11795 l 0.58474,-0.09536 q -0.0929,-0.363889 -0.8382,-2.409194 -0.74535,-2.045305 -0.90094,-2.416723 -1.73161,0 -3.81456,0.18069 a 10.567829,10.567829 0 0 0 -0.38396,1.229693 c -0.19073,0.697662 -0.36891,1.397834 -0.52953,2.103025 a 8.3468534,8.3468534 0 0 0 -0.22586,1.312509 4.4118365,4.4118365 0 0 0 1.3878,0.208295 l 0.0954,0.361379 q -0.79051,-0.05772 -2.19337,-0.06023 -1.92484,0 -2.25862,0.09035 z"
         id="path1734"
         style="fill:#fffdff;fill-opacity:1;stroke-width:1" />
      <path
         class="cls-3"
         d="m 168.60724,-25.656579 -0.10289,-0.311187 c 0.20076,0 0.71021,0.01255 1.52331,0.03764 0.8131,0.0251 1.42795,0.04266 1.84454,0.05019 q 1.58103,-0.05019 2.33642,-0.08784 l -0.10039,0.346321 c -0.0376,0 -0.62739,0.0778 -1.7567,0.228372 -0.0201,0.195747 -0.0326,0.441685 -0.0452,0.735306 -0.0126,0.29362 -0.0176,0.835689 -0.0301,1.65883 -0.0126,0.823142 -0.0201,1.36521 -0.0276,1.656321 q 0.0828,6.022985 0.10289,6.444594 c 0.20829,0.04517 0.53956,0.09787 1.00383,0.155594 0.46427,0.05772 0.71021,0.09035 0.75287,0.09035 l 0.10039,0.328754 c -0.25096,0 -0.73531,-0.02008 -1.46309,-0.03012 l -1.61868,-0.03012 c -0.27856,0 -0.75287,0.01757 -1.40536,0.03012 -0.65249,0.01255 -1.06155,0.02008 -1.21463,0.03012 l 0.0653,-0.328754 c 0.0627,0 0.20829,-0.03012 0.41659,-0.05521 l 0.69013,-0.08784 c 0.25096,-0.03263 0.45423,-0.07027 0.62739,-0.102893 0,-0.105402 0.0151,-0.419099 0.0276,-0.918505 0.0126,-0.499406 0.0251,-1.096685 0.0301,-1.756704 0.005,-0.660019 0,-1.372739 0,-2.113064 q 0,-1.71906 -0.0226,-3.232335 -0.0226,-1.513275 -0.0452,-2.469424 c -0.10791,-0.03513 -0.68009,-0.122969 -1.70902,-0.250958 z"
         id="path1736"
         style="fill:#fffdff;fill-opacity:1;stroke-width:1" />
      <path
         class="cls-3"
         d="m 183.56181,-15.763826 a 17.943476,17.943476 0 0 0 0.58975,-1.834501 l 0.4191,-0.09787 a 13.012157,13.012157 0 0 0 -0.30868,1.42042 c -0.13803,0.752873 -0.25096,1.525823 -0.37644,2.308811 -0.12547,0.782988 -0.17567,1.350153 -0.18821,1.709022 l -0.37895,-0.09536 c 0,-0.188218 0,-0.501915 0.0301,-0.931053 0.0301,-0.429138 0.0351,-0.752873 0.0351,-1.003831 l -1.72659,-0.03262 -1.90477,-0.03513 -1.86712,-0.03263 -1.12429,0.03012 c -0.51447,0 -0.85326,0.0251 -1.01638,0.03513 l 0.0627,-0.328754 a 12.379744,12.379744 0 0 0 1.7567,-0.208295 q 0.0351,-0.873333 0.0326,-4.680362 v -2.471933 c 0,-0.878352 0,-1.626206 -0.0125,-2.243562 -0.0126,-0.617356 0,-1.003831 -0.0176,-1.151896 l -0.70017,-0.100383 -0.4442,-0.06023 c -0.13802,-0.02008 -0.33879,-0.04517 -0.6023,-0.07278 l -0.0627,-0.311188 c 0.32876,0.01506 0.81813,0.03011 1.46309,0.04517 0.64496,0.01506 1.11927,0.03012 1.42544,0.04266 q 0.52701,-0.02259 1.54339,-0.04266 c 0.67758,-0.01506 1.16695,-0.03011 1.46308,-0.04517 l -0.0678,0.311188 -0.94109,0.130498 c -0.31119,0.04517 -0.65751,0.08784 -1.03143,0.133007 0,0.05521 -0.0151,0.223353 -0.0251,0.501916 -0.01,0.278563 -0.0151,0.644961 -0.0226,1.084137 -0.008,0.439176 -0.0176,1.028926 -0.0301,1.756704 -0.0126,0.727777 -0.0176,1.254788 -0.0226,1.583543 q 0.0703,5.57628 0.10039,5.571261 a 9.8325231,9.8325231 0 0 0 2.43679,-0.268525 4.9338286,4.9338286 0 0 0 1.53085,-0.607317 z"
         id="path1738"
         style="fill:#fffdff;fill-opacity:1;stroke-width:1" />
      <path
         class="cls-3"
         d="m 187.29104,-25.372997 c -0.30617,-0.06776 -0.88839,-0.158103 -1.7567,-0.266015 l -0.0652,-0.313697 q 0.50191,0.01506 1.7567,0.03513 c 0.83067,0 1.44552,0.02008 1.83952,0.03011 q 3.9827,-0.05772 4.22111,-0.130498 c 0.23841,-0.07529 0.0201,-0.102893 0.0452,-0.283582 0.0251,-0.18069 0.0477,-0.341303 0.0728,-0.501916 l 0.394,-0.06776 c -0.0552,0.386475 -0.12547,1.043984 -0.2108,2.007661 -0.0853,0.963678 -0.14054,1.42544 -0.14305,1.432969 l 0.0301,-0.03262 -0.34883,-0.138026 v -1.12931 c -0.0577,-0.135517 -0.30868,-0.250958 -0.75288,-0.366398 a 11.586717,11.586717 0 0 0 -1.52582,-0.250958 14.219264,14.219264 0 0 0 -1.46308,-0.09034 q -0.0979,2.364022 -0.0954,4.705457 2.82328,-0.08533 3.40801,-0.281072 a 3.2122587,3.2122587 0 0 0 0.16312,-0.702682 l 0.36389,-0.04517 c -0.0251,0.120459 -0.0928,0.549597 -0.20829,1.287413 -0.11544,0.737815 -0.19575,1.340114 -0.25096,1.809405 l -0.31621,-0.138027 a 3.2448832,3.2448832 0 0 0 0.0326,-0.519482 5.322813,5.322813 0 0 1 0.0326,-0.564655 q -0.7328,-0.376437 -3.22481,-0.376437 a 4.8585413,4.8585413 0 0 1 -0.0351,0.604808 c 0.0125,0.53705 0.0351,1.156915 0.0577,1.857087 0.0226,0.700172 0.0402,1.287413 0.0527,1.756704 0.0126,0.469291 0.0201,0.875843 0.0201,1.192049 q 3.10936,-0.04517 3.9576,-0.587241 a 11.777445,11.777445 0 0 0 0.36138,-1.427949 l 0.38146,-0.100383 c -0.11544,0.612337 -0.22838,1.315018 -0.34131,2.113064 -0.11293,0.798045 -0.17818,1.352662 -0.20829,1.671378 l -0.34632,-0.06274 v -1.003831 a 7.5964899,7.5964899 0 0 0 -0.86079,-0.06525 q -0.73781,-0.03012 -1.58605,-0.0527 l -2.34144,-0.0527 c -1.5459,0.03764 -2.50957,0.07278 -2.91111,0.100383 l 0.0979,-0.366398 a 12.733594,12.733594 0 0 0 1.71404,-0.208295 c 0,-0.286092 0.0151,-0.707701 0.0301,-1.254789 0.0151,-0.547088 0.0276,-1.101704 0.0377,-1.636244 0.01,-0.53454 0.0201,-1.043984 0.0251,-1.505746 0.005,-0.461763 0,-1.003831 0,-1.570996 q 0,-2.409194 -0.10038,-4.517238 z"
         id="path1740"
         style="fill:#fffdff;fill-opacity:1;stroke-width:1" />
      <path
         class="cls-3"
         d="m 195.96163,-25.425698 c -0.1305,-0.03262 -0.33879,-0.07529 -0.61485,-0.122969 a 4.3541163,4.3541163 0 0 0 -0.53956,-0.07278 l -0.0652,-0.346321 c 0.25095,0.01506 0.62739,0.03011 1.15691,0.04517 0.52952,0.01506 0.92603,0.03011 1.18452,0.04266 1.71153,-0.04517 2.63757,-0.08533 2.77308,-0.11795 l -0.0627,0.346321 c -0.12798,0.03513 -0.25095,0.06274 -0.38396,0.08533 l -0.46427,0.06525 -0.59477,0.08282 q 1.50574,2.446838 3.1972,4.98653 0.43165,-0.629904 1.60111,-2.559769 1.16946,-1.929865 1.25479,-2.43429 a 5.4332344,5.4332344 0 0 1 -0.5496,-0.09536 c -0.25096,-0.0527 -0.48184,-0.09787 -0.71774,-0.135517 l -0.0652,-0.311187 q 0.30115,0.02259 0.94862,0.04517 c 0.42914,0.01506 0.75288,0.03011 0.97121,0.04266 q 2.03276,-0.08533 2.1482,-0.08784 l -0.0678,0.311187 a 10.816277,10.816277 0 0 0 -1.0992,0.230881 c -0.14806,0.08282 -0.50191,0.501916 -1.09919,1.302471 -0.59728,0.800555 -1.17197,1.626206 -1.75671,2.509577 a 19.46177,19.46177 0 0 0 -1.13934,1.849558 c 0,0 -0.0226,0.53705 -0.0678,1.598601 q 0.0728,3.109366 0.13301,3.292565 c 0.69515,0.08784 1.21714,0.155594 1.56095,0.208295 l 0.0301,0.331264 q -0.46177,0 -3.0115,-0.06023 c -0.25095,0 -0.61484,0.02008 -1.11676,0.03012 -0.50191,0.01004 -0.85827,0.02008 -1.06406,0.03011 l 0.0477,-0.331264 a 9.9128295,9.9128295 0 0 0 1.48567,-0.250958 c 0.0151,-0.100383 0.0301,-0.449214 0.0452,-1.043984 0.0151,-0.59477 0.0176,-1.207107 0.0176,-1.814424 0,-0.331264 0,-0.707701 -0.0151,-1.1268 -0.0151,-0.4191 -0.0151,-0.655 -0.0151,-0.700172 a 10.269189,10.269189 0 0 0 -0.75287,-1.254789 c -0.50192,-0.775459 -1.06658,-1.60111 -1.71154,-2.509577 -0.64496,-0.908467 -1.16444,-1.60111 -1.56848,-2.090478 z"
         id="path1742"
         style="fill:#fffdff;fill-opacity:1;stroke-width:1" />
      <path
         class="cls-3"
         d="m 166.01234,-4.2273001 q 0.4191,0 2.97636,0.067759 c 1.25478,-0.045172 2.03275,-0.067759 2.31132,-0.067759 l -0.0652,0.3287546 a 12.783786,12.783786 0 0 0 -1.44803,0.1957471 q -0.0427,0.1330075 -0.10038,1.8947307 0.0627,2.24356189 0.0652,2.4066844 a 20.862114,20.862114 0 0 1 -4.40682,0.5621453 10.339458,10.339458 0 0 1 -3.34276,-0.50191545 6.5499962,6.5499962 0 0 1 -2.34394,-1.32756628 5.4056291,5.4056291 0 0 1 -1.34263,-1.86210617 5.6239623,5.6239623 0 0 1 -0.44168,-2.1256118 6.0982724,6.0982724 0 0 1 0.4191,-2.1983896 5.8724104,5.8724104 0 0 1 1.31502,-2.0327574 6.4596515,6.4596515 0 0 1 2.37155,-1.4881793 9.6543431,9.6543431 0 0 1 3.46823,-0.564655 18.068955,18.068955 0 0 1 3.59623,0.41659 q 0.30115,-1.415401 0.30115,-1.528332 l 0.38145,-0.100384 q -0.0427,0.190728 -0.13301,1.688946 c -0.0602,1.0038307 -0.10038,1.8821827 -0.11293,2.640075 0.0226,0.2509577 0.0351,0.5194824 0.0326,0.7804784 l -0.39903,-0.195747 c 0,-0.092854 -0.0226,-0.3237354 -0.0677,-0.6951528 -0.0452,-0.3714174 -0.0828,-0.6273943 -0.11545,-0.7905168 a 3.4029865,3.4029865 0 0 0 -1.0239,-0.8557658 5.5511845,5.5511845 0 0 0 -1.44803,-0.559636 6.9088658,6.9088658 0 0 0 -1.62119,-0.198256 q -2.22097,0 -3.44815,1.2020871 a 4.7205145,4.7205145 0 0 0 -1.55092,3.4908218 6.4747089,6.4747089 0 0 0 2.9613,5.30775554 5.5888282,5.5888282 0 0 0 2.92617,0.91097649 5.7343837,5.7343837 0 0 0 1.43045,-0.19825659 c 0.4191,-0.11544055 0.6274,-0.19825659 0.6274,-0.25095771 q 0.0627,-0.83568918 0.0627,-1.89473073 0,-1.1042139 -0.0627,-1.9298648 l -0.75287,-0.080306 c -0.43918,-0.045172 -0.75288,-0.082816 -0.91349,-0.1154406 l -0.0979,-0.3312642 z"
         id="path1744"
         style="fill:#fffdff;fill-opacity:1;stroke-width:1" />
      <path
         class="cls-3"
         d="m 176.36936,-4.9726445 a 6.9163945,6.9163945 0 0 0 1.63625,-0.195747 3.352795,3.352795 0 0 0 1.46308,-0.7854976 2.6425847,2.6425847 0 0 0 0.79804,-1.6513017 2.3891174,2.3891174 0 0 0 -1.50574,-2.2586194 5.3353609,5.3353609 0 0 0 -2.25862,-0.4040418 h -0.0627 v 1.4480258 c 0,0.4492143 -0.0151,0.9185053 -0.0276,1.4103824 -0.0125,0.4918771 -0.0201,0.9084669 -0.0251,1.2547885 -0.005,0.3463217 0,0.7403253 0,1.1945587 z m 0,0.5270112 q 0,2.6099602 0.10038,4.79329229 a 5.7092879,5.7092879 0 0 0 0.98376,0.16312251 l 0.75287,0.0828161 0.0653,0.3287546 c -0.2108,0 -0.5772,-0.0200766 -1.12429,-0.0301149 -0.54709,-0.0100383 -0.96117,-0.0200766 -1.22969,-0.0301149 q -3.12192,0.0602299 -3.26245,0.0903448 l 0.0627,-0.39651318 a 7.3505513,7.3505513 0 0 0 1.02139,-0.0878352 c 0.3915,-0.0627394 0.62489,-0.10289266 0.69516,-0.12547885 q 0.0226,-0.38647488 0.0452,-1.92233607 0.0226,-1.5358612 0.0176,-3.2624503 0,-4.2512236 -0.0627,-5.3353606 c -0.33629,-0.05019 -0.916,-0.115441 -1.75671,-0.195747 l -0.0301,-0.321226 c 0.29111,0 0.90847,0 1.8621,-0.01255 0.95364,-0.01255 1.63374,-0.01506 2.05284,-0.01506 h 0.80808 q 3.0115,0 3.93753,0.697663 a 2.1532172,2.1532172 0 0 1 0.95615,1.6387538 q 0,0.8733328 -0.7855,1.8119146 a 4.9187711,4.9187711 0 0 1 -1.5735,1.317528 q 0.59727,1.0439841 1.48065,2.3765695 c 0.58975,0.8908999 1.16946,1.7165508 1.73913,2.4844814 a 14.676007,14.676007 0 0 0 1.37274,1.6538113 l -0.71272,0.1330076 a 8.7985773,8.7985773 0 0 1 -1.18452,-0.94862015 q -0.71523,-0.6575092 -1.56597,-1.56095695 -0.85075,-0.9034478 -1.63123,-1.7817998 l -1.46308,-1.6513017 a 13.217943,13.217943 0 0 1 -1.57602,0.095364 z"
         id="path1746"
         style="fill:#fffdff;fill-opacity:1;stroke-width:1" />
      <path
         class="cls-3"
         d="m 190.54345,-10.169979 a 4.6903996,4.6903996 0 0 0 -1.5986,0.7077011 4.2286374,4.2286374 0 0 0 -1.09919,1.1067235 4.68789,4.68789 0 0 0 -0.6274,1.36521 6.5675633,6.5675633 0 0 0 -0.22084,1.5458994 c 0.0126,0.095364 0.0251,0.2509578 0.0351,0.4366665 0.01,0.1857087 0.0226,0.3413024 0.0351,0.4341568 a 6.022985,6.022985 0 0 0 0.58975,1.9248456 5.7519507,5.7519507 0 0 0 2.40417,2.48699094 5.566242,5.566242 0 0 0 1.46309,0.54708781 l 0.80557,0.10038308 a 4.5925261,4.5925261 0 0 0 1.67138,-0.32122587 4.444461,4.444461 0 0 0 2.49201,-2.42927066 4.9990776,4.9990776 0 0 0 0.39149,-1.9951138 6.7482528,6.7482528 0 0 0 -0.64747,-2.8684466 5.8297476,5.8297476 0 0 0 -1.82948,-2.2987726 4.3490971,4.3490971 0 0 0 -2.67772,-0.8883902 4.7104762,4.7104762 0 0 0 -1.18703,0.135517 z m 1.08916,-0.752873 c 0.19575,-0.02008 0.48686,-0.03011 0.87082,-0.03011 a 8.0105701,8.0105701 0 0 1 2.64259,0.41659 5.8648817,5.8648817 0 0 1 2.02523,1.1744822 5.0944415,5.0944415 0 0 1 1.27486,1.756704 5.4859355,5.4859355 0 0 1 0.43918,2.1858416 6.7106092,6.7106092 0 0 1 -0.16563,1.5484091 6.1459543,6.1459543 0 0 1 -1.22468,2.522125 6.3467205,6.3467205 0 0 1 -2.30881,1.7717614 8.2590182,8.2590182 0 0 1 -6.40946,0.18068956 6.0606287,6.0606287 0 0 1 -2.16075,-1.43547811 5.8448051,5.8448051 0 0 1 -1.18703,-1.85206785 5.2525449,5.2525449 0 0 1 -0.38396,-1.8269722 0.8331796,0.8331796 0 0 0 0.0301,-0.2359002 6.9339615,6.9339615 0 0 1 0.50192,-2.2259949 5.8799391,5.8799391 0 0 1 1.22718,-1.8821828 6.2739427,6.2739427 0 0 1 2.02272,-1.3827768 8.7207804,8.7207804 0 0 1 2.81575,-0.685115 z"
         id="path1748"
         style="fill:#fffdff;fill-opacity:1;stroke-width:1" />
      <path
         class="cls-3"
         d="m 201.85914,-10.164959 c -0.16564,-0.04266 -0.37393,-0.08784 -0.62489,-0.127989 l -0.66002,-0.107912 -0.0678,-0.318716 c 0.22587,0.01506 0.6274,0.03012 1.16947,0.04266 0.54207,0.01255 0.96618,0.03012 1.23722,0.04768 0.32122,-0.01255 0.82063,-0.0251 1.48818,-0.04266 0.66755,-0.01757 1.11927,-0.03262 1.35517,-0.04768 l -0.10038,0.318716 c -0.17567,0.02761 -0.50192,0.07278 -1.00383,0.135517 a 2.7605348,2.7605348 0 0 0 -0.73531,0.130498 q -0.0678,2.1080452 -0.0652,3.094309 c 0,0.326245 0,0.8181221 0.0151,1.4630835 0.0151,0.6449613 0.0151,1.139348 0.0151,1.4731217 a 7.5513175,7.5513175 0 0 0 0.32624,2.4142132 3.3904387,3.3904387 0 0 0 0.83569,1.41289189 2.5999219,2.5999219 0 0 0 1.07912,0.6248847 4.2863577,4.2863577 0 0 0 1.18201,0.15810336 3.3226801,3.3226801 0 0 0 1.89975,-0.52701119 2.8132359,2.8132359 0 0 0 1.03394,-1.41540146 7.4559536,7.4559536 0 0 0 0.35636,-2.2034087 q 0.0326,-0.8055743 0.0326,-2.4167228 0,-1.9373935 -0.10038,-4.1106872 L 209.669,-10.2804 c -0.33879,-0.04266 -0.63994,-0.07278 -0.91098,-0.08533 l -0.12548,-0.35385 q 0.42914,0 1.48316,0.04015 l 1.33008,0.05019 1.86462,-0.09034 -0.0853,0.35636 a 9.8601284,9.8601284 0 0 0 -1.17197,0.228371 c 0,0.1405368 -0.0201,0.3990232 -0.0326,0.7754598 -0.0125,0.3764365 -0.0226,0.6575092 -0.0301,0.8356891 v 2.8684467 q 0,1.5057462 -0.0326,2.1732937 -0.10791,2.0076617 -1.28741,3.23233534 -1.1795,1.22467363 -3.22982,1.38528656 h -0.50192 a 6.5249005,6.5249005 0 0 1 -1.86462,-0.26601517 4.5172388,4.5172388 0 0 1 -1.5735,-0.82565087 3.9626222,3.9626222 0 0 1 -1.1017,-1.44300686 5.3554375,5.3554375 0 0 1 -0.44922,-2.0904777 q 0,-2.2059183 -0.0351,-3.1344618 0,-3.1369714 -0.0653,-3.5359938 z"
         id="path1750"
         style="fill:#fffdff;fill-opacity:1;stroke-width:1" />
      <path
         class="cls-3"
         d="m 214.72574,-10.749691 h 3.79197 a 14.806505,14.806505 0 0 1 3.0667,0.250958 3.8045189,3.8045189 0 0 1 1.77929,0.8105932 1.9875851,1.9875851 0 0 1 0.62489,1.4329685 3.3402471,3.3402471 0 0 1 -0.65249,2.0427958 4.7681965,4.7681965 0 0 1 -1.7015,1.4304589 7.5287313,7.5287313 0 0 1 -2.25862,0.7378157 l 0.0728,-0.4015324 a 3.1419905,3.1419905 0 0 0 1.67138,-0.8557658 3.0114925,3.0114925 0 0 0 0.75287,-1.2422406 4.409327,4.409327 0 0 0 0.17065,-1.1293097 2.7153624,2.7153624 0 0 0 -0.27605,-1.1719725 2.3464546,2.3464546 0 0 0 -1.04398,-1.0038309 q -0.77546,-0.4165902 -2.15573,-0.4190992 c 0,0.5019153 -0.0176,1.0464935 -0.0251,1.6362441 -0.008,0.5897506 -0.0201,1.0590416 -0.0251,1.400344 -0.005,0.3413025 -0.0151,0.7704402 -0.0226,1.2874131 -0.008,0.5169729 -0.0176,1.1242905 -0.0276,1.821953 0,0.2509577 0.0201,0.8005551 0.0376,1.6713783 0.0176,0.8708233 0.0427,1.80438596 0.0627,2.8082168 l 1.00383,0.11293097 c 0.46929,0.0527011 0.83569,0.0853256 1.08665,0.10038308 l 0.10289,0.36137911 c -0.33126,0 -0.88086,-0.0200766 -1.65381,-0.0276054 -0.77295,-0.007529 -1.35015,-0.0200766 -1.73412,-0.0326245 -0.29362,0 -0.75287,0.0200766 -1.33509,0.0326245 -0.58223,0.0125479 -1.02391,0.017567 -1.28491,0.0276054 l 0.0954,-0.36137911 c 0.68762,-0.0627394 1.25479,-0.13300758 1.71655,-0.2082949 q 0,-1.06406069 0.0351,-3.18716295 0.0351,-2.1231022 0.0326,-3.483293 0,-2.6024314 -0.0678,-3.8496915 a 11.764897,11.764897 0 0 0 -1.75671,-0.2359 l -0.0627,-0.341302 z"
         id="path1752"
         style="fill:#fffdff;fill-opacity:1;stroke-width:1" />
      <path
         class="cls-3"
         d="m 149.73773,-40.849559 c 0,0 11.07727,-3.224806 20.60614,-3.726722 17.48422,-0.938582 66.77984,2.833313 71.18917,30.955634 4.72553,30.067243 -51.72991,36.388868 -54.66863,34.719999 -0.10289,-0.06274 4.64021,-0.835689 5.53864,-1.074099 4.98402,-1.342624 19.73029,-5.287679 22.21227,-7.087046 0.46678,-0.343812 1.59609,-1.036455 1.01638,-0.838198 -2.71537,0.951129 -17.2659,6.587639 -32.73995,8.030646 -0.72276,0.06776 -3.80703,0.331264 -4.17844,0.173161 -0.4191,-0.173161 -0.91098,-0.419099 -4.01533,-1.287413 -0.0427,0 3.94506,-0.281073 7.57642,-0.767931 13.28319,-1.789328 22.89989,-3.20473 35.85683,-9.6016415 0.87836,-0.4341569 0.69767,-0.5872411 -0.33628,-0.097874 -16.13658,7.5864515 -47.56401,9.1825425 -48.82131,8.4648035 -1.00383,-0.572184 -6.97412,-3.229826 -5.72435,-2.715363 3.85722,1.573505 60.2951,2.037777 70.4087,-23.7581658 8.47735,-21.6200072 -38.21333,-40.4368162 -83.92026,-31.3897902"
         id="path1754"
         style="fill:#fffdff;fill-opacity:1;stroke-width:1" />
      <path
         class="cls-3"
         d="m 170.4568,27.069636 a 0.2961301,0.2961301 0 0 0 -0.25096,-0.150575 h -1.3627 a 0.10038308,0.10038308 0 0 0 -0.10038,0.09787 0.09034478,0.09034478 0 0 0 0.0151,0.05019 l 1.8069,3.134462 a 0.25095771,0.25095771 0 0 1 0,0.263506 l -0.89592,1.553428 a 0.26601517,0.26601517 0 0 1 -0.3664,0.09536 0.25095771,0.25095771 0 0 1 -0.0954,-0.09536 l -1.80188,-3.124423 a 0.03011493,0.03011493 0 0 0 -0.0401,0 v 0 l -0.80307,1.390305 a 0.09787351,0.09787351 0 0 0 0,0.09787 l 1.86211,3.224806 a 0.27856306,0.27856306 0 0 0 0.25096,0.138027 h 1.54841 a 0.29362052,0.29362052 0 0 0 0.25095,-0.148065 l 1.79686,-3.114385 a 0.29111094,0.29111094 0 0 0 0,-0.29864 z"
         id="path1756"
         style="fill:#fffdff;fill-opacity:1;stroke-width:1" />
      <path
         class="cls-3"
         d="m 166.24573,30.465094 a 0.25095771,0.25095771 0 0 1 0,-0.263506 l 0.89592,-1.555938 a 0.26601517,0.26601517 0 0 1 0.36389,-0.09787 0.30365883,0.30365883 0 0 1 0.0979,0.09787 l 1.80188,3.124424 a 0.0326245,0.0326245 0 0 0 0.0427,0 v 0 l 0.80055,-1.390306 a 0.09285435,0.09285435 0 0 0 0,-0.09536 l -1.8621,-3.227316 a 0.2735439,0.2735439 0 0 0 -0.25096,-0.138027 h -1.55092 a 0.30365883,0.30365883 0 0 0 -0.25096,0.150575 l -1.78431,3.116895 a 0.29111094,0.29111094 0 0 0 0,0.298639 l 1.79435,3.114386 a 0.29863967,0.29863967 0 0 0 0.25096,0.148065 h 1.3627 a 0.09787351,0.09787351 0 0 0 0.10038,-0.09787 0.10289266,0.10289266 0 0 0 -0.0126,-0.04768 z"
         id="path1758"
         style="fill:#fffdff;fill-opacity:1;stroke-width:1" />
      <path
         class="cls-3"
         d="m 184.6861,29.767431 h -2.23854 a 0.2082949,0.2082949 0 0 1 -0.2083,-0.208295 v -1.074099 a 0.2082949,0.2082949 0 0 1 0.2083,-0.208294 h 2.4644 a 0.21080448,0.21080448 0 0 0 0.2083,-0.210805 v -0.910976 a 0.2082949,0.2082949 0 0 0 -0.2083,-0.208295 h -4.03038 a 0.21080448,0.21080448 0 0 0 -0.2108,0.208295 v 6.371816 a 0.21331405,0.21331405 0 0 0 0.2108,0.210804 h 1.13433 a 0.21080448,0.21080448 0 0 0 0.20829,-0.210804 v -2.25862 a 0.2082949,0.2082949 0 0 1 0.2083,-0.210804 h 2.23854 a 0.21080448,0.21080448 0 0 0 0.21081,-0.208295 v -0.860785 a 0.21080448,0.21080448 0 0 0 -0.21081,-0.208295"
         id="path1760"
         style="fill:#fffdff;fill-opacity:1;stroke-width:1" />
      <path
         class="cls-3"
         d="m 188.58096,26.92408 h -2.2812 a 0.2082949,0.2082949 0 0 0 -0.2083,0.208295 l -0.0201,6.376836 a 0.21080448,0.21080448 0 0 0 0.2108,0.208295 h 1.1519 a 0.21080448,0.21080448 0 0 0 0.2108,-0.208295 v -2.170784 a 0.21080448,0.21080448 0 0 1 0.2083,-0.210805 h 0.655 c 0.82063,0 1.50574,-0.17567 1.96249,-0.521992 a 1.9599797,1.9599797 0 0 0 0.83819,-1.598601 c 0,-1.724079 -1.52833,-2.090477 -2.73794,-2.090477 m -0.18069,2.973849 h -0.52702 a 0.2082949,0.2082949 0 0 1 -0.20829,-0.208295 v -1.279885 a 0.2082949,0.2082949 0 0 1 0.20829,-0.208295 h 0.55713 c 0.52199,0 1.21213,0.09286 1.20711,0.83569 0,0.401532 -0.2083,0.878352 -1.25479,0.873332"
         id="path1762"
         style="fill:#fffdff;fill-opacity:1;stroke-width:1" />
      <path
         class="cls-3"
         d="m 177.91777,31.31584 -2.43931,-4.236166 a 0.34130249,0.34130249 0 0 0 -0.28358,-0.160613 h -1.35517 a 0.21080448,0.21080448 0 0 0 -0.21081,0.208295 v 6.399422 a 0.21331405,0.21331405 0 0 0 0.21081,0.210804 h 1.01638 a 0.21080448,0.21080448 0 0 0 0.20829,-0.210804 c 0,-0.988774 -0.0326,-4.201032 -0.0326,-4.201032 l 2.4644,4.266281 a 0.3287546,0.3287546 0 0 0 0.28358,0.163122 h 1.34012 a 0.21080448,0.21080448 0 0 0 0.2108,-0.208295 v -6.399421 a 0.21331405,0.21331405 0 0 0 -0.2108,-0.210805 h -1.00383 a 0.21331405,0.21331405 0 0 0 -0.21081,0.210805 c 0,0.94611 0.0376,4.178446 0.0376,4.178446"
         id="path1764"
         style="fill:#fffdff;fill-opacity:1;stroke-width:1" />
      <path
         class="cls-3"
         d="m 192.27004,27.425996 a 0.48685796,0.48685796 0 1 1 -0.50191,-0.471801 h 0.015 a 0.47932923,0.47932923 0 0 1 0.48686,0.469291 v 0 m -0.85325,0 a 0.36639826,0.36639826 0 0 0 0.35636,0.378946 h 0.0125 a 0.3613791,0.3613791 0 0 0 0.36138,-0.363888 0.02760535,0.02760535 0 0 0 0,-0.01255 0.36493428,0.36493428 0 1 0 -0.72777,-0.05521 0.20327575,0.20327575 0 0 0 0,0.05521 m 0.29111,0.250958 h -0.11795 v -0.469291 a 0.88839029,0.88839029 0 0 1 0.1832,-0.01506 0.31118756,0.31118756 0 0 1 0.16312,0.03513 0.1204597,0.1204597 0 0 1 0.0477,0.102893 0.11795012,0.11795012 0 0 1 -0.0979,0.107912 0.14053632,0.14053632 0 0 1 0.0853,0.11544 0.39149403,0.39149403 0 0 0 0.0351,0.12046 h -0.11795 a 0.50191542,0.50191542 0 0 1 -0.0376,-0.11795 c 0,-0.0527 -0.0376,-0.07278 -0.0979,-0.07278 h -0.0527 z m 0,-0.268525 h 0.0527 c 0.0602,0 0.11042,-0.02008 0.11042,-0.07027 0,-0.05019 -0.0326,-0.07027 -0.10038,-0.07027 h -0.0627 z"
         id="path1766"
         style="fill:#fffdff;fill-opacity:1;stroke-width:1" />
      <path
         class="cls-3"
         d="m 152.72413,31.338427 -0.65751,2.007661 h -0.84824 l 2.15573,-6.344211 h 0.98877 l 2.16576,6.344211 h -0.87584 l -0.67758,-2.007661 z m 2.08044,-0.649981 -0.61987,-1.826972 c -0.14305,-0.41408 -0.2359,-0.790517 -0.33126,-1.159425 h -0.0176 c -0.0954,0.376437 -0.19826,0.752874 -0.32123,1.149387 l -0.61986,1.83701 z"
         id="path1768"
         style="fill:#fffdff;fill-opacity:1;stroke-width:1" />
      <path
         class="cls-3"
         d="m 157.40198,30.01086 c 0,-0.4718 0,-0.858275 -0.0377,-1.234712 h 0.73531 l 0.0477,0.752874 h 0.0176 a 1.6763975,1.6763975 0 0 1 1.50575,-0.855766 c 0.63241,0 1.61114,0.376436 1.61114,1.939903 v 2.720381 h -0.82816 v -2.627527 c 0,-0.732796 -0.27354,-1.345133 -1.05402,-1.345133 a 1.2196545,1.2196545 0 0 0 -1.16946,1.232202 v 2.740458 h -0.82816 z"
         id="path1770"
         style="fill:#fffdff;fill-opacity:1;stroke-width:1" />
      <path
         class="cls-3"
         d="m 199.83391,33.085092 a 3.8998828,3.8998828 0 0 1 -1.62621,0.293621 c -1.73663,0 -3.04412,-1.096685 -3.04412,-3.116895 0,-1.929865 1.30749,-3.237354 3.21728,-3.237354 a 3.3377375,3.3377375 0 0 1 1.46309,0.273543 l -0.19073,0.649981 a 2.9211477,2.9211477 0 0 0 -1.25479,-0.250958 c -1.44552,0 -2.40418,0.923525 -2.40418,2.542202 0,1.505746 0.86832,2.476952 2.36654,2.476952 a 3.1846533,3.1846533 0 0 0 1.29996,-0.250957 z"
         id="path1772"
         style="fill:#fffdff;fill-opacity:1;stroke-width:1" />
      <path
         class="cls-3"
         d="m 204.71503,31.037277 c 0,1.638754 -1.13181,2.351474 -2.2034,2.351474 -1.19707,0 -2.1206,-0.878352 -2.1206,-2.276186 0,-1.48316 0.9687,-2.351474 2.19588,-2.351474 1.26985,0 2.12812,0.923524 2.12812,2.276186 m -3.5134,0.04768 c 0,0.968697 0.55963,1.698984 1.34513,1.698984 0.7855,0 1.34513,-0.722758 1.34513,-1.71906 0,-0.752873 -0.37643,-1.698984 -1.32756,-1.698984 -0.95113,0 -1.3627,0.878352 -1.3627,1.71906"
         id="path1774"
         style="fill:#fffdff;fill-opacity:1;stroke-width:1" />
      <path
         class="cls-3"
         d="m 205.73141,30.061052 c 0,-0.459253 0,-0.83318 -0.0376,-1.199578 h 0.70519 l 0.0351,0.71272 h 0.0276 a 1.530842,1.530842 0 0 1 1.39031,-0.813103 1.3049801,1.3049801 0 0 1 1.25478,0.88839 h 0.0201 a 1.821953,1.821953 0 0 1 0.50192,-0.577203 1.5057463,1.5057463 0 0 1 0.97873,-0.311187 c 0.58473,0 1.45556,0.383965 1.45556,1.919826 v 2.607451 h -0.78801 v -2.509577 c 0,-0.848237 -0.31119,-1.360191 -0.95866,-1.360191 a 1.0389649,1.0389649 0 0 0 -0.95113,0.730287 1.2924322,1.2924322 0 0 0 -0.0653,0.401532 v 2.735439 h -0.7855 v -2.650113 c 0,-0.702682 -0.31118,-1.214635 -0.92352,-1.214635 a 1.0966852,1.0966852 0 0 0 -1.00383,0.803064 1.1293097,1.1293097 0 0 0 -0.0652,0.394004 v 2.67019 h -0.7855 z"
         id="path1776"
         style="fill:#fffdff;fill-opacity:1;stroke-width:1" />
      <path
         class="cls-3"
         d="m 213.35802,30.30699 c 0,-0.567164 -0.0201,-1.023907 -0.0377,-1.445516 h 0.72276 l 0.0377,0.752873 h 0.0176 a 1.7416465,1.7416465 0 0 1 1.57351,-0.860785 c 1.06908,0 1.87214,0.905958 1.87214,2.25862 0,1.588562 -0.96869,2.376569 -2.00766,2.376569 a 1.5534282,1.5534282 0 0 1 -1.35768,-0.692643 h -0.0176 v 2.404175 h -0.79553 z m 0.79553,1.179502 a 1.8846924,1.8846924 0 0 0 0.0351,0.328754 1.2547885,1.2547885 0 0 0 1.2071,0.941092 c 0.85075,0 1.34514,-0.695153 1.34514,-1.709022 0,-0.885881 -0.46678,-1.646283 -1.31753,-1.646283 a 1.2823939,1.2823939 0 0 0 -1.21463,1.003831 1.3074897,1.3074897 0 0 0 -0.0552,0.331264 z"
         id="path1778"
         style="fill:#fffdff;fill-opacity:1;stroke-width:1" />
      <path
         class="cls-3"
         d="m 221.00972,33.288368 -0.0627,-0.559636 h -0.0276 a 1.643773,1.643773 0 0 1 -1.35266,0.660019 1.2547885,1.2547885 0 0 1 -1.35517,-1.272356 c 0,-1.069079 0.95113,-1.653811 2.66266,-1.643773 v -0.09285 c 0,-0.366398 -0.10038,-1.023907 -1.00383,-1.023907 a 2.2084278,2.2084278 0 0 0 -1.15189,0.328754 l -0.1832,-0.52952 a 2.7404582,2.7404582 0 0 1 1.45304,-0.394004 c 1.35266,0 1.68393,0.923524 1.68393,1.811915 v 1.653811 a 6.2061842,6.2061842 0 0 0 0.0728,1.061551 z m -0.11795,-2.258619 c -0.87835,-0.01757 -1.87466,0.135517 -1.87466,1.00383 a 0.71021032,0.71021032 0 0 0 0.75288,0.767931 1.1042139,1.1042139 0 0 0 1.07159,-0.740325 0.8331796,0.8331796 0 0 0 0.0452,-0.250958 z"
         id="path1780"
         style="fill:#fffdff;fill-opacity:1;stroke-width:1" />
      <path
         class="cls-3"
         d="m 222.96217,30.061052 c 0,-0.459253 0,-0.83318 -0.0351,-1.199578 h 0.71272 l 0.0452,0.732797 h 0.0301 a 1.6236964,1.6236964 0 0 1 1.46309,-0.83318 c 0.61233,0 1.56346,0.366398 1.56346,1.884692 v 2.642585 h -0.80557 v -2.55224 c 0,-0.71272 -0.26602,-1.30749 -1.02391,-1.30749 a 1.1468767,1.1468767 0 0 0 -1.07912,0.823142 1.1343288,1.1343288 0 0 0 -0.0552,0.376436 v 2.660152 h -0.81561 z"
         id="path1782"
         style="fill:#fffdff;fill-opacity:1;stroke-width:1" />
      <path
         class="cls-3"
         d="m 228.23228,28.861474 0.9687,2.614979 c 0.10038,0.293621 0.2108,0.639942 0.28358,0.905958 h 0.003 c 0.0803,-0.266016 0.17316,-0.602299 0.28107,-0.923525 l 0.87836,-2.597412 h 0.84823 l -1.2071,3.154538 c -0.5747,1.505747 -0.9687,2.296263 -1.5183,2.760535 a 2.1732938,2.1732938 0 0 1 -0.98626,0.521992 l -0.20077,-0.677586 a 2.1105543,2.1105543 0 0 0 0.70268,-0.391494 2.4443281,2.4443281 0 0 0 0.67759,-0.895919 0.61735597,0.61735597 0 0 0 0.0627,-0.193237 0.67758582,0.67758582 0 0 0 -0.0402,-0.193237 l -1.63624,-4.078063 z"
         id="path1784"
         style="fill:#fffdff;fill-opacity:1;stroke-width:1" />
      <path
         id="line1786"
         style="fill:#fffdff"
         class="cls-3"
         d="M 164.16278,-27.265217 H 137.00414" />
      <path
         id="line1788"
         style="fill:#fffdff;stroke:#ffffff;stroke-width:0.56px"
         class="cls-4"
         d="M 164.16278,-27.265217 H 137.00414" />
      <path
         id="line1790"
         style="fill:#fffdff"
         class="cls-3"
         d="M 245.56091,2.5937316 H 195.9265" />
      <path
         id="line1792"
         style="fill:#fffdff;stroke:#ffffff;stroke-width:0.56px"
         class="cls-4"
         d="M 245.56091,2.5937316 H 195.9265" />
    </g>
    <g
       aria-label="INSURANCE - BENEFITS - FINANCIAL SERVICES"
       transform="scale(1.0873847,0.91963774)"
       id="text12445"
       style="font-weight:bold;font-size:7.40839px;line-height:1.25;font-family:'Open Sans';-inkscape-font-specification:'Open Sans Bold';fill:#ffffff">
      <path
         d="m 55.266389,103.22919 v -5.28861 h 1.121388 v 5.28861 z"
         id="path55345" />
      <path
         d="m 62.410711,103.22919 h -1.425247 l -2.300652,-4.000823 h -0.03256 q 0.01447,0.249599 0.02532,0.502816 0.01085,0.253216 0.0217,0.506437 0.01085,0.24959 0.02171,0.50281 v 2.48876 h -1.002014 v -5.28861 h 1.414395 l 2.297035,3.96103 h 0.02532 q -0.0072,-0.24598 -0.01809,-0.48835 -0.01085,-0.24236 -0.0217,-0.48473 -0.0072,-0.24236 -0.01447,-0.48472 v -2.50323 h 1.009248 z"
         id="path55347" />
      <path
         d="m 66.863704,101.76053 q 0,0.47026 -0.227895,0.81753 -0.227895,0.34727 -0.665597,0.53537 -0.434086,0.1881 -1.056275,0.1881 -0.274921,0 -0.538989,-0.0362 -0.260451,-0.0362 -0.502816,-0.1049 -0.238747,-0.0724 -0.455789,-0.17725 v -1.04181 q 0.376207,0.1664 0.781353,0.30024 0.405147,0.13385 0.803058,0.13385 0.274921,0 0.44132,-0.0724 0.170017,-0.0724 0.245982,-0.19896 0.07596,-0.12661 0.07596,-0.28939 0,-0.19895 -0.133843,-0.34003 -0.133843,-0.14108 -0.368973,-0.26407 -0.231512,-0.12299 -0.524519,-0.26407 -0.184487,-0.0868 -0.401529,-0.20981 -0.217043,-0.1266 -0.412381,-0.30747 -0.195339,-0.18087 -0.321947,-0.437706 -0.122991,-0.260451 -0.122991,-0.622189 0,-0.473877 0.217043,-0.810293 0.217043,-0.336416 0.618571,-0.513668 0.405147,-0.180868 0.954988,-0.180868 0.412381,0 0.784971,0.09767 0.376208,0.09405 0.784971,0.27492 l -0.361738,0.871789 q -0.365355,-0.148313 -0.654745,-0.227895 -0.28939,-0.0832 -0.589633,-0.0832 -0.209807,0 -0.35812,0.06873 -0.148312,0.06511 -0.224277,0.188104 -0.07596,0.119373 -0.07596,0.278538 0,0.188104 0.108521,0.318329 0.112139,0.126608 0.332799,0.245982 0.224277,0.119377 0.557076,0.278537 0.405146,0.19172 0.690919,0.40153 0.28939,0.20619 0.444938,0.48834 0.155547,0.27854 0.155547,0.69454 z"
         id="path55349" />
      <path
         d="m 72.126989,97.94058 v 3.42204 q 0,0.54622 -0.242364,0.98754 -0.238747,0.43771 -0.727093,0.69454 -0.484729,0.25683 -1.222674,0.25683 -1.04904,0 -1.598881,-0.53537 -0.549842,-0.53537 -0.549842,-1.41801 v -3.40757 h 1.11777 v 3.23755 q 0,0.65475 0.267686,0.91882 0.267686,0.26407 0.792206,0.26407 0.368972,0 0.596867,-0.12661 0.231512,-0.12661 0.340034,-0.39068 0.108521,-0.26407 0.108521,-0.67283 v -3.23032 z"
         id="path55351" />
      <path
         d="m 74.963013,97.94058 q 0.719858,0 1.1865,0.173635 0.470259,0.173634 0.698154,0.524519 0.227895,0.350886 0.227895,0.886258 0,0.361738 -0.137461,0.633038 -0.13746,0.27131 -0.361737,0.45941 -0.224278,0.1881 -0.484729,0.30748 l 1.555472,2.30427 h -1.244378 l -1.262464,-2.02935 h -0.596868 v 2.02935 H 73.42201 v -5.28861 z m -0.07958,0.918814 h -0.340034 v 1.428866 h 0.361738 q 0.557076,0 0.795823,-0.18449 0.242364,-0.188101 0.242364,-0.549839 0,-0.376207 -0.260451,-0.535372 -0.256834,-0.159165 -0.79944,-0.159165 z"
         id="path55353" />
      <path
         d="m 81.550257,103.22919 -0.383442,-1.25885 h -1.928063 l -0.383442,1.25885 h -1.208204 l 1.866567,-5.310314 h 1.370986 l 1.873802,5.310314 z m -0.651128,-2.19937 -0.383442,-1.229907 q -0.03617,-0.122991 -0.09767,-0.314712 -0.05788,-0.195339 -0.119374,-0.394294 -0.05788,-0.202574 -0.09405,-0.350886 -0.03617,0.148312 -0.101286,0.368973 -0.0615,0.217042 -0.119374,0.412381 -0.05788,0.195338 -0.0832,0.278538 l -0.379825,1.229907 z"
         id="path55355" />
      <path
         d="m 88.115798,103.22919 h -1.425247 l -2.300653,-4.000823 h -0.03256 q 0.01447,0.249599 0.02532,0.502816 0.01085,0.253216 0.0217,0.506437 0.01085,0.24959 0.0217,0.50281 v 2.48876 h -1.002013 v -5.28861 h 1.414394 l 2.297035,3.96103 h 0.02532 q -0.0072,-0.24598 -0.01809,-0.48835 -0.01085,-0.24236 -0.0217,-0.48473 -0.0072,-0.24236 -0.01447,-0.48472 v -2.50323 h 1.009249 z"
         id="path55357" />
      <path
         d="m 91.693384,98.797899 q -0.321946,0 -0.571546,0.126608 -0.245981,0.122991 -0.415998,0.358121 -0.166399,0.235129 -0.253216,0.567928 -0.08682,0.332794 -0.08682,0.748794 0,0.5607 0.13746,0.95861 0.141078,0.39429 0.434085,0.6041 0.293008,0.20619 0.756032,0.20619 0.321947,0 0.643893,-0.0724 0.325565,-0.0723 0.705389,-0.20619 v 0.94052 q -0.350885,0.1447 -0.690919,0.20619 -0.340034,0.0651 -0.763267,0.0651 -0.817527,0 -1.345664,-0.33641 -0.52452,-0.34004 -0.777737,-0.94775 -0.253216,-0.61134 -0.253216,-1.42525 0,-0.600486 0.162782,-1.099684 0.162782,-0.499199 0.477494,-0.864554 0.314712,-0.365355 0.777736,-0.564311 0.463024,-0.198955 1.063509,-0.198955 0.394294,0 0.788589,0.101286 0.397911,0.09767 0.759649,0.271303 l -0.361738,0.91158 q -0.296625,-0.141078 -0.596867,-0.245982 -0.300243,-0.104904 -0.589633,-0.104904 z"
         id="path55359" />
      <path
         d="m 97.213505,103.22919 h -3.045832 v -5.28861 h 3.045832 v 0.918814 H 95.28906 v 1.161176 h 1.790602 v 0.91882 H 95.28906 v 1.36375 h 1.924445 z"
         id="path55361" />
      <path
         d="m 99.796313,101.69542 v -0.90435 h 1.942537 v 0.90435 z"
         id="path55363" />
      <path
         d="m 104.54955,97.94058 h 1.6459 q 1.05628,0 1.59888,0.296625 0.54261,0.296625 0.54261,1.041805 0,0.300243 -0.0977,0.542607 -0.0941,0.242363 -0.27492,0.397913 -0.18087,0.15555 -0.44132,0.20257 v 0.0362 q 0.26407,0.0543 0.4775,0.1881 0.21342,0.13022 0.34003,0.38344 0.13022,0.2496 0.13022,0.6656 0,0.48111 -0.23513,0.82476 -0.23512,0.34365 -0.67283,0.52814 -0.43408,0.18087 -1.03457,0.18087 h -1.9787 z m 1.12138,2.09446 h 0.65113 q 0.48835,0 0.67645,-0.151928 0.18811,-0.155547 0.18811,-0.455789 0,-0.30386 -0.22428,-0.434086 -0.22066,-0.133843 -0.70177,-0.133843 h -0.58964 z m 0,0.88988 v 1.37822 h 0.73071 q 0.50644,0 0.70539,-0.19534 0.19896,-0.19534 0.19896,-0.52452 0,-0.19534 -0.0868,-0.34365 -0.0868,-0.14831 -0.29301,-0.23151 -0.20257,-0.0832 -0.56069,-0.0832 z"
         id="path55365" />
      <path
         d="m 112.57289,103.22919 h -3.04583 v -5.28861 h 3.04583 v 0.918814 h -1.92444 v 1.161176 h 1.7906 v 0.91882 h -1.7906 v 1.36375 h 1.92444 z"
         id="path55367" />
      <path
         d="m 118.36793,103.22919 h -1.42525 l -2.30065,-4.000823 h -0.0326 q 0.0145,0.249599 0.0253,0.502816 0.0109,0.253216 0.0217,0.506437 0.0109,0.24959 0.0217,0.50281 v 2.48876 h -1.00201 v -5.28861 h 1.4144 l 2.29703,3.96103 h 0.0253 q -0.007,-0.24598 -0.0181,-0.48835 -0.0109,-0.24236 -0.0217,-0.48473 -0.007,-0.24236 -0.0145,-0.48472 v -2.50323 h 1.00925 z"
         id="path55369" />
      <path
         d="m 122.74496,103.22919 h -3.04583 v -5.28861 h 3.04583 v 0.918814 h -1.92444 v 1.161176 h 1.7906 v 0.91882 h -1.7906 v 1.36375 h 1.92444 z"
         id="path55371" />
      <path
         d="m 124.95156,103.22919 h -1.1033 v -5.28861 h 3.03136 v 0.918814 h -1.92806 v 1.363756 h 1.79422 v 0.91519 h -1.79422 z"
         id="path55373" />
      <path
         d="m 127.91419,103.22919 v -5.28861 h 1.12139 v 5.28861 z"
         id="path55375" />
      <path
         d="m 132.40698,103.22919 h -1.12139 v -4.355326 h -1.4361 V 97.94058 h 3.99359 v 0.933284 h -1.4361 z"
         id="path55377" />
      <path
         d="m 137.77878,101.76053 q 0,0.47026 -0.22789,0.81753 -0.2279,0.34727 -0.6656,0.53537 -0.43409,0.1881 -1.05628,0.1881 -0.27492,0 -0.53898,-0.0362 -0.26046,-0.0362 -0.50282,-0.1049 -0.23875,-0.0724 -0.45579,-0.17725 v -1.04181 q 0.37621,0.1664 0.78135,0.30024 0.40515,0.13385 0.80306,0.13385 0.27492,0 0.44132,-0.0724 0.17002,-0.0724 0.24598,-0.19896 0.076,-0.12661 0.076,-0.28939 0,-0.19895 -0.13384,-0.34003 -0.13385,-0.14108 -0.36898,-0.26407 -0.23151,-0.12299 -0.52452,-0.26407 -0.18448,-0.0868 -0.40153,-0.20981 -0.21704,-0.1266 -0.41238,-0.30747 -0.19534,-0.18087 -0.32194,-0.437706 -0.12299,-0.260451 -0.12299,-0.622189 0,-0.473877 0.21704,-0.810293 0.21704,-0.336416 0.61857,-0.513668 0.40515,-0.180868 0.95499,-0.180868 0.41238,0 0.78497,0.09767 0.37621,0.09405 0.78497,0.27492 l -0.36174,0.871789 q -0.36535,-0.148313 -0.65474,-0.227895 -0.28939,-0.0832 -0.58964,-0.0832 -0.2098,0 -0.35812,0.06873 -0.14831,0.06511 -0.22427,0.188104 -0.076,0.119373 -0.076,0.278538 0,0.188104 0.10852,0.318329 0.11214,0.126608 0.3328,0.245982 0.22428,0.119377 0.55708,0.278537 0.40514,0.19172 0.69092,0.40153 0.28939,0.20619 0.44493,0.48834 0.15555,0.27854 0.15555,0.69454 z"
         id="path55379" />
      <path
         d="m 140.21689,101.69542 v -0.90435 h 1.94253 v 0.90435 z"
         id="path55381" />
      <path
         d="m 146.07343,103.22919 h -1.10331 v -5.28861 h 3.03137 v 0.918814 h -1.92806 v 1.363756 h 1.79421 v 0.91519 h -1.79421 z"
         id="path55383" />
      <path
         d="m 149.03606,103.22919 v -5.28861 h 1.12139 v 5.28861 z"
         id="path55385" />
      <path
         d="m 156.18038,103.22919 h -1.42525 l -2.30065,-4.000823 h -0.0326 q 0.0145,0.249599 0.0253,0.502816 0.0109,0.253216 0.0217,0.506437 0.0109,0.24959 0.0217,0.50281 v 2.48876 h -1.00202 v -5.28861 h 1.4144 l 2.29703,3.96103 h 0.0253 q -0.007,-0.24598 -0.0181,-0.48835 -0.0109,-0.24236 -0.0217,-0.48473 -0.007,-0.24236 -0.0145,-0.48472 v -2.50323 h 1.00925 z"
         id="path55387" />
      <path
         d="m 160.74913,103.22919 -0.38344,-1.25885 h -1.92807 l -0.38344,1.25885 h -1.2082 l 1.86656,-5.310314 h 1.37099 l 1.8738,5.310314 z m -0.65113,-2.19937 -0.38344,-1.229907 q -0.0362,-0.122991 -0.0977,-0.314712 -0.0579,-0.195339 -0.11937,-0.394294 -0.0579,-0.202574 -0.0941,-0.350886 -0.0362,0.148312 -0.10128,0.368973 -0.0615,0.217042 -0.11938,0.412381 -0.0579,0.195338 -0.0832,0.278538 l -0.37982,1.229907 z"
         id="path55389" />
      <path
         d="m 167.31467,103.22919 h -1.42524 l -2.30066,-4.000823 h -0.0326 q 0.0145,0.249599 0.0253,0.502816 0.0109,0.253216 0.0217,0.506437 0.0109,0.24959 0.0217,0.50281 v 2.48876 h -1.00202 v -5.28861 h 1.4144 l 2.29703,3.96103 h 0.0253 q -0.007,-0.24598 -0.0181,-0.48835 -0.0109,-0.24236 -0.0217,-0.48473 -0.007,-0.24236 -0.0145,-0.48472 v -2.50323 h 1.00925 z"
         id="path55391" />
      <path
         d="m 170.89226,98.797899 q -0.32195,0 -0.57155,0.126608 -0.24598,0.122991 -0.41599,0.358121 -0.1664,0.235129 -0.25322,0.567928 -0.0868,0.332794 -0.0868,0.748794 0,0.5607 0.13746,0.95861 0.14108,0.39429 0.43409,0.6041 0.29301,0.20619 0.75603,0.20619 0.32195,0 0.64389,-0.0724 0.32557,-0.0723 0.70539,-0.20619 v 0.94052 q -0.35088,0.1447 -0.69092,0.20619 -0.34003,0.0651 -0.76326,0.0651 -0.81753,0 -1.34567,-0.33641 -0.52452,-0.34004 -0.77774,-0.94775 -0.25321,-0.61134 -0.25321,-1.42525 0,-0.600486 0.16278,-1.099684 0.16278,-0.499199 0.47749,-0.864554 0.31472,-0.365355 0.77774,-0.564311 0.46302,-0.198955 1.06351,-0.198955 0.39429,0 0.78859,0.101286 0.39791,0.09767 0.75965,0.271303 l -0.36174,0.91158 q -0.29663,-0.141078 -0.59687,-0.245982 -0.30024,-0.104904 -0.58963,-0.104904 z"
         id="path55393" />
      <path
         d="m 173.36655,103.22919 v -5.28861 h 1.12139 v 5.28861 z"
         id="path55395" />
      <path
         d="m 179.05668,103.22919 -0.38344,-1.25885 h -1.92806 l -0.38344,1.25885 h -1.20821 l 1.86657,-5.310314 h 1.37099 l 1.8738,5.310314 z m -0.65112,-2.19937 -0.38345,-1.229907 q -0.0362,-0.122991 -0.0977,-0.314712 -0.0579,-0.195339 -0.11938,-0.394294 -0.0579,-0.202574 -0.0941,-0.350886 -0.0362,0.148312 -0.10129,0.368973 -0.0615,0.217042 -0.11937,0.412381 -0.0579,0.195338 -0.0832,0.278538 l -0.37982,1.229907 z"
         id="path55397" />
      <path
         d="m 180.93048,103.22919 v -5.28861 h 1.12139 v 4.36256 h 2.1451 v 0.92605 z"
         id="path55399" />
      <path
         d="m 190.16204,101.76053 q 0,0.47026 -0.2279,0.81753 -0.22789,0.34727 -0.6656,0.53537 -0.43408,0.1881 -1.05627,0.1881 -0.27492,0 -0.53899,-0.0362 -0.26045,-0.0362 -0.50282,-0.1049 -0.23874,-0.0724 -0.45579,-0.17725 v -1.04181 q 0.37621,0.1664 0.78136,0.30024 0.40514,0.13385 0.80306,0.13385 0.27492,0 0.44132,-0.0724 0.17001,-0.0724 0.24598,-0.19896 0.076,-0.12661 0.076,-0.28939 0,-0.19895 -0.13384,-0.34003 -0.13384,-0.14108 -0.36897,-0.26407 -0.23151,-0.12299 -0.52452,-0.26407 -0.18449,-0.0868 -0.40153,-0.20981 -0.21704,-0.1266 -0.41238,-0.30747 -0.19534,-0.18087 -0.32195,-0.437706 -0.12299,-0.260451 -0.12299,-0.622189 0,-0.473877 0.21704,-0.810293 0.21705,-0.336416 0.61857,-0.513668 0.40515,-0.180868 0.95499,-0.180868 0.41238,0 0.78497,0.09767 0.37621,0.09405 0.78497,0.27492 l -0.36173,0.871789 q -0.36536,-0.148313 -0.65475,-0.227895 -0.28939,-0.0832 -0.58963,-0.0832 -0.20981,0 -0.35812,0.06873 -0.14831,0.06511 -0.22428,0.188104 -0.076,0.119373 -0.076,0.278538 0,0.188104 0.10852,0.318329 0.11214,0.126608 0.3328,0.245982 0.22427,0.119377 0.55707,0.278537 0.40515,0.19172 0.69092,0.40153 0.28939,0.20619 0.44494,0.48834 0.15555,0.27854 0.15555,0.69454 z"
         id="path55401" />
      <path
         d="m 194.16647,103.22919 h -3.04583 v -5.28861 h 3.04583 v 0.918814 h -1.92445 v 1.161176 h 1.79061 v 0.91882 h -1.79061 v 1.36375 h 1.92445 z"
         id="path55403" />
      <path
         d="m 196.81076,97.94058 q 0.71986,0 1.1865,0.173635 0.47026,0.173634 0.69816,0.524519 0.22789,0.350886 0.22789,0.886258 0,0.361738 -0.13746,0.633038 -0.13746,0.27131 -0.36173,0.45941 -0.22428,0.1881 -0.48473,0.30748 l 1.55547,2.30427 h -1.24438 l -1.26246,-2.02935 h -0.59687 v 2.02935 h -1.12139 v -5.28861 z m -0.0796,0.918814 h -0.34003 v 1.428866 h 0.36174 q 0.55707,0 0.79582,-0.18449 0.24236,-0.188101 0.24236,-0.549839 0,-0.376207 -0.26045,-0.535372 -0.25683,-0.159165 -0.79944,-0.159165 z"
         id="path55405" />
      <path
         d="m 204.3096,97.94058 -1.79784,5.28861 h -1.22268 l -1.79421,-5.28861 h 1.13223 l 0.99478,3.14712 q 0.0253,0.0796 0.0832,0.30024 0.0579,0.21704 0.11576,0.46303 0.0615,0.24236 0.0832,0.40152 0.0217,-0.15916 0.076,-0.40152 0.0579,-0.24237 0.11214,-0.45941 0.0579,-0.22066 0.0832,-0.30386 l 1.00202,-3.14712 z"
         id="path55407" />
      <path
         d="m 204.97519,103.22919 v -5.28861 h 1.12139 v 5.28861 z"
         id="path55409" />
      <path
         d="m 209.67417,98.797899 q -0.32194,0 -0.57154,0.126608 -0.24598,0.122991 -0.416,0.358121 -0.1664,0.235129 -0.25322,0.567928 -0.0868,0.332794 -0.0868,0.748794 0,0.5607 0.13746,0.95861 0.14107,0.39429 0.43408,0.6041 0.29301,0.20619 0.75603,0.20619 0.32195,0 0.6439,-0.0724 0.32556,-0.0723 0.70539,-0.20619 v 0.94052 q -0.35089,0.1447 -0.69092,0.20619 -0.34004,0.0651 -0.76327,0.0651 -0.81753,0 -1.34567,-0.33641 -0.52451,-0.34004 -0.77773,-0.94775 -0.25322,-0.61134 -0.25322,-1.42525 0,-0.600486 0.16278,-1.099684 0.16279,-0.499199 0.4775,-0.864554 0.31471,-0.365355 0.77773,-0.564311 0.46303,-0.198955 1.06351,-0.198955 0.3943,0 0.78859,0.101286 0.39791,0.09767 0.75965,0.271303 l -0.36174,0.91158 q -0.29662,-0.141078 -0.59686,-0.245982 -0.30025,-0.104904 -0.58964,-0.104904 z"
         id="path55411" />
      <path
         d="m 215.19429,103.22919 h -3.04584 v -5.28861 h 3.04584 v 0.918814 h -1.92445 v 1.161176 h 1.7906 v 0.91882 h -1.7906 v 1.36375 h 1.92445 z"
         id="path55413" />
      <path
         d="m 219.41939,101.76053 q 0,0.47026 -0.22789,0.81753 -0.2279,0.34727 -0.6656,0.53537 -0.43409,0.1881 -1.05628,0.1881 -0.27492,0 -0.53899,-0.0362 -0.26045,-0.0362 -0.50281,-0.1049 -0.23875,-0.0724 -0.45579,-0.17725 v -1.04181 q 0.37621,0.1664 0.78135,0.30024 0.40515,0.13385 0.80306,0.13385 0.27492,0 0.44132,-0.0724 0.17002,-0.0724 0.24598,-0.19896 0.076,-0.12661 0.076,-0.28939 0,-0.19895 -0.13385,-0.34003 -0.13384,-0.14108 -0.36897,-0.26407 -0.23151,-0.12299 -0.52452,-0.26407 -0.18448,-0.0868 -0.40153,-0.20981 -0.21704,-0.1266 -0.41238,-0.30747 -0.19534,-0.18087 -0.32194,-0.437706 -0.12299,-0.260451 -0.12299,-0.622189 0,-0.473877 0.21704,-0.810293 0.21704,-0.336416 0.61857,-0.513668 0.40515,-0.180868 0.95499,-0.180868 0.41238,0 0.78497,0.09767 0.37621,0.09405 0.78497,0.27492 l -0.36174,0.871789 q -0.36535,-0.148313 -0.65474,-0.227895 -0.28939,-0.0832 -0.58964,-0.0832 -0.2098,0 -0.35812,0.06873 -0.14831,0.06511 -0.22427,0.188104 -0.076,0.119373 -0.076,0.278538 0,0.188104 0.10852,0.318329 0.11214,0.126608 0.3328,0.245982 0.22428,0.119377 0.55708,0.278537 0.40514,0.19172 0.69092,0.40153 0.28939,0.20619 0.44493,0.48834 0.15555,0.27854 0.15555,0.69454 z"
         id="path55415" />
    </g>
  </g>
</svg>
