<?xml version="1.0" encoding="UTF-8" standalone="no"?>
<!-- Created with Inkscape (http://www.inkscape.org/) -->

<svg
   width="288"
   height="50"
   viewBox="0 0 76.200002 13.229167"
   version="1.1"
   id="svg91"
   xmlns="http://www.w3.org/2000/svg"
   xmlns:svg="http://www.w3.org/2000/svg">
  <defs
     id="defs88">
    <clipPath
       id="clip-path"
       transform="translate(-2.48 -2.59)">
      <rect
         class="cls-1"
         width="437.51999"
         height="324"
         id="rect4"
         x="0"
         y="0" />
    </clipPath>
    <clipPath
       id="clipPath105"
       transform="translate(-2.48 -2.59)">
      <rect
         class="cls-1"
         width="437.51999"
         height="324"
         id="rect103"
         x="0"
         y="0" />
    </clipPath>
  </defs>
  <g
     id="layer1"
     transform="translate(-2.6458332)">
    <g
       id="Layer_2"
       data-name="Layer 2"
       transform="matrix(0.15684857,0,0,0.15684857,0,-1.8716804e-4)">
      <g
         id="Layer_1-2"
         data-name="Layer 1"
         style="fill:#002e69;fill-opacity:1"
         transform="matrix(0.2760119,0,0,0.26458333,16.868711,8.7757573e-4)">
        <g
           id="Blue_-_RGB"
           data-name="Blue - RGB"
           style="fill:#002e69;fill-opacity:1">
          <g
             class="cls-2"
             clip-path="url(#clip-path)"
             id="g79"
             style="fill:#002e69;fill-opacity:1">
            <g
               class="cls-2"
               clip-path="url(#clip-path)"
               id="g77"
               style="fill:#002e69;fill-opacity:1">
              <path
                 class="cls-3"
                 d="m 33.12,48.72 c 0.3,-3.09 0.44,-6 0.44,-8.69 a 6.13,6.13 0 0 0 0.84,0.14 16.11,16.11 0 0 0 0.2,2.3 c 2.08,0.13 5.66,0.25 10.73,0.34 q 8.37,-0.14 11.76,-0.34 c 0,0 0.08,-0.39 0.23,-1 0.15,-0.61 0.24,-1 0.25,-1.16 A 3.25,3.25 0 0 1 58,40.23 l 0.43,-0.06 c -0.13,0.72 -0.26,1.57 -0.37,2.54 -0.11,0.97 -0.27,2.2 -0.45,3.74 -0.18,1.54 -0.29,2.38 -0.31,2.54 A 1.93,1.93 0 0 0 56.55,48.8 v -3.46 a 4.36,4.36 0 0 0 -2,-0.72 c -1.2,-0.24 -2.41,-0.42 -3.63,-0.55 -1.22,-0.13 -2.45,-0.2 -3.33,-0.2 0,0.27 -0.07,0.84 -0.09,1.57 -0.02,0.73 0,1.73 -0.06,2.87 -0.06,1.14 0,2.5 -0.06,4.1 q 0.14,12.14 0.21,12.88 c 1.93,0.22 3.38,0.37 4.36,0.44 l 0.15,0.75 C 51.49,66.4 49.47,66.37 46.04,66.36 h -4.13 c -1.4,0 -2.43,0.06 -3.14,0.08 l 0.21,-0.68 2.24,-0.21 c 1.22,-0.13 2,-0.22 2.18,-0.26 0.11,-4.26 0.17,-8.14 0.17,-11.66 q 0,-6.75 -0.17,-9.73 -6.61,0 -8.82,1.4 a 6.52,6.52 0 0 0 -0.43,1.57 c -0.17,0.83 -0.28,1.4 -0.33,1.67 a 2,2 0 0 1 -0.34,0.12 1.66,1.66 0 0 0 -0.38,0.11 z"
                 transform="translate(-2.48,-2.59)"
                 id="path9"
                 style="fill:#002e69;fill-opacity:1" />
              <path
                 class="cls-3"
                 d="m 60.13,43.08 -0.27,-0.79 5.83,0.29 c 3.33,-0.11 5.28,-0.21 5.83,-0.29 l -0.2,0.72 a 10.1,10.1 0 0 0 -1.66,0.23 l -1.79,0.32 c -0.14,2.25 -0.2,5.43 -0.2,9.54 h 8.91 c 1.15,-0.05 2.91,-0.07 5.27,-0.07 v -3.59 c 0,-2.18 -0.06,-4.17 -0.17,-5.95 A 14.73,14.73 0 0 1 80,43.25 c -0.75,-0.12 -1.34,-0.2 -1.67,-0.24 l -0.21,-0.72 a 5.09,5.09 0 0 0 1,0.13 c 0.51,0 1.14,0.06 1.9,0.08 l 2.71,0.08 3.25,-0.1 a 20.5,20.5 0 0 0 2.71,-0.13 l -0.2,0.64 c -0.64,0.12 -1.79,0.28 -3.43,0.48 -0.09,2 -0.19,5.71 -0.27,11.17 0,3 0.08,5.49 0.14,7.59 a 25.15,25.15 0 0 0 0.17,3.13 8.82,8.82 0 0 0 1.14,0.22 l 1.26,0.16 1,0.14 0.21,0.7 c -0.48,0 -1.45,-0.07 -2.91,-0.1 l -3.23,-0.09 c -0.62,0 -1.55,0.06 -2.8,0.09 -1.25,0.03 -2.15,0.06 -2.69,0.1 l 0.21,-0.7 c 1.12,-0.11 2.23,-0.28 3.33,-0.5 0.11,-0.94 0.16,-4.63 0.17,-11.09 q -1.66,0 -7.78,0.33 c -4.09,0.24 -6.25,0.38 -6.48,0.45 0,0.7 0,1.8 0,3.27 0,1.47 0,2.73 0.08,3.77 0.08,1.04 0.1,2.15 0.21,3.33 0.38,0.08 1.5,0.23 3.33,0.45 l 0.14,0.76 a 11.05,11.05 0 0 0 -1.28,-0.11 c -0.57,0 -1.23,-0.05 -2,-0.06 l -2.63,-0.07 -3,0.08 c -1.4,0 -2.29,0.07 -2.69,0.1 l 0.2,-0.69 a 30.71,30.71 0 0 0 3.59,-0.51 q 0.06,-3.49 0.07,-10.09 0,-7.9 -0.07,-11.71 A 16.66,16.66 0 0 0 60,43.12 Z"
                 transform="translate(-2.48,-2.59)"
                 id="path11"
                 style="fill:#002e69;fill-opacity:1" />
              <path
                 class="cls-3"
                 d="M 96.71,43.67 C 96.08,43.53 94.88,43.34 93.12,43.12 L 93,42.46 l 3.61,0.06 c 1.72,0 3,0 3.8,0.07 q 8.27,-0.12 8.76,-0.27 c 0,0 0,-0.22 0.09,-0.59 0.09,-0.37 0.1,-0.71 0.15,-1 l 0.83,-0.14 c -0.1,0.8 -0.25,2.18 -0.45,4.16 -0.2,1.98 -0.29,3 -0.3,3 l 0.07,-0.07 -0.72,-0.27 V 45 q -0.18,-0.42 -1.56,-0.75 a 24.08,24.08 0 0 0 -3.17,-0.52 q -1.5,-0.16 -3,-0.18 c -0.13,3.24 -0.21,6.46 -0.21,9.67 a 37.26,37.26 0 0 0 7.08,-0.58 7,7 0 0 0 0.34,-1.44 l 0.76,-0.1 c -0.06,0.25 -0.2,1.15 -0.41,2.68 l -0.57,3.79 -0.65,-0.29 a 5.6,5.6 0 0 0 0.07,-1.08 8.37,8.37 0 0 1 0.06,-1.16 q -1.5,-0.8 -6.66,-0.79 a 7.43,7.43 0 0 1 -0.07,1.25 c 0,1.12 0.07,2.4 0.12,3.84 0.05,1.44 0.03,2.66 0.03,3.66 0,1 0,1.8 0,2.49 q 6.45,-0.09 8.2,-1.21 a 25.15,25.15 0 0 0 0.75,-3 l 0.79,-0.21 c -0.23,1.28 -0.47,2.74 -0.71,4.39 -0.24,1.65 -0.36,2.81 -0.42,3.48 l -0.72,-0.14 v -2.08 a 17.74,17.74 0 0 0 -1.79,-0.14 l -3.33,-0.1 c -1.17,0 -2.79,-0.07 -4.87,-0.1 -3.19,0.08 -5.2,0.15 -6,0.2 l 0.2,-0.76 a 24.53,24.53 0 0 0 3.53,-0.46 c 0,-0.59 0,-1.46 0.06,-2.61 0.06,-1.15 0.06,-2.27 0.08,-3.38 0.02,-1.11 0,-2.15 0,-3.12 0,-0.97 0,-2.06 0,-3.24 0,-3.33 -0.07,-6.43 -0.21,-9.34 z"
                 transform="translate(-2.48,-2.59)"
                 id="path13"
                 style="fill:#002e69;fill-opacity:1" />
              <path
                 class="cls-3"
                 d="m 51.28,120.4 a 12.11,12.11 0 0 0 5.51,1.6 10,10 0 0 0 4.23,-0.9 7.28,7.28 0 0 0 3.16,-2.73 8.11,8.11 0 0 0 1.19,-4.53 11.89,11.89 0 0 0 -2,-6.61 14,14 0 0 0 -5.37,-4.84 15.85,15.85 0 0 0 -7.42,-1.77 v 5.56 c 0,2.55 0.09,5.28 0.2,8.18 a 45.25,45.25 0 0 0 0.48,6 z M 50.55,98.6 a 13,13 0 0 0 7,-1.67 8.87,8.87 0 0 0 3.62,-4 11.85,11.85 0 0 0 1,-4.69 A 10.31,10.31 0 0 0 61.08,83.49 8.67,8.67 0 0 0 58,80 8.48,8.48 0 0 0 53.38,78.72 16.63,16.63 0 0 0 50.74,78.98 c 0,0.13 0,0.93 -0.06,2.4 -0.06,1.47 0,4.44 -0.07,8.92 -0.07,4.48 0,7.23 -0.06,8.23 z M 42.88,79.43 C 42.51,79.32 40.29,79.1 36.22,78.79 l -0.37,-1.25 7.87,-0.27 Q 51.3,77 55.24,77 a 25.3,25.3 0 0 1 9.81,1.76 6.84,6.84 0 0 1 4.48,6.42 11.46,11.46 0 0 1 -3.24,8.4 21.35,21.35 0 0 1 -6.93,4.89 v 0.13 a 21.62,21.62 0 0 1 5.83,1.94 15.8,15.8 0 0 1 4.24,3.1 12,12 0 0 1 2.5,3.82 11.37,11.37 0 0 1 -0.87,10.08 12.44,12.44 0 0 1 -4.86,4.55 15.87,15.87 0 0 1 -7.49,1.78 q -1.11,0 -5.55,-0.18 -4.44,-0.18 -9.94,-0.29 c -1.45,0.15 -3.92,0.24 -7.43,0.24 l 0.26,-1.34 c 0.41,0 1.54,-0.12 3.41,-0.36 a 16.78,16.78 0 0 0 3.38,-0.62 q 0.19,0 0.37,-6.45 0.18,-6.45 0.16,-14.79 0,-7.76 -0.16,-13.81 a 65.25,65.25 0 0 0 -0.33,-6.84"
                 transform="translate(-2.48,-2.59)"
                 id="path15"
                 style="fill:#002e69;fill-opacity:1" />
              <path
                 class="cls-3"
                 d="m 91.55,99.82 c 1.74,0.06 4.44,0.13 8.11,0.19 3.67,0.06 5.59,0.12 5.78,0.14 l -0.84,-2.5 c -0.56,-1.67 -1.33,-3.9 -2.35,-6.85 -1.02,-2.95 -1.74,-5.11 -2.21,-6.48 l -1.33,-3.89 v 0 q -0.93,2.43 -3.81,10.28 -2.88,7.85 -3.33,9.1 z m -17.24,23.94 0.26,-1.46 2.75,-0.44 a 26.11,26.11 0 0 0 2.91,-0.53 61.72,61.72 0 0 0 2.67,-6.13 q 2.28,-5.6 5.17,-13.07 Q 90.96,94.66 93.49,88 96,81.34 96.68,79.42 96.31,79.02 91.55,78.5 l -0.14,-1.38 q 1.95,0.19 9.54,0.47 8.28,-0.3 10.27,-0.47 l -0.13,1.38 a 44.84,44.84 0 0 0 -5,0.92 q 1.89,6 5.28,15.49 3.39,9.49 6.47,17.09 a 75.84,75.84 0 0 0 4.16,9.35 c 0,0 0.94,0.19 2.7,0.46 1.76,0.27 2.73,0.39 3,0.39 l 0.28,1.44 -11.33,-0.24 c -1.2,0 -3.12,0.07 -5.73,0.12 -2.61,0.05 -4.3,0.08 -5.05,0.12 l 0.39,-1.44 a 33,33 0 0 0 4.32,-0.47 l 2.33,-0.38 q -0.37,-1.45 -3.34,-9.6 -2.97,-8.15 -3.59,-9.63 -6.9,0 -15.2,0.72 a 42.11,42.11 0 0 0 -1.53,4.9 c -0.76,2.78 -1.47,5.57 -2.11,8.38 a 33.26,33.26 0 0 0 -0.9,5.23 17.58,17.58 0 0 0 5.53,0.83 l 0.38,1.44 q -3.15,-0.23 -8.74,-0.24 -7.67,0 -9,0.36 z"
                 transform="translate(-2.48,-2.59)"
                 id="path17"
                 style="fill:#002e69;fill-opacity:1" />
              <path
                 class="cls-3"
                 d="M 128.41,78.48 128,77.24 c 0.8,0 2.83,0.05 6.07,0.15 3.24,0.1 5.69,0.17 7.35,0.2 q 6.3,-0.2 9.31,-0.35 l -0.4,1.38 c -0.15,0 -2.5,0.31 -7,0.91 -0.08,0.78 -0.13,1.76 -0.18,2.93 -0.05,1.17 -0.07,3.33 -0.12,6.61 -0.05,3.28 -0.08,5.44 -0.11,6.6 q 0.33,24 0.41,25.68 c 0.83,0.18 2.15,0.39 4,0.62 1.85,0.23 2.83,0.36 3,0.36 l 0.4,1.31 c -1,0 -2.93,-0.08 -5.83,-0.12 l -6.45,-0.12 c -1.11,0 -3,0.07 -5.6,0.12 -2.6,0.05 -4.23,0.08 -4.84,0.12 l 0.26,-1.31 c 0.25,0 0.83,-0.12 1.66,-0.22 l 2.75,-0.35 c 1,-0.13 1.81,-0.28 2.5,-0.41 0,-0.42 0.06,-1.67 0.11,-3.66 0.05,-1.99 0.1,-4.37 0.12,-7 0.02,-2.63 0,-5.47 0,-8.42 q 0,-6.85 -0.09,-12.88 -0.09,-6.03 -0.18,-9.84 c -0.43,-0.14 -2.71,-0.49 -6.81,-1 z"
                 transform="translate(-2.48,-2.59)"
                 id="path19"
                 style="fill:#002e69;fill-opacity:1" />
              <path
                 class="cls-3"
                 d="m 188,117.9 a 71.5,71.5 0 0 0 2.35,-7.31 l 1.67,-0.39 a 51.85,51.85 0 0 0 -1.23,5.66 c -0.55,3 -1,6.08 -1.5,9.2 -0.5,3.12 -0.7,5.38 -0.75,6.81 l -1.51,-0.38 c 0,-0.75 0,-2 0.12,-3.71 0.12,-1.71 0.14,-3 0.14,-4 l -6.88,-0.13 -7.59,-0.14 -7.44,-0.13 -4.48,0.12 c -2.05,0 -3.4,0.1 -4.05,0.14 l 0.25,-1.31 a 49.33,49.33 0 0 0 7,-0.83 q 0.14,-3.48 0.13,-18.65 V 93 c 0,-3.5 0,-6.48 -0.05,-8.94 -0.05,-2.46 0,-4 -0.07,-4.59 l -2.79,-0.4 -1.77,-0.24 C 159,78.75 158.2,78.65 157.15,78.54 L 156.9,77.3 c 1.31,0.06 3.26,0.12 5.83,0.18 2.57,0.06 4.46,0.12 5.68,0.17 q 2.1,-0.09 6.15,-0.17 c 2.7,-0.06 4.65,-0.12 5.83,-0.18 l -0.27,1.24 -3.75,0.52 c -1.24,0.18 -2.62,0.35 -4.11,0.53 0,0.22 -0.06,0.89 -0.1,2 -0.04,1.11 -0.06,2.57 -0.09,4.32 -0.03,1.75 -0.07,4.1 -0.12,7 -0.05,2.9 -0.07,5 -0.09,6.31 q 0.28,22.22 0.4,22.2 a 39.18,39.18 0 0 0 9.71,-1.07 19.66,19.66 0 0 0 6.1,-2.42 z"
                 transform="translate(-2.48,-2.59)"
                 id="path21"
                 style="fill:#002e69;fill-opacity:1" />
              <path
                 class="cls-3"
                 d="m 202.86,79.61 c -1.22,-0.27 -3.54,-0.63 -7,-1.06 L 195.6,77.3 q 2,0.06 7,0.14 c 3.31,0 5.76,0.08 7.33,0.12 q 15.87,-0.23 16.82,-0.52 c 0.95,-0.3 0.08,-0.41 0.18,-1.13 0.1,-0.72 0.19,-1.36 0.29,-2 l 1.57,-0.27 c -0.22,1.54 -0.5,4.16 -0.84,8 -0.34,3.84 -0.56,5.68 -0.57,5.71 l 0.12,-0.13 -1.39,-0.55 v -4.5 c -0.23,-0.54 -1.23,-1 -3,-1.46 a 46.17,46.17 0 0 0 -6.08,-1 56.66,56.66 0 0 0 -5.83,-0.36 q -0.39,9.42 -0.38,18.75 11.25,-0.34 13.58,-1.12 a 12.8,12.8 0 0 0 0.65,-2.8 L 226.5,94 c -0.1,0.48 -0.37,2.19 -0.83,5.13 -0.46,2.94 -0.78,5.34 -1,7.21 l -1.26,-0.55 a 12.93,12.93 0 0 0 0.13,-2.07 21.21,21.21 0 0 1 0.13,-2.25 q -2.92,-1.5 -12.85,-1.5 a 19.36,19.36 0 0 1 -0.14,2.41 c 0.05,2.14 0.14,4.61 0.23,7.4 0.09,2.79 0.16,5.13 0.21,7 0.05,1.87 0.08,3.49 0.08,4.75 q 12.39,-0.18 15.77,-2.34 a 46.93,46.93 0 0 0 1.44,-5.69 l 1.52,-0.4 c -0.46,2.44 -0.91,5.24 -1.36,8.42 -0.45,3.18 -0.71,5.39 -0.83,6.66 l -1.38,-0.25 v -4 a 30.27,30.27 0 0 0 -3.43,-0.26 q -2.94,-0.12 -6.32,-0.21 l -9.33,-0.21 c -6.16,0.15 -10,0.29 -11.6,0.4 l 0.39,-1.46 a 50.74,50.74 0 0 0 6.83,-0.83 c 0,-1.14 0.06,-2.82 0.12,-5 0.06,-2.18 0.11,-4.39 0.15,-6.52 0.04,-2.13 0.08,-4.16 0.1,-6 0.02,-1.84 0,-4 0,-6.26 q 0,-9.6 -0.4,-18 z"
                 transform="translate(-2.48,-2.59)"
                 id="path23"
                 style="fill:#002e69;fill-opacity:1" />
              <path
                 class="cls-3"
                 d="m 237.41,79.4 c -0.52,-0.13 -1.35,-0.3 -2.45,-0.49 a 17.35,17.35 0 0 0 -2.15,-0.29 l -0.26,-1.38 c 1,0.06 2.5,0.12 4.61,0.18 2.11,0.06 3.69,0.12 4.72,0.17 6.82,-0.18 10.51,-0.34 11.05,-0.47 l -0.25,1.38 c -0.51,0.14 -1,0.25 -1.53,0.34 l -1.85,0.26 -2.37,0.33 q 6,9.75 12.74,19.87 1.72,-2.51 6.38,-10.2 4.66,-7.69 5,-9.7 a 21.65,21.65 0 0 1 -2.19,-0.38 c -1,-0.21 -1.92,-0.39 -2.86,-0.54 l -0.26,-1.24 q 1.2,0.09 3.78,0.18 c 1.71,0.06 3,0.12 3.87,0.17 q 8.1,-0.34 8.56,-0.35 l -0.27,1.24 a 43.1,43.1 0 0 0 -4.38,0.92 c -0.59,0.33 -2,2 -4.38,5.19 -2.38,3.19 -4.67,6.48 -7,10 a 77.55,77.55 0 0 0 -4.54,7.37 c 0,0 -0.09,2.14 -0.27,6.37 q 0.29,12.39 0.53,13.12 c 2.77,0.35 4.85,0.62 6.22,0.83 l 0.12,1.32 q -1.84,0 -12,-0.24 c -1,0 -2.45,0.08 -4.45,0.12 -2,0.04 -3.42,0.08 -4.24,0.12 l 0.19,-1.32 a 39.5,39.5 0 0 0 5.92,-1 c 0.06,-0.4 0.12,-1.79 0.18,-4.16 0.06,-2.37 0.07,-4.81 0.07,-7.23 0,-1.32 0,-2.82 -0.06,-4.49 -0.06,-1.67 -0.06,-2.61 -0.06,-2.79 a 40.92,40.92 0 0 0 -3,-5 c -2,-3.09 -4.25,-6.38 -6.82,-10 -2.57,-3.62 -4.64,-6.38 -6.25,-8.33 z"
                 transform="translate(-2.48,-2.59)"
                 id="path25"
                 style="fill:#002e69;fill-opacity:1" />
              <path
                 class="cls-3"
                 d="m 118.07,163.87 q 1.67,0 11.86,0.27 c 5,-0.18 8.1,-0.27 9.21,-0.27 l -0.26,1.31 a 50.94,50.94 0 0 0 -5.77,0.78 q -0.17,0.53 -0.4,7.55 0.25,8.94 0.26,9.59 a 83.13,83.13 0 0 1 -17.56,2.24 41.2,41.2 0 0 1 -13.32,-2 26.1,26.1 0 0 1 -9.34,-5.29 21.54,21.54 0 0 1 -5.35,-7.42 22.41,22.41 0 0 1 -1.76,-8.47 24.3,24.3 0 0 1 1.67,-8.76 23.4,23.4 0 0 1 5.24,-8.1 25.74,25.74 0 0 1 9.45,-5.93 38.47,38.47 0 0 1 13.82,-2.25 72,72 0 0 1 14.33,1.66 q 1.2,-5.64 1.2,-6.09 l 1.52,-0.4 q -0.17,0.76 -0.53,6.73 c -0.24,4 -0.4,7.5 -0.45,10.52 0.09,1 0.14,2.07 0.13,3.11 l -1.59,-0.78 c 0,-0.37 -0.09,-1.29 -0.27,-2.77 -0.18,-1.48 -0.33,-2.5 -0.46,-3.15 a 13.56,13.56 0 0 0 -4.08,-3.41 22.12,22.12 0 0 0 -5.77,-2.23 27.53,27.53 0 0 0 -6.46,-0.79 q -8.85,0 -13.74,4.79 a 18.81,18.81 0 0 0 -6.18,13.91 25.8,25.8 0 0 0 11.8,21.15 22.27,22.27 0 0 0 11.66,3.63 22.85,22.85 0 0 0 5.7,-0.79 c 1.67,-0.46 2.5,-0.79 2.5,-1 q 0.25,-3.33 0.25,-7.55 0,-4.4 -0.25,-7.69 l -3,-0.32 c -1.75,-0.18 -3,-0.33 -3.64,-0.46 l -0.39,-1.32 z"
                 transform="translate(-2.48,-2.59)"
                 id="path27"
                 style="fill:#002e69;fill-opacity:1" />
              <path
                 class="cls-3"
                 d="m 159.34,160.9 a 27.56,27.56 0 0 0 6.52,-0.78 13.36,13.36 0 0 0 5.83,-3.13 10.53,10.53 0 0 0 3.18,-6.58 9.52,9.52 0 0 0 -6,-9 21.26,21.26 0 0 0 -9,-1.61 h -0.25 v 5.77 c 0,1.79 -0.06,3.66 -0.11,5.62 -0.05,1.96 -0.08,3.62 -0.1,5 -0.02,1.38 0,2.95 0,4.76 z m 0,2.1 q 0,10.4 0.4,19.1 a 22.75,22.75 0 0 0 3.92,0.65 l 3,0.33 0.26,1.31 c -0.84,0 -2.3,-0.08 -4.48,-0.12 -2.18,-0.04 -3.83,-0.08 -4.9,-0.12 q -12.44,0.24 -13,0.36 l 0.25,-1.58 a 29.29,29.29 0 0 0 4.07,-0.35 c 1.56,-0.25 2.49,-0.41 2.77,-0.5 q 0.09,-1.54 0.18,-7.66 0.09,-6.12 0.07,-13 0,-16.94 -0.25,-21.26 c -1.34,-0.2 -3.65,-0.46 -7,-0.78 l -0.12,-1.28 c 1.16,0 3.62,0 7.42,-0.05 3.8,-0.05 6.51,-0.06 8.18,-0.06 h 3.22 q 12,0 15.69,2.78 a 8.58,8.58 0 0 1 3.81,6.53 q 0,3.48 -3.13,7.22 a 19.6,19.6 0 0 1 -6.27,5.25 q 2.38,4.16 5.9,9.47 c 2.35,3.55 4.66,6.84 6.93,9.9 a 58.48,58.48 0 0 0 5.47,6.59 l -2.84,0.53 a 35.06,35.06 0 0 1 -4.72,-3.78 q -2.85,-2.62 -6.24,-6.22 -3.39,-3.6 -6.5,-7.1 l -5.83,-6.58 a 52.67,52.67 0 0 1 -6.28,0.38 z"
                 transform="translate(-2.48,-2.59)"
                 id="path29"
                 style="fill:#002e69;fill-opacity:1" />
              <path
                 class="cls-3"
                 d="m 215.82,140.19 a 18.69,18.69 0 0 0 -6.37,2.82 16.85,16.85 0 0 0 -4.38,4.41 18.68,18.68 0 0 0 -2.5,5.44 26.17,26.17 0 0 0 -0.88,6.16 c 0.05,0.38 0.1,1 0.14,1.74 0.04,0.74 0.09,1.36 0.14,1.73 a 24,24 0 0 0 2.35,7.67 22.92,22.92 0 0 0 9.58,9.91 22.18,22.18 0 0 0 5.83,2.18 l 3.21,0.4 a 18.3,18.3 0 0 0 6.66,-1.28 17.71,17.71 0 0 0 9.93,-9.68 19.92,19.92 0 0 0 1.56,-7.95 26.89,26.89 0 0 0 -2.58,-11.43 23.23,23.23 0 0 0 -7.29,-9.16 17.33,17.33 0 0 0 -10.67,-3.54 18.77,18.77 0 0 0 -4.73,0.54 z m 4.34,-3 c 0.78,-0.08 1.94,-0.12 3.47,-0.12 a 31.92,31.92 0 0 1 10.53,1.66 23.37,23.37 0 0 1 8.07,4.68 20.3,20.3 0 0 1 5.08,7 21.86,21.86 0 0 1 1.75,8.71 26.74,26.74 0 0 1 -0.66,6.17 24.49,24.49 0 0 1 -4.88,10.05 25.29,25.29 0 0 1 -9.2,7.06 32.91,32.91 0 0 1 -25.54,0.72 24.15,24.15 0 0 1 -8.61,-5.72 23.29,23.29 0 0 1 -4.73,-7.38 20.93,20.93 0 0 1 -1.53,-7.28 3.32,3.32 0 0 0 0.12,-0.94 27.63,27.63 0 0 1 2,-8.87 23.43,23.43 0 0 1 4.89,-7.5 25,25 0 0 1 8.06,-5.51 34.75,34.75 0 0 1 11.22,-2.73 z"
                 transform="translate(-2.48,-2.59)"
                 id="path31"
                 style="fill:#002e69;fill-opacity:1" />
              <path
                 class="cls-3"
                 d="m 260.91,140.21 c -0.66,-0.17 -1.49,-0.35 -2.49,-0.51 l -2.63,-0.43 -0.27,-1.27 c 0.9,0.06 2.5,0.12 4.66,0.17 2.16,0.05 3.85,0.12 4.93,0.19 1.28,-0.05 3.27,-0.1 5.93,-0.17 2.66,-0.07 4.46,-0.13 5.4,-0.19 l -0.4,1.27 c -0.7,0.11 -2,0.29 -4,0.54 a 11,11 0 0 0 -2.93,0.52 q -0.27,8.4 -0.26,12.33 c 0,1.3 0,3.26 0.06,5.83 0.06,2.57 0.06,4.54 0.06,5.87 a 30.09,30.09 0 0 0 1.3,9.62 13.51,13.51 0 0 0 3.33,5.63 10.36,10.36 0 0 0 4.3,2.49 17.08,17.08 0 0 0 4.71,0.63 13.24,13.24 0 0 0 7.57,-2.1 11.21,11.21 0 0 0 4.12,-5.64 29.71,29.71 0 0 0 1.42,-8.78 q 0.13,-3.21 0.13,-9.63 0,-7.72 -0.4,-16.38 l -3.42,-0.45 c -1.35,-0.17 -2.55,-0.29 -3.63,-0.34 L 287.9,138 q 1.71,0 5.91,0.16 l 5.3,0.2 7.43,-0.36 -0.34,1.42 a 39.29,39.29 0 0 0 -4.67,0.91 c 0,0.56 -0.08,1.59 -0.13,3.09 -0.05,1.5 -0.09,2.62 -0.12,3.33 v 11.43 q 0,6 -0.13,8.66 -0.43,8 -5.13,12.88 -4.7,4.88 -12.87,5.52 h -2 a 26,26 0 0 1 -7.43,-1.06 18,18 0 0 1 -6.27,-3.29 15.79,15.79 0 0 1 -4.39,-5.75 21.34,21.34 0 0 1 -1.79,-8.33 q 0,-8.79 -0.14,-12.49 0,-12.5 -0.26,-14.09 z"
                 transform="translate(-2.48,-2.59)"
                 id="path33"
                 style="fill:#002e69;fill-opacity:1" />
              <path
                 class="cls-3"
                 d="m 312.18,137.88 h 15.11 a 59,59 0 0 1 12.22,1 15.16,15.16 0 0 1 7.09,3.23 7.92,7.92 0 0 1 2.49,5.71 13.31,13.31 0 0 1 -2.6,8.14 19,19 0 0 1 -6.78,5.7 30,30 0 0 1 -9,2.94 L 331,163 a 12.52,12.52 0 0 0 6.66,-3.41 12,12 0 0 0 3,-4.95 17.57,17.57 0 0 0 0.68,-4.5 10.82,10.82 0 0 0 -1.1,-4.67 9.35,9.35 0 0 0 -4.16,-4 q -3.09,-1.66 -8.59,-1.67 c 0,2 -0.07,4.17 -0.1,6.52 -0.03,2.35 -0.08,4.22 -0.1,5.58 -0.02,1.36 -0.06,3.07 -0.09,5.13 -0.03,2.06 -0.07,4.48 -0.11,7.26 0,1 0.08,3.19 0.15,6.66 0.07,3.47 0.17,7.19 0.25,11.19 l 4,0.45 c 1.87,0.21 3.33,0.34 4.33,0.4 l 0.41,1.44 c -1.32,0 -3.51,-0.08 -6.59,-0.11 -3.08,-0.03 -5.38,-0.08 -6.91,-0.13 -1.17,0 -3,0.08 -5.32,0.13 -2.32,0.05 -4.08,0.07 -5.12,0.11 l 0.38,-1.44 c 2.74,-0.25 5,-0.53 6.84,-0.83 q 0,-4.24 0.14,-12.7 0.14,-8.46 0.13,-13.88 0,-10.37 -0.27,-15.34 a 46.88,46.88 0 0 0 -7,-0.94 l -0.25,-1.36 z"
                 transform="translate(-2.48,-2.59)"
                 id="path35"
                 style="fill:#002e69;fill-opacity:1" />
              <path
                 class="cls-3"
                 d="m 53.22,17.94 c 0,0 44.14,-12.85 82.11,-14.85 69.67,-3.74 266.1,11.29 283.67,123.35 18.83,119.81 -206.13,145 -217.84,138.35 -0.41,-0.25 18.49,-3.33 22.07,-4.28 19.86,-5.35 78.62,-21.07 88.51,-28.24 1.86,-1.37 6.36,-4.13 4.05,-3.34 -10.82,3.79 -68.8,26.25 -130.46,32 -2.88,0.27 -15.17,1.32 -16.65,0.69 -1.67,-0.69 -3.63,-1.67 -16,-5.13 -0.17,0 15.72,-1.12 30.19,-3.06 52.93,-7.13 91.25,-12.77 142.88,-38.26 3.5,-1.73 2.78,-2.34 -1.34,-0.39 -64.3,30.23 -189.53,36.59 -194.54,33.73 -4,-2.28 -27.79,-12.87 -22.81,-10.82 15.37,6.27 240.26,8.12 280.56,-94.67 C 421.4,56.87 235.35,-18.11 53.22,17.94"
                 transform="translate(-2.48,-2.59)"
                 id="path37"
                 style="fill:#002e69;fill-opacity:1" />
              <path
                 class="cls-3"
                 d="m 135.78,288.58 a 1.18,1.18 0 0 0 -1,-0.6 h -5.43 a 0.4,0.4 0 0 0 -0.4,0.39 0.36,0.36 0 0 0 0.06,0.2 l 7.2,12.49 a 1,1 0 0 1 0,1.05 l -3.57,6.19 a 1.06,1.06 0 0 1 -1.46,0.38 1,1 0 0 1 -0.38,-0.38 l -7.18,-12.45 a 0.12,0.12 0 0 0 -0.16,0 v 0 l -3.2,5.54 a 0.39,0.39 0 0 0 0,0.39 l 7.42,12.85 a 1.11,1.11 0 0 0 1,0.55 h 6.17 a 1.17,1.17 0 0 0 1,-0.59 l 7.16,-12.41 a 1.16,1.16 0 0 0 0,-1.19 z"
                 transform="translate(-2.48,-2.59)"
                 id="path39"
                 style="fill:#002e69;fill-opacity:1" />
              <path
                 class="cls-3"
                 d="m 119,302.11 a 1,1 0 0 1 0,-1.05 l 3.57,-6.2 a 1.06,1.06 0 0 1 1.45,-0.39 1.21,1.21 0 0 1 0.39,0.39 l 7.18,12.45 a 0.13,0.13 0 0 0 0.17,0 v 0 l 3.19,-5.54 a 0.37,0.37 0 0 0 0,-0.38 l -7.42,-12.86 a 1.09,1.09 0 0 0 -1,-0.55 h -6.18 a 1.21,1.21 0 0 0 -1,0.6 L 112.24,301 a 1.16,1.16 0 0 0 0,1.19 l 7.15,12.41 a 1.19,1.19 0 0 0 1,0.59 h 5.43 a 0.39,0.39 0 0 0 0.4,-0.39 0.41,0.41 0 0 0 -0.05,-0.19 z"
                 transform="translate(-2.48,-2.59)"
                 id="path41"
                 style="fill:#002e69;fill-opacity:1" />
              <path
                 class="cls-3"
                 d="m 192.48,299.33 h -8.92 a 0.83,0.83 0 0 1 -0.83,-0.83 v -4.28 a 0.83,0.83 0 0 1 0.83,-0.83 h 9.82 a 0.84,0.84 0 0 0 0.83,-0.84 v -3.63 a 0.83,0.83 0 0 0 -0.83,-0.83 h -16.06 a 0.84,0.84 0 0 0 -0.84,0.83 v 25.39 a 0.85,0.85 0 0 0 0.84,0.84 h 4.52 a 0.84,0.84 0 0 0 0.83,-0.84 v -9 a 0.83,0.83 0 0 1 0.83,-0.84 h 8.92 a 0.84,0.84 0 0 0 0.84,-0.83 v -3.43 a 0.84,0.84 0 0 0 -0.84,-0.83"
                 transform="translate(-2.48,-2.59)"
                 id="path43"
                 style="fill:#002e69;fill-opacity:1" />
              <path
                 class="cls-3"
                 d="m 208,288 h -9.09 a 0.83,0.83 0 0 0 -0.83,0.83 L 198,314.24 a 0.84,0.84 0 0 0 0.84,0.83 h 4.59 a 0.84,0.84 0 0 0 0.84,-0.83 v -8.65 a 0.84,0.84 0 0 1 0.83,-0.84 h 2.61 c 3.27,0 6,-0.7 7.82,-2.08 a 7.81,7.81 0 0 0 3.34,-6.37 c 0,-6.87 -6.09,-8.33 -10.91,-8.33 m -0.72,11.85 h -2.1 a 0.83,0.83 0 0 1 -0.83,-0.83 v -5.1 a 0.83,0.83 0 0 1 0.83,-0.83 h 2.22 c 2.08,0 4.83,0.37 4.81,3.33 0,1.6 -0.83,3.5 -5,3.48"
                 transform="translate(-2.48,-2.59)"
                 id="path45"
                 style="fill:#002e69;fill-opacity:1" />
              <path
                 class="cls-3"
                 d="m 165.51,305.5 -9.72,-16.88 a 1.36,1.36 0 0 0 -1.13,-0.64 h -5.4 a 0.84,0.84 0 0 0 -0.84,0.83 v 25.5 a 0.85,0.85 0 0 0 0.84,0.84 h 4.05 a 0.84,0.84 0 0 0 0.83,-0.84 c 0,-3.94 -0.13,-16.74 -0.13,-16.74 l 9.82,17 a 1.31,1.31 0 0 0 1.13,0.65 h 5.34 a 0.84,0.84 0 0 0 0.84,-0.83 v -25.5 a 0.85,0.85 0 0 0 -0.84,-0.84 h -4 a 0.85,0.85 0 0 0 -0.84,0.84 c 0,3.77 0.15,16.65 0.15,16.65"
                 transform="translate(-2.48,-2.59)"
                 id="path47"
                 style="fill:#002e69;fill-opacity:1" />
              <path
                 class="cls-3"
                 d="m 222.7,290 a 1.94,1.94 0 1 1 -2,-1.88 h 0.06 a 1.91,1.91 0 0 1 1.94,1.87 v 0 m -3.4,0 a 1.46,1.46 0 0 0 1.42,1.51 h 0.05 a 1.44,1.44 0 0 0 1.44,-1.45 0.11,0.11 0 0 0 0,-0.05 1.4541664,1.4541664 0 1 0 -2.9,-0.22 0.81,0.81 0 0 0 0,0.22 m 1.16,1 H 220 v -1.87 a 3.54,3.54 0 0 1 0.73,-0.06 1.24,1.24 0 0 1 0.65,0.14 0.48,0.48 0 0 1 0.19,0.41 0.47,0.47 0 0 1 -0.39,0.43 0.56,0.56 0 0 1 0.34,0.46 1.56,1.56 0 0 0 0.14,0.48 h -0.47 a 2,2 0 0 1 -0.15,-0.47 c 0,-0.21 -0.15,-0.29 -0.39,-0.29 h -0.21 z m 0,-1.07 h 0.21 c 0.24,0 0.44,-0.08 0.44,-0.28 0,-0.2 -0.13,-0.28 -0.4,-0.28 h -0.25 z"
                 transform="translate(-2.48,-2.59)"
                 id="path49"
                 style="fill:#002e69;fill-opacity:1" />
              <path
                 class="cls-3"
                 d="m 65.12,305.59 -2.62,8 h -3.38 l 8.59,-25.28 h 3.94 l 8.63,25.28 h -3.49 l -2.7,-8 z M 73.41,303 70.94,295.72 C 70.37,294.07 70,292.57 69.62,291.1 h -0.07 c -0.38,1.5 -0.79,3 -1.28,4.58 L 65.8,303 Z"
                 transform="translate(-2.48,-2.59)"
                 id="path51"
                 style="fill:#002e69;fill-opacity:1" />
              <path
                 class="cls-3"
                 d="m 83.76,300.3 c 0,-1.88 0,-3.42 -0.15,-4.92 h 2.93 l 0.19,3 h 0.07 a 6.68,6.68 0 0 1 6,-3.41 c 2.52,0 6.42,1.5 6.42,7.73 v 10.84 h -3.3 v -10.47 c 0,-2.92 -1.09,-5.36 -4.2,-5.36 a 4.86,4.86 0 0 0 -4.66,4.91 v 10.92 h -3.3 z"
                 transform="translate(-2.48,-2.59)"
                 id="path53"
                 style="fill:#002e69;fill-opacity:1" />
              <path
                 class="cls-3"
                 d="m 252.84,312.55 a 15.54,15.54 0 0 1 -6.48,1.17 c -6.92,0 -12.13,-4.37 -12.13,-12.42 0,-7.69 5.21,-12.9 12.82,-12.9 a 13.3,13.3 0 0 1 5.83,1.09 l -0.76,2.59 a 11.64,11.64 0 0 0 -5,-1 c -5.76,0 -9.58,3.68 -9.58,10.13 0,6 3.46,9.87 9.43,9.87 a 12.69,12.69 0 0 0 5.18,-1 z"
                 transform="translate(-2.48,-2.59)"
                 id="path55"
                 style="fill:#002e69;fill-opacity:1" />
              <path
                 class="cls-3"
                 d="m 272.29,304.39 c 0,6.53 -4.51,9.37 -8.78,9.37 -4.77,0 -8.45,-3.5 -8.45,-9.07 0,-5.91 3.86,-9.37 8.75,-9.37 5.06,0 8.48,3.68 8.48,9.07 m -14,0.19 c 0,3.86 2.23,6.77 5.36,6.77 3.13,0 5.36,-2.88 5.36,-6.85 0,-3 -1.5,-6.77 -5.29,-6.77 -3.79,0 -5.43,3.5 -5.43,6.85"
                 transform="translate(-2.48,-2.59)"
                 id="path57"
                 style="fill:#002e69;fill-opacity:1" />
              <path
                 class="cls-3"
                 d="m 276.34,300.5 c 0,-1.83 0,-3.32 -0.15,-4.78 H 279 l 0.14,2.84 h 0.11 a 6.1,6.1 0 0 1 5.54,-3.24 5.2,5.2 0 0 1 5,3.54 h 0.08 a 7.26,7.26 0 0 1 2,-2.3 6,6 0 0 1 3.9,-1.24 c 2.33,0 5.8,1.53 5.8,7.65 v 10.39 h -3.14 v -10 c 0,-3.38 -1.24,-5.42 -3.82,-5.42 a 4.14,4.14 0 0 0 -3.79,2.91 5.15,5.15 0 0 0 -0.26,1.6 v 10.9 h -3.13 v -10.56 c 0,-2.8 -1.24,-4.84 -3.68,-4.84 a 4.37,4.37 0 0 0 -4,3.2 4.5,4.5 0 0 0 -0.26,1.57 v 10.64 h -3.13 z"
                 transform="translate(-2.48,-2.59)"
                 id="path59"
                 style="fill:#002e69;fill-opacity:1" />
              <path
                 class="cls-3"
                 d="m 306.73,301.48 c 0,-2.26 -0.08,-4.08 -0.15,-5.76 h 2.88 l 0.15,3 h 0.07 a 6.94,6.94 0 0 1 6.27,-3.43 c 4.26,0 7.46,3.61 7.46,9 0,6.33 -3.86,9.47 -8,9.47 A 6.19,6.19 0 0 1 310,311 h -0.07 v 9.58 h -3.17 z m 3.17,4.7 a 7.51,7.51 0 0 0 0.14,1.31 5,5 0 0 0 4.81,3.75 c 3.39,0 5.36,-2.77 5.36,-6.81 0,-3.53 -1.86,-6.56 -5.25,-6.56 a 5.11,5.11 0 0 0 -4.84,4 5.21,5.21 0 0 0 -0.22,1.32 z"
                 transform="translate(-2.48,-2.59)"
                 id="path61"
                 style="fill:#002e69;fill-opacity:1" />
              <path
                 class="cls-3"
                 d="m 337.22,313.36 -0.25,-2.23 h -0.11 a 6.55,6.55 0 0 1 -5.39,2.63 5,5 0 0 1 -5.4,-5.07 c 0,-4.26 3.79,-6.59 10.61,-6.55 v -0.37 c 0,-1.46 -0.4,-4.08 -4,-4.08 a 8.8,8.8 0 0 0 -4.59,1.31 l -0.73,-2.11 a 10.92,10.92 0 0 1 5.79,-1.57 c 5.39,0 6.71,3.68 6.71,7.22 v 6.59 a 24.73,24.73 0 0 0 0.29,4.23 z m -0.47,-9 c -3.5,-0.07 -7.47,0.54 -7.47,4 a 2.83,2.83 0 0 0 3,3.06 4.4,4.4 0 0 0 4.27,-2.95 3.32,3.32 0 0 0 0.18,-1 z"
                 transform="translate(-2.48,-2.59)"
                 id="path63"
                 style="fill:#002e69;fill-opacity:1" />
              <path
                 class="cls-3"
                 d="m 345,300.5 c 0,-1.83 0,-3.32 -0.14,-4.78 h 2.84 l 0.18,2.92 H 348 a 6.47,6.47 0 0 1 5.83,-3.32 c 2.44,0 6.23,1.46 6.23,7.51 v 10.53 h -3.21 v -10.17 c 0,-2.84 -1.06,-5.21 -4.08,-5.21 a 4.57,4.57 0 0 0 -4.3,3.28 4.52,4.52 0 0 0 -0.22,1.5 v 10.6 H 345 Z"
                 transform="translate(-2.48,-2.59)"
                 id="path65"
                 style="fill:#002e69;fill-opacity:1" />
              <path
                 class="cls-3"
                 d="m 366,295.72 3.86,10.42 c 0.4,1.17 0.84,2.55 1.13,3.61 H 371 c 0.32,-1.06 0.69,-2.4 1.12,-3.68 l 3.5,-10.35 H 379 l -4.81,12.57 c -2.29,6 -3.86,9.15 -6.05,11 a 8.66,8.66 0 0 1 -3.93,2.08 l -0.8,-2.7 a 8.41,8.41 0 0 0 2.8,-1.56 9.74,9.74 0 0 0 2.7,-3.57 2.46,2.46 0 0 0 0.25,-0.77 A 2.7,2.7 0 0 0 369,312 l -6.52,-16.25 z"
                 transform="translate(-2.48,-2.59)"
                 id="path67"
                 style="fill:#002e69;fill-opacity:1" />
              <line
                 class="cls-3"
                 x1="108.22"
                 y1="69.480003"
                 y2="69.480003"
                 id="line69"
                 x2="0"
                 style="fill:#002e69;fill-opacity:1" />
              <line
                 class="cls-4"
                 x1="108.22"
                 y1="69.480003"
                 y2="69.480003"
                 id="line71"
                 x2="0"
                 style="fill:#002e69;fill-opacity:1" />
              <line
                 class="cls-3"
                 x1="432.57001"
                 y1="188.46001"
                 x2="234.78999"
                 y2="188.46001"
                 id="line73"
                 style="fill:#002e69;fill-opacity:1" />
              <line
                 class="cls-4"
                 x1="432.57001"
                 y1="188.46001"
                 x2="234.78999"
                 y2="188.46001"
                 id="line75"
                 style="fill:#002e69;fill-opacity:1" />
            </g>
          </g>
        </g>
      </g>
      <text
         xml:space="preserve"
         style="font-style:normal;font-weight:normal;font-size:43.7622px;line-height:1.25;font-family:sans-serif;fill:#000000;fill-opacity:1;stroke:none;stroke-width:0.455855"
         x="141.03954"
         y="50.059135"
         id="text4361"
         transform="scale(1.021369,0.97907809)"><tspan
           style="font-style:normal;font-variant:normal;font-weight:normal;font-stretch:normal;font-size:43.7622px;font-family:FreeSans;-inkscape-font-specification:FreeSans;fill:#002e69;fill-opacity:1;stroke-width:0.455855"
           x="141.03954"
           y="50.059135"
           id="tspan4365">The Bailey Group</tspan></text>
      <text
         xml:space="preserve"
         style="font-style:normal;font-weight:normal;font-size:12.1561px;line-height:1.25;font-family:sans-serif;letter-spacing:1.97841px;fill:#000000;fill-opacity:1;stroke:none;stroke-width:0.455855"
         x="130.3866"
         y="75.464378"
         id="text33494"
         transform="scale(1.021369,0.97907809)"><tspan
           id="tspan33492"
           style="font-style:normal;font-variant:normal;font-weight:normal;font-stretch:normal;font-size:12.1561px;font-family:FreeSans;-inkscape-font-specification:FreeSans;fill:#002e69;fill-opacity:1;stroke-width:0.455855"
           x="130.3866"
           y="75.464378">INSURANCE - BENEFITS - FINANCIAL SERVICES</tspan></text>
    </g>
  </g>
</svg>
