<?xml version="1.0" encoding="UTF-8" standalone="no"?>
<svg xmlns:rdf="http://www.w3.org/1999/02/22-rdf-syntax-ns#" xmlns="http://www.w3.org/2000/svg" version="1.1" xml:space="preserve" viewBox="0 0 1286.2493 185.51648" height="185.52" width="1286.2" enable-background="new 0 0 1371 179" y="0px" x="0px" xmlns:cc="http://creativecommons.org/ns#" xmlns:dc="http://purl.org/dc/elements/1.1/"><g stroke-opacity=".30196" fill-opacity=".30189" transform="translate(-59.366 1.762)" stroke="#000" fill="#646464"><path d="m674.4 18.923c-17.351 18.332-35.38 36.811-52.8 55.329-0.439 0.468-1.211 1.063-1.129 1.809 6.414-0.781 12.919-1.445 19.349-2.206-13.618 15.194-27.868 30.212-41.79 45.461-0.266 0.29-1.075 0.818-0.778 1.403 4.571-0.521 9.154-1.028 13.712-1.568-18.084 13.091-36.691 25.874-55.063 38.826-2.54 1.791-4.912 3.969-7.73 5.327 10.273-14.368 20.512-28.78 30.571-43.426-6.44 0.632-12.693 1.506-19.183 2.076 7.502-11.301 15.216-22.638 22.778-34.053 2.493-3.762 5.238-7.405 7.298-11.389-7.185 0.933-14.518 1.674-21.787 2.498 12.013-17.224 24.512-35.158 36.959-52.378 22.67-2.543 46.372-5.142 69.316-7.894 0.176-0.002 0.258 0.066 0.277 0.185z" stroke-opacity=".30196" fill-opacity=".30189" fill-rule="evenodd" stroke="#000" clip-rule="evenodd" fill="#646464"/></g><g transform="translate(-27.366 7.6351)"><g transform="translate(44.794 121.96)"><path d="m19.249-5.3773q11.846 0 11.846-8.1049 0-2.4938-1.091-4.2083-1.0131-1.7924-2.8056-3.0393-1.7924-1.3248-4.1304-2.26-2.26-0.93518-4.8318-1.8704-2.9614-1.0131-5.6111-2.26-2.6497-1.3248-4.598-3.0393-1.9483-1.7924-3.1173-4.2083-1.091-2.4159-1.091-5.8449 0-7.0918 4.8318-11.066 4.8318-3.9745 13.326-3.9745 4.9097 0 8.8842 1.091 4.0525 1.0131 5.9228 2.26l-2.4159 6.1566q-1.6366-1.0131-4.9097-1.9483-3.1952-1.0131-7.4815-1.0131-2.1821 0-4.0525 0.46759t-3.2731 1.4028q-1.4028 0.93518-2.26 2.4159-0.77932 1.4028-0.77932 3.3511 0 2.1821 0.85725 3.6628t2.4159 2.6497q1.5586 1.091 3.5849 2.0262 2.1042 0.93518 4.598 1.8704 3.5069 1.4028 6.3904 2.8056 2.9614 1.4028 5.0656 3.3511 2.1821 1.9483 3.3511 4.6759 1.169 2.6497 1.169 6.4684 0 7.0918-5.2214 10.91-5.1435 3.8187-14.573 3.8187-3.1952 0-5.9228-0.46759-2.65-0.39127-4.7545-0.9368-2.1041-0.62345-3.6628-1.2469-1.4807-0.7014-2.3379-1.169l2.26-6.2346q1.7924 1.0131 5.4552 2.26t8.9622 1.2469z"/><path d="m68.21 1.169q-5.2994 0-9.196-1.6366t-6.3904-4.4421q-2.4938-2.8835-3.7407-6.7801-1.169-3.8966-1.169-8.4167v-33.9h7.5594v33.043q0 8.1049 3.5849 11.768 3.5849 3.6628 9.3518 3.6628 2.8835 0 5.2214-0.85725 2.4159-0.93518 4.1304-2.8056t2.6497-4.7539q0.93518-2.9614 0.93518-7.0139v-33.043h7.5594v33.9q0 4.5201-1.2469 8.4167-1.169 3.8966-3.7407 6.7801-2.4938 2.8056-6.3904 4.4421-3.8187 1.6366-9.118 1.6366z"/><path d="m128.1-22.6q1.2469 1.5586 3.1173 4.1304 1.9483 2.4938 3.9745 5.6111 2.0262 3.0393 3.9745 6.3904 2.02 3.3507 3.43 6.468h-8.2608q-1.5586-2.9614-3.429-6.0008-1.7924-3.0393-3.6628-5.767-1.8704-2.8056-3.7407-5.2214-1.7924-2.4159-3.2731-4.2083-1.0131 0.07793-2.1042 0.07793-1.0131 0-2.1042 0h-6.7801v21.12h-7.5594v-53.228q3.1952-0.77932 7.0918-1.0131 3.9745-0.31173 7.2477-0.31173 11.378 0 17.301 4.2863 6.0008 4.2863 6.0008 12.781 0 5.3773-2.8835 9.196-2.8056 3.8187-8.3387 5.689zm-11.456-25.328q-4.8318 0-7.4035 0.2338v20.34h5.3773q3.8966 0 7.0139-0.38966t5.2214-1.4807q2.1821-1.091 3.3511-3.0393 1.169-2.0262 1.169-5.2994 0-3.0393-1.169-5.0656-1.169-2.0262-3.1952-3.1952-1.9483-1.169-4.6759-1.6366-2.6497-0.46759-5.689-0.46759z"/><path d="m150.69 0v-54.007h32.576v6.4684h-25.016v16.288h22.211v6.3904h-22.211v24.86h-7.5594z"/><path d="m223.06-5.3773q11.846 0 11.846-8.1049 0-2.4938-1.091-4.2083-1.0131-1.7924-2.8056-3.0393-1.7924-1.3248-4.1304-2.26-2.26-0.93518-4.8318-1.8704-2.9614-1.0131-5.6111-2.26-2.6497-1.3248-4.598-3.0393-1.9483-1.7924-3.1173-4.2083-1.091-2.4159-1.091-5.8449 0-7.0918 4.8318-11.066 4.8318-3.9745 13.326-3.9745 4.9097 0 8.8842 1.091 4.0525 1.0131 5.9228 2.26l-2.4159 6.1566q-1.6366-1.0131-4.9097-1.9483-3.1952-1.0131-7.4815-1.0131-2.1821 0-4.0525 0.46759t-3.2731 1.4028q-1.4028 0.93518-2.26 2.4159-0.77932 1.4028-0.77932 3.3511 0 2.1821 0.85725 3.6628t2.4159 2.6497q1.5586 1.091 3.5849 2.0262 2.1042 0.93518 4.598 1.8704 3.5069 1.4028 6.3904 2.8056 2.9614 1.4028 5.0656 3.3511 2.1821 1.9483 3.3511 4.6759 1.169 2.6497 1.169 6.4684 0 7.0918-5.2214 10.91-5.1435 3.8187-14.573 3.8187-3.1952 0-5.9228-0.46759-2.6497-0.38966-4.7538-0.93518-2.1042-0.62346-3.6628-1.2469-1.4807-0.70139-2.338-1.169l2.26-6.2346q1.7924 1.0131 5.4552 2.26t8.9622 1.2469z"/><path d="m288-54.007v6.5463h-16.989v47.461h-7.5594v-47.461h-16.989v-6.5463h41.538z"/><path d="m326.96 0q-1.3248-3.5069-2.4938-6.858-1.169-3.429-2.4159-6.9359h-24.471l-4.91 13.794h-7.87q3.1173-8.5725 5.8449-15.82 2.7276-7.3256 5.2994-13.872 2.6497-6.5463 5.2214-12.469 2.5718-6.0008 5.3773-11.846h6.936q2.8056 5.8449 5.3773 11.846 2.5718 5.9228 5.1435 12.469 2.6497 6.5463 5.3773 13.872 2.7276 7.2477 5.8449 15.82h-8.2608zm-7.0918-20.029q-2.4938-6.7801-4.9876-13.093-2.4159-6.3904-5.0656-12.235-2.7276 5.8449-5.2214 12.235-2.4159 6.3125-4.8318 13.093h20.106z"/><path d="m373.54-54.007v6.5463h-16.989v47.461h-7.5594v-47.461h-16.989v-6.5463h41.538z"/><path d="m381.45-54.007h7.5594v54.007h-7.5594v-54.007z"/><path d="m400.27-27.042q0-6.9359 2.0262-12.235 2.1042-5.2994 5.6111-8.8063 3.5849-3.5849 8.2608-5.3773 4.7538-1.7924 10.053-1.7924 5.2214 0 9.8194 1.7924 4.6759 1.7924 8.1829 5.3773 3.5069 3.5069 5.5332 8.8063 2.1042 5.2994 2.1042 12.235 0 6.9359-2.1042 12.235-2.0262 5.2994-5.5332 8.8842-3.5069 3.5069-8.1829 5.2994-4.6 1.793-9.82 1.793-5.2994 0-10.053-1.7924-4.6759-1.7924-8.2608-5.2994-3.5069-3.5849-5.6111-8.8842-2.0262-5.2994-2.0262-12.235zm7.9491 0q0 4.9097 1.2469 8.9622 1.2469 3.9745 3.5069 6.7801 2.338 2.8056 5.6111 4.3642 3.3511 1.4807 7.4815 1.4807t7.4035-1.4807q3.2732-1.5586 5.5332-4.3642 2.338-2.8056 3.5849-6.7801 1.2469-4.0525 1.2469-8.9622t-1.2469-8.8842q-1.2469-4.0525-3.5849-6.858-2.26-2.8056-5.5332-4.2863-3.2731-1.5586-7.4035-1.5586t-7.4815 1.5586q-3.2731 1.4807-5.6111 4.2863-2.26 2.8056-3.5069 6.858-1.2469 3.9745-1.2469 8.8842z"/><path d="m500.05 0q-1.7145-2.8835-3.9745-6.4684-2.1821-3.5849-4.7538-7.4035-2.5718-3.8966-5.3773-7.8711-2.7276-3.9745-5.4552-7.6373-2.7276-3.7407-5.2994-7.0139-2.5718-3.2731-4.7538-5.767v42.161h-7.4035v-54.007h6.0008q3.6628 3.8966 7.7932 9.118 4.2083 5.1435 8.2608 10.677 4.1304 5.4552 7.7153 10.755 3.6628 5.2994 6.1566 9.4298v-39.979h7.4035v54.007h-6.3125z"/></g></g><g transform="translate(-51.366 7.713)"><g transform="translate(602.21 121.96)"><path d="m42.473-48.24q0.93518 3.1952 2.0262 7.2477 1.169 3.9745 2.4159 8.2608 1.3248 4.2863 2.6497 8.5725 1.3248 4.2863 2.5718 7.9491 1.0131-3.9745 2.0262-8.6505 1.091-4.6759 2.0262-9.6636 0.93518-4.9876 1.7924-9.8974 0.93518-4.9876 1.7145-9.5856h12.625q-2.727 13.562-6.312 27.512-3.507 13.95-7.637 26.497h-11.144q-2.7276-7.4815-5.2994-15.664-2.5718-8.2608-5.0656-16.522-2.4938 8.2608-4.9876 16.522-2.494 8.1825-5.221 15.664h-11.145q-4.13-12.547-7.7148-26.497-3.5069-13.95-6.2346-27.51h13.171q0.77932 4.598 1.7145 9.5856 0.93518 4.9097 1.9483 9.8974 1.0131 4.9876 2.0262 9.6636 1.091 4.6759 2.1821 8.6505 1.4028-3.8187 2.7276-8.1049 1.3248-4.2863 2.5718-8.5725 1.2469-4.2863 2.26-8.2608 1.091-3.9745 1.9483-7.0918h10.365z"/><path d="m80.057 0v-54.007h36.472v10.209h-24.315v10.599h21.587v9.9753h-21.587v13.015h26.107v10.209h-38.265z"/><path d="m163.4 0q-0.85725-2.8056-1.9483-5.767-1.0131-2.9614-2.0262-5.9228h-21.042q-1.0131 2.9614-2.1042 5.9228-1.02 2.9616-1.88 5.7672h-12.625q3.0394-8.7284 5.767-16.132 2.7276-7.4035 5.2994-13.95 2.6497-6.5463 5.1435-12.391 2.5718-5.9228 5.2994-11.534h11.612q2.6497 5.6111 5.2214 11.534 2.5718 5.8449 5.1435 12.391 2.6497 6.5463 5.3773 13.95 2.74 7.4036 5.78 16.132h-13.02zm-14.573-41.772q-0.38966 1.169-1.169 3.1952-0.77932 2.0262-1.7924 4.6759t-2.26 5.8449q-1.169 3.1952-2.4159 6.7022h15.353q-1.2469-3.5069-2.4159-6.7022-1.169-3.1952-2.26-5.8449-1.0131-2.6497-1.7924-4.6759-0.77932-2.0262-1.2469-3.1952z"/><path d="m217.07-54.007v10.365h-16.288v43.642h-12.157v-43.642h-16.288v-10.365h44.733z"/><path d="m257.39-54.007h12.157v54.007h-12.157v-22.912h-20.418v22.912h-12.157v-54.007h12.157v20.652h20.418v-20.652z"/><path d="m282.04 0v-54.007h36.472v10.209h-24.315v10.599h21.587v9.9753h-21.587v13.015h26.107v10.209h-38.265z"/><path d="m345.05-54.63q12.157 0 18.626 4.3642 6.4684 4.2863 6.4684 13.404 0 5.689-2.6497 9.2739-2.5718 3.5069-7.4815 5.5332 1.6366 2.0262 3.429 4.6759 1.7924 2.5718 3.5069 5.4552 1.7924 2.8056 3.429 5.9228 1.63 3.0396 3.03 6.001h-13.638q-1.4807-2.6497-3.0394-5.3773-1.4807-2.7276-3.1173-5.2994-1.5586-2.5718-3.1173-4.8318-1.5586-2.338-3.1173-4.2083h-6.0008v19.717h-12.157v-53.228q3.9745-0.77932 8.1829-1.091 4.2863-0.31173 7.6373-0.31173zm0.70139 10.365q-1.3248 0-2.4159 0.07793-1.0131 0.07793-1.9483 0.15586v14.651h3.429q6.858 0 9.8194-1.7145t2.9614-5.8449q0-3.9745-3.0394-5.6111-2.9614-1.7145-8.8063-1.7145z"/><path d="m414.73-9.2739q2.5718 0 4.2083-0.38966 1.7145-0.46759 2.7276-1.169 1.0131-0.77932 1.4028-1.7924 0.38966-1.0131 0.38966-2.26 0-2.6497-2.4938-4.3642-2.4938-1.7924-8.5725-3.8187-2.6497-0.93518-5.2994-2.1042-2.6497-1.2469-4.7539-3.0393-2.1042-1.8704-3.429-4.4421-1.3248-2.6497-1.3248-6.3904t1.4028-6.7022q1.4028-3.0393 3.9745-5.1435 2.5718-2.1042 6.2346-3.1952 3.6628-1.169 8.2608-1.169 5.4552 0 9.4298 1.169 3.9745 1.169 6.5463 2.5718l-3.5069 9.5856q-2.26-1.169-5.0656-2.0262-2.7276-0.93518-6.6242-0.93518-4.3642 0-6.3125 1.2469-1.8704 1.169-1.8704 3.6628 0 1.4807 0.70139 2.4938t1.9483 1.8704q1.3248 0.77932 2.9614 1.4807 1.7145 0.62346 3.7407 1.3248 4.2083 1.5586 7.3256 3.1173 3.1173 1.4807 5.1435 3.5069 2.1042 2.0262 3.1173 4.7539 1.0131 2.7276 1.0131 6.6242 0 7.5594-5.2994 11.768-5.2994 4.1304-15.976 4.1304-3.5849 0-6.4684-0.46759-2.8835-0.38966-5.1435-1.0131-2.1821-0.62346-3.8187-1.3248-1.5586-0.70139-2.6497-1.3248l3.429-9.6636q2.4159 1.3248 5.9228 2.4159 3.5849 1.0131 8.7284 1.0131z"/><path d="m483.9-54.007v10.365h-16.288v43.642h-12.157v-43.642h-16.288v-10.365h44.733z"/><path d="m521.4 0q-0.85725-2.8056-1.9483-5.767-1.0131-2.9614-2.0262-5.9228h-21.042q-1.0131 2.9614-2.1042 5.9228-1.02 2.9616-1.88 5.7672h-12.625q3.0394-8.7284 5.767-16.132 2.7276-7.4035 5.2994-13.95 2.6497-6.5463 5.1435-12.391 2.5718-5.9228 5.2994-11.534h11.612q2.6497 5.6111 5.2214 11.534 2.5718 5.8449 5.1435 12.391 2.6497 6.5463 5.3773 13.95 2.74 7.4036 5.78 16.132h-13.015zm-14.573-41.772q-0.38966 1.169-1.169 3.1952-0.77932 2.0262-1.7924 4.6759t-2.26 5.8449q-1.169 3.1952-2.4159 6.7022h15.353q-1.2469-3.5069-2.4159-6.7022-1.169-3.1952-2.26-5.8449-1.0131-2.6497-1.7924-4.6759-0.77932-2.0262-1.2469-3.1952z"/><path d="m575.07-54.007v10.365h-16.288v43.642h-12.157v-43.642h-16.288v-10.365h44.733z"/><path d="m582.81-54.007h12.157v54.007h-12.157v-54.007z"/><path d="m617.68-27.042q0 3.9745 0.93518 7.1697 1.0131 3.1952 2.8056 5.5332 1.8704 2.26 4.5201 3.5069t6.0787 1.2469q3.3511 0 6.0008-1.2469 2.7276-1.2469 4.52-3.5069 1.8704-2.338 2.8056-5.5332 1.0131-3.1952 1.0131-7.1697t-1.0131-7.1697q-0.93519-3.2731-2.8056-5.5332-1.7924-2.338-4.52-3.5849-2.6497-1.2469-6.0008-1.2469-3.429 0-6.0787 1.3248-2.6497 1.2469-4.5201 3.5849-1.7924 2.26-2.8056 5.5332-0.93518 3.1952-0.93518 7.0918zm41.226 0q0 6.9359-2.1042 12.235-2.0262 5.2214-5.6111 8.8063-3.5849 3.5069-8.5725 5.2994-4.9097 1.7924-10.599 1.7924-5.5332 0-10.443-1.7924-4.9097-1.7924-8.5725-5.2994-3.6628-3.5849-5.767-8.8063-2.1042-5.2994-2.1042-12.235 0-6.9359 2.1821-12.157 2.1821-5.2994 5.8449-8.8842 3.7407-3.5849 8.5725-5.3773 4.9097-1.7924 10.287-1.7924 5.5332 0 10.443 1.7924 4.9097 1.7924 8.5725 5.3773t5.767 8.8842q2.1042 5.2214 2.1042 12.157z"/><path d="m705.2 0q-5.2214-9.2739-11.3-18.314-6.0787-9.0401-12.937-17.067v35.381h-12.002v-54.007h9.8974q2.5718 2.5718 5.689 6.3125 3.1173 3.7407 6.3125 8.027 3.2732 4.2083 6.4684 8.8063 3.1952 4.5201 6.0008 8.7284v-31.874h12.079v54.007h-10.209z"/></g></g></svg>
