<?xml version="1.0" encoding="UTF-8" standalone="no"?>
<svg version="1.1" x="0px" y="0px" viewBox="0 0 238 64" width="238" height="64" xmlns="http://www.w3.org/2000/svg" xmlns:svg="http://www.w3.org/2000/svg">
<style type="text/css">
  path {fill:#ffffff;}
	.cyclone {fill:#ff0000;}
</style>
<path d="m 62.835628,32.648567 c -0.664649,0.179398 -1.115834,0.237581 -1.508801,0.421827 -2.488793,1.158815 -5.079466,1.517611 -7.801129,1.124875 -1.300188,-0.189095 -2.357804,-0.751533 -3.187402,-1.716403 -0.426927,-0.499406 -0.747123,-0.523649 -1.314742,-0.213339 -1.600978,0.872748 -3.201956,1.745495 -5.079467,1.924893 -1.343851,0.130913 -2.459684,-0.213338 -3.240767,-1.343061 -0.417225,-0.610923 -0.756826,-0.640015 -1.431177,-0.27637 -1.644641,0.887293 -3.255322,1.905499 -5.288079,1.779435 -2.333547,-0.145458 -3.71621,-1.498216 -3.803536,-3.810997 -0.07762,-2.065503 0.722866,-3.883727 1.440881,-5.726194 1.033358,-2.671577 2.090974,-5.333456 3.18255,-7.980791 0.218315,-0.523648 0.606431,-0.998811 0.994547,-1.425487 0.659797,-0.722441 1.465137,-0.766078 2.31414,-0.324856 0.887816,0.465465 1.208011,1.236392 0.912073,2.133383 -0.557917,1.701857 -1.203159,3.369775 -1.838699,5.047389 -0.727717,1.915196 -1.513652,3.810998 -2.188003,5.745588 -0.160098,0.455768 0.02426,1.032751 0.05337,1.551551 0.548213,-0.04849 1.144941,0.02424 1.634938,-0.169701 2.571267,-1.032751 3.808387,-3.190377 4.730162,-5.648616 0.931478,-2.497027 1.964836,-4.960114 2.978789,-7.42805 0.339602,-0.829111 0.916924,-1.415791 1.882362,-1.493368 1.60583,-0.126064 2.590674,0.892142 2.090974,2.41945 -0.785934,2.409752 -1.736818,4.766171 -2.639188,7.141983 -0.494847,1.309122 -1.07217,2.589151 -1.523354,3.912818 -0.121287,0.358796 -0.06792,0.989114 0.1698,1.192755 0.252276,0.223036 0.853855,0.20849 1.227417,0.08243 0.509402,-0.174549 0.994547,-0.499405 1.416623,-0.848504 2.648891,-2.186718 5.700452,-3.883727 7.985484,-6.516515 0.339601,-0.392736 0.713163,-0.76123 1.03821,-1.168512 0.456036,-0.572134 0.650094,-1.153966 -0.09703,-1.667917 -0.751975,-0.513951 -1.246822,-0.392737 -1.751373,0.431525 -0.815043,1.328516 -1.731967,1.755192 -2.784731,1.294575 -0.650095,-0.286067 -1.130388,-0.746684 -1.033359,-1.493368 0.126138,-0.984265 0.281384,-1.978227 0.562768,-2.923704 0.33475,-1.120026 0.819895,-2.196414 1.232268,-3.292197 0.504551,-1.343062 1.275931,-2.002471 2.34325,-2.002471 1.489394,0.0048 2.323843,0.926082 2.032756,2.404904 -0.189206,0.974568 -0.116434,1.570946 1.067319,1.595189 0.43663,0.0097 0.882964,0.213338 1.300188,0.387888 2.944829,1.216998 3.119482,4.412223 1.533058,6.545606 -1.314743,1.764889 -2.949681,3.292197 -4.434224,4.931023 -0.412373,0.455768 -0.897518,0.882445 -1.183753,1.410942 -0.548214,1.008508 0.05337,1.968531 1.17405,1.740646 1.353554,-0.27637 2.716811,-0.703046 3.963634,-1.304272 1.756224,-0.843656 3.420271,-1.886105 5.103723,-2.875218 0.286236,-0.169701 0.557917,-0.470314 0.688906,-0.775776 0.747123,-1.735798 1.460286,-3.486141 2.158894,-5.236485 0.23287,-0.576983 -0.04366,-0.867899 -0.635539,-0.887293 -0.553065,-0.0194 -1.110982,-0.0048 -1.664047,-0.05334 -1.067319,-0.08727 -1.756224,-0.809715 -1.785333,-1.832769 -0.03396,-1.086086 0.533659,-1.86671 1.600978,-1.97338 1.062467,-0.106669 2.14434,-0.106669 3.21651,-0.05333 0.863558,0.04364 1.387514,-0.184247 1.702859,-1.061843 0.950883,-2.666728 1.950282,-5.3189108 2.998195,-7.9468505 0.548213,-1.372153 1.314742,-1.7648894 2.668296,-1.6242801 1.227417,0.1260636 1.97454,1.0860858 1.620384,2.2739921 -0.383264,1.2751811 -0.916924,2.5067247 -1.387514,3.7528145 -0.446333,1.183057 -0.887815,2.370964 -1.363257,3.544324 -0.33475,0.819413 -0.02426,1.066691 0.77138,1.023054 1.397217,-0.07273 2.799286,-0.184247 4.196503,-0.164852 0.824746,0.01455 1.644641,0.256975 1.838699,1.275181 0.189206,0.984265 -0.271681,1.920044 -1.169199,2.366115 -0.203761,0.101821 -0.426928,0.189096 -0.645243,0.20849 -1.164347,0.121215 -2.328695,0.232733 -3.493043,0.315159 -1.557315,0.106669 -1.615532,0.256975 -0.984844,1.653371 1.193457,2.666729 1.654344,5.49831 1.455435,8.397771 -0.295939,4.38798 -1.828996,8.334738 -4.739865,11.651179 -1.785333,2.036411 -3.924822,3.621902 -6.753216,3.971001 -2.872058,0.353948 -4.938775,-1.444882 -5.016398,-4.329797 -0.06307,-2.38551 1.062467,-4.402527 1.862956,-6.521364 0.174652,-0.441222 0.354156,-0.872747 0.620986,-1.541853 z m 8.771418,-9.314156 c -0.08733,0.01455 -0.174652,0.02909 -0.257127,0.04364 -0.291086,0.606074 -0.611282,1.202452 -0.863557,1.827921 -1.499098,3.69948 -2.983641,7.408656 -4.473036,11.112985 -0.422076,1.056994 -0.878112,2.099442 -1.222565,3.180679 -0.09703,0.300613 0.03396,0.838808 0.261978,1.032752 0.208613,0.179398 0.747123,0.164852 1.033359,0.01939 0.572471,-0.286067 1.193456,-0.62062 1.571869,-1.10548 1.101279,-1.435185 2.27533,-2.860673 3.090373,-4.46071 1.581572,-3.103102 2.304438,-6.419542 1.533058,-9.915381 -0.13099,-0.596377 -0.446334,-1.158815 -0.674352,-1.735798 z" />
<path d="m 10.983347,29.884866 c 2.668297,0 5.341445,0.01939 8.009741,-0.0097 1.266228,-0.01455 2.547011,-0.17455 3.177699,-1.478822 0.640391,-1.333364 -0.02426,-2.535817 -0.785935,-3.529779 -1.377811,-1.808527 -2.8478,-3.563719 -4.405115,-5.221939 -3.88601,-4.150399 -4.041256,-8.81475 -1.241971,-13.3093993 0.90237,-1.4497305 2.479091,-2.5649079 3.924822,-3.5831133 2.784732,-1.95883333 5.904213,-3.00128169 9.37785,-2.69097147 1.581572,0.14060932 3.08067,0.48485974 4.376006,1.47397357 1.280783,0.974568 2.032757,2.3079323 1.615533,3.8255432 -0.756826,2.7491546 -1.70771,5.4498233 -2.736217,8.1117033 -0.460888,1.187906 -1.67375,1.430336 -2.920572,0.892142 C 28.453413,13.96207 27.934308,12.71598 28.298166,11.600803 28.841529,9.9328862 29.443108,8.2795142 30.005876,6.621294 30.112608,6.3158353 30.190231,6.0006765 30.258152,5.6806691 30.500724,4.575189 30.005876,3.9448713 28.860934,3.8721424 27.259956,3.7703218 25.872442,4.4588226 24.484928,5.0939889 23.029493,5.7582467 21.729305,6.6358428 20.608621,7.8237491 18.066462,10.51472 18.003393,13.38509 20.50674,16.134244 c 1.445732,1.59034 2.959384,3.137043 4.278978,4.824355 1.499097,1.915196 2.673148,4.024335 2.435427,6.618335 -0.378413,4.121307 -2.949681,6.584395 -7.306281,6.744399 -3.706507,0.13576 -7.422717,0.111517 -11.1389258,0.09212 -2.2462206,-0.0097 -4.4875898,-0.121212 -6.7338104,-0.218184 -1.15949624,-0.04849 -1.88721346,-0.717592 -2.00849967,-1.755192 -0.16009779,-1.38185 0.23772097,-2.133383 1.48939467,-2.458239 0.7083115,-0.184247 1.4796918,-0.169701 2.2219634,-0.174549 2.4111699,-0.01939 4.8223397,-0.0097 7.2286578,-0.0097 0.0097,0.02909 0.0097,0.05818 0.0097,0.08727 z" />
<path d="m 238,29.45819 c -1.95998,3.379472 -4.89511,5.522552 -8.62587,6.492271 -3.40572,0.882445 -5.96728,-1.769738 -4.96789,-5.154059 0.63069,-2.138231 1.60098,-4.17949 2.42088,-6.264387 0.28623,-0.72729 0.63554,-1.430336 0.87326,-2.172172 0.26683,-0.824261 -0.22802,-1.410942 -0.98485,-1.086085 -1.77078,0.756381 -3.50274,1.663068 -4.35175,3.544324 -1.39236,3.083708 -2.71196,6.201356 -4.08977,9.289912 -0.20861,0.465466 -0.5094,0.911537 -0.849,1.294576 -0.56762,0.640015 -1.41662,0.732138 -2.06672,0.392736 -0.5191,-0.271521 -0.98969,-0.945476 -1.13524,-1.527308 -0.14554,-0.572134 0.0291,-1.304273 0.26683,-1.881256 1.89692,-4.499498 3.82294,-8.989299 5.78293,-13.459706 0.46574,-1.056994 0.93148,-2.196414 2.41602,-2.235203 0.76168,-0.01939 1.37781,0.20849 1.73682,0.858202 0.3493,0.640015 0.70346,0.567286 1.26623,0.281218 0.8587,-0.441222 1.74652,-0.950325 2.67315,-1.110328 2.79443,-0.494557 4.63798,1.260635 4.18194,4.276462 -0.22316,1.48852 -0.87811,2.923705 -1.43602,4.339495 -0.64525,1.633977 -1.43118,3.209771 -2.08613,4.843749 -0.14554,0.363644 -0.13584,1.10548 0.0679,1.221846 0.3299,0.193944 0.9994,0.193944 1.30989,-0.02424 1.46029,-1.027903 2.8381,-2.181869 4.27413,-3.24856 1.46029,-1.081237 2.45968,-0.838807 3.32324,0.746684 0,0.189095 0,0.383039 0,0.581832 z" />
<path d="m 157.58239,19.799784 c -2.43057,-0.01455 -2.43542,-0.01455 -3.36205,2.2449 -0.93633,2.288538 -1.88236,4.572228 -2.77503,6.88016 -0.13584,0.349099 -0.15039,1.0376 0.034,1.153966 0.35901,0.218187 0.99455,0.334553 1.34385,0.155155 1.53306,-0.785473 3.00305,-1.687312 4.4973,-2.550362 0.58702,-0.339402 1.20315,-0.654561 1.74167,-1.061843 0.36871,-0.281218 0.73742,-0.659409 0.91692,-1.076388 1.6689,-3.888575 4.5361,-6.579547 8.35419,-8.22807 2.14434,-0.926082 4.36146,-1.730949 6.78233,-1.643674 1.44088,0.05333 2.3481,0.596377 2.42087,1.604885 0.0825,1.120026 -0.78108,2.031563 -2.13464,2.235204 -4.5264,0.678803 -8.32023,2.598848 -10.84298,6.545606 -0.52396,0.824261 -0.85386,1.852164 -0.97514,2.821884 -0.0679,0.557588 0.31534,1.333364 0.74712,1.750343 0.54336,0.528497 1.29048,0.290916 1.87266,-0.184247 1.30989,-1.076388 2.53245,-2.167323 3.09522,-3.90312 0.47544,-1.473974 1.26623,-2.855824 1.9988,-4.232826 0.55791,-1.042448 1.77078,-1.406093 2.87206,-0.989114 0.96543,0.368494 1.33414,1.221847 0.87811,2.438845 -0.58703,1.585491 -1.30019,3.122496 -1.92603,4.698291 -0.28138,0.703046 -0.90237,1.522459 -0.16495,2.167323 0.78109,0.683652 1.53791,-0.06788 2.18801,-0.489709 1.03336,-0.678803 2.0279,-1.420639 2.98849,-2.201263 0.36386,-0.295764 0.6598,-0.732138 0.85385,-1.168512 0.80534,-1.818224 1.54276,-3.665539 2.33355,-5.488612 0.26198,-0.606075 0.0679,-0.853353 -0.53366,-0.911536 -0.19406,-0.01939 -0.38811,-0.05818 -0.57732,-0.09212 -1.07217,-0.184246 -1.63979,-0.732138 -1.6592,-1.600037 -0.0242,-0.979416 0.73257,-1.992773 1.66405,-2.133382 0.70831,-0.106669 1.43118,-0.169701 2.13949,-0.145458 0.81989,0.02909 1.25167,-0.334553 1.53791,-1.061843 0.45603,-1.149118 0.94118,-2.293387 1.48939,-3.403715 0.62099,-1.255787 1.44573,-1.609735 2.61493,-1.250938 0.9994,0.305461 1.58643,1.153966 1.35841,2.172171 -0.1795,0.819413 -0.49,1.619432 -0.80049,2.404904 -0.43178,1.090935 -0.39297,1.17821 0.81989,1.250938 0.38812,0.02424 0.78109,0.03394 1.1692,0.07273 1.25653,0.126064 1.95514,0.756382 1.94543,1.760041 -0.005,1.149118 -0.72286,1.973379 -1.92117,2.065503 -1.00425,0.07758 -2.02305,0.09697 -3.0273,0.02909 -0.84901,-0.05818 -1.31475,0.223036 -1.63494,1.023054 -1.05762,2.62794 -2.19286,5.221939 -3.25047,7.849879 -0.1601,0.397585 -0.0388,0.906688 -0.0437,1.362456 0.56276,0.0048 1.19345,0.184247 1.66889,-0.01939 1.04307,-0.44607 2.00365,-1.076388 2.9982,-1.638825 1.01395,-0.576983 2.05701,-1.115178 3.0273,-1.760041 0.40267,-0.266673 0.75683,-0.717593 0.95574,-1.163663 1.19345,-2.676426 2.32869,-5.381943 3.5076,-8.063218 0.19405,-0.436373 0.48514,-0.848504 0.80048,-1.212149 0.55792,-0.640015 1.29534,-0.722441 2.05217,-0.431525 0.75197,0.290916 1.40692,0.838807 1.24197,1.667917 -0.24257,1.226695 -0.6501,2.433996 -1.12554,3.597659 -1.00425,2.472785 -2.13949,4.892235 -3.11948,7.374717 -0.22317,0.567286 -0.0437,1.294575 -0.0534,1.949136 0.58218,-0.111518 1.24683,-0.08243 1.73197,-0.363645 0.94603,-0.557589 1.89692,-1.187906 2.63919,-1.978228 0.46574,-0.494556 0.68891,-1.313969 0.81019,-2.026713 0.60158,-3.578265 2.10068,-6.613487 5.07947,-8.805053 1.83385,-1.352758 3.93452,-1.614583 6.04975,-1.081237 2.19771,0.55274 3.29899,2.273992 3.61918,4.412224 0.67436,4.518892 -0.5094,8.557774 -3.60947,11.917852 -1.77563,1.924893 -3.93453,3.219468 -6.75807,2.744306 -1.39237,-0.232733 -2.52761,-0.892142 -3.28928,-2.070351 -0.43663,-0.678804 -0.80049,-0.664258 -1.41177,-0.223036 -1.62524,1.173361 -3.40572,2.036411 -5.41422,2.307932 -1.70286,0.232733 -3.39601,-0.683652 -4.06066,-2.249749 -0.26683,-0.625469 -0.59673,-0.693349 -1.13039,-0.455768 -1.28078,0.567286 -2.55186,1.149118 -3.8375,1.706706 -1.35355,0.586681 -2.79928,0.82911 -4.2062,0.460617 -0.89267,-0.232733 -1.81929,-0.751533 -2.46939,-1.406093 -0.53851,-0.538194 -0.849,-0.523649 -1.37781,-0.184247 -1.59128,1.018206 -3.27958,1.677615 -5.23471,1.614583 -1.05762,-0.03394 -1.86781,-0.378191 -2.37721,-1.246089 -0.43178,-0.736987 -0.86841,-0.649712 -1.40207,-0.218187 -1.53306,1.250938 -3.26503,1.478822 -5.15709,1.134571 -1.44573,-0.261824 -2.38206,-1.090934 -3.0176,-2.361266 -0.49485,-0.993963 -0.68891,-1.086086 -1.62524,-0.480012 -1.89206,1.226696 -3.82779,2.380662 -6.04975,2.855824 -0.92663,0.198793 -2.0085,0.27637 -2.88176,-0.0097 -2.66345,-0.872747 -3.12434,-2.516422 -2.41117,-5.236485 0.77623,-2.967341 2.11523,-5.789225 3.27958,-8.645049 0.32989,-0.804867 0.359,-1.13942 -0.6404,-1.270332 -1.41662,-0.189096 -1.93087,-0.732138 -1.97939,-1.740647 -0.0437,-0.979416 0.58703,-1.789132 1.55247,-1.949136 0.51425,-0.08243 1.05276,-0.203641 1.55246,-0.126063 1.40207,0.208489 1.97454,-0.567286 2.41117,-1.721252 0.42693,-1.124875 0.96059,-2.210961 1.5185,-3.277652 0.44149,-0.843656 1.24197,-1.0909338 2.1589,-1.0327508 0.81504,0.04849 1.35355,0.4654648 1.56216,1.2412408 0.0873,0.324856 0.0922,0.712744 0.005,1.0376 -0.20376,0.751532 -0.46089,1.493367 -0.75198,2.220657 -0.48999,1.226695 -0.33475,1.469125 1.01395,1.478822 0.42208,0.0048 0.85386,-0.01455 1.26623,0.06788 1.22257,0.232732 1.6786,0.761229 1.63494,1.803678 -0.0485,1.10548 -0.67435,1.784283 -1.83385,1.915196 -0.63069,0.03879 -1.28563,0.03879 -1.94058,0.06788 z m 52.65762,3.263106 c 0,-0.193944 0.0728,-0.431525 -0.0145,-0.576983 -0.34445,-0.58668 -0.62584,-1.289727 -1.13524,-1.672766 -0.58702,-0.441223 -1.25652,-0.121215 -1.8484,0.358796 -1.48454,1.192755 -2.09583,2.899461 -2.61493,4.591622 -0.37841,1.221846 -0.48515,2.550362 -0.52881,3.83524 -0.0291,0.790321 0.38327,1.561248 1.25653,1.789132 0.78108,0.203641 1.47969,-0.04849 1.98909,-0.712744 1.71741,-2.254597 2.85265,-4.727382 2.89631,-7.612297 z" />
<path d="m 128.92974,34.505579 c -3.15829,-0.13576 -6.24867,-0.237581 -9.33904,-0.407282 -1.1886,-0.06788 -2.38691,-0.261824 -2.79443,-1.682463 -0.42693,-1.478822 0.20861,-2.618243 1.74167,-2.749155 1.45058,-0.126063 2.92057,0.04849 4.38571,0.05818 4.23531,0.02909 8.47548,0.145458 12.70594,0.02909 2.71681,-0.07273 3.79868,-1.338213 2.56156,-4.034033 -0.47544,-1.042448 -1.29533,-1.939439 -2.00364,-2.865521 -1.339,-1.760041 -2.76533,-3.452201 -4.05096,-5.251031 -2.23167,-3.122496 -2.09583,-6.409845 -0.54337,-9.7844685 1.72227,-3.7382685 4.88056,-5.6486158 8.58222,-6.87046233 2.05216,-0.67880356 4.15769,-1.10063152 6.34084,-0.89699043 1.82414,0.1697009 3.39601,0.84850453 4.62343,2.24490056 0.76653,0.8727475 1.08187,1.9442874 0.8393,3.0061302 -0.42208,1.8279212 -0.9994,3.6267507 -1.62038,5.4013375 -0.36386,1.037599 -0.92178,2.012167 -1.44088,2.991584 -0.45604,0.853353 -1.23712,1.377002 -2.17345,1.149118 -0.61614,-0.150307 -1.37781,-0.625469 -1.62039,-1.158815 -0.26683,-0.596378 -0.1795,-1.473974 0.0291,-2.14308 0.50455,-1.6097338 1.17405,-3.1709824 1.77078,-4.7564737 0.86841,-2.3079323 0.19891,-3.2534087 -2.20741,-2.817035 -3.41542,0.625469 -6.32143,2.2255061 -8.36389,5.1201186 -1.49425,2.1139881 -1.3099,4.4219201 0.32019,6.4922711 1.85325,2.35157 3.82294,4.630411 5.44818,7.137135 1.75622,2.700669 1.83385,5.677708 0.17465,8.518986 -1.07702,1.842467 -2.8478,2.778246 -4.92907,2.923704 -2.82354,0.203641 -5.66164,0.24243 -8.43667,0.34425 z" />
<path d="m 201.58018,12.861441 c -0.0243,1.653372 -1.15465,2.841278 -2.70711,2.831581 -1.3584,-0.0097 -2.27048,-1.023054 -2.24137,-2.497027 0.034,-1.648523 1.10613,-2.773398 2.63919,-2.763701 1.43118,0.0097 2.33355,0.955174 2.30929,2.429147 z" />
<path class="cyclone" d="m 83.420188,35.877732 c 0.562768,-0.08727 1.130387,-0.160003 1.688304,-0.271521 1.392366,-0.27637 2.750771,-0.654561 4.050959,-1.231544 0.844152,-0.373342 1.630087,-0.838807 2.289884,-1.488519 1.081873,-1.066691 1.261377,-2.327327 0.708312,-3.718874 -0.19891,-0.499406 -0.528808,-0.916385 -0.844153,-1.343061 -1.266228,-1.697009 -2.018202,-3.587962 -2.173448,-5.706799 -0.126138,-1.692161 0.09703,-3.326138 0.722865,-4.906781 0.494848,-1.236392 1.188605,-2.361267 2.032757,-3.384321 0.650094,-0.790321 1.324446,-1.566096 2.052163,-2.283689 1.63979,-1.6097341 3.531854,-2.8606722 5.637383,-3.7964515 1.858106,-0.8291101 3.793836,-1.3673044 5.792626,-1.697009 1.78048,-0.2957644 3.57067,-0.3927364 5.37056,-0.3297046 1.8581,0.06788 3.6968,0.2909158 5.5258,0.6303176 0.0437,0.0097 0.0873,0.024243 0.13584,0.063032 -0.23287,0.043637 -0.47059,0.087275 -0.70346,0.1309121 -0.23287,0.043637 -0.47059,0.092123 -0.70346,0.1406093 -1.95999,0.4121308 -3.86176,0.9697195 -5.55491,2.0897454 -0.62099,0.4121308 -1.15465,0.9212335 -1.5185,1.5806427 -0.58703,1.066691 -0.4997,2.128534 0.11158,3.141891 0.31534,0.5188 0.72286,0.984265 1.07217,1.483671 0.91207,1.309121 1.51365,2.754003 1.77078,4.329797 0.54821,3.306743 -0.25713,6.264387 -2.30929,8.897176 -0.72772,0.935779 -1.51365,1.823072 -2.36751,2.647334 -1.05761,1.023054 -2.24622,1.86671 -3.5173,2.603696 -1.33415,0.780625 -2.741067,1.396396 -4.211056,1.86671 -1.654344,0.533346 -3.352351,0.872748 -5.084318,1.066692 -1.479692,0.164852 -2.964235,0.208489 -4.448778,0.135761 -0.975141,-0.04849 -1.950283,-0.160004 -2.920572,-0.266673 -0.834449,-0.09212 -1.664047,-0.213339 -2.493645,-0.324856 -0.03881,-0.0048 -0.07762,-0.01939 -0.116435,-0.02424 0.0049,-0.0097 0.0049,-0.0194 0.0049,-0.03394 z M 103.31598,21.244666 c -0.005,-1.823072 -1.44088,-3.238863 -3.28443,-3.238863 -1.780484,0.0048 -3.24077,1.469125 -3.226216,3.263106 0.0097,1.808527 1.513652,3.267955 3.342646,3.238863 1.72712,-0.02909 3.17285,-1.493368 3.168,-3.263106 z" />
<path d="m 45.435507,49.527343 -3.632813,14.277344 h -3.447265 l -1.933594,-7.5 q -0.05859,-0.214844 -0.15625,-0.654297 -0.09766,-0.439453 -0.205078,-0.957031 -0.107422,-0.527344 -0.195313,-0.986328 -0.07813,-0.46875 -0.107421,-0.742188 -0.0293,0.273438 -0.117188,0.732422 -0.07813,0.458985 -0.185547,0.976563 -0.09766,0.517578 -0.195312,0.966797 -0.09766,0.449218 -0.15625,0.683593 l -1.923828,7.480469 h -3.4375 L 26.099569,49.527343 h 2.978516 l 1.826172,7.792969 q 0.07813,0.351563 0.175781,0.839844 0.107422,0.488281 0.205078,1.02539 0.107422,0.527344 0.185547,1.025391 0.08789,0.488281 0.126953,0.849609 0.04883,-0.371093 0.126953,-0.859375 0.07813,-0.498046 0.166016,-1.005859 0.09766,-0.517578 0.195313,-0.957031 0.09766,-0.439453 0.175781,-0.712891 l 2.080078,-7.998047 h 2.861328 l 2.080078,7.998047 q 0.06836,0.263672 0.15625,0.712891 0.09766,0.439453 0.195313,0.957031 0.09766,0.517578 0.175781,1.015625 0.08789,0.488281 0.126953,0.849609 0.06836,-0.488281 0.185547,-1.18164 0.126953,-0.703125 0.263672,-1.396485 0.146484,-0.693359 0.253906,-1.162109 l 1.816406,-7.792969 z" />
<path d="M 55.455038,63.804687 H 47.232382 V 49.527343 h 8.222656 v 2.480469 h -5.195312 v 3.134766 h 4.833984 v 2.480468 h -4.833984 v 3.681641 h 5.195312 z" />
<path d="M 67.173788,63.804687 66.138632,60.40625 h -5.205078 l -1.035156,3.398437 H 56.636679 L 61.675741,49.46875 h 3.701172 l 5.058594,14.335937 z m -1.757812,-5.9375 -1.035157,-3.320312 q -0.09766,-0.332032 -0.263671,-0.84961 -0.15625,-0.527344 -0.322266,-1.064453 -0.15625,-0.546875 -0.253906,-0.947266 -0.09766,0.400391 -0.273438,0.996094 -0.166015,0.585938 -0.322265,1.113281 -0.15625,0.527344 -0.22461,0.751954 l -1.02539,3.320312 z" />
<path d="M 77.740194,63.804687 H 74.712851 V 52.046875 h -3.876953 v -2.519532 h 10.78125 v 2.519532 h -3.876954 z" />
<path d="m 95.513632,63.804687 h -3.017578 v -6.162109 h -5.654297 v 6.162109 H 83.814413 V 49.527343 h 3.027344 v 5.595703 h 5.654297 v -5.595703 h 3.017578 z" />
<path d="M 107.3398,63.804687 H 99.117148 V 49.527343 h 8.222652 v 2.480469 h -5.19531 v 3.134766 h 4.83399 v 2.480468 h -4.83399 v 3.681641 h 5.19531 z" />
<path d="m 114.47848,49.527343 q 1.94336,0 3.20312,0.46875 1.26953,0.46875 1.88477,1.416016 0.61523,0.947266 0.61523,2.392578 0,0.976563 -0.37109,1.708984 -0.3711,0.732422 -0.97657,1.240235 -0.60546,0.507812 -1.30859,0.830078 l 4.19922,6.220703 h -3.35938 l -3.4082,-5.478516 h -1.61133 v 5.478516 h -3.02734 V 49.527343 Z m -0.21485,2.480469 h -0.91797 v 3.857422 h 0.97657 q 1.5039,0 2.14843,-0.498047 0.6543,-0.507812 0.6543,-1.484375 0,-1.015625 -0.70312,-1.445312 -0.69336,-0.429688 -2.15821,-0.429688 z" />
<path d="m 137.14449,59.839843 q 0,1.269532 -0.61523,2.207032 -0.61524,0.9375 -1.79688,1.445312 Q 133.56051,64 131.88082,64 q -0.74219,0 -1.45508,-0.09766 -0.70312,-0.09766 -1.35742,-0.283203 -0.64453,-0.195312 -1.23047,-0.478515 v -2.8125 q 1.01563,0.449218 2.10938,0.810546 1.09375,0.361329 2.16796,0.361329 0.74219,0 1.19141,-0.195313 0.45898,-0.195312 0.66406,-0.537109 0.20508,-0.341797 0.20508,-0.78125 0,-0.53711 -0.36133,-0.917969 -0.36133,-0.380859 -0.99609,-0.712891 -0.625,-0.332031 -1.41602,-0.71289 -0.49804,-0.234375 -1.08398,-0.566407 -0.58594,-0.341796 -1.11328,-0.830078 -0.52735,-0.488281 -0.86914,-1.18164 -0.33203,-0.703125 -0.33203,-1.679688 0,-1.279297 0.58593,-2.1875 0.58594,-0.908203 1.66993,-1.386719 1.09375,-0.488281 2.57812,-0.488281 1.11328,0 2.11914,0.263672 1.01563,0.253906 2.11914,0.742188 l -0.97656,2.353515 q -0.98633,-0.40039 -1.76758,-0.615234 -0.78125,-0.22461 -1.5918,-0.22461 -0.5664,0 -0.96679,0.185547 -0.40039,0.175782 -0.60547,0.507813 -0.20508,0.322265 -0.20508,0.751953 0,0.507812 0.29297,0.859375 0.30273,0.341797 0.89844,0.664062 0.60547,0.322266 1.5039,0.751954 1.09375,0.517578 1.86524,1.083984 0.78125,0.556641 1.20117,1.318359 0.41992,0.751953 0.41992,1.875 z" />
<path d="m 145.24019,63.804687 h -3.02734 V 52.046875 h -3.87695 v -2.519532 h 10.78125 v 2.519532 h -3.87696 z" />
<path d="m 160.05465,63.804687 -1.03516,-3.398437 h -5.20508 l -1.03515,3.398437 h -3.26172 L 154.5566,49.46875 h 3.70117 l 5.0586,14.335937 z m -1.75782,-5.9375 -1.03515,-3.320312 q -0.0977,-0.332032 -0.26367,-0.84961 -0.15625,-0.527344 -0.32227,-1.064453 -0.15625,-0.546875 -0.25391,-0.947266 -0.0977,0.400391 -0.27343,0.996094 -0.16602,0.585938 -0.32227,1.113281 -0.15625,0.527344 -0.22461,0.751954 l -1.02539,3.320312 z" />
<path d="m 170.62105,63.804687 h -3.02734 V 52.046875 h -3.87695 v -2.519532 h 10.78125 v 2.519532 h -3.87696 z" />
<path d="M 176.69527,63.804687 V 49.527343 h 3.02735 v 14.277344 z" />
<path d="m 196.27535,56.646484 q 0,1.650391 -0.41016,3.007812 -0.41015,1.347657 -1.25,2.324219 -0.83007,0.976563 -2.10937,1.503906 Q 191.22652,64 189.47848,64 q -1.74805,0 -3.02735,-0.517579 -1.2793,-0.527343 -2.11914,-1.503906 -0.83008,-0.976562 -1.24023,-2.333984 -0.41016,-1.357422 -0.41016,-3.017578 0,-2.216797 0.72266,-3.857422 0.73242,-1.650391 2.24609,-2.558594 1.51367,-0.908203 3.84766,-0.908203 2.32422,0 3.81836,0.908203 1.5039,0.908203 2.22656,2.558594 0.73242,1.65039 0.73242,3.876953 z m -10.41992,0 q 0,1.494141 0.37109,2.578125 0.38086,1.074219 1.18164,1.660156 0.80078,0.576172 2.07032,0.576172 1.28906,0 2.08984,-0.576172 0.80078,-0.585937 1.16211,-1.660156 0.37109,-1.083984 0.37109,-2.578125 0,-2.246094 -0.83984,-3.535156 -0.83985,-1.289063 -2.76367,-1.289063 -1.2793,0 -2.08985,0.585938 -0.80078,0.576172 -1.18164,1.660156 -0.37109,1.074219 -0.37109,2.578125 z" />
<path d="m 211.90035,63.804687 h -3.84766 l -6.21093,-10.800781 h -0.0879 q 0.0391,0.673828 0.0684,1.357422 0.0293,0.683593 0.0586,1.367187 0.0293,0.673828 0.0586,1.357422 v 6.71875 h -2.70508 V 49.527343 h 3.81836 l 6.20118,10.69336 h 0.0684 q -0.0195,-0.664063 -0.0488,-1.31836 -0.0293,-0.654297 -0.0586,-1.308593 -0.0195,-0.654297 -0.0391,-1.308594 v -6.757813 h 2.72461 z" />
</svg>
