<?xml version="1.0" encoding="UTF-8" standalone="no"?>
<svg
   xmlns:dc="http://purl.org/dc/elements/1.1/"
   xmlns:cc="http://creativecommons.org/ns#"
   xmlns:rdf="http://www.w3.org/1999/02/22-rdf-syntax-ns#"
   xmlns:svg="http://www.w3.org/2000/svg"
   xmlns="http://www.w3.org/2000/svg"
   id="svg2"
   xml:space="preserve"
   enable-background="new 0 0 1371 179"
   viewBox="0 0 1286.2493 185.51648"
   height="185.51648"
   width="1286.2493"
   y="0px"
   x="0px"
   version="1.1"><metadata
     id="metadata17"><rdf:RDF><cc:Work
         rdf:about=""><dc:format>image/svg+xml</dc:format><dc:type
           rdf:resource="http://purl.org/dc/dcmitype/StillImage" /><dc:title></dc:title></cc:Work></rdf:RDF></metadata><defs
     id="defs15" /><g
     transform="translate(-59.366156,1.7620487)"
     style="fill:#646464;fill-opacity:0.30188682;stroke:#000000;stroke-opacity:0.30196078"
     id="Layer_3"><path
       style="clip-rule:evenodd;fill:#646464;fill-opacity:0.30188682;fill-rule:evenodd;stroke:#000000;stroke-opacity:0.30196078"
       id="path5"
       d="m 674.396,18.923 c -17.351,18.332 -35.38,36.811 -52.8,55.329 -0.439,0.468 -1.211,1.063 -1.129,1.809 6.414,-0.781 12.919,-1.445 19.349,-2.206 -13.618,15.194 -27.868,30.212 -41.79,45.461 -0.266,0.29 -1.075,0.818 -0.778,1.403 4.571,-0.521 9.154,-1.028 13.712,-1.568 -18.084,13.091 -36.691,25.874 -55.063,38.826 -2.54,1.791 -4.912,3.969 -7.73,5.327 10.273,-14.368 20.512,-28.78 30.571,-43.426 -6.44,0.632 -12.693,1.506 -19.183,2.076 7.502,-11.301 15.216,-22.638 22.778,-34.053 2.493,-3.762 5.238,-7.405 7.298,-11.389 -7.185,0.933 -14.518,1.674 -21.787,2.498 12.013,-17.224 24.512,-35.158 36.959,-52.378 22.67,-2.543 46.372,-5.142 69.316,-7.894 0.176,-0.002 0.258,0.066 0.277,0.185 z" /></g><g
     transform="translate(-27.366156,7.6350687)"
     id="Layer_1"><g
       id="text8"
       style="font-size:77.93199921px;font-family:Avenir-Light"
       transform="translate(44.7944,121.958)"><path
         id="path4141"
         style="font-style:normal;font-variant:normal;font-weight:normal;font-stretch:normal;font-family:Ubuntu;-inkscape-font-specification:Ubuntu"
         d="m 19.249204,-5.3773079 q 11.845664,0 11.845664,-8.1049281 0,-2.493824 -1.091048,-4.208328 -1.013116,-1.792436 -2.805552,-3.039348 -1.792436,-1.324844 -4.130396,-2.260028 -2.260028,-0.935184 -4.831784,-1.870368 -2.961416,-1.013116 -5.611104,-2.260028 -2.6496881,-1.324844 -4.5979881,-3.039348 -1.9483,-1.792436 -3.1172799,-4.208328 -1.091048,-2.415892 -1.091048,-5.8449 0,-7.091812 4.8317839,-11.066343 4.8317841,-3.974532 13.3263721,-3.974532 4.909716,0 8.884248,1.091048 4.052464,1.013116 5.922832,2.260028 l -2.415892,6.156627 q -1.636572,-1.013116 -4.909716,-1.9483 -3.195212,-1.013116 -7.481472,-1.013116 -2.182096,0 -4.052464,0.467592 -1.870368,0.467592 -3.273144,1.402776 -1.402776,0.935184 -2.260028,2.415892 -0.77932,1.402776 -0.77932,3.351076 0,2.182096 0.857252,3.662804 0.857252,1.480708 2.415892,2.649688 1.55864,1.091048 3.584872,2.026232 2.104164,0.935184 4.597988,1.870368 3.50694,1.402776 6.390424,2.805552 2.961416,1.402776 5.06558,3.351076 2.182096,1.9483 3.351076,4.67592 1.16898,2.649688 1.16898,6.468356 0,7.0918121 -5.221444,10.91048 -5.143512,3.818668 -14.573284,3.818668 -3.195212,0 -5.922832,-0.46759201 Q 10.676684,0.311728 8.5725199,-0.233796 6.4683559,-0.85725199 4.909716,-1.480708 3.429008,-2.182096 2.571756,-2.649688 l 2.260028,-6.2345599 q 1.7924359,1.013116 5.45524,2.260028 3.662804,1.246912 8.96218,1.246912 z" /><path
         id="path4143"
         style="font-style:normal;font-variant:normal;font-weight:normal;font-stretch:normal;font-family:Ubuntu;-inkscape-font-specification:Ubuntu"
         d="m 68.209983,1.16898 q -5.299376,0 -9.195976,-1.636572 -3.8966,-1.636572 -6.390424,-4.442124 -2.493824,-2.8834839 -3.740736,-6.780084 -1.16898,-3.8966 -1.16898,-8.416656 l 0,-33.900419 7.559404,0 0,33.043167 q 0,8.104928 3.584872,11.7677321 3.584872,3.662804 9.35184,3.662804 2.883484,0 5.221443,-0.857252 2.415892,-0.935184 4.130396,-2.805552 1.714504,-1.8703681 2.649688,-4.7538521 0.935184,-2.961416 0.935184,-7.01388 l 0,-33.043167 7.559404,0 0,33.900419 q 0,4.520056 -1.246912,8.416656 -1.16898,3.8966001 -3.740736,6.780084 -2.493824,2.805552 -6.390424,4.442124 -3.818668,1.636572 -9.118043,1.636572 z" /><path
         id="path4145"
         style="font-style:normal;font-variant:normal;font-weight:normal;font-stretch:normal;font-family:Ubuntu;-inkscape-font-specification:Ubuntu"
         d="m 128.10073,-22.60028 q 1.24691,1.55864 3.11728,4.130396 1.9483,2.493824 3.97453,5.611104 2.02623,3.0393481 3.97453,6.3904241 Q 141.19331,-3.11728 142.59608,0 l -8.26079,0 q -1.55864,-2.961416 -3.42901,-6.0007639 -1.79243,-3.039348 -3.6628,-5.7669681 -1.87037,-2.805552 -3.74074,-5.221444 -1.79243,-2.415892 -3.27314,-4.208328 -1.01312,0.07793 -2.10417,0.07793 -1.01311,0 -2.10416,0 l -6.78008,0 0,21.119572 -7.55941,0 0,-53.227555 q 3.19521,-0.77932 7.09181,-1.013116 3.97454,-0.311728 7.24768,-0.311728 11.37807,0 17.3009,4.28626 6.00077,4.286259 6.00077,12.780847 0,5.377308 -2.88349,9.195976 -2.80555,3.818668 -8.33872,5.689036 z m -11.456,-25.3279 q -4.83179,0 -7.40354,0.233796 l 0,20.340252 5.3773,0 q 3.8966,0 7.01388,-0.38966 3.11728,-0.38966 5.22145,-1.480708 2.18209,-1.091048 3.35107,-3.039348 1.16898,-2.026232 1.16898,-5.299376 0,-3.039348 -1.16898,-5.06558 -1.16898,-2.026232 -3.19521,-3.195212 -1.9483,-1.16898 -4.67592,-1.636572 -2.64969,-0.467592 -5.68903,-0.467592 z" /><path
         id="path4147"
         style="font-style:normal;font-variant:normal;font-weight:normal;font-stretch:normal;font-family:Ubuntu;-inkscape-font-specification:Ubuntu"
         d="m 150.6937,0 0,-54.006875 32.57557,0 0,6.468355 -25.01617,0 0,16.287788 22.21062,0 0,6.390424 -22.21062,0 0,24.860308 -7.5594,0 z" /><path
         id="path4149"
         style="font-style:normal;font-variant:normal;font-weight:normal;font-stretch:normal;font-family:Ubuntu;-inkscape-font-specification:Ubuntu"
         d="m 223.05964,-5.3773079 q 11.84567,0 11.84567,-8.1049281 0,-2.493824 -1.09105,-4.208328 -1.01312,-1.792436 -2.80555,-3.039348 -1.79244,-1.324844 -4.1304,-2.260028 -2.26003,-0.935184 -4.83178,-1.870368 -2.96142,-1.013116 -5.61111,-2.260028 -2.64968,-1.324844 -4.59798,-3.039348 -1.9483,-1.792436 -3.11728,-4.208328 -1.09105,-2.415892 -1.09105,-5.8449 0,-7.091812 4.83178,-11.066343 4.83179,-3.974532 13.32637,-3.974532 4.90972,0 8.88425,1.091048 4.05247,1.013116 5.92283,2.260028 l -2.41589,6.156627 q -1.63657,-1.013116 -4.90971,-1.9483 -3.19522,-1.013116 -7.48148,-1.013116 -2.18209,0 -4.05246,0.467592 -1.87037,0.467592 -3.27314,1.402776 -1.40278,0.935184 -2.26003,2.415892 -0.77932,1.402776 -0.77932,3.351076 0,2.182096 0.85725,3.662804 0.85725,1.480708 2.41589,2.649688 1.55864,1.091048 3.58487,2.026232 2.10417,0.935184 4.59799,1.870368 3.50694,1.402776 6.39043,2.805552 2.96141,1.402776 5.06558,3.351076 2.18209,1.9483 3.35107,4.67592 1.16898,2.649688 1.16898,6.468356 0,7.0918121 -5.22144,10.91048 -5.14351,3.818668 -14.57329,3.818668 -3.19521,0 -5.92283,-0.46759201 -2.64969,-0.38965999 -4.75385,-0.93518399 -2.10416,-0.62345599 -3.6628,-1.246912 -1.48071,-0.701388 -2.33796,-1.16898 l 2.26002,-6.2345599 q 1.79244,1.013116 5.45524,2.260028 3.66281,1.246912 8.96218,1.246912 z" /><path
         id="path4151"
         style="font-style:normal;font-variant:normal;font-weight:normal;font-stretch:normal;font-family:Ubuntu;-inkscape-font-specification:Ubuntu"
         d="m 287.99649,-54.006875 0,6.546287 -16.98918,0 0,47.460588 -7.5594,0 0,-47.460588 -16.98918,0 0,-6.546287 41.53776,0 z" /><path
         id="path4153"
         style="font-style:normal;font-variant:normal;font-weight:normal;font-stretch:normal;font-family:Ubuntu;-inkscape-font-specification:Ubuntu"
         d="m 326.96249,0 q -1.32484,-3.50694 -2.49382,-6.8580159 -1.16898,-3.4290081 -2.41589,-6.9359481 l -24.47065,0 L 292.67241,0 284.80128,0 q 3.11728,-8.5725199 5.8449,-15.820196 2.72762,-7.325608 5.29938,-13.871896 2.64969,-6.546288 5.22144,-12.46912 2.57176,-6.000764 5.37731,-11.845663 l 6.93595,0 q 2.80555,5.844899 5.37731,11.845663 2.57175,5.922832 5.14351,12.46912 2.64969,6.546288 5.37731,13.871896 2.72762,7.2476761 5.8449,15.820196 l -8.2608,0 z m -7.09181,-20.028524 q -2.49382,-6.780084 -4.98765,-13.092576 -2.41589,-6.390424 -5.06558,-12.235324 -2.72762,5.8449 -5.22144,12.235324 -2.41589,6.312492 -4.83178,13.092576 l 20.10645,0 z" /><path
         id="path4155"
         style="font-style:normal;font-variant:normal;font-weight:normal;font-stretch:normal;font-family:Ubuntu;-inkscape-font-specification:Ubuntu"
         d="m 373.53903,-54.006875 0,6.546287 -16.98917,0 0,47.460588 -7.55941,0 0,-47.460588 -16.98917,0 0,-6.546287 41.53775,0 z" /><path
         id="path4157"
         style="font-style:normal;font-variant:normal;font-weight:normal;font-stretch:normal;font-family:Ubuntu;-inkscape-font-specification:Ubuntu"
         d="m 381.44547,-54.006875 7.5594,0 0,54.006875 -7.5594,0 0,-54.006875 z" /><path
         id="path4159"
         style="font-style:normal;font-variant:normal;font-weight:normal;font-stretch:normal;font-family:Ubuntu;-inkscape-font-specification:Ubuntu"
         d="m 400.2685,-27.042404 q 0,-6.935948 2.02623,-12.235324 2.10417,-5.299376 5.61111,-8.806316 3.58487,-3.584871 8.26079,-5.377307 4.75385,-1.792436 10.05323,-1.792436 5.22144,0 9.81943,1.792436 4.67592,1.792436 8.18286,5.377307 3.50694,3.50694 5.53317,8.806316 2.10416,5.299376 2.10416,12.235324 0,6.935948 -2.10416,12.235324 -2.02623,5.2993761 -5.53317,8.8842481 -3.50694,3.5069399 -8.18286,5.29937591 Q 431.4413,1.16898 426.21986,1.16898 q -5.29938,0 -10.05323,-1.79243599 -4.67592,-1.79243601 -8.26079,-5.29937591 -3.50694,-3.584872 -5.61111,-8.8842481 -2.02623,-5.299376 -2.02623,-12.235324 z m 7.94906,0 q 0,4.909716 1.24692,8.96218 1.24691,3.974532 3.50694,6.780084 2.33796,2.8055521 5.6111,4.3641921 3.35108,1.480708 7.48147,1.480708 4.1304,0 7.40354,-1.480708 3.27315,-1.55864 5.53317,-4.3641921 2.33796,-2.805552 3.58488,-6.780084 1.24691,-4.052464 1.24691,-8.96218 0,-4.909716 -1.24691,-8.884248 -1.24692,-4.052464 -3.58488,-6.858016 -2.26002,-2.805552 -5.53317,-4.28626 -3.27314,-1.55864 -7.40354,-1.55864 -4.13039,0 -7.48147,1.55864 -3.27314,1.480708 -5.6111,4.28626 -2.26003,2.805552 -3.50694,6.858016 -1.24692,3.974532 -1.24692,8.884248 z" /><path
         id="path4161"
         style="font-style:normal;font-variant:normal;font-weight:normal;font-stretch:normal;font-family:Ubuntu;-inkscape-font-specification:Ubuntu"
         d="m 500.04822,0 q -1.7145,-2.883484 -3.97453,-6.4683559 -2.1821,-3.5848721 -4.75385,-7.4035401 -2.57176,-3.8966 -5.37731,-7.871132 -2.72762,-3.974532 -5.45524,-7.637336 -2.72762,-3.740736 -5.29938,-7.01388 -2.57175,-3.273144 -4.75385,-5.766968 l 0,42.161212 -7.40354,0 0,-54.006875 6.00077,0 q 3.6628,3.8966 7.79319,9.118043 4.20833,5.143512 8.2608,10.676684 4.13039,5.45524 7.71526,10.754616 3.66281,5.299376 6.15663,9.429772 l 0,-39.979115 7.40354,0 0,54.006875 -6.31249,0 z" /></g></g><g
     transform="translate(-51.366156,7.7130007)"
     id="Layer_2"><text
       style="font-size:77.93199921px;font-family:Avenir-Black"
       id="text11"
       font-size="77.932"
       transform="translate(602.207,121.958)"><tspan
         id="tspan4147"
         style="font-style:normal;font-variant:normal;font-weight:bold;font-stretch:normal;font-family:Ubuntu;-inkscape-font-specification:Ubuntu">WEATHER STATION</tspan></text>
</g></svg>