<?xml version="1.0" encoding="UTF-8" standalone="no"?>
<svg width="60" height="60" viewBox="0 0 60 60" version="1.1" xmlns="http://www.w3.org/2000/svg" xmlns:svg="http://www.w3.org/2000/svg">
  <style>
    path { fill:#000000; fill-opacity:1; stroke:none; }
  </style>
  <circle cx="30" cy="30" r="30" style="fill:#ffffff;" />
  <path d="m 38.246064,26.935332 c -0.554946,0 -1.110462,0 -1.665972,0 0.158556,-0.489258 1.03458,-1.608216 0.322206,-1.773564 -0.541356,0.05778 -1.201626,0.67839 -1.719768,1.128582 -0.484728,0.421302 -1.14387,0.850542 -1.505154,1.34376 -0.570234,0.778626 -0.87999,1.829628 -1.343766,2.687532 -0.51927,0 -1.03911,0 -1.55838,0 0.82449,-1.916832 1.659744,-3.822342 2.472348,-5.751066 0.447918,0 0.895842,0 1.343766,0 -0.287106,0.877158 -0.63423,1.696554 -0.967194,2.526144 0.3777,-0.292194 1.05213,-0.880554 1.773564,-1.451358 0.655746,-0.518706 1.93212,-1.72713 2.741328,-1.02099 0.495486,0.432066 0.34146,1.621242 0.107022,2.31096 z" />
  <path d="m 25.410924,24.669108 c -0.06739,0.335802 -0.197628,0.862434 -0.317676,1.302426 -0.25539,0.937182 -0.41961,1.614444 -0.714072,2.683566 -0.121746,0.441696 -0.300126,1.152936 0.05382,1.343766 0.415644,0.224244 1.062894,-0.51474 1.343766,-0.80637 1.101402,-1.143306 1.886256,-2.713014 2.257164,-4.514892 0.573066,0 1.146702,0 1.719768,0 -0.207252,1.057794 -0.580428,2.685828 -0.860166,4.031292 -0.08324,0.40149 -0.252558,1.065726 0.107592,1.182378 0.689154,0.22368 1.035714,-0.39582 1.283172,-0.805236 0.148932,0.0054 0.493794,-0.0079 0.597984,-0.0012 -0.352788,0.866964 -2.027256,2.366454 -3.38631,1.719768 -0.65121,-0.30975 -0.591186,-1.675602 -0.290496,-2.496696 -0.70671,0.911136 -1.733364,2.499528 -3.202842,2.818908 -3.018798,0.65574 -1.278642,-4.705728 -0.752574,-6.020046 0.6699,-0.147234 1.477404,-0.279174 2.160894,-0.43773 z" />
  <path d="m 8.296464,32.818908 c 0,0 0.235002,-0.0249 0.281436,-0.0249 0.276342,3.557892 0.636492,7.031406 0.967194,10.534374 11.84586,-0.0504 24.026958,-0.531732 35.814492,-0.640458 0.02778,0.23727 0.03282,0.302388 0.0351,0.47907 -6.132738,0.102492 -12.073506,0.346554 -18.166602,0.483594 -6.159348,0.138738 -12.20544,0.224808 -18.274188,0.376572 -0.255954,-2.897052 -0.520404,-5.786178 -0.80637,-8.653782 -1.227678,0.02604 -2.428176,0.07985 -3.708522,0.05382 0.181776,-0.340896 0.53343,-1.07139 0.75258,-1.505154 0.87432,0.09287 1.863036,0.124014 2.851746,0.103062 -0.00792,-0.248592 -0.04698,-0.843744 -0.05718,-1.177848 0.168186,-0.01074 0.31032,-0.02832 0.31032,-0.02832 z" />
  <path d="m 24.755748,36.39492 c 0.446226,0.923592 0.673302,1.38057 1.02156,2.095776 -0.404886,-0.02322 -1.061196,-0.06455 -1.50912,-0.08608 0.151764,-0.64725 0.306918,-1.276944 0.48756,-2.0097 z" />
  <path d="m 37.171278,37.093698 c 1.2996,-0.18687 2.727174,0.862434 1.988754,2.364756 -0.0062,0.01302 -0.08494,0.133644 -0.107592,0.161388 -1.167654,1.441164 -3.899922,-0.35109 -2.741328,-2.095776 0.166482,-0.25086 0.440562,-0.370344 0.860166,-0.430368 z" />
  <path d="m 48.888594,42.199782 c 0.481902,0.02886 1.344336,0.07361 1.934958,0.107592 -0.578166,0.282006 -1.133112,0.548154 -1.719774,0.80637 0.619506,0.839784 1.168788,1.607082 1.77357,2.364756 -0.765036,-0.632526 -1.510248,-1.222014 -2.303598,-1.861902 -0.365244,1.086108 -0.728226,2.17845 -1.082712,3.259464 0.107022,-0.910566 0.292194,-2.229984 0.429798,-3.278718 -0.678396,-0.02886 -1.224282,-0.04362 -1.934952,-0.05382 0.558342,-0.336366 1.11669,-0.673302 1.719768,-1.021554 -0.06342,-0.183474 -0.149496,-0.39243 -0.214614,-0.591192 -11.967048,0.180078 -24.294804,0.464346 -36.386994,0.698778 -0.315978,-3.555624 -0.578166,-7.576728 -0.860166,-11.340744 2.143338,0.310884 4.382952,0.526068 6.50364,0.860172 C 17.27868,31.822806 17.96274,31.30467 18.382914,30.75312 18.72381,30.305196 19.003548,29.662476 18.95145,28.977852 18.88803,28.140336 17.838726,27.511206 16.85511,27.0429 14.36691,25.85826 10.229718,25.254612 8.52354,23.280582 8.034846,22.714878 7.682622,21.516078 8.03994,20.270844 8.276646,19.44522 8.94768,18.502938 9.545094,17.906088 c 0.893016,-0.89301 2.2566,-1.757142 3.590736,-2.427612 1.263354,-0.635358 2.79852,-1.288836 4.136622,-1.325076 1.357926,-0.03684 2.99049,0.30975 3.183588,1.441728 0.274644,1.608216 -0.951336,3.0171 -1.665978,4.085094 -0.698778,0 -1.558944,0.0068 -2.257728,0.0068 0.226512,-0.274644 0.609312,-0.650646 0.84771,-0.954738 0.55212,-0.70614 1.938354,-2.159766 1.625202,-3.513156 -0.13194,-0.56967 -0.862428,-0.80637 -1.750344,-0.74295 -2.026128,0.144966 -3.372156,0.87942 -4.753296,1.871532 -1.195968,0.859602 -2.658084,2.102574 -3.009738,3.547134 -0.177246,0.72879 0.02946,1.3902 0.322206,1.773564 0.904338,1.181814 3.184152,1.729398 5.267472,2.418552 2.368716,0.78372 5.946432,1.73166 5.643474,4.783308 -0.153462,1.545924 -1.079886,2.42874 -2.09634,3.439542 5.591376,0.822792 11.363394,1.464378 17.038014,2.203368 1.306392,-1.757148 2.404962,-3.722112 3.654726,-5.535888 -0.334104,-0.19083 -0.885084,-0.09117 -0.913968,-0.483594 -0.02778,-0.381666 1.74582,-1.062894 1.988754,-1.343766 0.411678,-0.475668 0.655176,-1.304124 1.021554,-1.988748 1.651818,-3.086754 3.595266,-6.273738 5.804862,-8.975994 0.850542,-1.039674 1.906074,-2.34267 3.063534,-2.84835 1.270152,-0.554946 2.227152,0.0054 2.257164,1.397562 0.05322,2.405526 -2.245272,4.932804 -3.493338,6.180864 -1.76847,1.76847 -3.373848,3.079962 -5.267466,4.407306 -0.718032,1.109328 -1.552722,2.102004 -2.257728,3.224922 1.335834,-0.04476 2.52501,-0.51927 3.547698,-0.698784 0.29616,0.307488 -1.005138,0.780324 -1.720338,0.967194 -0.743514,0.194232 -1.582734,0.37827 -2.31096,0.4836 -1.17558,1.726566 -2.248104,3.557328 -3.332514,5.375064 3.088452,0.530592 6.368304,0.87036 9.567744,1.289964 0.13647,1.798482 0.30069,3.56922 0.429804,5.3745 0.148362,0.187434 0.285966,0.348258 0.430362,0.53739 0.327306,-0.594588 0.676698,-1.24863 1.02099,-1.881156 -0.0042,-0.01644 -0.198762,1.588392 -0.26898,2.204496 z m 0.21462,-26.1216 c -1.897014,2.468952 -3.693798,5.525124 -5.052288,8.169618 1.544796,-1.053834 3.034656,-2.487636 4.514898,-4.031292 1.306956,-1.361886 2.968398,-3.198876 3.171126,-5.3745 0.0249,-0.270108 0.127974,-0.95247 -0.21462,-1.021554 -1.012494,0.377136 -1.718634,1.346598 -2.419116,2.257728 z M 16.06629,34.262334 c -0.552114,-0.484164 -2.526708,-1.123482 -3.350634,-0.178938 -1.014192,1.162554 -0.003,2.755482 0.855072,3.139416 0.95757,0.4281 2.586732,0.62913 2.692062,1.536294 0.10023,0.861306 -0.850542,1.134246 -1.55895,0.806376 -0.548718,-0.254256 -0.739554,-0.850542 -0.913398,-1.28997 -0.386766,0.03396 -0.723696,0.094 -1.1031,0.13194 0.165918,1.942884 2.387976,3.299106 4.112838,2.232816 0.361284,-0.22311 0.633096,-0.676134 0.698784,-1.074786 0.329568,-2.006874 -1.224852,-2.717544 -2.472348,-3.171126 -0.576468,-0.209526 -1.492128,-0.330708 -1.397562,-1.236174 0.28767,-0.824496 2.132016,-0.34656 2.042544,0.80637 0.429804,0.01644 0.764472,0.02718 1.15803,0.0402 -0.07361,-1.026084 -0.53343,-1.54083 -0.763338,-1.742424 z m 3.260604,1.218624 c 0.210654,1.796214 0.416208,3.580542 0.643284,5.299746 0.376002,0 0.775224,-0.0079 1.174452,0 -0.202164,-1.615014 -0.407154,-3.474084 -0.581562,-5.24595 0.558906,0.05268 0.98871,0.09287 1.720332,0.161382 -0.02718,-0.365244 -0.08041,-0.681222 -0.107592,-1.07478 -1.620102,-0.135906 -3.15414,-0.357324 -4.783872,-0.4836 0.05718,0.376008 0.106458,0.75201 0.161388,1.128582 m 7.754538,-0.354486 c -0.366942,-0.01356 -0.868662,-0.04926 -1.304688,-0.07532 -0.534564,1.991586 -1.084416,3.967878 -1.612182,5.965686 0.429804,0 0.860172,0 1.28997,0 0.124584,-0.448488 0.262188,-0.940578 0.376008,-1.343766 0.79278,0.0091 1.518174,0.02718 2.257164,0.05382 0.20046,0.45585 0.39186,0.874326 0.591186,1.28997 0.453018,-0.0079 0.990414,-0.0079 1.31262,-0.0079 -0.958134,-1.887954 -2.0148,-3.997884 -2.910078,-5.882442 z m 2.00574,1.325076 c 0.577602,0.04926 1.21749,0.103062 1.741854,0.157992 0.157428,1.437198 0.25992,2.929326 0.376008,4.4073 0.394128,0 0.78825,0 1.182378,0 -0.06682,-1.459848 -0.181206,-2.983692 -0.269544,-4.318962 0.543054,0.04986 1.111026,0.07361 1.667106,0.126846 -0.0048,-0.329574 -0.0255,-0.631398 -0.05382,-0.913968 -1.57764,-0.148926 -3.175662,-0.29616 -4.729512,-0.429798 0.03174,0.303522 0.06342,0.652344 0.08551,0.97059 z m 5.66556,4.565292 c 0.394128,0 0.78825,0 1.182378,0 -0.07871,-1.695984 -0.176112,-3.3999 -0.268416,-4.8909 -0.474534,-0.05154 -0.784854,-0.06682 -1.236168,-0.107592 0.10023,1.67277 0.207822,3.325158 0.322206,4.998492 z m 2.04198,-1.451358 c 0.771828,2.048208 5.344482,2.201106 5.536452,-0.376572 0.151194,-2.038014 -2.143914,-3.005772 -4.085094,-2.687526 -1.383972,0.22764 -1.985922,1.646154 -1.451358,3.064098 z m 6.396054,1.451358 c 0.274074,0.0085 0.805236,0.0024 1.128582,0 -0.01584,-0.823926 -0.02778,-1.680696 -0.05382,-2.472348 0.834684,0.851112 1.664274,1.693158 2.418546,2.526144 0.362418,-0.0062 0.839784,-0.0096 1.128582,-0.0153 0,-1.182378 0,-2.449698 0,-3.632076 -0.362412,-0.02262 -0.727092,-0.03114 -1.128012,-0.04698 0,0.788256 -5.7e-4,1.562352 -5.7e-4,2.351166 -0.38733,-0.389028 -0.795042,-0.794478 -1.236174,-1.28997 -0.424704,-0.477366 -0.78315,-0.84714 -1.231074,-1.38114 -0.2418,0.003 -0.618372,-0.04926 -1.074786,-0.04188 0.01812,1.419084 0.04248,2.620146 0.04872,4.00242 z" />
</svg>
