<?xml version="1.0" encoding="UTF-8" standalone="no"?>
<!-- Generator: Adobe Illustrator 15.0.0, SVG Export Plug-In . SVG Version: 6.00 Build 0)  -->

<svg
   xmlns:dc="http://purl.org/dc/elements/1.1/"
   xmlns:cc="http://creativecommons.org/ns#"
   xmlns:rdf="http://www.w3.org/1999/02/22-rdf-syntax-ns#"
   xmlns:svg="http://www.w3.org/2000/svg"
   xmlns="http://www.w3.org/2000/svg"
   xmlns:sodipodi="http://sodipodi.sourceforge.net/DTD/sodipodi-0.dtd"
   xmlns:inkscape="http://www.inkscape.org/namespaces/inkscape"
   version="1.1"
   x="0px"
   y="0px"
   width="1286.2493"
   height="185.51648"
   viewBox="0 0 1286.2493 185.51648"
   enable-background="new 0 0 1371 179"
   xml:space="preserve"
   id="svg2"
   inkscape:version="0.91 r13725"
   sodipodi:docname="header.svg"><metadata
     id="metadata17"><rdf:RDF><cc:Work
         rdf:about=""><dc:format>image/svg+xml</dc:format><dc:type
           rdf:resource="http://purl.org/dc/dcmitype/StillImage" /><dc:title></dc:title></cc:Work></rdf:RDF></metadata><defs
     id="defs15" /><sodipodi:namedview
     pagecolor="#ffffff"
     bordercolor="#666666"
     borderopacity="1"
     objecttolerance="10"
     gridtolerance="10"
     guidetolerance="10"
     inkscape:pageopacity="0"
     inkscape:pageshadow="2"
     inkscape:window-width="1871"
     inkscape:window-height="1056"
     id="namedview13"
     showgrid="false"
     fit-margin-top="20"
     fit-margin-left="20"
     fit-margin-right="20"
     fit-margin-bottom="20"
     inkscape:zoom="0.86943837"
     inkscape:cx="626.13384"
     inkscape:cy="94.254423"
     inkscape:window-x="49"
     inkscape:window-y="24"
     inkscape:window-maximized="1"
     inkscape:current-layer="svg2" /><g
     id="Layer_3"
     style="fill:#646464;fill-opacity:0.30188682;stroke:#000000;stroke-opacity:0.30196078"
     transform="translate(-59.366156,1.7620487)"><path
       d="m 674.396,18.923 c -17.351,18.332 -35.38,36.811 -52.8,55.329 -0.439,0.468 -1.211,1.063 -1.129,1.809 6.414,-0.781 12.919,-1.445 19.349,-2.206 -13.618,15.194 -27.868,30.212 -41.79,45.461 -0.266,0.29 -1.075,0.818 -0.778,1.403 4.571,-0.521 9.154,-1.028 13.712,-1.568 -18.084,13.091 -36.691,25.874 -55.063,38.826 -2.54,1.791 -4.912,3.969 -7.73,5.327 10.273,-14.368 20.512,-28.78 30.571,-43.426 -6.44,0.632 -12.693,1.506 -19.183,2.076 7.502,-11.301 15.216,-22.638 22.778,-34.053 2.493,-3.762 5.238,-7.405 7.298,-11.389 -7.185,0.933 -14.518,1.674 -21.787,2.498 12.013,-17.224 24.512,-35.158 36.959,-52.378 22.67,-2.543 46.372,-5.142 69.316,-7.894 0.176,-0.002 0.258,0.066 0.277,0.185 z"
       id="path5"
       style="clip-rule:evenodd;fill:#646464;fill-opacity:0.30188682;fill-rule:evenodd;stroke:#000000;stroke-opacity:0.30196078"
       inkscape:connector-curvature="0" /></g><g
     id="Layer_1"
     transform="translate(-27.366156,7.6350687)"><text
       transform="translate(44.7944,121.958)"
       font-size="77.932"
       id="text8"
       style="font-size:77.93199921px;font-family:Avenir-Light"><tspan
         style="font-style:normal;font-variant:normal;font-weight:normal;font-stretch:normal;font-family:Ubuntu;-inkscape-font-specification:Ubuntu"
         id="tspan4145">SURF STATION</tspan></text>
</g><g
     id="Layer_2"
     transform="translate(-51.366156,7.7130007)"><text
       transform="translate(602.207,121.958)"
       font-size="77.932"
       id="text11"
       style="font-size:77.93199921px;font-family:Avenir-Black"><tspan
         style="font-style:normal;font-variant:normal;font-weight:bold;font-stretch:normal;font-family:Ubuntu;-inkscape-font-specification:Ubuntu"
         id="tspan4147">WEATHER STATION</tspan></text>
</g></svg>