<?xml version="1.0" encoding="UTF-8" standalone="no"?>
<svg
   xmlns:dc="http://purl.org/dc/elements/1.1/"
   xmlns:cc="http://creativecommons.org/ns#"
   xmlns:rdf="http://www.w3.org/1999/02/22-rdf-syntax-ns#"
   xmlns:svg="http://www.w3.org/2000/svg"
   xmlns="http://www.w3.org/2000/svg"
   id="svg2"
   xml:space="preserve"
   enable-background="new 0 0 758.667 174.667"
   viewBox="0 0 724.25318 148.14088"
   height="148.14088"
   width="724.25317"
   y="0px"
   x="0px"
   version="1.1"><metadata
     id="metadata29"><rdf:RDF><cc:Work
         rdf:about=""><dc:format>image/svg+xml</dc:format><dc:type
           rdf:resource="http://purl.org/dc/dcmitype/StillImage" /><dc:title></dc:title></cc:Work></rdf:RDF></metadata><defs
     id="defs27" /><g
     transform="matrix(1.0386305,0,0,1.0120852,-24.037115,-18.234504)"
     id="Layer_1"><g
       id="text5"
       style="font-style:normal;font-variant:normal;font-weight:500;font-stretch:normal;font-size:54.58890152px;font-family:Ubuntu;-inkscape-font-specification:'Ubuntu Medium'"
       transform="translate(177.8037,94.7407)"><path
         id="path4148"
         style="font-style:normal;font-variant:normal;font-weight:500;font-stretch:normal;font-family:Ubuntu;-inkscape-font-specification:'Ubuntu Medium'"
         d="m 13.701814,-5.1313567 q 3.712046,0 5.404302,-1.2555448 1.692255,-1.2555447 1.692255,-3.5482786 0,-1.3647229 -0.600477,-2.3473229 -0.545889,-0.9826 -1.637667,-1.746845 -1.03719,-0.818833 -2.565679,-1.4739 -1.528489,-0.709656 -3.49369,-1.364723 -1.9652,-0.709655 -3.8212227,-1.528489 -1.8014337,-0.873422 -3.2207451,-2.128967 -1.3647226,-1.255545 -2.238145,-3.00239 -0.8188335,-1.746844 -0.8188335,-4.203345 0,-5.131357 3.5482786,-8.024568 3.5482786,-2.947801 9.6622357,-2.947801 3.548278,0 6.277724,0.818833 2.784033,0.764245 4.367112,1.692256 l -2.128968,5.568068 q -1.856022,-1.037189 -4.094167,-1.583078 -2.183556,-0.545889 -4.530879,-0.545889 -2.784034,0 -4.367112,1.146367 -1.5284893,1.146367 -1.5284893,3.220745 0,1.255545 0.4913003,2.183556 0.545889,0.873423 1.4739,1.583078 0.9826,0.709656 2.238145,1.310134 1.310134,0.600478 2.838623,1.146367 2.674856,0.9826 4.749234,2.019789 2.128968,0.982601 3.548279,2.401912 1.4739,1.364723 2.238145,3.275334 0.764245,1.856023 0.764245,4.5308789 0,5.1313568 -3.657457,7.9699796 -3.602867,2.78403402 -10.590247,2.78403402 -2.347322,0 -4.3125229,-0.32753341 Q 7.4786795,0.21835561 5.9501903,-0.21835561 4.4762899,-0.65506682 3.3845119,-1.091778 2.2927339,-1.5830781 1.637667,-1.9652005 l 2.0197894,-5.6226568 q 1.4739003,0.8188335 3.9849898,1.637667 2.5110898,0.8188336 6.0593678,0.8188336 z" /><path
         id="path4150"
         style="font-style:normal;font-variant:normal;font-weight:500;font-stretch:normal;font-family:Ubuntu;-inkscape-font-specification:'Ubuntu Medium'"
         d="m 57.26717,-37.830109 6.878202,0 0,37.830109 -6.878202,0 0,-16.758793 -16.431259,0 0,16.758793 -6.878202,0 0,-37.830109 6.878202,0 0,15.121126 16.431259,0 0,-15.121126 z" /><path
         id="path4152"
         style="font-style:normal;font-variant:normal;font-weight:500;font-stretch:normal;font-family:Ubuntu;-inkscape-font-specification:'Ubuntu Medium'"
         d="m 78.816133,-18.942349 q 0,3.111568 0.764245,5.677246 0.764245,2.511089 2.183556,4.3125232 1.4739,1.7468448 3.548279,2.729445 2.074378,0.9826003 4.694645,0.9826003 2.565679,0 4.640057,-0.9826003 2.074378,-0.9826002 3.493689,-2.729445 1.473901,-1.8014342 2.238146,-4.3125232 0.76424,-2.565678 0.76424,-5.677246 0,-3.111567 -0.76424,-5.622657 -0.764245,-2.565678 -2.238146,-4.312523 -1.419311,-1.801434 -3.493689,-2.784034 -2.074378,-0.9826 -4.640057,-0.9826 -2.620267,0 -4.694645,0.9826 -2.074379,0.9826 -3.548279,2.784034 -1.419311,1.801434 -2.183556,4.312523 -0.764245,2.51109 -0.764245,5.622657 z m 29.532597,0 q 0,4.858412 -1.4739,8.570458 -1.41931,3.712045 -3.9304,6.2231345 -2.4565,2.4565006 -5.786426,3.71204529 -3.329923,1.25554473 -7.096557,1.25554473 -3.766634,0 -7.151146,-1.25554473 -3.329923,-1.25554469 -5.841013,-3.71204529 -2.4565,-2.5110895 -3.9304,-6.2231345 -1.473901,-3.712046 -1.473901,-8.570458 0,-4.858412 1.473901,-8.515868 1.4739,-3.712046 3.984989,-6.223135 2.565679,-2.51109 5.895602,-3.766634 3.329923,-1.255545 7.041968,-1.255545 3.712045,0 7.041968,1.255545 3.329925,1.255544 5.786425,3.766634 2.51109,2.511089 3.98499,6.223135 1.4739,3.657456 1.4739,8.515868 z" /><path
         id="path4154"
         style="font-style:normal;font-variant:normal;font-weight:500;font-stretch:normal;font-family:Ubuntu;-inkscape-font-specification:'Ubuntu Medium'"
         d="m 126.54048,-38.212231 q 8.24293,0 12.61004,3.00239 4.4217,3.002389 4.4217,9.389291 0,3.329923 -1.20095,5.731834 -1.14637,2.347323 -3.38452,3.875812 -2.23814,1.473901 -5.45889,2.183556 -3.22074,0.709656 -7.3695,0.709656 l -3.4391,0 0,13.319692 -6.8782,0 0,-37.28422 q 2.40191,-0.545889 5.29512,-0.709655 2.9478,-0.218356 5.4043,-0.218356 z m 0.4913,5.95019 q -2.62026,0 -4.31252,0.163767 l 0,12.882981 3.32992,0 q 4.96759,0 7.64245,-1.364723 2.67486,-1.419311 2.67486,-5.295123 0,-1.856023 -0.70966,-3.111568 -0.70965,-1.255544 -1.9652,-1.9652 -1.25554,-0.709656 -3.00239,-0.9826 -1.69226,-0.327534 -3.65746,-0.327534 z" /><path
         id="path4156"
         style="font-style:normal;font-variant:normal;font-weight:500;font-stretch:normal;font-family:Ubuntu;-inkscape-font-specification:'Ubuntu Medium'"
         d="m 168.16281,-18.942349 q 0,3.111568 0.76425,5.677246 0.76424,2.511089 2.18355,4.3125232 1.4739,1.7468448 3.54828,2.729445 2.07438,0.9826003 4.69465,0.9826003 2.56568,0 4.64005,-0.9826003 2.07438,-0.9826002 3.49369,-2.729445 1.4739,-1.8014342 2.23815,-4.3125232 0.76424,-2.565678 0.76424,-5.677246 0,-3.111567 -0.76424,-5.622657 -0.76425,-2.565678 -2.23815,-4.312523 -1.41931,-1.801434 -3.49369,-2.784034 -2.07437,-0.9826 -4.64005,-0.9826 -2.62027,0 -4.69465,0.9826 -2.07438,0.9826 -3.54828,2.784034 -1.41931,1.801434 -2.18355,4.312523 -0.76425,2.51109 -0.76425,5.622657 z m 29.5326,0 q 0,4.858412 -1.4739,8.570458 -1.41931,3.712045 -3.9304,6.2231345 -2.4565,2.4565006 -5.78643,3.71204529 -3.32992,1.25554473 -7.09655,1.25554473 -3.76664,0 -7.15115,-1.25554473 -3.32992,-1.25554469 -5.84101,-3.71204529 -2.4565,-2.5110895 -3.9304,-6.2231345 -1.4739,-3.712046 -1.4739,-8.570458 0,-4.858412 1.4739,-8.515868 1.4739,-3.712046 3.98499,-6.223135 2.56568,-2.51109 5.8956,-3.766634 3.32992,-1.255545 7.04197,-1.255545 3.71204,0 7.04197,1.255545 3.32992,1.255544 5.78642,3.766634 2.51109,2.511089 3.98499,6.223135 1.4739,3.657456 1.4739,8.515868 z" /><path
         id="path4158"
         style="font-style:normal;font-variant:normal;font-weight:500;font-stretch:normal;font-family:Ubuntu;-inkscape-font-specification:'Ubuntu Medium'"
         d="m 219.76298,0.81883352 q -3.87582,0 -6.65985,-1.09177803 -2.78403,-1.14636689 -4.64006,-3.16615629 -1.80143,-2.0197894 -2.67485,-4.7492344 -0.87343,-2.7294448 -0.87343,-6.0047788 l 0,-23.636995 6.9328,0 0,22.981928 q 0,2.565678 0.54588,4.421701 0.60048,1.8014336 1.63767,2.9478005 1.09178,1.1463669 2.51109,1.6922559 1.4739,0.5458891 3.27533,0.5458891 1.80144,0 3.27534,-0.5458891 1.4739,-0.545889 2.51109,-1.6922559 1.09178,-1.1463669 1.63767,-2.9478005 0.60047,-1.856023 0.60047,-4.421701 l 0,-22.981928 6.93279,0 0,23.636995 q 0,3.275334 -0.92801,6.0047788 -0.87342,2.729445 -2.72944,4.7492344 -1.80144,2.0197894 -4.64006,3.16615629 -2.83862,1.09177803 -6.71443,1.09177803 z" /><path
         id="path4160"
         style="font-style:normal;font-variant:normal;font-weight:500;font-stretch:normal;font-family:Ubuntu;-inkscape-font-specification:'Ubuntu Medium'"
         d="m 253.99703,-38.212231 q 8.18834,0 12.50086,3.00239 4.36711,3.002389 4.36711,9.170935 0,7.697035 -7.58785,10.42648 1.03718,1.255545 2.34732,3.056979 1.31013,1.801433 2.67485,3.9304006 1.36473,2.0743782 2.62027,4.3125232 1.25555,2.183556 2.23815,4.3125232 l -7.69704,0 q -1.03719,-1.9652005 -2.23814,-3.9304009 -1.20096,-2.0197894 -2.4565,-3.875812 -1.20096,-1.9106116 -2.40192,-3.5482791 -1.20095,-1.692255 -2.23814,-3.002389 -0.76425,0.05459 -1.31013,0.05459 -0.54589,0 -1.03719,0 l -3.32993,0 0,14.302292 -6.8782,0 0,-37.28422 q 2.51109,-0.545889 5.34971,-0.709655 2.83863,-0.218356 5.07677,-0.218356 z m 0.4913,5.95019 q -2.18355,0 -4.03958,0.163767 l 0,12.227914 3.00239,0 q 2.51109,0 4.4217,-0.272945 1.91062,-0.272944 3.16616,-0.9826 1.31013,-0.709656 1.9652,-1.910611 0.65507,-1.200956 0.65507,-3.056979 0,-1.746845 -0.65507,-2.947801 -0.65507,-1.200955 -1.91061,-1.910611 -1.20096,-0.709656 -2.89321,-0.9826 -1.69226,-0.327534 -3.71205,-0.327534 z" /><path
         id="path4162"
         style="font-style:normal;font-variant:normal;font-weight:500;font-stretch:normal;font-family:Ubuntu;-inkscape-font-specification:'Ubuntu Medium'"
         d="m 300.40018,-5.1313567 q 3.71204,0 5.4043,-1.2555448 1.69226,-1.2555447 1.69226,-3.5482786 0,-1.3647229 -0.60048,-2.3473229 -0.54589,-0.9826 -1.63767,-1.746845 -1.03719,-0.818833 -2.56568,-1.4739 -1.52849,-0.709656 -3.49369,-1.364723 -1.9652,-0.709655 -3.82122,-1.528489 -1.80143,-0.873422 -3.22075,-2.128967 -1.36472,-1.255545 -2.23814,-3.00239 -0.81883,-1.746844 -0.81883,-4.203345 0,-5.131357 3.54827,-8.024568 3.54828,-2.947801 9.66224,-2.947801 3.54828,0 6.27772,0.818833 2.78404,0.764245 4.36712,1.692256 l -2.12897,5.568068 q -1.85602,-1.037189 -4.09417,-1.583078 -2.18355,-0.545889 -4.53088,-0.545889 -2.78403,0 -4.36711,1.146367 -1.52849,1.146367 -1.52849,3.220745 0,1.255545 0.4913,2.183556 0.54589,0.873423 1.4739,1.583078 0.9826,0.709656 2.23815,1.310134 1.31013,0.600478 2.83862,1.146367 2.67486,0.9826 4.74923,2.019789 2.12897,0.982601 3.54828,2.401912 1.4739,1.364723 2.23815,3.275334 0.76424,1.856023 0.76424,4.5308789 0,5.1313568 -3.65745,7.9699796 -3.60287,2.78403402 -10.59025,2.78403402 -2.34732,0 -4.31252,-0.32753341 -1.91062,-0.2729445 -3.43911,-0.70965572 -1.4739,-0.43671121 -2.56567,-0.87342239 -1.09178,-0.4913001 -1.74685,-0.8734225 l 2.01979,-5.6226568 q 1.4739,0.8188335 3.98499,1.637667 2.51109,0.8188336 6.05937,0.8188336 z" /><path
         id="path4164"
         style="font-style:normal;font-variant:normal;font-weight:500;font-stretch:normal;font-family:Ubuntu;-inkscape-font-specification:'Ubuntu Medium'"
         d="m 347.0225,-37.830109 0,5.950191 -11.62743,0 0,31.879918 -6.9328,0 0,-31.879918 -11.62743,0 0,-5.950191 30.18766,0 z" /><path
         id="path4166"
         style="font-style:normal;font-variant:normal;font-weight:500;font-stretch:normal;font-family:Ubuntu;-inkscape-font-specification:'Ubuntu Medium'"
         d="m 356.5585,-18.942349 q 0,3.111568 0.76425,5.677246 0.76424,2.511089 2.18355,4.3125232 1.4739,1.7468448 3.54828,2.729445 2.07438,0.9826003 4.69465,0.9826003 2.56568,0 4.64006,-0.9826003 2.07437,-0.9826002 3.49369,-2.729445 1.4739,-1.8014342 2.23814,-4.3125232 0.76424,-2.565678 0.76424,-5.677246 0,-3.111567 -0.76424,-5.622657 -0.76424,-2.565678 -2.23814,-4.312523 -1.41932,-1.801434 -3.49369,-2.784034 -2.07438,-0.9826 -4.64006,-0.9826 -2.62027,0 -4.69465,0.9826 -2.07438,0.9826 -3.54828,2.784034 -1.41931,1.801434 -2.18355,4.312523 -0.76425,2.51109 -0.76425,5.622657 z m 29.5326,0 q 0,4.858412 -1.4739,8.570458 -1.41931,3.712045 -3.9304,6.2231345 -2.4565,2.4565006 -5.78643,3.71204529 -3.32992,1.25554473 -7.09655,1.25554473 -3.76664,0 -7.15115,-1.25554473 -3.32992,-1.25554469 -5.84101,-3.71204529 -2.4565,-2.5110895 -3.9304,-6.2231345 -1.4739,-3.712046 -1.4739,-8.570458 0,-4.858412 1.4739,-8.515868 1.4739,-3.712046 3.98499,-6.223135 2.56568,-2.51109 5.8956,-3.766634 3.32992,-1.255545 7.04197,-1.255545 3.71204,0 7.04197,1.255545 3.32992,1.255544 5.78642,3.766634 2.51109,2.511089 3.98499,6.223135 1.4739,3.657456 1.4739,8.515868 z" /><path
         id="path4168"
         style="font-style:normal;font-variant:normal;font-weight:500;font-stretch:normal;font-family:Ubuntu;-inkscape-font-specification:'Ubuntu Medium'"
         d="m 404.00991,-38.212231 q 8.18834,0 12.50086,3.00239 4.36711,3.002389 4.36711,9.170935 0,7.697035 -7.58786,10.42648 1.03719,1.255545 2.34733,3.056979 1.31013,1.801433 2.67485,3.9304006 1.36473,2.0743782 2.62027,4.3125232 1.25554,2.183556 2.23814,4.3125232 l -7.69703,0 q -1.03719,-1.9652005 -2.23815,-3.9304009 -1.20095,-2.0197894 -2.4565,-3.875812 -1.20095,-1.9106116 -2.40191,-3.5482791 -1.20095,-1.692255 -2.23814,-3.002389 -0.76425,0.05459 -1.31014,0.05459 -0.54589,0 -1.03719,0 l -3.32992,0 0,14.302292 -6.8782,0 0,-37.28422 q 2.51109,-0.545889 5.34971,-0.709655 2.83863,-0.218356 5.07677,-0.218356 z m 0.4913,5.95019 q -2.18356,0 -4.03958,0.163767 l 0,12.227914 3.00239,0 q 2.51109,0 4.4217,-0.272945 1.91061,-0.272944 3.16616,-0.9826 1.31013,-0.709656 1.9652,-1.910611 0.65507,-1.200956 0.65507,-3.056979 0,-1.746845 -0.65507,-2.947801 -0.65507,-1.200955 -1.91061,-1.910611 -1.20096,-0.709656 -2.89321,-0.9826 -1.69226,-0.327534 -3.71205,-0.327534 z" /><path
         id="path4170"
         style="font-style:normal;font-variant:normal;font-weight:500;font-stretch:normal;font-family:Ubuntu;-inkscape-font-specification:'Ubuntu Medium'"
         d="m 428.55444,0 0,-37.830109 24.29206,0 0,5.841013 -17.41386,0 0,9.334702 15.50325,0 0,5.731835 -15.50325,0 0,11.0815465 18.72399,0 0,5.8410125 -25.60219,0 z" /></g></g><g
     transform="matrix(1.0018211,0,0,1,-16.870811,-17.187123)"
     id="Layer_3"><g
       id="text8"
       style="font-size:13.35779953px;font-family:Avenir-Light;letter-spacing:1"
       transform="translate(178.4404,122.0288)"><path
         id="path4173"
         style="font-style:normal;font-variant:normal;font-weight:normal;font-stretch:normal;font-family:Ubuntu;-inkscape-font-specification:Ubuntu"
         d="m 3.2993765,-0.92168817 q 2.0303855,0 2.0303855,-1.38921113 0,-0.4274496 -0.1870092,-0.7213212 Q 4.9691014,-3.3394499 4.661872,-3.5531747 4.3546426,-3.7802573 3.9539087,-3.9405509 3.5665325,-4.1008445 3.1257251,-4.2611381 2.6181287,-4.4347894 2.1639635,-4.6485142 1.7097983,-4.8755968 1.3758534,-5.1694684 1.0419084,-5.4766978 0.84154137,-5.8907896 0.65453218,-6.3048814 0.65453218,-6.8926246 q 0,-1.2155597 0.82818352,-1.8968075 0.8281836,-0.6812478 2.2841838,-0.6812478 0.8415413,0 1.5227891,0.1870092 0.6946056,0.1736514 1.0151928,0.3873762 L 5.8907896,-7.8410283 Q 5.6102758,-8.0146797 5.0492482,-8.1749733 4.5015784,-8.3486247 3.7668995,-8.3486247 q -0.3740184,0 -0.6946056,0.080147 -0.3205872,0.080147 -0.5610276,0.2404404 -0.2404404,0.1602936 -0.3873762,0.4140918 -0.133578,0.2404404 -0.133578,0.5743853 0,0.3740184 0.1469358,0.6278166 0.1469358,0.2537982 0.4140918,0.4541652 0.267156,0.1870092 0.6144588,0.3473028 0.3606606,0.1602936 0.7881102,0.3205872 0.6011009,0.2404404 1.0953395,0.4808808 0.5075964,0.2404404 0.868257,0.5743853 0.3740184,0.333945 0.5743854,0.801468 0.200367,0.4541652 0.200367,1.1086974 0,1.2155597 -0.8949726,1.87009192 -0.8816148,0.65453217 -2.4979085,0.65453217 -0.5476698,0 -1.0151928,-0.0801468 Q 1.8300185,0.0534312 1.4693579,-0.0400734 1.1086974,-0.14693579 0.84154137,-0.25379819 0.58774318,-0.37401839 0.44080738,-0.45416518 L 0.82818357,-1.5227891 q 0.30722943,0.1736513 0.93504593,0.3873761 0.6278166,0.21372483 1.536147,0.21372483 z" /><path
         id="path4175"
         style="font-style:normal;font-variant:normal;font-weight:normal;font-stretch:normal;font-family:Ubuntu;-inkscape-font-specification:Ubuntu"
         d="m 15.069102,-9.2569551 1.295707,0 0,9.2569551 -1.295707,0 0,-4.2744958 -4.528294,0 0,4.2744958 -1.2957066,0 0,-9.2569551 1.2957066,0 0,3.8604041 4.528294,0 0,-3.8604041 z" /><path
         id="path4177"
         style="font-style:normal;font-variant:normal;font-weight:normal;font-stretch:normal;font-family:Ubuntu;-inkscape-font-specification:Ubuntu"
         d="m 19.289376,-4.6351564 q 0,-1.1888442 0.347303,-2.0971746 0.36066,-0.9083303 0.961761,-1.5094313 0.614459,-0.6144588 1.415927,-0.9216882 0.814826,-0.3072294 1.723156,-0.3072294 0.894973,0 1.683083,0.3072294 0.801468,0.3072294 1.402569,0.9216882 0.601101,0.601101 0.948404,1.5094313 0.36066,0.9083304 0.36066,2.0971746 0,1.1888441 -0.36066,2.0971745 -0.347303,0.9083304 -0.948404,1.5227891 -0.601101,0.60110101 -1.402569,0.9083304 -0.78811,0.30722939 -1.683083,0.30722939 -0.90833,0 -1.723156,-0.30722939 -0.801468,-0.30722939 -1.415927,-0.9083304 -0.601101,-0.6144587 -0.961761,-1.5227891 -0.347303,-0.9083304 -0.347303,-2.0971745 z m 1.362496,0 q 0,0.8415413 0.213724,1.5361469 0.213725,0.6812478 0.601101,1.1621286 0.400734,0.4808808 0.961762,0.7480367 0.574385,0.25379823 1.282349,0.25379823 0.707963,0 1.268991,-0.25379823 0.561027,-0.2671559 0.948403,-0.7480367 0.400734,-0.4808808 0.614459,-1.1621286 0.213725,-0.6946056 0.213725,-1.5361469 0,-0.8415414 -0.213725,-1.5227892 -0.213725,-0.6946056 -0.614459,-1.1754863 -0.387376,-0.4808808 -0.948403,-0.734679 -0.561028,-0.267156 -1.268991,-0.267156 -0.707964,0 -1.282349,0.267156 -0.561028,0.2537982 -0.961762,0.734679 -0.387376,0.4808807 -0.601101,1.1754863 -0.213724,0.6812478 -0.213724,1.5227892 z" /><path
         id="path4179"
         style="font-style:normal;font-variant:normal;font-weight:normal;font-stretch:normal;font-family:Ubuntu;-inkscape-font-specification:Ubuntu"
         d="m 33.504832,-9.3504597 q 1.950238,0 2.992147,0.7480368 1.055266,0.734679 1.055266,2.2040369 0,0.801468 -0.293872,1.3758534 -0.280513,0.5610276 -0.828183,0.9216881 -0.534312,0.3473028 -1.309065,0.5075964 -0.774752,0.1602936 -1.749871,0.1602936 l -1.028551,0 0,3.4329545 -1.295706,0 0,-9.1233771 q 0.547669,-0.133578 1.215559,-0.1736514 0.681248,-0.053431 1.242276,-0.053431 z m 0.106862,1.135413 q -0.828184,0 -1.268991,0.040073 l 0,3.6333215 0.975119,0 q 0.66789,0 1.202202,-0.080147 0.534312,-0.093505 0.894973,-0.2938716 0.374018,-0.2137248 0.574385,-0.5743854 0.200367,-0.3606606 0.200367,-0.9216882 0,-0.534312 -0.213724,-0.8816147 -0.200367,-0.3473028 -0.561028,-0.5476698 -0.347303,-0.2137248 -0.814826,-0.2938716 -0.467523,-0.080147 -0.988477,-0.080147 z" /><path
         id="path4181"
         style="font-style:normal;font-variant:normal;font-weight:normal;font-stretch:normal;font-family:Ubuntu;-inkscape-font-specification:Ubuntu"
         d="m 49.328691,-6.8926246 q 0,0.4808808 -0.200367,0.935046 -0.187009,0.4408074 -0.507596,0.8816148 -0.320587,0.4274496 -0.721321,0.8548991 -0.400734,0.4140918 -0.801468,0.8148258 -0.227083,0.2270826 -0.534312,0.534312 -0.293872,0.3072294 -0.561028,0.6411744 -0.267156,0.333945 -0.454165,0.6411744 -0.173651,0.3072293 -0.173651,0.5343119 l 4.261138,0 0,1.0552662 -5.610276,0 q -0.01336,-0.0801468 -0.01336,-0.16029359 0,-0.0801468 0,-0.1469358 0,-0.62781658 0.200367,-1.16212851 0.213725,-0.5476698 0.54767,-1.0285506 0.333945,-0.4808808 0.748037,-0.9083304 0.414092,-0.4274496 0.814826,-0.8281836 0.333945,-0.3205871 0.627816,-0.6278165 0.30723,-0.3205872 0.534312,-0.6278166 0.24044,-0.3205872 0.374018,-0.6545322 0.146936,-0.333945 0.146936,-0.7079634 0,-0.4007339 -0.133578,-0.6812477 -0.12022,-0.2805138 -0.333945,-0.467523 -0.213724,-0.1870092 -0.507596,-0.267156 -0.280514,-0.093505 -0.601101,-0.093505 -0.387376,0 -0.707963,0.1068624 -0.320588,0.1068624 -0.574386,0.2537982 -0.253798,0.133578 -0.427449,0.2938716 -0.173652,0.1469358 -0.267156,0.2270826 l -0.614459,-0.8816148 q 0.12022,-0.133578 0.36066,-0.3205872 0.240441,-0.200367 0.574386,-0.3740184 0.333945,-0.1736514 0.748037,-0.2938716 0.414091,-0.1202202 0.894972,-0.1202202 1.456,0 2.177321,0.6812478 0.734679,0.66789 0.734679,1.8968075 z" /><path
         id="path4183"
         style="font-style:normal;font-variant:normal;font-weight:normal;font-stretch:normal;font-family:Ubuntu;-inkscape-font-specification:Ubuntu"
         d="m 52.164763,-3.2058719 q 0.253798,-0.5877432 0.694606,-1.3624955 0.440807,-0.7881102 0.988477,-1.6162938 0.561028,-0.8281836 1.188844,-1.6296515 0.641174,-0.801468 1.282349,-1.4426424 l 1.188844,0 0,5.8774318 1.09534,0 0,1.0151928 -1.09534,0 0,2.3643305 -1.202202,0 0,-2.3643305 -4.140918,0 0,-0.8415414 z m 4.140918,-4.5817252 q -0.400734,0.4274496 -0.814826,0.9617615 -0.400734,0.5209542 -0.78811,1.0953396 -0.387376,0.5743854 -0.734679,1.1754864 -0.333945,0.6011009 -0.601101,1.1754863 l 2.938716,0 0,-4.4080738 z" /><path
         id="path4185"
         style="font-style:normal;font-variant:normal;font-weight:normal;font-stretch:normal;font-family:Ubuntu;-inkscape-font-specification:Ubuntu"
         d="m 61.118707,2.4711929 -1.268991,0 4.528294,-12.9303499 1.242276,0 -4.501579,12.9303499 z" /><path
         id="path4187"
         style="font-style:normal;font-variant:normal;font-weight:normal;font-stretch:normal;font-family:Ubuntu;-inkscape-font-specification:Ubuntu"
         d="m 68.48725,0 q 0.08015,-1.068624 0.374019,-2.2441103 0.307229,-1.1888442 0.748036,-2.2975415 0.440808,-1.1220552 0.961762,-2.070459 0.534312,-0.9617615 1.041908,-1.5628625 l -4.501578,0 0,-1.0819818 5.890789,0 0,1.0285506 q -0.440807,0.5075964 -0.975119,1.4025689 -0.534312,0.8816148 -1.015193,1.9903122 -0.467523,1.0953395 -0.814825,2.3509727 Q 69.863104,-1.2422754 69.782957,0 L 68.48725,0 Z" /><path
         id="path4189"
         style="font-style:normal;font-variant:normal;font-weight:normal;font-stretch:normal;font-family:Ubuntu;-inkscape-font-specification:Ubuntu"
         d="m 86.261761,-9.2569551 0,1.1220552 -2.912,0 0,8.1348999 -1.295706,0 0,-8.1348999 -2.912001,0 0,-1.1220552 7.119707,0 z" /><path
         id="path4191"
         style="font-style:normal;font-variant:normal;font-weight:normal;font-stretch:normal;font-family:Ubuntu;-inkscape-font-specification:Ubuntu"
         d="m 94.440957,-9.2569551 1.295706,0 0,9.2569551 -1.295706,0 0,-4.2744958 -4.528294,0 0,4.2744958 -1.295707,0 0,-9.2569551 1.295707,0 0,3.8604041 4.528294,0 0,-3.8604041 z" /><path
         id="path4193"
         style="font-style:normal;font-variant:normal;font-weight:normal;font-stretch:normal;font-family:Ubuntu;-inkscape-font-specification:Ubuntu"
         d="m 98.661227,-4.6351564 q 0,-1.1888442 0.347303,-2.0971746 0.36066,-0.9083303 0.961761,-1.5094313 0.614459,-0.6144588 1.415929,-0.9216882 0.81482,-0.3072294 1.72315,-0.3072294 0.89498,0 1.68309,0.3072294 0.80146,0.3072294 1.40257,0.9216882 0.6011,0.601101 0.9484,1.5094313 0.36066,0.9083304 0.36066,2.0971746 0,1.1888441 -0.36066,2.0971745 -0.3473,0.9083304 -0.9484,1.5227891 -0.60111,0.60110101 -1.40257,0.9083304 -0.78811,0.30722939 -1.68309,0.30722939 -0.90833,0 -1.72315,-0.30722939 -0.80147,-0.30722939 -1.415929,-0.9083304 -0.601101,-0.6144587 -0.961761,-1.5227891 -0.347303,-0.9083304 -0.347303,-2.0971745 z m 1.362493,0 q 0,0.8415413 0.21373,1.5361469 0.21372,0.6812478 0.6011,1.1621286 0.40073,0.4808808 0.96176,0.7480367 0.57439,0.25379823 1.28235,0.25379823 0.70796,0 1.26899,-0.25379823 0.56103,-0.2671559 0.9484,-0.7480367 0.40074,-0.4808808 0.61446,-1.1621286 0.21373,-0.6946056 0.21373,-1.5361469 0,-0.8415414 -0.21373,-1.5227892 -0.21372,-0.6946056 -0.61446,-1.1754863 -0.38737,-0.4808808 -0.9484,-0.734679 -0.56103,-0.267156 -1.26899,-0.267156 -0.70796,0 -1.28235,0.267156 -0.56103,0.2537982 -0.96176,0.734679 -0.38738,0.4808807 -0.6011,1.1754863 -0.21373,0.6812478 -0.21373,1.5227892 z" /><path
         id="path4195"
         style="font-style:normal;font-variant:normal;font-weight:normal;font-stretch:normal;font-family:Ubuntu;-inkscape-font-specification:Ubuntu"
         d="m 113.86516,0.20036699 q -0.90833,0 -1.57622,-0.28051379 -0.66789,-0.28051379 -1.09534,-0.76139457 -0.42745,-0.49423863 -0.64117,-1.16212853 -0.20037,-0.66789 -0.20037,-1.4426424 l 0,-5.8106428 1.29571,0 0,5.663707 q 0,1.3892112 0.61446,2.0170278 0.61446,0.62781653 1.60293,0.62781653 0.49424,0 0.89498,-0.14693583 0.41409,-0.1602936 0.70796,-0.4808807 0.29387,-0.3205872 0.45416,-0.8148258 0.1603,-0.5075964 0.1603,-1.202202 l 0,-5.663707 1.2957,0 0,5.8106428 q 0,0.7747524 -0.21372,1.4426424 -0.20037,0.6678899 -0.64117,1.16212853 -0.42745,0.48088078 -1.09534,0.76139457 -0.65454,0.28051379 -1.56287,0.28051379 z" /><path
         id="path4197"
         style="font-style:normal;font-variant:normal;font-weight:normal;font-stretch:normal;font-family:Ubuntu;-inkscape-font-specification:Ubuntu"
         d="m 122.75294,-0.92168817 q 2.03039,0 2.03039,-1.38921113 0,-0.4274496 -0.18701,-0.7213212 -0.17365,-0.3072294 -0.48088,-0.5209542 -0.30723,-0.2270826 -0.70796,-0.3873762 -0.38738,-0.1602936 -0.82819,-0.3205872 -0.50759,-0.1736513 -0.96176,-0.3873761 -0.45416,-0.2270826 -0.78811,-0.5209542 -0.33394,-0.3072294 -0.53431,-0.7213212 -0.18701,-0.4140918 -0.18701,-1.001835 0,-1.2155597 0.82818,-1.8968075 0.82819,-0.6812478 2.28419,-0.6812478 0.84154,0 1.52279,0.1870092 0.6946,0.1736514 1.01519,0.3873762 l -0.41409,1.0552662 q -0.28052,-0.1736514 -0.84154,-0.333945 -0.54767,-0.1736514 -1.28235,-0.1736514 -0.37402,0 -0.69461,0.080147 -0.32059,0.080147 -0.56103,0.2404404 -0.24044,0.1602936 -0.38737,0.4140918 -0.13358,0.2404404 -0.13358,0.5743853 0,0.3740184 0.14694,0.6278166 0.14693,0.2537982 0.41409,0.4541652 0.26715,0.1870092 0.61446,0.3473028 0.36066,0.1602936 0.78811,0.3205872 0.6011,0.2404404 1.09534,0.4808808 0.50759,0.2404404 0.86825,0.5743853 0.37402,0.333945 0.57439,0.801468 0.20037,0.4541652 0.20037,1.1086974 0,1.2155597 -0.89498,1.87009192 -0.88161,0.65453217 -2.49791,0.65453217 -0.54767,0 -1.01519,-0.0801468 -0.45416,-0.066789 -0.81482,-0.1602936 -0.36067,-0.10686239 -0.62782,-0.21372479 -0.2538,-0.1202202 -0.40074,-0.20036699 l 0.38738,-1.06862392 q 0.30723,0.1736513 0.93505,0.3873761 0.62781,0.21372483 1.53614,0.21372483 z" /><path
         id="path4199"
         style="font-style:normal;font-variant:normal;font-weight:normal;font-stretch:normal;font-family:Ubuntu;-inkscape-font-specification:Ubuntu"
         d="m 134.88333,0 q -0.22708,-0.60110098 -0.42745,-1.1754864 -0.20037,-0.5877431 -0.41409,-1.1888441 l -4.19435,0 L 129.0059,0 127.65676,0 q 0.53431,-1.4693579 1.00183,-2.7116333 0.46753,-1.2556332 0.90833,-2.3776883 0.45417,-1.1220552 0.89498,-2.1372479 0.4408,-1.0285506 0.92168,-2.0303856 l 1.18885,0 q 0.48088,1.001835 0.92169,2.0303856 0.4408,1.0151927 0.88161,2.1372479 0.45417,1.1220551 0.92169,2.3776883 Q 135.76494,-1.4693579 136.29925,0 l -1.41592,0 z m -1.21556,-3.4329545 q -0.42745,-1.1621285 -0.8549,-2.2441103 -0.41409,-1.0953396 -0.86826,-2.0971745 -0.46752,1.0018349 -0.89497,2.0971745 -0.41409,1.0819818 -0.82818,2.2441103 l 3.44631,0 z" /><path
         id="path4201"
         style="font-style:normal;font-variant:normal;font-weight:normal;font-stretch:normal;font-family:Ubuntu;-inkscape-font-specification:Ubuntu"
         d="m 144.88795,0 q -0.29387,-0.49423858 -0.68125,-1.1086974 -0.37401,-0.6144587 -0.81482,-1.2689909 -0.44081,-0.66789 -0.92169,-1.3491378 -0.46752,-0.6812477 -0.93505,-1.3090643 -0.46752,-0.6411744 -0.90833,-1.202202 -0.4408,-0.5610276 -0.81482,-0.9884771 l 0,7.2265695 -1.26899,0 0,-9.2569551 1.02855,0 q 0.62781,0.66789 1.33578,1.5628626 0.72132,0.8816147 1.41592,1.8300185 0.70797,0.935046 1.32243,1.8433763 0.62781,0.9083304 1.05526,1.6162938 l 0,-6.8525512 1.26899,0 0,9.2569551 -1.08198,0 z" /><path
         id="path4203"
         style="font-style:normal;font-variant:normal;font-weight:normal;font-stretch:normal;font-family:Ubuntu;-inkscape-font-specification:Ubuntu"
         d="m 156.87494,-4.6351564 q 0,1.2022019 -0.37402,2.0971745 -0.37402,0.8816148 -1.05527,1.4693579 -0.68124,0.57438542 -1.62965,0.86825701 -0.9484,0.28051379 -2.08381,0.28051379 -0.56103,0 -1.24228,-0.0534312 -0.66789,-0.0400734 -1.21556,-0.17365139 l 0,-8.97644131 q 0.54767,-0.133578 1.21556,-0.1736514 0.68125,-0.053431 1.24228,-0.053431 1.13541,0 2.08381,0.2938716 0.94841,0.2805138 1.62965,0.868257 0.68125,0.5743854 1.05527,1.4693579 0.37402,0.8816148 0.37402,2.0838168 z m -5.03589,3.5798902 q 1.84337,0 2.7517,-0.9350459 0.90834,-0.9484038 0.90834,-2.6448443 0,-1.6964406 -0.90834,-2.6314865 -0.90833,-0.9484038 -2.7517,-0.9484038 -0.54767,0 -0.8549,0.013358 -0.29387,0.013358 -0.41409,0.026716 l 0,7.0796337 q 0.12022,0.013358 0.41409,0.026716 0.30723,0.013358 0.8549,0.013358 z" /><path
         id="path4205"
         style="font-style:normal;font-variant:normal;font-weight:normal;font-stretch:normal;font-family:Ubuntu;-inkscape-font-specification:Ubuntu"
         d="m 161.79108,-0.92168817 q 2.03038,0 2.03038,-1.38921113 0,-0.4274496 -0.18701,-0.7213212 -0.17365,-0.3072294 -0.48088,-0.5209542 -0.30723,-0.2270826 -0.70796,-0.3873762 -0.38738,-0.1602936 -0.82819,-0.3205872 -0.50759,-0.1736513 -0.96176,-0.3873761 -0.45416,-0.2270826 -0.78811,-0.5209542 -0.33394,-0.3072294 -0.53431,-0.7213212 -0.18701,-0.4140918 -0.18701,-1.001835 0,-1.2155597 0.82818,-1.8968075 0.82819,-0.6812478 2.28419,-0.6812478 0.84154,0 1.52279,0.1870092 0.6946,0.1736514 1.01519,0.3873762 l -0.41409,1.0552662 q -0.28051,-0.1736514 -0.84154,-0.333945 -0.54767,-0.1736514 -1.28235,-0.1736514 -0.37402,0 -0.69461,0.080147 -0.32058,0.080147 -0.56102,0.2404404 -0.24044,0.1602936 -0.38738,0.4140918 -0.13358,0.2404404 -0.13358,0.5743853 0,0.3740184 0.14694,0.6278166 0.14693,0.2537982 0.41409,0.4541652 0.26715,0.1870092 0.61446,0.3473028 0.36066,0.1602936 0.78811,0.3205872 0.6011,0.2404404 1.09534,0.4808808 0.50759,0.2404404 0.86825,0.5743853 0.37402,0.333945 0.57439,0.801468 0.20037,0.4541652 0.20037,1.1086974 0,1.2155597 -0.89498,1.87009192 -0.88161,0.65453217 -2.4979,0.65453217 -0.54767,0 -1.0152,-0.0801468 -0.45416,-0.066789 -0.81482,-0.1602936 -0.36066,-0.10686239 -0.62782,-0.21372479 -0.2538,-0.1202202 -0.40073,-0.20036699 l 0.38737,-1.06862392 q 0.30723,0.1736513 0.93505,0.3873761 0.62782,0.21372483 1.53615,0.21372483 z" /><path
         id="path4207"
         style="font-style:normal;font-variant:normal;font-weight:normal;font-stretch:normal;font-family:Ubuntu;-inkscape-font-specification:Ubuntu"
         d="m 171.44133,-4.6351564 q 0,-1.1888442 0.34731,-2.0971746 0.36066,-0.9083303 0.96176,-1.5094313 0.61446,-0.6144588 1.41592,-0.9216882 0.81483,-0.3072294 1.72316,-0.3072294 0.89497,0 1.68308,0.3072294 0.80147,0.3072294 1.40257,0.9216882 0.6011,0.601101 0.94841,1.5094313 0.36066,0.9083304 0.36066,2.0971746 0,1.1888441 -0.36066,2.0971745 -0.34731,0.9083304 -0.94841,1.5227891 -0.6011,0.60110101 -1.40257,0.9083304 -0.78811,0.30722939 -1.68308,0.30722939 -0.90833,0 -1.72316,-0.30722939 -0.80146,-0.30722939 -1.41592,-0.9083304 -0.6011,-0.6144587 -0.96176,-1.5227891 -0.34731,-0.9083304 -0.34731,-2.0971745 z m 1.3625,0 q 0,0.8415413 0.21372,1.5361469 0.21373,0.6812478 0.6011,1.1621286 0.40074,0.4808808 0.96177,0.7480367 0.57438,0.25379823 1.28234,0.25379823 0.70797,0 1.269,-0.25379823 0.56102,-0.2671559 0.9484,-0.7480367 0.40073,-0.4808808 0.61446,-1.1621286 0.21372,-0.6946056 0.21372,-1.5361469 0,-0.8415414 -0.21372,-1.5227892 -0.21373,-0.6946056 -0.61446,-1.1754863 -0.38738,-0.4808808 -0.9484,-0.734679 -0.56103,-0.267156 -1.269,-0.267156 -0.70796,0 -1.28234,0.267156 -0.56103,0.2537982 -0.96177,0.734679 -0.38737,0.4808807 -0.6011,1.1754863 -0.21372,0.6812478 -0.21372,1.5227892 z" /><path
         id="path4209"
         style="font-style:normal;font-variant:normal;font-weight:normal;font-stretch:normal;font-family:Ubuntu;-inkscape-font-specification:Ubuntu"
         d="m 183.19896,0 0,-9.2569551 5.58356,0 0,1.1086974 -4.28786,0 0,2.7917801 3.80698,0 0,1.0953395 -3.80698,0 0,4.2611381 -1.2957,0 z" /><path
         id="path4211"
         style="font-style:normal;font-variant:normal;font-weight:normal;font-stretch:normal;font-family:Ubuntu;-inkscape-font-specification:Ubuntu"
         d="m 197.60272,-0.92168817 q 2.03039,0 2.03039,-1.38921113 0,-0.4274496 -0.18701,-0.7213212 -0.17365,-0.3072294 -0.48088,-0.5209542 -0.30723,-0.2270826 -0.70797,-0.3873762 -0.38737,-0.1602936 -0.82818,-0.3205872 -0.5076,-0.1736513 -0.96176,-0.3873761 -0.45417,-0.2270826 -0.78811,-0.5209542 -0.33395,-0.3072294 -0.53431,-0.7213212 -0.18701,-0.4140918 -0.18701,-1.001835 0,-1.2155597 0.82818,-1.8968075 0.82818,-0.6812478 2.28418,-0.6812478 0.84155,0 1.52279,0.1870092 0.69461,0.1736514 1.0152,0.3873762 l -0.4141,1.0552662 q -0.28051,-0.1736514 -0.84154,-0.333945 -0.54767,-0.1736514 -1.28235,-0.1736514 -0.37401,0 -0.6946,0.080147 -0.32059,0.080147 -0.56103,0.2404404 -0.24044,0.1602936 -0.38738,0.4140918 -0.13357,0.2404404 -0.13357,0.5743853 0,0.3740184 0.14693,0.6278166 0.14694,0.2537982 0.41409,0.4541652 0.26716,0.1870092 0.61446,0.3473028 0.36066,0.1602936 0.78811,0.3205872 0.6011,0.2404404 1.09534,0.4808808 0.5076,0.2404404 0.86826,0.5743853 0.37402,0.333945 0.57439,0.801468 0.20036,0.4541652 0.20036,1.1086974 0,1.2155597 -0.89497,1.87009192 -0.88162,0.65453217 -2.49791,0.65453217 -0.54767,0 -1.01519,-0.0801468 -0.45417,-0.066789 -0.81483,-0.1602936 -0.36066,-0.10686239 -0.62781,-0.21372479 -0.2538,-0.1202202 -0.40074,-0.20036699 l 0.38738,-1.06862392 q 0.30723,0.1736513 0.93504,0.3873761 0.62782,0.21372483 1.53615,0.21372483 z" /><path
         id="path4213"
         style="font-style:normal;font-variant:normal;font-weight:normal;font-stretch:normal;font-family:Ubuntu;-inkscape-font-specification:Ubuntu"
         d="m 206.99476,0.20036699 q -0.90833,0 -1.57622,-0.28051379 -0.66789,-0.28051379 -1.09534,-0.76139457 -0.42745,-0.49423863 -0.64118,-1.16212853 -0.20036,-0.66789 -0.20036,-1.4426424 l 0,-5.8106428 1.2957,0 0,5.663707 q 0,1.3892112 0.61446,2.0170278 0.61446,0.62781653 1.60294,0.62781653 0.49424,0 0.89497,-0.14693583 0.41409,-0.1602936 0.70796,-0.4808807 0.29387,-0.3205872 0.45417,-0.8148258 0.16029,-0.5075964 0.16029,-1.202202 l 0,-5.663707 1.29571,0 0,5.8106428 q 0,0.7747524 -0.21373,1.4426424 -0.20036,0.6678899 -0.64117,1.16212853 -0.42745,0.48088078 -1.09534,0.76139457 -0.65453,0.28051379 -1.56286,0.28051379 z" /><path
         id="path4215"
         style="font-style:normal;font-variant:normal;font-weight:normal;font-stretch:normal;font-family:Ubuntu;-inkscape-font-specification:Ubuntu"
         d="m 218.26023,-3.8737619 q 0.21372,0.267156 0.53431,0.7079634 0.33394,0.4274496 0.68124,0.9617616 0.34731,0.5209542 0.68125,1.0953395 Q 220.50434,-0.53431198 220.74478,0 l -1.41593,0 q -0.26716,-0.50759638 -0.58774,-1.0285506 -0.30723,-0.5209541 -0.62782,-0.9884771 -0.32059,-0.4808808 -0.64117,-0.8949726 -0.30723,-0.4140918 -0.56103,-0.7213212 -0.17365,0.013358 -0.36066,0.013358 -0.17365,0 -0.36066,0 l -1.16213,0 0,3.6199637 -1.29571,0 0,-9.1233771 q 0.54767,-0.133578 1.21556,-0.1736514 0.68125,-0.053431 1.24228,-0.053431 1.95024,0 2.96543,0.734679 1.02855,0.734679 1.02855,2.1906791 0,0.9216882 -0.49424,1.5762204 -0.48088,0.6545321 -1.42928,0.9751193 z m -1.9636,-4.3412848 q -0.82818,0 -1.26899,0.040073 l 0,3.4863857 0.92169,0 q 0.66789,0 1.2022,-0.066789 0.53431,-0.066789 0.89497,-0.2537982 0.37402,-0.1870092 0.57439,-0.5209542 0.20036,-0.3473028 0.20036,-0.9083304 0,-0.5209542 -0.20036,-0.8682569 -0.20037,-0.3473028 -0.54767,-0.5476698 -0.33395,-0.200367 -0.80147,-0.2805138 -0.45417,-0.080147 -0.97512,-0.080147 z" /><path
         id="path4217"
         style="font-style:normal;font-variant:normal;font-weight:normal;font-stretch:normal;font-family:Ubuntu;-inkscape-font-specification:Ubuntu"
         d="m 223.13273,0 0,-9.2569551 5.58356,0 0,1.1086974 -4.28785,0 0,2.7917801 3.80697,0 0,1.0953395 -3.80697,0 0,4.2611381 -1.29571,0 z" /><path
         id="path4219"
         style="font-style:normal;font-variant:normal;font-weight:normal;font-stretch:normal;font-family:Ubuntu;-inkscape-font-specification:Ubuntu"
         d="m 233.80525,0.0801468 q -0.28052,0 -0.61446,-0.0133578 Q 232.8702,0.0534312 232.53626,0.0267156 232.21567,0 231.89508,-0.0400734 231.5745,-0.0801468 231.30734,-0.14693579 l 0,-8.97644131 q 0.26716,-0.066789 0.58774,-0.1068624 0.32059,-0.040073 0.64118,-0.066789 0.33394,-0.026716 0.65453,-0.040073 0.32059,-0.013358 0.6011,-0.013358 0.80147,0 1.49607,0.1202202 0.70797,0.1202202 1.21556,0.4140918 0.52096,0.2805138 0.81483,0.7480368 0.29387,0.467523 0.29387,1.1487707 0,0.7613946 -0.36066,1.2556332 -0.36066,0.4808808 -0.96176,0.7213212 0.81483,0.2404404 1.29571,0.7613945 0.48088,0.5209542 0.48088,1.469358 0,1.3892111 -1.02855,2.09717452 -1.0152,0.69460558 -3.23259,0.69460558 z m -1.21556,-4.394716 0,3.259303 q 0.14693,0.013358 0.3473,0.026716 0.17365,0.013358 0.40074,0.026716 0.24044,0 0.54767,0 0.57438,0 1.08198,-0.066789 0.52095,-0.080147 0.90833,-0.267156 0.38737,-0.1870091 0.61446,-0.5209541 0.24044,-0.333945 0.24044,-0.8415414 0,-0.4541652 -0.17365,-0.7613946 -0.17366,-0.3205872 -0.5076,-0.5075964 -0.32059,-0.1870092 -0.77475,-0.267156 -0.45417,-0.080147 -1.0152,-0.080147 l -1.66972,0 z m 0,-1.0419084 1.36249,0 q 0.48089,0 0.90833,-0.066789 0.42745,-0.066789 0.73468,-0.2404404 0.32059,-0.1736514 0.49424,-0.4541652 0.18701,-0.2805138 0.18701,-0.7079634 0,-0.4007339 -0.18701,-0.6678899 -0.18701,-0.2805138 -0.52095,-0.4408074 -0.32059,-0.1736514 -0.7614,-0.2537982 -0.4408,-0.080147 -0.93504,-0.080147 -0.49424,0 -0.77475,0.013358 -0.28052,0.013358 -0.5076,0.040073 l 0,2.8585691 z" /><path
         id="path4221"
         style="font-style:normal;font-variant:normal;font-weight:normal;font-stretch:normal;font-family:Ubuntu;-inkscape-font-specification:Ubuntu"
         d="m 240.51674,-4.6351564 q 0,-1.1888442 0.3473,-2.0971746 0.36066,-0.9083303 0.96177,-1.5094313 0.61445,-0.6144588 1.41592,-0.9216882 0.81483,-0.3072294 1.72316,-0.3072294 0.89497,0 1.68308,0.3072294 0.80147,0.3072294 1.40257,0.9216882 0.6011,0.601101 0.9484,1.5094313 0.36066,0.9083304 0.36066,2.0971746 0,1.1888441 -0.36066,2.0971745 -0.3473,0.9083304 -0.9484,1.5227891 -0.6011,0.60110101 -1.40257,0.9083304 -0.78811,0.30722939 -1.68308,0.30722939 -0.90833,0 -1.72316,-0.30722939 -0.80147,-0.30722939 -1.41592,-0.9083304 -0.60111,-0.6144587 -0.96177,-1.5227891 -0.3473,-0.9083304 -0.3473,-2.0971745 z m 1.3625,0 q 0,0.8415413 0.21372,1.5361469 0.21373,0.6812478 0.6011,1.1621286 0.40074,0.4808808 0.96176,0.7480367 0.57439,0.25379823 1.28235,0.25379823 0.70797,0 1.26899,-0.25379823 0.56103,-0.2671559 0.94841,-0.7480367 0.40073,-0.4808808 0.61446,-1.1621286 0.21372,-0.6946056 0.21372,-1.5361469 0,-0.8415414 -0.21372,-1.5227892 -0.21373,-0.6946056 -0.61446,-1.1754863 -0.38738,-0.4808808 -0.94841,-0.734679 -0.56102,-0.267156 -1.26899,-0.267156 -0.70796,0 -1.28235,0.267156 -0.56102,0.2537982 -0.96176,0.734679 -0.38737,0.4808807 -0.6011,1.1754863 -0.21372,0.6812478 -0.21372,1.5227892 z" /><path
         id="path4223"
         style="font-style:normal;font-variant:normal;font-weight:normal;font-stretch:normal;font-family:Ubuntu;-inkscape-font-specification:Ubuntu"
         d="m 258.19813,0 q -0.22708,-0.60110098 -0.42745,-1.1754864 -0.20036,-0.5877431 -0.41409,-1.1888441 l -4.19435,0 L 252.3207,0 250.97156,0 q 0.53431,-1.4693579 1.00184,-2.7116333 0.46752,-1.2556332 0.90833,-2.3776883 0.45416,-1.1220552 0.89497,-2.1372479 0.44081,-1.0285506 0.92169,-2.0303856 l 1.18884,0 q 0.48088,1.001835 0.92169,2.0303856 0.44081,1.0151927 0.88162,2.1372479 0.45416,1.1220551 0.92168,2.3776883 Q 259.07975,-1.4693579 259.61406,0 l -1.41593,0 z m -1.21556,-3.4329545 q -0.42745,-1.1621285 -0.8549,-2.2441103 -0.41409,-1.0953396 -0.86825,-2.0971745 -0.46753,1.0018349 -0.89498,2.0971745 -0.41409,1.0819818 -0.82818,2.2441103 l 3.44631,0 z" /><path
         id="path4225"
         style="font-style:normal;font-variant:normal;font-weight:normal;font-stretch:normal;font-family:Ubuntu;-inkscape-font-specification:Ubuntu"
         d="m 266.38608,-3.8737619 q 0.21372,0.267156 0.53431,0.7079634 0.33395,0.4274496 0.68125,0.9617616 0.3473,0.5209542 0.68125,1.0953395 0.3473,0.57438542 0.58774,1.1086974 l -1.41593,0 q -0.26715,-0.50759638 -0.58774,-1.0285506 -0.30723,-0.5209541 -0.62782,-0.9884771 -0.32058,-0.4808808 -0.64117,-0.8949726 -0.30723,-0.4140918 -0.56103,-0.7213212 -0.17365,0.013358 -0.36066,0.013358 -0.17365,0 -0.36066,0 l -1.16213,0 0,3.6199637 -1.2957,0 0,-9.1233771 q 0.54767,-0.133578 1.21556,-0.1736514 0.68124,-0.053431 1.24227,-0.053431 1.95024,0 2.96543,0.734679 1.02855,0.734679 1.02855,2.1906791 0,0.9216882 -0.49424,1.5762204 -0.48088,0.6545321 -1.42928,0.9751193 z m -1.9636,-4.3412848 q -0.82818,0 -1.26899,0.040073 l 0,3.4863857 0.92169,0 q 0.66789,0 1.2022,-0.066789 0.53431,-0.066789 0.89497,-0.2537982 0.37402,-0.1870092 0.57439,-0.5209542 0.20037,-0.3473028 0.20037,-0.9083304 0,-0.5209542 -0.20037,-0.8682569 -0.20037,-0.3473028 -0.54767,-0.5476698 -0.33394,-0.200367 -0.80147,-0.2805138 -0.45416,-0.080147 -0.97512,-0.080147 z" /><path
         id="path4227"
         style="font-style:normal;font-variant:normal;font-weight:normal;font-stretch:normal;font-family:Ubuntu;-inkscape-font-specification:Ubuntu"
         d="m 278.85919,-4.6351564 q 0,1.2022019 -0.37402,2.0971745 -0.37402,0.8816148 -1.05526,1.4693579 -0.68125,0.57438542 -1.62965,0.86825701 -0.94841,0.28051379 -2.08382,0.28051379 -0.56103,0 -1.24228,-0.0534312 -0.66789,-0.0400734 -1.21556,-0.17365139 l 0,-8.97644131 q 0.54767,-0.133578 1.21556,-0.1736514 0.68125,-0.053431 1.24228,-0.053431 1.13541,0 2.08382,0.2938716 0.9484,0.2805138 1.62965,0.868257 0.68124,0.5743854 1.05526,1.4693579 0.37402,0.8816148 0.37402,2.0838168 z m -5.03589,3.5798902 q 1.84338,0 2.75171,-0.9350459 0.90833,-0.9484038 0.90833,-2.6448443 0,-1.6964406 -0.90833,-2.6314865 -0.90833,-0.9484038 -2.75171,-0.9484038 -0.54767,0 -0.8549,0.013358 -0.29387,0.013358 -0.41409,0.026716 l 0,7.0796337 q 0.12022,0.013358 0.41409,0.026716 0.30723,0.013358 0.8549,0.013358 z" /><path
         id="path4229"
         style="font-style:normal;font-variant:normal;font-weight:normal;font-stretch:normal;font-family:Ubuntu;-inkscape-font-specification:Ubuntu"
         d="m 283.77533,-0.92168817 q 2.03038,0 2.03038,-1.38921113 0,-0.4274496 -0.18701,-0.7213212 -0.17365,-0.3072294 -0.48088,-0.5209542 -0.30723,-0.2270826 -0.70796,-0.3873762 -0.38738,-0.1602936 -0.82818,-0.3205872 -0.5076,-0.1736513 -0.96176,-0.3873761 -0.45417,-0.2270826 -0.78811,-0.5209542 -0.33395,-0.3072294 -0.53432,-0.7213212 -0.18701,-0.4140918 -0.18701,-1.001835 0,-1.2155597 0.82819,-1.8968075 0.82818,-0.6812478 2.28418,-0.6812478 0.84154,0 1.52279,0.1870092 0.69461,0.1736514 1.01519,0.3873762 l -0.41409,1.0552662 q -0.28051,-0.1736514 -0.84154,-0.333945 -0.54767,-0.1736514 -1.28235,-0.1736514 -0.37402,0 -0.6946,0.080147 -0.32059,0.080147 -0.56103,0.2404404 -0.24044,0.1602936 -0.38738,0.4140918 -0.13358,0.2404404 -0.13358,0.5743853 0,0.3740184 0.14694,0.6278166 0.14694,0.2537982 0.41409,0.4541652 0.26716,0.1870092 0.61446,0.3473028 0.36066,0.1602936 0.78811,0.3205872 0.6011,0.2404404 1.09534,0.4808808 0.5076,0.2404404 0.86826,0.5743853 0.37402,0.333945 0.57438,0.801468 0.20037,0.4541652 0.20037,1.1086974 0,1.2155597 -0.89497,1.87009192 -0.88162,0.65453217 -2.49791,0.65453217 -0.54767,0 -1.01519,-0.0801468 -0.45417,-0.066789 -0.81483,-0.1602936 -0.36066,-0.10686239 -0.62782,-0.21372479 -0.25379,-0.1202202 -0.40073,-0.20036699 l 0.38738,-1.06862392 q 0.30723,0.1736513 0.93504,0.3873761 0.62782,0.21372483 1.53615,0.21372483 z" /><path
         id="path4231"
         style="font-style:normal;font-variant:normal;font-weight:normal;font-stretch:normal;font-family:Ubuntu;-inkscape-font-specification:Ubuntu"
         d="m 290.94995,-1.5227891 q 0.0134,0.1068623 0.0134,0.2137247 0,0.093505 0,0.200367 0,0.84154141 -0.2538,1.65636718 -0.24044,0.82818362 -0.66789,1.57622032 l -0.96176,-0.3072294 q 0.33395,-0.6812477 0.44081,-1.38921112 0.10686,-0.69460557 0.10686,-1.30906435 0,-0.17365143 -0.0134,-0.33394503 0,-0.1602936 -0.0134,-0.3072293 l 1.34913,0 z" /><path
         id="path4233"
         style="font-style:normal;font-variant:normal;font-weight:normal;font-stretch:normal;font-family:Ubuntu;-inkscape-font-specification:Ubuntu"
         d="m 303.73723,-4.5550096 1.29571,0 0,4.32792701 q -0.1603,0.0534312 -0.46753,0.12022019 -0.29387,0.066789 -0.6946,0.133578 -0.38738,0.066789 -0.8549,0.1068624 -0.46752,0.0534312 -0.9484,0.0534312 -0.97512,0 -1.77659,-0.32058719 -0.80147,-0.32058718 -1.37586,-0.935046 -0.57438,-0.6144587 -0.89497,-1.5094313 -0.30723,-0.8949726 -0.30723,-2.0571011 0,-1.1621286 0.34731,-2.0571012 0.36066,-0.9083303 0.96176,-1.5227891 0.6011,-0.6144588 1.40257,-0.935046 0.81482,-0.3205872 1.73651,-0.3205872 0.62782,0 1.1087,0.080147 0.49424,0.080147 0.84154,0.1870092 0.3473,0.1068624 0.56103,0.2137248 0.22708,0.1068624 0.30723,0.1602936 l -0.4141,1.0819818 q -0.38737,-0.2537982 -1.02855,-0.4140918 -0.64117,-0.1736514 -1.30906,-0.1736514 -0.70796,0 -1.29571,0.2537982 -0.57438,0.2537982 -0.98847,0.734679 -0.40074,0.4808807 -0.62782,1.1754863 -0.22708,0.6812478 -0.22708,1.536147 0,0.8281835 0.18701,1.5094313 0.20036,0.6812478 0.58774,1.1754864 0.40073,0.4808808 0.97512,0.7480367 0.58774,0.26715603 1.37585,0.26715603 0.56103,0 0.9484,-0.0534312 0.40074,-0.066789 0.57439,-0.12022023 l 0,-3.4463122 z" /><path
         id="path4235"
         style="font-style:normal;font-variant:normal;font-weight:normal;font-stretch:normal;font-family:Ubuntu;-inkscape-font-specification:Ubuntu"
         d="m 308.06164,0 0,-9.2569551 5.65035,0 0,1.1086974 -4.35464,0 0,2.7517067 3.87376,0 0,1.0819818 -3.87376,0 0,3.2058718 4.68859,0 0,1.1086974 -5.9843,0 z" /><path
         id="path4237"
         style="font-style:normal;font-variant:normal;font-weight:normal;font-stretch:normal;font-family:Ubuntu;-inkscape-font-specification:Ubuntu"
         d="m 323.09924,0 q -0.22708,-0.60110098 -0.42745,-1.1754864 -0.20037,-0.5877431 -0.41409,-1.1888441 l -4.19435,0 L 317.22181,0 315.87267,0 q 0.53431,-1.4693579 1.00184,-2.7116333 0.46752,-1.2556332 0.90833,-2.3776883 0.45416,-1.1220552 0.89497,-2.1372479 0.44081,-1.0285506 0.92169,-2.0303856 l 1.18884,0 q 0.48088,1.001835 0.92169,2.0303856 0.44081,1.0151927 0.88161,2.1372479 0.45417,1.1220551 0.92169,2.3776883 Q 323.98085,-1.4693579 324.51517,0 l -1.41593,0 z m -1.21556,-3.4329545 q -0.42745,-1.1621285 -0.8549,-2.2441103 -0.41409,-1.0953396 -0.86826,-2.0971745 -0.46752,1.0018349 -0.89497,2.0971745 -0.41409,1.0819818 -0.82818,2.2441103 l 3.44631,0 z" /><path
         id="path4239"
         style="font-style:normal;font-variant:normal;font-weight:normal;font-stretch:normal;font-family:Ubuntu;-inkscape-font-specification:Ubuntu"
         d="m 331.28717,-3.8737619 q 0.21373,0.267156 0.53431,0.7079634 0.33395,0.4274496 0.68125,0.9617616 0.3473,0.5209542 0.68125,1.0953395 0.3473,0.57438542 0.58774,1.1086974 l -1.41592,0 q -0.26716,-0.50759638 -0.58775,-1.0285506 -0.30723,-0.5209541 -0.62781,-0.9884771 -0.32059,-0.4808808 -0.64118,-0.8949726 -0.30723,-0.4140918 -0.56103,-0.7213212 -0.17365,0.013358 -0.36066,0.013358 -0.17365,0 -0.36066,0 l -1.16213,0 0,3.6199637 -1.2957,0 0,-9.1233771 q 0.54767,-0.133578 1.21556,-0.1736514 0.68125,-0.053431 1.24227,-0.053431 1.95024,0 2.96543,0.734679 1.02856,0.734679 1.02856,2.1906791 0,0.9216882 -0.49424,1.5762204 -0.48088,0.6545321 -1.42929,0.9751193 z m -1.96359,-4.3412848 q -0.82819,0 -1.269,0.040073 l 0,3.4863857 0.92169,0 q 0.66789,0 1.2022,-0.066789 0.53432,-0.066789 0.89498,-0.2537982 0.37402,-0.1870092 0.57438,-0.5209542 0.20037,-0.3473028 0.20037,-0.9083304 0,-0.5209542 -0.20037,-0.8682569 -0.20036,-0.3473028 -0.54767,-0.5476698 -0.33394,-0.200367 -0.80146,-0.2805138 -0.45417,-0.080147 -0.97512,-0.080147 z" /><path
         id="path4241"
         style="font-style:normal;font-variant:normal;font-weight:normal;font-stretch:normal;font-family:Ubuntu;-inkscape-font-specification:Ubuntu"
         d="m 337.57123,-1.5227891 q 0.0134,0.1068623 0.0134,0.2137247 0,0.093505 0,0.200367 0,0.84154141 -0.2538,1.65636718 -0.24044,0.82818362 -0.66789,1.57622032 l -0.96176,-0.3072294 q 0.33394,-0.6812477 0.44081,-1.38921112 0.10686,-0.69460557 0.10686,-1.30906435 0,-0.17365143 -0.0134,-0.33394503 0,-0.1602936 -0.0134,-0.3072293 l 1.34914,0 z" /><path
         id="path4243"
         style="font-style:normal;font-variant:normal;font-weight:normal;font-stretch:normal;font-family:Ubuntu;-inkscape-font-specification:Ubuntu"
         d="m 350.89282,0 q -0.22708,-0.60110098 -0.42745,-1.1754864 -0.20037,-0.5877431 -0.41409,-1.1888441 l -4.19435,0 L 345.01539,0 343.66625,0 q 0.53431,-1.4693579 1.00183,-2.7116333 0.46753,-1.2556332 0.90833,-2.3776883 0.45417,-1.1220552 0.89498,-2.1372479 0.4408,-1.0285506 0.92169,-2.0303856 l 1.18884,0 q 0.48088,1.001835 0.92169,2.0303856 0.44081,1.0151927 0.88161,2.1372479 0.45417,1.1220551 0.92169,2.3776883 Q 351.77443,-1.4693579 352.30875,0 l -1.41593,0 z m -1.21556,-3.4329545 q -0.42745,-1.1621285 -0.8549,-2.2441103 -0.41409,-1.0953396 -0.86826,-2.0971745 -0.46752,1.0018349 -0.89497,2.0971745 -0.41409,1.0819818 -0.82818,2.2441103 l 3.44631,0 z" /><path
         id="path4245"
         style="font-style:normal;font-variant:normal;font-weight:normal;font-stretch:normal;font-family:Ubuntu;-inkscape-font-specification:Ubuntu"
         d="m 357.01029,-9.3504597 q 1.95024,0 2.99215,0.7480368 1.05527,0.734679 1.05527,2.2040369 0,0.801468 -0.29388,1.3758534 -0.28051,0.5610276 -0.82818,0.9216881 -0.53431,0.3473028 -1.30906,0.5075964 -0.77476,0.1602936 -1.74988,0.1602936 l -1.02855,0 0,3.4329545 -1.2957,0 0,-9.1233771 q 0.54767,-0.133578 1.21556,-0.1736514 0.68124,-0.053431 1.24227,-0.053431 z m 0.10686,1.135413 q -0.82818,0 -1.26899,0.040073 l 0,3.6333215 0.97512,0 q 0.66789,0 1.20221,-0.080147 0.53431,-0.093505 0.89497,-0.2938716 0.37402,-0.2137248 0.57438,-0.5743854 0.20037,-0.3606606 0.20037,-0.9216882 0,-0.534312 -0.21372,-0.8816147 -0.20037,-0.3473028 -0.56103,-0.5476698 -0.34731,-0.2137248 -0.81483,-0.2938716 -0.46752,-0.080147 -0.98848,-0.080147 z" /><path
         id="path4247"
         style="font-style:normal;font-variant:normal;font-weight:normal;font-stretch:normal;font-family:Ubuntu;-inkscape-font-specification:Ubuntu"
         d="m 366.12412,-9.3504597 q 1.95024,0 2.99215,0.7480368 1.05527,0.734679 1.05527,2.2040369 0,0.801468 -0.29388,1.3758534 -0.28051,0.5610276 -0.82818,0.9216881 -0.53431,0.3473028 -1.30906,0.5075964 -0.77476,0.1602936 -1.74988,0.1602936 l -1.02855,0 0,3.4329545 -1.2957,0 0,-9.1233771 q 0.54767,-0.133578 1.21556,-0.1736514 0.68125,-0.053431 1.24227,-0.053431 z m 0.10687,1.135413 q -0.82819,0 -1.269,0.040073 l 0,3.6333215 0.97512,0 q 0.66789,0 1.20221,-0.080147 0.53431,-0.093505 0.89497,-0.2938716 0.37402,-0.2137248 0.57438,-0.5743854 0.20037,-0.3606606 0.20037,-0.9216882 0,-0.534312 -0.21372,-0.8816147 -0.20037,-0.3473028 -0.56103,-0.5476698 -0.3473,-0.2137248 -0.81483,-0.2938716 -0.46752,-0.080147 -0.98847,-0.080147 z" /><path
         id="path4249"
         style="font-style:normal;font-variant:normal;font-weight:normal;font-stretch:normal;font-family:Ubuntu;-inkscape-font-specification:Ubuntu"
         d="m 378.28643,0 q -0.22708,-0.60110098 -0.42744,-1.1754864 -0.20037,-0.5877431 -0.4141,-1.1888441 l -4.19435,0 L 372.409,0 371.05987,0 q 0.53431,-1.4693579 1.00183,-2.7116333 0.46752,-1.2556332 0.90833,-2.3776883 0.45417,-1.1220552 0.89497,-2.1372479 0.44081,-1.0285506 0.92169,-2.0303856 l 1.18885,0 q 0.48088,1.001835 0.92168,2.0303856 0.44081,1.0151927 0.88162,2.1372479 0.45416,1.1220551 0.92169,2.3776883 Q 379.16805,-1.4693579 379.70236,0 l -1.41593,0 z m -1.21555,-3.4329545 q -0.42745,-1.1621285 -0.8549,-2.2441103 -0.4141,-1.0953396 -0.86826,-2.0971745 -0.46752,1.0018349 -0.89497,2.0971745 -0.4141,1.0819818 -0.82819,2.2441103 l 3.44632,0 z" /><path
         id="path4251"
         style="font-style:normal;font-variant:normal;font-weight:normal;font-stretch:normal;font-family:Ubuntu;-inkscape-font-specification:Ubuntu"
         d="m 386.4744,-3.8737619 q 0.21372,0.267156 0.53431,0.7079634 0.33394,0.4274496 0.68125,0.9617616 0.3473,0.5209542 0.68125,1.0953395 0.3473,0.57438542 0.58774,1.1086974 l -1.41593,0 q -0.26715,-0.50759638 -0.58774,-1.0285506 -0.30723,-0.5209541 -0.62782,-0.9884771 -0.32059,-0.4808808 -0.64117,-0.8949726 -0.30723,-0.4140918 -0.56103,-0.7213212 -0.17365,0.013358 -0.36066,0.013358 -0.17365,0 -0.36066,0 l -1.16213,0 0,3.6199637 -1.29571,0 0,-9.1233771 q 0.54767,-0.133578 1.21556,-0.1736514 0.68125,-0.053431 1.24228,-0.053431 1.95024,0 2.96543,0.734679 1.02855,0.734679 1.02855,2.1906791 0,0.9216882 -0.49424,1.5762204 -0.48088,0.6545321 -1.42928,0.9751193 z m -1.9636,-4.3412848 q -0.82818,0 -1.26899,0.040073 l 0,3.4863857 0.92169,0 q 0.66789,0 1.2022,-0.066789 0.53431,-0.066789 0.89497,-0.2537982 0.37402,-0.1870092 0.57439,-0.5209542 0.20037,-0.3473028 0.20037,-0.9083304 0,-0.5209542 -0.20037,-0.8682569 -0.20037,-0.3473028 -0.54767,-0.5476698 -0.33395,-0.200367 -0.80147,-0.2805138 -0.45416,-0.080147 -0.97512,-0.080147 z" /><path
         id="path4253"
         style="font-style:normal;font-variant:normal;font-weight:normal;font-stretch:normal;font-family:Ubuntu;-inkscape-font-specification:Ubuntu"
         d="m 391.34692,0 0,-9.2569551 5.65035,0 0,1.1086974 -4.35464,0 0,2.7517067 3.87376,0 0,1.0819818 -3.87376,0 0,3.2058718 4.68859,0 0,1.1086974 -5.9843,0 z" /><path
         id="path4255"
         style="font-style:normal;font-variant:normal;font-weight:normal;font-stretch:normal;font-family:Ubuntu;-inkscape-font-specification:Ubuntu"
         d="m 405.53523,-1.1220552 0,1.1220552 -5.57021,0 0,-9.2569551 1.29571,0 0,8.1348999 4.2745,0 z" /><path
         id="path4257"
         style="font-style:normal;font-variant:normal;font-weight:normal;font-stretch:normal;font-family:Ubuntu;-inkscape-font-specification:Ubuntu"
         d="m 411.44908,-2.4578351 q 0,-0.5209542 0.1603,-0.9216882 0.16029,-0.4140918 0.42745,-0.734679 0.28051,-0.3339449 0.64117,-0.5743853 0.36066,-0.2537982 0.74804,-0.4408074 -0.98848,-0.9884772 -0.98848,-2.0437433 0,-0.534312 0.17365,-0.9617616 0.18701,-0.4274496 0.49424,-0.7213212 0.32059,-0.2938716 0.74804,-0.4541652 0.44081,-0.1602936 0.96176,-0.1602936 0.53431,0 0.9484,0.1602936 0.42745,0.1602936 0.70797,0.4274496 0.29387,0.267156 0.4408,0.6411744 0.14694,0.3740184 0.14694,0.7881102 0,0.4675229 -0.16029,0.8415413 -0.14694,0.3740184 -0.4141,0.6812478 -0.25379,0.3072294 -0.58774,0.5610276 -0.33394,0.2537982 -0.70796,0.4541652 l 2.16396,2.2040369 q 0.45417,-0.8415414 0.58774,-1.8700919 l 1.02856,0.133578 q -0.0534,0.5476697 -0.28052,1.2022019 -0.21372,0.6411744 -0.61446,1.2823488 0.46753,0.5075964 0.8549,1.00183493 Q 419.33019,-0.46752298 419.58398,0 l -1.30906,0 q -0.16029,-0.26715599 -0.40073,-0.54766978 -0.22709,-0.28051379 -0.48089,-0.56102762 -0.54766,0.54766982 -1.26899,0.89497261 -0.72132,0.33394499 -1.65636,0.33394499 -0.86826,0 -1.44265,-0.2404404 -0.57438,-0.25379819 -0.93504,-0.62781657 -0.3473,-0.38737623 -0.49424,-0.84154133 -0.14694,-0.4541652 -0.14694,-0.868257 z m 1.24228,-0.026716 q 0,0.2404404 0.0935,0.5209542 0.0935,0.2805138 0.30723,0.5209542 0.21373,0.2270825 0.54767,0.3873761 0.34731,0.14693583 0.8549,0.14693583 0.65453,0 1.2022,-0.24044043 0.56103,-0.2404404 0.98848,-0.6812477 l -2.60477,-2.6314865 q -0.24044,0.1202202 -0.49424,0.2805137 -0.24044,0.1602936 -0.44081,0.400734 -0.20036,0.2270826 -0.33394,0.5476698 -0.12022,0.3205872 -0.12022,0.7480368 z m 3.24594,-4.929028 q 0,-0.4541652 -0.30722,-0.7613946 -0.29388,-0.3205872 -0.81483,-0.3205872 -0.58774,0 -0.90833,0.3606606 -0.30723,0.3473028 -0.30723,0.868257 0,0.8682569 0.90833,1.6964405 0.29387,-0.1469358 0.54767,-0.3205872 0.26716,-0.1736514 0.45417,-0.400734 0.20036,-0.2270826 0.30722,-0.4942386 0.12022,-0.2805138 0.12022,-0.6278165 z" /><path
         id="path4259"
         style="font-style:normal;font-variant:normal;font-weight:normal;font-stretch:normal;font-family:Ubuntu;-inkscape-font-specification:Ubuntu"
         d="m 430.11271,-1.2823488 q -0.13358,-0.3205871 -0.36066,-0.8148257 -0.21373,-0.4942386 -0.46753,-1.068624 -0.25379,-0.5743854 -0.54767,-1.1754863 -0.28051,-0.6144588 -0.53431,-1.1487708 -0.2538,-0.5476698 -0.48088,-0.9751194 -0.21372,-0.4274496 -0.3473,-0.6545321 -0.14694,1.5762203 -0.24044,3.4195966 Q 427.04041,-1.8700919 426.97363,0 l -1.269,0 q 0.0534,-1.202202 0.12022,-2.4177617 0.0668,-1.2289176 0.14694,-2.4044039 0.0935,-1.1888442 0.18701,-2.3108993 0.10686,-1.1220552 0.22708,-2.1238902 l 1.13542,0 q 0.36066,0.5877432 0.77475,1.3892112 0.41409,0.8014679 0.82818,1.6830827 0.41409,0.868257 0.80147,1.7498718 0.38738,0.8682569 0.70796,1.5895781 0.32059,-0.7213212 0.70797,-1.5895781 0.38737,-0.8816148 0.80146,-1.7498718 0.4141,-0.8816148 0.82819,-1.6830827 0.41409,-0.801468 0.77475,-1.3892112 l 1.13541,0 Q 435.33561,-4.7820922 435.56269,0 l -1.26899,0 q -0.0668,-1.8700919 -0.16029,-3.7001105 -0.0935,-1.8433763 -0.24044,-3.4195966 -0.13358,0.2270825 -0.36067,0.6545321 -0.21372,0.4274496 -0.46752,0.9751194 -0.2538,0.534312 -0.54767,1.1487708 -0.28051,0.6011009 -0.53431,1.1754863 -0.2538,0.5743854 -0.48088,1.068624 -0.21373,0.4942386 -0.3473,0.8148257 l -1.04191,0 z" /><path
         id="path4261"
         style="font-style:normal;font-variant:normal;font-weight:normal;font-stretch:normal;font-family:Ubuntu;-inkscape-font-specification:Ubuntu"
         d="m 438.22031,-4.6351564 q 0,-1.1888442 0.3473,-2.0971746 0.36066,-0.9083303 0.96176,-1.5094313 0.61446,-0.6144588 1.41593,-0.9216882 0.81483,-0.3072294 1.72316,-0.3072294 0.89497,0 1.68308,0.3072294 0.80147,0.3072294 1.40257,0.9216882 0.6011,0.601101 0.9484,1.5094313 0.36066,0.9083304 0.36066,2.0971746 0,1.1888441 -0.36066,2.0971745 -0.3473,0.9083304 -0.9484,1.5227891 -0.6011,0.60110101 -1.40257,0.9083304 -0.78811,0.30722939 -1.68308,0.30722939 -0.90833,0 -1.72316,-0.30722939 -0.80147,-0.30722939 -1.41593,-0.9083304 -0.6011,-0.6144587 -0.96176,-1.5227891 -0.3473,-0.9083304 -0.3473,-2.0971745 z m 1.36249,0 q 0,0.8415413 0.21373,1.5361469 0.21372,0.6812478 0.6011,1.1621286 0.40073,0.4808808 0.96176,0.7480367 0.57439,0.25379823 1.28235,0.25379823 0.70796,0 1.26899,-0.25379823 0.56103,-0.2671559 0.94841,-0.7480367 0.40073,-0.4808808 0.61445,-1.1621286 0.21373,-0.6946056 0.21373,-1.5361469 0,-0.8415414 -0.21373,-1.5227892 -0.21372,-0.6946056 -0.61445,-1.1754863 -0.38738,-0.4808808 -0.94841,-0.734679 -0.56103,-0.267156 -1.26899,-0.267156 -0.70796,0 -1.28235,0.267156 -0.56103,0.2537982 -0.96176,0.734679 -0.38738,0.4808807 -0.6011,1.1754863 -0.21373,0.6812478 -0.21373,1.5227892 z" /><path
         id="path4263"
         style="font-style:normal;font-variant:normal;font-weight:normal;font-stretch:normal;font-family:Ubuntu;-inkscape-font-specification:Ubuntu"
         d="m 454.50623,-3.8737619 q 0.21372,0.267156 0.53431,0.7079634 0.33394,0.4274496 0.68125,0.9617616 0.3473,0.5209542 0.68124,1.0953395 Q 456.75034,-0.53431198 456.99078,0 l -1.41593,0 q -0.26715,-0.50759638 -0.58774,-1.0285506 -0.30723,-0.5209541 -0.62782,-0.9884771 -0.32059,-0.4808808 -0.64117,-0.8949726 -0.30723,-0.4140918 -0.56103,-0.7213212 -0.17365,0.013358 -0.36066,0.013358 -0.17365,0 -0.36066,0 l -1.16213,0 0,3.6199637 -1.29571,0 0,-9.1233771 q 0.54767,-0.133578 1.21556,-0.1736514 0.68125,-0.053431 1.24228,-0.053431 1.95024,0 2.96543,0.734679 1.02855,0.734679 1.02855,2.1906791 0,0.9216882 -0.49424,1.5762204 -0.48088,0.6545321 -1.42928,0.9751193 z m -1.9636,-4.3412848 q -0.82818,0 -1.26899,0.040073 l 0,3.4863857 0.92169,0 q 0.66789,0 1.2022,-0.066789 0.53431,-0.066789 0.89497,-0.2537982 0.37402,-0.1870092 0.57439,-0.5209542 0.20036,-0.3473028 0.20036,-0.9083304 0,-0.5209542 -0.20036,-0.8682569 -0.20037,-0.3473028 -0.54767,-0.5476698 -0.33395,-0.200367 -0.80147,-0.2805138 -0.45416,-0.080147 -0.97512,-0.080147 z" /><path
         id="path4265"
         style="font-style:normal;font-variant:normal;font-weight:normal;font-stretch:normal;font-family:Ubuntu;-inkscape-font-specification:Ubuntu"
         d="m 459.37875,0 0,-9.2569551 5.65035,0 0,1.1086974 -4.35464,0 0,2.7517067 3.87376,0 0,1.0819818 -3.87376,0 0,3.2058718 4.68859,0 0,1.1086974 -5.9843,0 z" /><path
         id="path4267"
         style="font-style:normal;font-variant:normal;font-weight:normal;font-stretch:normal;font-family:Ubuntu;-inkscape-font-specification:Ubuntu"
         d="m 469.35935,-6.7456888 q 0,1.1220552 -0.0802,2.0437434 -0.0801,0.9083303 -0.20036,1.8166607 l -0.77476,0 q -0.12022,-0.9083304 -0.20036,-1.8166607 -0.0802,-0.9216882 -0.0802,-2.0437434 l 0,-2.5112663 1.33578,0 0,2.5112663 z m 0.22708,6.02436763 q 0,0.36066058 -0.24044,0.62781657 -0.24044,0.26715599 -0.65453,0.26715599 -0.41409,0 -0.65453,-0.26715599 -0.24044,-0.26715599 -0.24044,-0.62781657 0,-0.36066063 0.24044,-0.62781663 0.24044,-0.2671559 0.65453,-0.2671559 0.41409,0 0.65453,0.2671559 0.24044,0.267156 0.24044,0.62781663 z" /></g></g><g
     transform="translate(-17.663838,-17.187123)"
     id="Layer_2"><path
       style="clip-rule:evenodd;fill-rule:evenodd"
       id="path11"
       d="m 68.341,47.11 c 29.097,0 58.328,0 87.697,0 1.9,0 4.061,-0.24 5.64,0.137 1.494,0.357 2.692,1.433 3.302,2.82 0.649,1.478 0.413,3.549 0.413,5.708 0,10.351 0,20.215 0,30.539 0,2.059 0.244,4.251 -0.069,5.984 -0.339,1.88 -1.9,3.451 -3.645,3.852 -1.563,0.359 -3.345,0.421 -5.021,0.619 -25.286,2.986 -50.509,5.826 -75.729,8.804 0.113,1.954 1.186,3.7 0.963,5.709 -0.195,1.761 -1.331,3.114 -1.788,4.608 20.359,0 41.599,0 62.247,0 2.998,0 6.048,-0.273 8.873,0 3.123,0.302 5.292,3.59 3.989,6.74 -1.172,2.837 -3.994,3.446 -8.392,3.096 5.314,0.958 8.954,4.479 8.735,10.248 -0.111,2.938 -1.272,4.991 -2.958,6.603 -1.628,1.559 -3.713,2.751 -6.741,2.751 -2.993,0 -5.196,-1.036 -6.878,-2.683 -1.632,-1.597 -2.895,-3.652 -3.026,-6.534 -0.272,-5.945 3.601,-9.527 8.735,-10.317 -22.079,-0.161 -44.457,-0.023 -66.649,-0.068 5.313,0.958 8.953,4.479 8.735,10.248 -0.111,2.938 -1.273,4.991 -2.958,6.603 -1.629,1.559 -3.713,2.751 -6.741,2.751 -2.993,0 -5.196,-1.036 -6.878,-2.683 -1.631,-1.597 -2.894,-3.652 -3.026,-6.534 -0.272,-5.945 3.601,-9.527 8.735,-10.317 -2.475,-0.177 -4.82,0.225 -6.465,-0.825 -1.439,-0.919 -2.569,-2.633 -2.201,-4.884 0.291,-1.777 1.229,-3.606 2.064,-5.158 0.878,-1.634 1.808,-3.19 2.544,-4.677 -4.525,-21.04 -9.097,-42.03 -13.55,-63.141 -3.009,0 -5.396,0 -8.185,0 -2.53,0 -5.479,0.265 -8.116,-0.069 -2.479,-0.313 -4.314,-2.414 -4.333,-4.814 -0.02,-2.498 1.812,-4.685 4.402,-4.952 1.617,-0.167 3.516,0 5.365,0 3.579,0 6.999,0 10.661,0 1.741,0 3.717,-0.235 5.228,0.068 4.2,0.845 4.077,5.703 5.021,9.768 z" /></g><g
     transform="translate(-17.663838,-17.187123)"
     id="Layer_4"><g
       id="g14"><path
         style="clip-rule:evenodd;fill:#ffffff;fill-rule:evenodd"
         id="path16"
         d="m 124.307,63.223 c -0.276,0.042 -0.508,-0.144 -0.789,-0.212 -2.286,-0.554 -5.055,-0.091 -6.76,0.849 -0.582,0.32 -1.119,0.695 -1.607,1.182 -0.433,0.433 -1.029,1.112 -0.94,1.849 0.084,0.695 0.862,0.991 1.546,1.182 2.187,0.612 5.277,0.172 7.216,0.97 -3.094,0.064 -5.57,0.535 -8.458,0.94 -1.278,0.179 -2.755,0.427 -4.213,0.485 -2.368,0.095 -5.222,0.115 -5.214,-2.274 0.003,-1.197 0.866,-2.512 1.424,-3.183 0.607,-0.728 1.468,-1.382 2.274,-2.001 0.809,-0.621 1.667,-1.196 2.577,-1.697 1.845,-1.016 4.102,-1.93 6.579,-2.062 2.253,-0.12 3.541,0.335 4.699,1.333 0.766,0.664 1.467,1.496 1.666,2.639 z" /><path
         style="clip-rule:evenodd;fill:#ffffff;fill-rule:evenodd"
         id="path18"
         d="m 127.854,53.764 c 0.131,0 0.262,0 0.394,0 1.384,0.083 2.358,0.971 2.486,2.334 0.087,0.935 -0.09,2.074 0.03,3.214 0,4.375 0,8.751 0,13.126 -0.025,2.169 -0.061,4.777 -0.061,7.003 0,2.335 0.112,4.808 -0.606,6.397 -0.383,0.845 -0.847,1.394 -1.698,1.819 -0.749,0.375 -1.811,0.487 -2.789,0.697 -8.574,1.837 -17.107,3.692 -25.829,5.608 -0.956,0.21 -2.041,0.6 -2.971,0.333 -1.167,-0.334 -1.554,-1.382 -1.728,-2.819 0,-0.081 0,-0.162 0,-0.243 0.482,-8.28 0.986,-16.569 1.425,-24.95 0.069,-1.324 0.084,-2.899 0.485,-3.911 0.4,-1.012 1.141,-1.751 2.183,-2.183 0.535,-0.222 1.154,-0.312 1.759,-0.455 4.092,-0.972 8.346,-1.966 12.429,-2.911 4.827,-1.114 9.434,-2.199 14.491,-3.059 z m -24.466,6.67 c -2.296,0.597 -3.913,2.524 -4.759,4.578 -0.301,0.732 -0.579,1.542 -0.667,2.425 -0.088,0.895 -0.14,1.861 -0.212,2.91 -0.266,3.862 -0.594,7.722 -0.727,11.702 -0.134,3.992 -0.712,8.892 2.273,9.974 1.449,0.525 3.249,-0.154 4.668,-0.424 1.626,-0.31 3.1,-0.511 4.608,-0.91 0.852,-0.225 1.694,-0.662 2.516,-1 2.497,-1.025 4.947,-2.165 7.034,-3.517 2.866,-1.856 5.335,-4.153 7.669,-6.396 -0.019,0.002 -0.036,0.005 -0.03,0.03 -0.453,0.979 -1.192,1.911 -1.94,2.729 -2.118,2.314 -4.576,4.337 -7.033,6.215 -0.102,0.078 -0.327,0.159 -0.243,0.242 1.414,-0.292 2.81,-0.647 4.184,-0.97 1.402,-0.33 2.807,-0.597 3.971,-1.183 2.231,-1.121 3.894,-3.061 4.244,-6.093 0.092,-0.793 0.092,-1.648 0.092,-2.486 0,-2.519 0.064,-5.103 0.151,-7.609 0.116,-3.381 0.061,-6.811 0.061,-10.216 0,-1.822 -0.219,-3.135 -1.183,-3.971 -0.893,-0.776 -2.547,-1.065 -4.183,-0.697 -1.345,0.302 -2.789,0.616 -4.214,0.939 -1.446,0.329 -2.863,0.64 -4.093,1.091 -5.017,1.844 -9.006,4.916 -12.066,8.549 0.919,-1.589 2.004,-3.022 3.305,-4.274 1.211,-1.167 2.602,-2.188 3.941,-3.184 0.058,-0.042 0.217,-0.06 0.182,-0.182 -2.573,0.614 -5.106,1.092 -7.549,1.728 z" /><path
         style="clip-rule:evenodd;fill:#ffffff;fill-rule:evenodd"
         id="path20"
         d="m 102.024,83.837 c 0.096,-0.041 0.24,0.08 0.394,0.151 1.818,0.846 4.809,0.756 6.852,0.061 0.914,-0.312 1.734,-0.728 2.456,-1.212 0.657,-0.442 1.514,-1.059 1.849,-1.819 0.197,-0.445 0.219,-1.027 0.062,-1.425 -0.307,-0.77 -1.295,-1.027 -2.395,-1.183 -1.086,-0.153 -2.23,-0.22 -3.214,-0.333 -3.25,-0.375 -5.608,-1.256 -6.426,-4.063 -0.037,-0.035 -0.012,-0.076 0,-0.03 1.086,1.161 3.145,1.054 5.124,0.939 1.958,-0.113 3.714,-0.306 5.639,-0.545 1.742,-0.217 3.582,-0.558 5.548,-0.637 2.702,-0.108 5.306,0.136 6.154,1.94 0.616,1.309 0.079,2.942 -0.515,3.941 -1.862,3.134 -5.062,5.005 -8.367,6.64 -2.158,1.067 -4.642,2.08 -7.792,2.213 -3.349,0.141 -5.343,-1.302 -5.369,-4.638 z" /></g></g><g
     transform="translate(-17.663838,-17.187123)"
     id="Layer_5"><polygon
       style="clip-rule:evenodd;fill:#aaaaaa;fill-rule:evenodd"
       id="polygon23"
       points="674.417,122.772 674.417,54.491 721.917,88.631 " /></g></svg>