<?xml version="1.0" encoding="UTF-8" standalone="no"?>
<!-- Generator: Adobe Illustrator 15.0.0, SVG Export Plug-In . SVG Version: 6.00 Build 0)  -->

<svg
   xmlns:dc="http://purl.org/dc/elements/1.1/"
   xmlns:cc="http://creativecommons.org/ns#"
   xmlns:rdf="http://www.w3.org/1999/02/22-rdf-syntax-ns#"
   xmlns:svg="http://www.w3.org/2000/svg"
   xmlns="http://www.w3.org/2000/svg"
   xmlns:sodipodi="http://sodipodi.sourceforge.net/DTD/sodipodi-0.dtd"
   xmlns:inkscape="http://www.inkscape.org/namespaces/inkscape"
   version="1.1"
   x="0px"
   y="0px"
   width="724.25317"
   height="148.14088"
   viewBox="0 0 724.25318 148.14088"
   enable-background="new 0 0 758.667 174.667"
   xml:space="preserve"
   id="svg2"
   inkscape:version="0.91 r13725"
   sodipodi:docname="Shop SS Store_button.svg"><metadata
     id="metadata29"><rdf:RDF><cc:Work
         rdf:about=""><dc:format>image/svg+xml</dc:format><dc:type
           rdf:resource="http://purl.org/dc/dcmitype/StillImage" /><dc:title></dc:title></cc:Work></rdf:RDF></metadata><defs
     id="defs27" /><sodipodi:namedview
     pagecolor="#ffffff"
     bordercolor="#666666"
     borderopacity="1"
     objecttolerance="10"
     gridtolerance="10"
     guidetolerance="10"
     inkscape:pageopacity="0"
     inkscape:pageshadow="2"
     inkscape:window-width="1871"
     inkscape:window-height="1056"
     id="namedview25"
     showgrid="false"
     fit-margin-top="20"
     fit-margin-left="20"
     fit-margin-right="20"
     fit-margin-bottom="20"
     inkscape:zoom="1.5711768"
     inkscape:cx="361.66966"
     inkscape:cy="77.994489"
     inkscape:window-x="49"
     inkscape:window-y="24"
     inkscape:window-maximized="1"
     inkscape:current-layer="svg2" /><g
     id="Layer_1"
     transform="matrix(1.0386305,0,0,1.0120852,-24.037115,-18.234504)"><text
       transform="translate(177.8037,94.7407)"
       font-size="54.5889"
       id="text5"
       style="font-style:normal;font-variant:normal;font-weight:500;font-stretch:normal;font-size:54.58890152px;font-family:Ubuntu;-inkscape-font-specification:'Ubuntu Medium'"><tspan
         style="font-style:normal;font-variant:normal;font-weight:500;font-stretch:normal;font-family:Ubuntu;-inkscape-font-specification:'Ubuntu Medium'"
         id="tspan4157">SHOP OUR STORE</tspan></text>
</g><g
     id="Layer_3"
     transform="matrix(1.0018211,0,0,1,-16.870811,-17.187123)"><text
       transform="translate(178.4404,122.0288)"
       font-size="13.3578"
       letter-spacing="1"
       id="text8"
       style="font-size:13.35779953px;font-family:Avenir-Light;letter-spacing:1"><tspan
         style="font-style:normal;font-variant:normal;font-weight:normal;font-stretch:normal;font-family:Ubuntu;-inkscape-font-specification:Ubuntu"
         id="tspan4159">SHOP 24/7 THOUSANDS OF SURFBOARDS, GEAR, APPAREL &amp; MORE!</tspan></text>
</g><g
     id="Layer_2"
     transform="translate(-17.663838,-17.187123)"><path
       d="m 68.341,47.11 c 29.097,0 58.328,0 87.697,0 1.9,0 4.061,-0.24 5.64,0.137 1.494,0.357 2.692,1.433 3.302,2.82 0.649,1.478 0.413,3.549 0.413,5.708 0,10.351 0,20.215 0,30.539 0,2.059 0.244,4.251 -0.069,5.984 -0.339,1.88 -1.9,3.451 -3.645,3.852 -1.563,0.359 -3.345,0.421 -5.021,0.619 -25.286,2.986 -50.509,5.826 -75.729,8.804 0.113,1.954 1.186,3.7 0.963,5.709 -0.195,1.761 -1.331,3.114 -1.788,4.608 20.359,0 41.599,0 62.247,0 2.998,0 6.048,-0.273 8.873,0 3.123,0.302 5.292,3.59 3.989,6.74 -1.172,2.837 -3.994,3.446 -8.392,3.096 5.314,0.958 8.954,4.479 8.735,10.248 -0.111,2.938 -1.272,4.991 -2.958,6.603 -1.628,1.559 -3.713,2.751 -6.741,2.751 -2.993,0 -5.196,-1.036 -6.878,-2.683 -1.632,-1.597 -2.895,-3.652 -3.026,-6.534 -0.272,-5.945 3.601,-9.527 8.735,-10.317 -22.079,-0.161 -44.457,-0.023 -66.649,-0.068 5.313,0.958 8.953,4.479 8.735,10.248 -0.111,2.938 -1.273,4.991 -2.958,6.603 -1.629,1.559 -3.713,2.751 -6.741,2.751 -2.993,0 -5.196,-1.036 -6.878,-2.683 -1.631,-1.597 -2.894,-3.652 -3.026,-6.534 -0.272,-5.945 3.601,-9.527 8.735,-10.317 -2.475,-0.177 -4.82,0.225 -6.465,-0.825 -1.439,-0.919 -2.569,-2.633 -2.201,-4.884 0.291,-1.777 1.229,-3.606 2.064,-5.158 0.878,-1.634 1.808,-3.19 2.544,-4.677 -4.525,-21.04 -9.097,-42.03 -13.55,-63.141 -3.009,0 -5.396,0 -8.185,0 -2.53,0 -5.479,0.265 -8.116,-0.069 -2.479,-0.313 -4.314,-2.414 -4.333,-4.814 -0.02,-2.498 1.812,-4.685 4.402,-4.952 1.617,-0.167 3.516,0 5.365,0 3.579,0 6.999,0 10.661,0 1.741,0 3.717,-0.235 5.228,0.068 4.2,0.845 4.077,5.703 5.021,9.768 z"
       id="path11"
       inkscape:connector-curvature="0"
       style="clip-rule:evenodd;fill-rule:evenodd" /></g><g
     id="Layer_4"
     transform="translate(-17.663838,-17.187123)"><g
       id="g14"><path
         d="m 124.307,63.223 c -0.276,0.042 -0.508,-0.144 -0.789,-0.212 -2.286,-0.554 -5.055,-0.091 -6.76,0.849 -0.582,0.32 -1.119,0.695 -1.607,1.182 -0.433,0.433 -1.029,1.112 -0.94,1.849 0.084,0.695 0.862,0.991 1.546,1.182 2.187,0.612 5.277,0.172 7.216,0.97 -3.094,0.064 -5.57,0.535 -8.458,0.94 -1.278,0.179 -2.755,0.427 -4.213,0.485 -2.368,0.095 -5.222,0.115 -5.214,-2.274 0.003,-1.197 0.866,-2.512 1.424,-3.183 0.607,-0.728 1.468,-1.382 2.274,-2.001 0.809,-0.621 1.667,-1.196 2.577,-1.697 1.845,-1.016 4.102,-1.93 6.579,-2.062 2.253,-0.12 3.541,0.335 4.699,1.333 0.766,0.664 1.467,1.496 1.666,2.639 z"
         id="path16"
         inkscape:connector-curvature="0"
         style="clip-rule:evenodd;fill:#ffffff;fill-rule:evenodd" /><path
         d="m 127.854,53.764 c 0.131,0 0.262,0 0.394,0 1.384,0.083 2.358,0.971 2.486,2.334 0.087,0.935 -0.09,2.074 0.03,3.214 0,4.375 0,8.751 0,13.126 -0.025,2.169 -0.061,4.777 -0.061,7.003 0,2.335 0.112,4.808 -0.606,6.397 -0.383,0.845 -0.847,1.394 -1.698,1.819 -0.749,0.375 -1.811,0.487 -2.789,0.697 -8.574,1.837 -17.107,3.692 -25.829,5.608 -0.956,0.21 -2.041,0.6 -2.971,0.333 -1.167,-0.334 -1.554,-1.382 -1.728,-2.819 0,-0.081 0,-0.162 0,-0.243 0.482,-8.28 0.986,-16.569 1.425,-24.95 0.069,-1.324 0.084,-2.899 0.485,-3.911 0.4,-1.012 1.141,-1.751 2.183,-2.183 0.535,-0.222 1.154,-0.312 1.759,-0.455 4.092,-0.972 8.346,-1.966 12.429,-2.911 4.827,-1.114 9.434,-2.199 14.491,-3.059 z m -24.466,6.67 c -2.296,0.597 -3.913,2.524 -4.759,4.578 -0.301,0.732 -0.579,1.542 -0.667,2.425 -0.088,0.895 -0.14,1.861 -0.212,2.91 -0.266,3.862 -0.594,7.722 -0.727,11.702 -0.134,3.992 -0.712,8.892 2.273,9.974 1.449,0.525 3.249,-0.154 4.668,-0.424 1.626,-0.31 3.1,-0.511 4.608,-0.91 0.852,-0.225 1.694,-0.662 2.516,-1 2.497,-1.025 4.947,-2.165 7.034,-3.517 2.866,-1.856 5.335,-4.153 7.669,-6.396 -0.019,0.002 -0.036,0.005 -0.03,0.03 -0.453,0.979 -1.192,1.911 -1.94,2.729 -2.118,2.314 -4.576,4.337 -7.033,6.215 -0.102,0.078 -0.327,0.159 -0.243,0.242 1.414,-0.292 2.81,-0.647 4.184,-0.97 1.402,-0.33 2.807,-0.597 3.971,-1.183 2.231,-1.121 3.894,-3.061 4.244,-6.093 0.092,-0.793 0.092,-1.648 0.092,-2.486 0,-2.519 0.064,-5.103 0.151,-7.609 0.116,-3.381 0.061,-6.811 0.061,-10.216 0,-1.822 -0.219,-3.135 -1.183,-3.971 -0.893,-0.776 -2.547,-1.065 -4.183,-0.697 -1.345,0.302 -2.789,0.616 -4.214,0.939 -1.446,0.329 -2.863,0.64 -4.093,1.091 -5.017,1.844 -9.006,4.916 -12.066,8.549 0.919,-1.589 2.004,-3.022 3.305,-4.274 1.211,-1.167 2.602,-2.188 3.941,-3.184 0.058,-0.042 0.217,-0.06 0.182,-0.182 -2.573,0.614 -5.106,1.092 -7.549,1.728 z"
         id="path18"
         inkscape:connector-curvature="0"
         style="clip-rule:evenodd;fill:#ffffff;fill-rule:evenodd" /><path
         d="m 102.024,83.837 c 0.096,-0.041 0.24,0.08 0.394,0.151 1.818,0.846 4.809,0.756 6.852,0.061 0.914,-0.312 1.734,-0.728 2.456,-1.212 0.657,-0.442 1.514,-1.059 1.849,-1.819 0.197,-0.445 0.219,-1.027 0.062,-1.425 -0.307,-0.77 -1.295,-1.027 -2.395,-1.183 -1.086,-0.153 -2.23,-0.22 -3.214,-0.333 -3.25,-0.375 -5.608,-1.256 -6.426,-4.063 -0.037,-0.035 -0.012,-0.076 0,-0.03 1.086,1.161 3.145,1.054 5.124,0.939 1.958,-0.113 3.714,-0.306 5.639,-0.545 1.742,-0.217 3.582,-0.558 5.548,-0.637 2.702,-0.108 5.306,0.136 6.154,1.94 0.616,1.309 0.079,2.942 -0.515,3.941 -1.862,3.134 -5.062,5.005 -8.367,6.64 -2.158,1.067 -4.642,2.08 -7.792,2.213 -3.349,0.141 -5.343,-1.302 -5.369,-4.638 z"
         id="path20"
         inkscape:connector-curvature="0"
         style="clip-rule:evenodd;fill:#ffffff;fill-rule:evenodd" /></g></g><g
     id="Layer_5"
     transform="translate(-17.663838,-17.187123)"><polygon
       points="674.417,122.772 674.417,54.491 721.917,88.631 "
       id="polygon23"
       style="clip-rule:evenodd;fill:#aaaaaa;fill-rule:evenodd" /></g></svg>