<?xml version="1.0" encoding="UTF-8" standalone="no"?>
<svg xmlns:rdf="http://www.w3.org/1999/02/22-rdf-syntax-ns#" xmlns="http://www.w3.org/2000/svg" version="1.1" xml:space="preserve" viewBox="0 0 724.25318 148.14088" height="148.14" width="724.25" enable-background="new 0 0 758.667 174.667" y="0px" x="0px" xmlns:cc="http://creativecommons.org/ns#" xmlns:dc="http://purl.org/dc/elements/1.1/"><g transform="matrix(1.0386 0 0 1.0121 -24.037 -18.235)"><g transform="translate(177.8 94.741)"><path d="m13.702-5.1314q3.712 0 5.4043-1.2555t1.6923-3.5483q0-1.3647-0.60048-2.3473-0.54589-0.9826-1.6377-1.7468-1.0372-0.81883-2.5657-1.4739-1.5285-0.70966-3.4937-1.3647-1.9652-0.70966-3.8212-1.5285-1.8014-0.87342-3.2207-2.129-1.3647-1.2555-2.2381-3.0024-0.81883-1.7468-0.81883-4.2033 0-5.1314 3.5483-8.0246 3.5483-2.9478 9.6622-2.9478 3.5483 0 6.2777 0.81883 2.784 0.76424 4.3671 1.6923l-2.129 5.5681q-1.856-1.0372-4.0942-1.5831-2.1836-0.54589-4.5309-0.54589-2.784 0-4.3671 1.1464-1.5285 1.1464-1.5285 3.2207 0 1.2555 0.4913 2.1836 0.54589 0.87342 1.4739 1.5831 0.9826 0.70966 2.2381 1.3101 1.3101 0.60048 2.8386 1.1464 2.6749 0.9826 4.7492 2.0198 2.129 0.9826 3.5483 2.4019 1.4739 1.3647 2.2381 3.2753 0.76424 1.856 0.76424 4.5309 0 5.1314-3.6575 7.97-3.6029 2.784-10.59 2.784-2.3473 0-4.3125-0.32753-1.9113-0.27164-3.4398-0.70836-1.4739-0.43671-2.5657-0.87344-1.0918-0.4913-1.7468-0.8734l2.0198-5.6227q1.4739 0.81883 3.985 1.6377 2.5111 0.81883 6.0594 0.81883z"/><path d="m57.267-37.83h6.8782v37.83h-6.8782v-16.759h-16.431v16.759h-6.8782v-37.83h6.8782v15.121h16.431v-15.121z"/><path d="m78.816-18.942q0 3.1116 0.76424 5.6772 0.76424 2.5111 2.1836 4.3125 1.4739 1.7468 3.5483 2.7294t4.6946 0.9826q2.5657 0 4.6401-0.9826t3.4937-2.7294q1.4739-1.8014 2.2381-4.3125 0.76424-2.5657 0.76424-5.6772 0-3.1116-0.76424-5.6227-0.76424-2.5657-2.2381-4.3125-1.4193-1.8014-3.4937-2.784t-4.6401-0.9826q-2.6203 0-4.6946 0.9826-2.0744 0.9826-3.5483 2.784-1.4193 1.8014-2.1836 4.3125-0.76424 2.5111-0.76424 5.6227zm29.533 0q0 4.8584-1.4739 8.5705-1.4193 3.712-3.9304 6.2231-2.4565 2.4565-5.7864 3.712t-7.0966 1.2555q-3.7666 0-7.1511-1.2555-3.3299-1.2555-5.841-3.712-2.4565-2.5111-3.9304-6.2231t-1.4739-8.5705q0-4.8584 1.4739-8.5159 1.4739-3.712 3.985-6.2231 2.5657-2.5111 5.8956-3.7666t7.042-1.2555q3.712 0 7.042 1.2555 3.3299 1.2555 5.7864 3.7666 2.5111 2.5111 3.985 6.2231 1.4739 3.6575 1.4739 8.5159z"/><path d="m126.54-38.212q8.2429 0 12.61 3.0024 4.4217 3.0024 4.4217 9.3893 0 3.3299-1.201 5.7318-1.1464 2.3473-3.3845 3.8758-2.2381 1.4739-5.4589 2.1836-3.2207 0.70966-7.3695 0.70966h-3.4391v13.32h-6.8782v-37.284q2.4019-0.54589 5.2951-0.70966 2.9478-0.21836 5.4043-0.21836zm0.4913 5.9502q-2.6203 0-4.3125 0.16377v12.883h3.3299q4.9676 0 7.6424-1.3647 2.6749-1.4193 2.6749-5.2951 0-1.856-0.70966-3.1116-0.70965-1.2555-1.9652-1.9652-1.2555-0.70966-3.0024-0.9826-1.6923-0.32753-3.6575-0.32753z"/><path d="m168.16-18.942q0 3.1116 0.76425 5.6772 0.76424 2.5111 2.1836 4.3125 1.4739 1.7468 3.5483 2.7294t4.6946 0.9826q2.5657 0 4.64-0.9826 2.0744-0.9826 3.4937-2.7294 1.4739-1.8014 2.2382-4.3125 0.76424-2.5657 0.76424-5.6772 0-3.1116-0.76424-5.6227-0.76425-2.5657-2.2382-4.3125-1.4193-1.8014-3.4937-2.784t-4.64-0.9826q-2.6203 0-4.6946 0.9826-2.0744 0.9826-3.5483 2.784-1.4193 1.8014-2.1836 4.3125-0.76425 2.5111-0.76425 5.6227zm29.533 0q0 4.8584-1.4739 8.5705-1.4193 3.712-3.9304 6.2231-2.4565 2.4565-5.7864 3.712t-7.0966 1.2555q-3.7666 0-7.1512-1.2555-3.3299-1.2555-5.841-3.712-2.4565-2.5111-3.9304-6.2231t-1.4739-8.5705q0-4.8584 1.4739-8.5159 1.4739-3.712 3.985-6.2231 2.5657-2.5111 5.8956-3.7666t7.042-1.2555q3.712 0 7.042 1.2555 3.3299 1.2555 5.7864 3.7666 2.5111 2.5111 3.985 6.2231 1.4739 3.6575 1.4739 8.5159z"/><path d="m219.76 0.81883q-3.8758 0-6.6598-1.0918-2.784-1.1464-4.6401-3.1662-1.8014-2.0198-2.6748-4.7492-0.87343-2.7294-0.87343-6.0048v-23.637h6.9328v22.982q0 2.5657 0.54588 4.4217 0.60048 1.8014 1.6377 2.9478 1.0918 1.1464 2.5111 1.6923 1.4739 0.54589 3.2753 0.54589t3.2753-0.54589 2.5111-1.6923q1.0918-1.1464 1.6377-2.9478 0.60047-1.856 0.60047-4.4217v-22.982h6.9328v23.637q0 3.2753-0.92801 6.0048-0.87342 2.7294-2.7294 4.7492-1.8014 2.0198-4.6401 3.1662-2.8386 1.0918-6.7144 1.0918z"/><path d="m254-38.212q8.1883 0 12.501 3.0024 4.3671 3.0024 4.3671 9.1709 0 7.697-7.5878 10.426 1.0372 1.2555 2.3473 3.057 1.3101 1.8014 2.6748 3.9304 1.3647 2.0744 2.6203 4.3125 1.2556 2.1836 2.2382 4.3125h-7.697q-1.0372-1.9652-2.2381-3.9304-1.201-2.0198-2.4565-3.8758-1.201-1.9106-2.4019-3.5483-1.201-1.6923-2.2381-3.0024-0.76425 0.05459-1.3101 0.05459-0.54589 0-1.0372 0h-3.3299v14.302h-6.8782v-37.284q2.5111-0.54589 5.3497-0.70966 2.8386-0.21836 5.0768-0.21836zm0.4913 5.9502q-2.1836 0-4.0396 0.16377v12.228h3.0024q2.5111 0 4.4217-0.27294t3.1662-0.9826q1.3101-0.70966 1.9652-1.9106 0.65507-1.201 0.65507-3.057 0-1.7468-0.65507-2.9478t-1.9106-1.9106q-1.201-0.70966-2.8932-0.9826-1.6923-0.32753-3.712-0.32753z"/><path d="m300.4-5.1314q3.712 0 5.4043-1.2555t1.6923-3.5483q0-1.3647-0.60048-2.3473-0.54589-0.9826-1.6377-1.7468-1.0372-0.81883-2.5657-1.4739-1.5285-0.70966-3.4937-1.3647-1.9652-0.70966-3.8212-1.5285-1.8014-0.87342-3.2208-2.129-1.3647-1.2555-2.2381-3.0024-0.81883-1.7468-0.81883-4.2033 0-5.1314 3.5483-8.0246 3.5483-2.9478 9.6622-2.9478 3.5483 0 6.2777 0.81883 2.784 0.76424 4.3671 1.6923l-2.129 5.5681q-1.856-1.0372-4.0942-1.5831-2.1836-0.54589-4.5309-0.54589-2.784 0-4.3671 1.1464-1.5285 1.1464-1.5285 3.2207 0 1.2555 0.4913 2.1836 0.54589 0.87342 1.4739 1.5831 0.9826 0.70966 2.2382 1.3101 1.3101 0.60048 2.8386 1.1464 2.6749 0.9826 4.7492 2.0198 2.129 0.9826 3.5483 2.4019 1.4739 1.3647 2.2382 3.2753 0.76424 1.856 0.76424 4.5309 0 5.1314-3.6574 7.97-3.6029 2.784-10.59 2.784-2.3473 0-4.3125-0.32753-1.9106-0.27294-3.4391-0.70966-1.4739-0.43671-2.5657-0.87342-1.0918-0.4913-1.7468-0.87342l2.0198-5.6227q1.4739 0.81883 3.985 1.6377 2.5111 0.81883 6.0594 0.81883z"/><path d="m347.02-37.83v5.9502h-11.627v31.88h-6.9328v-31.88h-11.627v-5.9502h30.188z"/><path d="m356.56-18.942q0 3.1116 0.76425 5.6772 0.76424 2.5111 2.1836 4.3125 1.4739 1.7468 3.5483 2.7294t4.6946 0.9826q2.5657 0 4.6401-0.9826t3.4937-2.7294q1.4739-1.8014 2.2381-4.3125 0.76424-2.5657 0.76424-5.6772 0-3.1116-0.76424-5.6227-0.76424-2.5657-2.2381-4.3125-1.4193-1.8014-3.4937-2.784t-4.6401-0.9826q-2.6203 0-4.6946 0.9826-2.0744 0.9826-3.5483 2.784-1.4193 1.8014-2.1836 4.3125-0.76425 2.5111-0.76425 5.6227zm29.533 0q0 4.8584-1.4739 8.5705-1.4193 3.712-3.9304 6.2231-2.4565 2.4565-5.7864 3.712t-7.0966 1.2555q-3.7666 0-7.1512-1.2555-3.3299-1.2555-5.841-3.712-2.4565-2.5111-3.9304-6.2231t-1.4739-8.5705q0-4.8584 1.4739-8.5159 1.4739-3.712 3.985-6.2231 2.5657-2.5111 5.8956-3.7666t7.042-1.2555q3.712 0 7.042 1.2555 3.3299 1.2555 5.7864 3.7666 2.5111 2.5111 3.985 6.2231 1.4739 3.6575 1.4739 8.5159z"/><path d="m404.01-38.212q8.1883 0 12.501 3.0024 4.3671 3.0024 4.3671 9.1709 0 7.697-7.5879 10.426 1.0372 1.2555 2.3473 3.057 1.3101 1.8014 2.6748 3.9304 1.3647 2.0744 2.6203 4.3125 1.2555 2.1836 2.2381 4.3125h-7.697q-1.0372-1.9652-2.2382-3.9304-1.201-2.0198-2.4565-3.8758-1.201-1.9106-2.4019-3.5483-1.201-1.6923-2.2381-3.0024-0.76425 0.05459-1.3101 0.05459-0.54589 0-1.0372 0h-3.3299v14.302h-6.8782v-37.284q2.5111-0.54589 5.3497-0.70966 2.8386-0.21836 5.0768-0.21836zm0.4913 5.9502q-2.1836 0-4.0396 0.16377v12.228h3.0024q2.5111 0 4.4217-0.27294t3.1662-0.9826q1.3101-0.70966 1.9652-1.9106 0.65507-1.201 0.65507-3.057 0-1.7468-0.65507-2.9478t-1.9106-1.9106q-1.201-0.70966-2.8932-0.9826-1.6923-0.32753-3.712-0.32753z"/><path d="m428.55 0v-37.83h24.292v5.841h-17.414v9.3347h15.503v5.7318h-15.503v11.082h18.724v5.841h-25.602z"/></g></g><g transform="matrix(1.0018 0 0 1 -16.871 -17.187)"><g transform="translate(178.44 122.03)"><path d="m3.2994-0.92169q2.0304 0 2.0304-1.3892 0-0.42745-0.18701-0.72132-0.1737-0.3072-0.4809-0.521-0.3073-0.2271-0.708-0.3874-0.3874-0.1602-0.8282-0.3205-0.5076-0.1737-0.9617-0.3874-0.4542-0.2271-0.7881-0.521-0.334-0.3072-0.53436-0.7213-0.18701-0.4141-0.18701-1.0018 0-1.2156 0.82818-1.8968 0.82818-0.68125 2.2842-0.68125 0.84154 0 1.5228 0.18701 0.69461 0.17365 1.0152 0.38738l-0.4141 1.0552q-0.2805-0.1737-0.8416-0.334-0.5476-0.1736-1.2823-0.1736-0.37402 0-0.69461 0.080147t-0.56103 0.24044-0.38738 0.41409q-0.13358 0.24044-0.13358 0.57439 0 0.37402 0.14694 0.62782t0.41409 0.45417q0.26716 0.18701 0.61446 0.3473 0.36066 0.16029 0.78811 0.32059 0.6011 0.24044 1.0953 0.48088 0.5076 0.24044 0.86826 0.57439 0.37402 0.33394 0.57439 0.80147 0.20037 0.45417 0.20037 1.1087 0 1.2156-0.89497 1.8701-0.88161 0.65453-2.4979 0.65453-0.54767 0-1.0152-0.080147-0.4542-0.066969-0.8148-0.16047-0.3607-0.10687-0.62786-0.21373-0.2538-0.12022-0.40073-0.20037l0.38737-1.0686q0.30723 0.17365 0.93505 0.38738 0.62782 0.21372 1.5361 0.21372z"/><path d="m15.069-9.257h1.2957v9.257h-1.2957v-4.2745h-4.5283v4.2745h-1.2957v-9.257h1.2957v3.8604h4.5283v-3.8604z"/><path d="m19.289-4.6352q0-1.1888 0.3473-2.0972 0.36066-0.90833 0.96176-1.5094 0.61446-0.61446 1.4159-0.92169 0.81483-0.30723 1.7232-0.30723 0.89497 0 1.6831 0.30723 0.80147 0.30723 1.4026 0.92169 0.6011 0.6011 0.9484 1.5094 0.36066 0.90833 0.36066 2.0972 0 1.1888-0.36066 2.0972-0.3473 0.90833-0.9484 1.5228-0.6011 0.6011-1.4026 0.90833-0.78811 0.30723-1.6831 0.30723-0.90833 0-1.7232-0.30723-0.80147-0.30723-1.4159-0.90833-0.6011-0.61446-0.96176-1.5228-0.3473-0.90833-0.3473-2.0972zm1.3625 0q0 0.84154 0.21372 1.5361 0.21372 0.68125 0.6011 1.1621 0.40073 0.48088 0.96176 0.74804 0.57438 0.2538 1.2823 0.2538 0.70796 0 1.269-0.2538 0.56103-0.26716 0.9484-0.74804 0.40073-0.48088 0.61446-1.1621 0.21372-0.69461 0.21372-1.5361 0-0.84154-0.21372-1.5228-0.21372-0.69461-0.61446-1.1755-0.38738-0.48088-0.9484-0.73468-0.56103-0.26716-1.269-0.26716-0.70796 0-1.2823 0.26716-0.56103 0.2538-0.96176 0.73468-0.38738 0.48088-0.6011 1.1755-0.21372 0.68125-0.21372 1.5228z"/><path d="m33.505-9.3505q1.9502 0 2.9921 0.74804 1.0553 0.73468 1.0553 2.204 0 0.80147-0.29387 1.3759-0.28051 0.56103-0.82818 0.92169-0.53431 0.3473-1.3091 0.5076-0.77475 0.16029-1.7499 0.16029h-1.0286v3.433h-1.2957v-9.1234q0.54767-0.13358 1.2156-0.17365 0.68125-0.053431 1.2423-0.053431zm0.10686 1.1354q-0.82818 0-1.269 0.040073v3.6333h0.97512q0.66789 0 1.2022-0.080147 0.53431-0.093505 0.89497-0.29387 0.37402-0.21372 0.57438-0.57439 0.20037-0.36066 0.20037-0.92169 0-0.53431-0.21372-0.88161-0.20037-0.3473-0.56103-0.54767-0.3473-0.21372-0.81483-0.29387-0.46752-0.080147-0.98848-0.080147z"/><path d="m49.329-6.8926q0 0.48088-0.20037 0.93505-0.18701 0.44081-0.5076 0.88161-0.32059 0.42745-0.72132 0.8549-0.40073 0.41409-0.80147 0.81483-0.22708 0.22708-0.53431 0.53431-0.29387 0.30723-0.56103 0.64117t-0.45416 0.64117q-0.17365 0.30723-0.17365 0.53431h4.2611v1.0553h-5.6103q-0.01336-0.080147-0.01336-0.16029 0-0.080147 0-0.14694 0-0.62782 0.20037-1.1621 0.21372-0.54767 0.54767-1.0286 0.33394-0.48088 0.74804-0.90833 0.41409-0.42745 0.81483-0.82818 0.33394-0.32059 0.62782-0.62782 0.30723-0.32059 0.53431-0.62782 0.24044-0.32059 0.37402-0.65453 0.14694-0.33394 0.14694-0.70796 0-0.40073-0.13358-0.68125-0.12022-0.28051-0.33394-0.46752t-0.5076-0.26716q-0.28051-0.093505-0.6011-0.093505-0.38738 0-0.70796 0.10686-0.32059 0.10686-0.57439 0.2538-0.2538 0.13358-0.42745 0.29387-0.17365 0.14694-0.26716 0.22708l-0.61446-0.88161q0.12022-0.13358 0.36066-0.32059 0.24044-0.20037 0.57439-0.37402 0.33394-0.17365 0.74804-0.29387 0.41409-0.12022 0.89497-0.12022 1.456 0 2.1773 0.68125 0.73468 0.66789 0.73468 1.8968z"/><path d="m52.165-3.2059q0.2538-0.58774 0.69461-1.3625 0.44081-0.78811 0.98848-1.6163 0.56103-0.82818 1.1888-1.6297 0.64117-0.80147 1.2823-1.4426h1.1888v5.8774h1.0953v1.0152h-1.0953v2.3643h-1.2022v-2.3643h-4.1409v-0.84154zm4.1409-4.5817q-0.40073 0.42745-0.81483 0.96176-0.40073 0.52095-0.78811 1.0953-0.38738 0.57439-0.73468 1.1755-0.33394 0.6011-0.6011 1.1755h2.9387v-4.4081z"/><path d="m61.119 2.4712h-1.269l4.5283-12.93h1.2423l-4.5016 12.93z"/><path d="m68.487 0q0.08015-1.0686 0.37402-2.2441 0.30723-1.1888 0.74804-2.2975 0.44081-1.1221 0.96176-2.0705 0.53431-0.96176 1.0419-1.5629h-4.5016v-1.082h5.8908v1.0286q-0.44081 0.5076-0.97512 1.4026-0.53431 0.88161-1.0152 1.9903-0.46752 1.0953-0.81482 2.351-0.334 1.2422-0.414 2.4845h-1.296z"/><path d="m86.262-9.257v1.1221h-2.912v8.1349h-1.2957v-8.1349h-2.912v-1.1221h7.1197z"/><path d="m94.441-9.257h1.2957v9.257h-1.2957v-4.2745h-4.5283v4.2745h-1.2957v-9.257h1.2957v3.8604h4.5283v-3.8604z"/><path d="m98.661-4.6352q0-1.1888 0.3473-2.0972 0.36066-0.90833 0.96176-1.5094 0.61446-0.61446 1.4159-0.92169 0.81482-0.30723 1.7232-0.30723 0.89498 0 1.6831 0.30723 0.80146 0.30723 1.4026 0.92169 0.6011 0.6011 0.9484 1.5094 0.36066 0.90833 0.36066 2.0972 0 1.1888-0.36066 2.0972-0.3473 0.90833-0.9484 1.5228-0.60111 0.6011-1.4026 0.90833-0.78811 0.30723-1.6831 0.30723-0.90833 0-1.7232-0.30723-0.80147-0.30723-1.4159-0.90833-0.6011-0.61446-0.96176-1.5228-0.3473-0.90833-0.3473-2.0972zm1.3625 0q0 0.84154 0.21373 1.5361 0.21372 0.68125 0.6011 1.1621 0.40073 0.48088 0.96176 0.74804 0.57439 0.2538 1.2824 0.2538 0.70796 0 1.269-0.2538 0.56103-0.26716 0.9484-0.74804 0.40074-0.48088 0.61446-1.1621 0.21373-0.69461 0.21373-1.5361 0-0.84154-0.21373-1.5228-0.21372-0.69461-0.61446-1.1755-0.38737-0.48088-0.9484-0.73468-0.56103-0.26716-1.269-0.26716-0.70796 0-1.2824 0.26716-0.56103 0.2538-0.96176 0.73468-0.38738 0.48088-0.6011 1.1755-0.21373 0.68125-0.21373 1.5228z"/><path d="m113.87 0.20037q-0.90833 0-1.5762-0.28051-0.66789-0.28051-1.0953-0.76139-0.42745-0.49424-0.64117-1.1621-0.20037-0.66789-0.20037-1.4426v-5.8106h1.2957v5.6637q0 1.3892 0.61446 2.017 0.61446 0.62782 1.6029 0.62782 0.49424 0 0.89498-0.14694 0.41409-0.16029 0.70796-0.48088t0.45416-0.81483q0.1603-0.5076 0.1603-1.2022v-5.6637h1.2957v5.8106q0 0.77475-0.21372 1.4426-0.20037 0.66789-0.64117 1.1621-0.42745 0.48088-1.0953 0.76139-0.65454 0.28051-1.5629 0.28051z"/><path d="m122.75-0.92169q2.0304 0 2.0304-1.3892 0-0.42745-0.18701-0.72132-0.17365-0.30723-0.48088-0.52095-0.30723-0.22708-0.70796-0.38738-0.38738-0.16029-0.82819-0.32059-0.50759-0.17365-0.96176-0.38738-0.45416-0.22708-0.78811-0.52095-0.33394-0.30723-0.53431-0.72132-0.18701-0.41409-0.18701-1.0018 0-1.2156 0.82818-1.8968 0.82819-0.68125 2.2842-0.68125 0.84154 0 1.5228 0.18701 0.6946 0.17365 1.0152 0.38738l-0.41409 1.0553q-0.28052-0.17365-0.84154-0.33394-0.54767-0.17365-1.2824-0.17365-0.37402 0-0.69461 0.080147t-0.56103 0.24044-0.38737 0.41409q-0.13358 0.24044-0.13358 0.57439 0 0.37402 0.14694 0.62782 0.14693 0.2538 0.41409 0.45417 0.26715 0.18701 0.61446 0.3473 0.36066 0.16029 0.78811 0.32059 0.6011 0.24044 1.0953 0.48088 0.50759 0.24044 0.86825 0.57439 0.37402 0.33394 0.57439 0.80147 0.20037 0.45417 0.20037 1.1087 0 1.2156-0.89498 1.8701-0.88161 0.65453-2.4979 0.65453-0.54767 0-1.0152-0.080147-0.45416-0.066789-0.81482-0.16029-0.36067-0.10686-0.62782-0.21372-0.2538-0.12022-0.40074-0.20037l0.38738-1.0686q0.30723 0.17365 0.93505 0.38738 0.62781 0.21372 1.5361 0.21372z"/><path d="m134.88 0q-0.22708-0.6011-0.42745-1.1755-0.20037-0.58774-0.41409-1.1888h-4.1944l-0.84 2.3643h-1.35q0.53431-1.4694 1.0018-2.7116 0.46753-1.2556 0.90833-2.3777 0.45417-1.1221 0.89498-2.1372 0.4408-1.0286 0.92168-2.0304h1.1888q0.48088 1.0018 0.92169 2.0304 0.4408 1.0152 0.88161 2.1372 0.45417 1.1221 0.92169 2.3777 0.46 1.2422 1 2.7116h-1.4159zm-1.2156-3.433q-0.42745-1.1621-0.8549-2.2441-0.41409-1.0953-0.86826-2.0972-0.46752 1.0018-0.89497 2.0972-0.41409 1.082-0.82818 2.2441h3.4463z"/><path d="m144.89 0q-0.29387-0.49424-0.68125-1.1087-0.37401-0.61446-0.81482-1.269-0.44081-0.66789-0.92169-1.3491-0.46752-0.68125-0.93505-1.3091-0.46752-0.64117-0.90833-1.2022-0.4408-0.56103-0.81482-0.98848v7.2266h-1.269v-9.257h1.0286q0.62781 0.66789 1.3358 1.5629 0.72132 0.88161 1.4159 1.83 0.70797 0.93505 1.3224 1.8434 0.62781 0.90833 1.0553 1.6163v-6.8526h1.269v9.257h-1.082z"/><path d="m156.87-4.6352q0 1.2022-0.37402 2.0972-0.37402 0.88161-1.0553 1.4694-0.68124 0.57439-1.6296 0.86826-0.9484 0.28051-2.0838 0.28051-0.56103 0-1.2423-0.053431-0.66789-0.040073-1.2156-0.17365v-8.9764q0.54767-0.13358 1.2156-0.17365 0.68125-0.053431 1.2423-0.053431 1.1354 0 2.0838 0.29387 0.94841 0.28051 1.6296 0.86826 0.68125 0.57439 1.0553 1.4694 0.37402 0.88161 0.37402 2.0838zm-5.0359 3.5799q1.8434 0 2.7517-0.93505 0.90834-0.9484 0.90834-2.6448t-0.90834-2.6315q-0.90833-0.9484-2.7517-0.9484-0.54767 0-0.8549 0.013358-0.29387 0.013358-0.41409 0.026716v7.0796q0.12022 0.013358 0.41409 0.026716 0.30723 0.013358 0.8549 0.013358z"/><path d="m161.79-0.92169q2.0304 0 2.0304-1.3892 0-0.42745-0.18701-0.72132-0.17365-0.30723-0.48088-0.52095-0.30723-0.22708-0.70796-0.38738-0.38738-0.16029-0.82819-0.32059-0.50759-0.17365-0.96176-0.38738-0.45416-0.22708-0.78811-0.52095-0.33394-0.30723-0.53431-0.72132-0.18701-0.41409-0.18701-1.0018 0-1.2156 0.82818-1.8968 0.82819-0.68125 2.2842-0.68125 0.84154 0 1.5228 0.18701 0.6946 0.17365 1.0152 0.38738l-0.41409 1.0553q-0.28051-0.17365-0.84154-0.33394-0.54767-0.17365-1.2824-0.17365-0.37402 0-0.69461 0.080147-0.32058 0.080147-0.56102 0.24044t-0.38738 0.41409q-0.13358 0.24044-0.13358 0.57439 0 0.37402 0.14694 0.62782 0.14693 0.2538 0.41409 0.45417 0.26715 0.18701 0.61446 0.3473 0.36066 0.16029 0.78811 0.32059 0.6011 0.24044 1.0953 0.48088 0.50759 0.24044 0.86825 0.57439 0.37402 0.33394 0.57439 0.80147 0.20037 0.45417 0.20037 1.1087 0 1.2156-0.89498 1.8701-0.88161 0.65453-2.4979 0.65453-0.54767 0-1.0152-0.080147-0.45416-0.066789-0.81482-0.16029-0.36066-0.10686-0.62782-0.21372-0.2538-0.12022-0.40073-0.20037l0.38737-1.0686q0.30723 0.17365 0.93505 0.38738 0.62782 0.21372 1.5362 0.21372z"/><path d="m171.44-4.6352q0-1.1888 0.34731-2.0972 0.36066-0.90833 0.96176-1.5094 0.61446-0.61446 1.4159-0.92169 0.81483-0.30723 1.7232-0.30723 0.89497 0 1.6831 0.30723 0.80147 0.30723 1.4026 0.92169 0.6011 0.6011 0.94841 1.5094 0.36066 0.90833 0.36066 2.0972 0 1.1888-0.36066 2.0972-0.34731 0.90833-0.94841 1.5228-0.6011 0.6011-1.4026 0.90833-0.78811 0.30723-1.6831 0.30723-0.90833 0-1.7232-0.30723-0.80146-0.30723-1.4159-0.90833-0.6011-0.61446-0.96176-1.5228-0.34731-0.90833-0.34731-2.0972zm1.3625 0q0 0.84154 0.21372 1.5361 0.21373 0.68125 0.6011 1.1621 0.40074 0.48088 0.96177 0.74804 0.57438 0.2538 1.2823 0.2538 0.70797 0 1.269-0.2538 0.56102-0.26716 0.9484-0.74804 0.40073-0.48088 0.61446-1.1621 0.21372-0.69461 0.21372-1.5361 0-0.84154-0.21372-1.5228-0.21373-0.69461-0.61446-1.1755-0.38738-0.48088-0.9484-0.73468-0.56103-0.26716-1.269-0.26716-0.70796 0-1.2823 0.26716-0.56103 0.2538-0.96177 0.73468-0.38737 0.48088-0.6011 1.1755-0.21372 0.68125-0.21372 1.5228z"/><path d="m183.2 0v-9.257h5.5836v1.1087h-4.2879v2.7918h3.807v1.0953h-3.807v4.2611h-1.2957z"/><path d="m197.6-0.92169q2.0304 0 2.0304-1.3892 0-0.42745-0.18701-0.72132-0.17365-0.30723-0.48088-0.52095-0.30723-0.22708-0.70797-0.38738-0.38737-0.16029-0.82818-0.32059-0.5076-0.17365-0.96176-0.38738-0.45417-0.22708-0.78811-0.52095-0.33395-0.30723-0.53431-0.72132-0.18701-0.41409-0.18701-1.0018 0-1.2156 0.82818-1.8968 0.82818-0.68125 2.2842-0.68125 0.84155 0 1.5228 0.18701 0.69461 0.17365 1.0152 0.38738l-0.4141 1.0553q-0.28051-0.17365-0.84154-0.33394-0.54767-0.17365-1.2824-0.17365-0.37401 0-0.6946 0.080147t-0.56103 0.24044-0.38738 0.41409q-0.13357 0.24044-0.13357 0.57439 0 0.37402 0.14693 0.62782 0.14694 0.2538 0.41409 0.45417 0.26716 0.18701 0.61446 0.3473 0.36066 0.16029 0.78811 0.32059 0.6011 0.24044 1.0953 0.48088 0.5076 0.24044 0.86826 0.57439 0.37402 0.33394 0.57439 0.80147 0.20036 0.45417 0.20036 1.1087 0 1.2156-0.89497 1.8701-0.88162 0.65453-2.4979 0.65453-0.54767 0-1.0152-0.080147-0.45417-0.066789-0.81483-0.16029-0.36066-0.10686-0.62781-0.21372-0.2538-0.12022-0.40074-0.20037l0.38738-1.0686q0.30723 0.17365 0.93504 0.38738 0.62782 0.21372 1.5362 0.21372z"/><path d="m206.99 0.20037q-0.90833 0-1.5762-0.28051-0.66789-0.28051-1.0953-0.76139-0.42745-0.49424-0.64118-1.1621-0.20036-0.66789-0.20036-1.4426v-5.8106h1.2957v5.6637q0 1.3892 0.61446 2.017 0.61446 0.62782 1.6029 0.62782 0.49424 0 0.89497-0.14694 0.41409-0.16029 0.70796-0.48088t0.45417-0.81483q0.16029-0.5076 0.16029-1.2022v-5.6637h1.2957v5.8106q0 0.77475-0.21373 1.4426-0.20036 0.66789-0.64117 1.1621-0.42745 0.48088-1.0953 0.76139-0.65453 0.28051-1.5629 0.28051z"/><path d="m218.26-3.8738q0.21372 0.26716 0.53431 0.70796 0.33394 0.42745 0.68124 0.96176 0.34731 0.52095 0.68125 1.0953 0.34 0.57449 0.58 1.1088h-1.4159q-0.26716-0.5076-0.58774-1.0286-0.30723-0.52095-0.62782-0.98848-0.32059-0.48088-0.64117-0.89497-0.30723-0.41409-0.56103-0.72132-0.17365 0.013358-0.36066 0.013358-0.17365 0-0.36066 0h-1.1621v3.62h-1.2957v-9.1234q0.54767-0.13358 1.2156-0.17365 0.68125-0.053431 1.2423-0.053431 1.9502 0 2.9654 0.73468 1.0286 0.73468 1.0286 2.1907 0 0.92169-0.49424 1.5762-0.48088 0.65453-1.4293 0.97512zm-1.9636-4.3413q-0.82818 0-1.269 0.040073v3.4864h0.92169q0.66789 0 1.2022-0.066789t0.89497-0.2538q0.37402-0.18701 0.57439-0.52095 0.20036-0.3473 0.20036-0.90833 0-0.52095-0.20036-0.86826-0.20037-0.3473-0.54767-0.54767-0.33395-0.20037-0.80147-0.28051-0.45417-0.080147-0.97512-0.080147z"/><path d="m223.13 0v-9.257h5.5836v1.1087h-4.2878v2.7918h3.807v1.0953h-3.807v4.2611h-1.2957z"/><path d="m233.81 0.080147q-0.28052 0-0.61446-0.013358-0.33-0.013358-0.66-0.040073-0.32-0.026716-0.64-0.066789-0.33-0.040074-0.59-0.10687v-8.9764q0.26716-0.066789 0.58774-0.10686 0.32059-0.040073 0.64118-0.066789 0.33394-0.026716 0.65453-0.040073 0.32059-0.013358 0.6011-0.013358 0.80147 0 1.4961 0.12022 0.70797 0.12022 1.2156 0.41409 0.52096 0.28051 0.81483 0.74804 0.29387 0.46752 0.29387 1.1488 0 0.76139-0.36066 1.2556-0.36066 0.48088-0.96176 0.72132 0.81483 0.24044 1.2957 0.76139 0.48088 0.52095 0.48088 1.4694 0 1.3892-1.0286 2.0972-1.0152 0.69461-3.2326 0.69461zm-1.2156-4.3947v3.2593q0.14693 0.013358 0.3473 0.026716 0.17365 0.013358 0.40074 0.026716 0.24044 0 0.54767 0 0.57438 0 1.082-0.066789 0.52095-0.080147 0.90833-0.26716 0.38737-0.18701 0.61446-0.52095 0.24044-0.33394 0.24044-0.84154 0-0.45417-0.17365-0.76139-0.17366-0.32059-0.5076-0.5076-0.32059-0.18701-0.77475-0.26716-0.45417-0.080147-1.0152-0.080147h-1.6697zm0-1.0419h1.3625q0.48089 0 0.90833-0.066789 0.42745-0.066789 0.73468-0.24044 0.32059-0.17365 0.49424-0.45417 0.18701-0.28051 0.18701-0.70796 0-0.40073-0.18701-0.66789-0.18701-0.28051-0.52095-0.44081-0.32059-0.17365-0.7614-0.2538-0.4408-0.080147-0.93504-0.080147t-0.77475 0.013358q-0.28052 0.013358-0.5076 0.040073v2.8586z"/><path d="m240.52-4.6352q0-1.1888 0.3473-2.0972 0.36066-0.90833 0.96177-1.5094 0.61445-0.61446 1.4159-0.92169 0.81483-0.30723 1.7232-0.30723 0.89497 0 1.6831 0.30723 0.80147 0.30723 1.4026 0.92169 0.6011 0.6011 0.9484 1.5094 0.36066 0.90833 0.36066 2.0972 0 1.1888-0.36066 2.0972-0.3473 0.90833-0.9484 1.5228-0.6011 0.6011-1.4026 0.90833-0.78811 0.30723-1.6831 0.30723-0.90833 0-1.7232-0.30723-0.80147-0.30723-1.4159-0.90833-0.60111-0.61446-0.96177-1.5228-0.3473-0.90833-0.3473-2.0972zm1.3625 0q0 0.84154 0.21372 1.5361 0.21373 0.68125 0.6011 1.1621 0.40074 0.48088 0.96176 0.74804 0.57439 0.2538 1.2824 0.2538 0.70797 0 1.269-0.2538 0.56103-0.26716 0.94841-0.74804 0.40073-0.48088 0.61446-1.1621 0.21372-0.69461 0.21372-1.5361 0-0.84154-0.21372-1.5228-0.21373-0.69461-0.61446-1.1755-0.38738-0.48088-0.94841-0.73468-0.56102-0.26716-1.269-0.26716-0.70796 0-1.2824 0.26716-0.56102 0.2538-0.96176 0.73468-0.38737 0.48088-0.6011 1.1755-0.21372 0.68125-0.21372 1.5228z"/><path d="m258.2 0q-0.22708-0.6011-0.42745-1.1755-0.20036-0.58774-0.41409-1.1888h-4.1944l-0.85 2.3643h-1.35q0.53431-1.4694 1.0018-2.7116 0.46752-1.2556 0.90833-2.3777 0.45416-1.1221 0.89497-2.1372 0.44081-1.0286 0.92169-2.0304h1.1888q0.48088 1.0018 0.92169 2.0304 0.44081 1.0152 0.88162 2.1372 0.45416 1.1221 0.92168 2.3777 0.46 1.2422 0.99 2.7116h-1.4159zm-1.2156-3.433q-0.42745-1.1621-0.8549-2.2441-0.41409-1.0953-0.86825-2.0972-0.46753 1.0018-0.89498 2.0972-0.41409 1.082-0.82818 2.2441h3.4463z"/><path d="m266.39-3.8738q0.21372 0.26716 0.53431 0.70796 0.33395 0.42745 0.68125 0.96176 0.3473 0.52095 0.68125 1.0953 0.3473 0.57439 0.58774 1.1087h-1.4159q-0.26715-0.5076-0.58774-1.0286-0.30723-0.52095-0.62782-0.98848-0.32058-0.48088-0.64117-0.89497-0.30723-0.41409-0.56103-0.72132-0.17365 0.013358-0.36066 0.013358-0.17365 0-0.36066 0h-1.1621v3.62h-1.2957v-9.1234q0.54767-0.13358 1.2156-0.17365 0.68124-0.053431 1.2423-0.053431 1.9502 0 2.9654 0.73468 1.0286 0.73468 1.0286 2.1907 0 0.92169-0.49424 1.5762-0.48088 0.65453-1.4293 0.97512zm-1.9636-4.3413q-0.82818 0-1.269 0.040073v3.4864h0.92169q0.66789 0 1.2022-0.066789t0.89497-0.2538q0.37402-0.18701 0.57439-0.52095 0.20037-0.3473 0.20037-0.90833 0-0.52095-0.20037-0.86826-0.20037-0.3473-0.54767-0.54767-0.33394-0.20037-0.80147-0.28051-0.45416-0.080147-0.97512-0.080147z"/><path d="m278.86-4.6352q0 1.2022-0.37402 2.0972-0.37402 0.88161-1.0553 1.4694-0.68125 0.57439-1.6296 0.86826-0.94841 0.28051-2.0838 0.28051-0.56103 0-1.2423-0.053431-0.66789-0.040073-1.2156-0.17365v-8.9764q0.54767-0.13358 1.2156-0.17365 0.68125-0.053431 1.2423-0.053431 1.1354 0 2.0838 0.29387 0.9484 0.28051 1.6296 0.86826 0.68124 0.57439 1.0553 1.4694 0.37402 0.88161 0.37402 2.0838zm-5.0359 3.5799q1.8434 0 2.7517-0.93505 0.90833-0.9484 0.90833-2.6448t-0.90833-2.6315q-0.90833-0.9484-2.7517-0.9484-0.54767 0-0.8549 0.013358-0.29387 0.013358-0.41409 0.026716v7.0796q0.12022 0.013358 0.41409 0.026716 0.30723 0.013358 0.8549 0.013358z"/><path d="m283.78-0.92169q2.0304 0 2.0304-1.3892 0-0.42745-0.18701-0.72132-0.17365-0.30723-0.48088-0.52095-0.30723-0.22708-0.70796-0.38738-0.38738-0.16029-0.82818-0.32059-0.5076-0.17365-0.96176-0.38738-0.45417-0.22708-0.78811-0.52095-0.33395-0.30723-0.53432-0.72132-0.18701-0.41409-0.18701-1.0018 0-1.2156 0.82819-1.8968 0.82818-0.68125 2.2842-0.68125 0.84154 0 1.5228 0.18701 0.69461 0.17365 1.0152 0.38738l-0.41409 1.0553q-0.28051-0.17365-0.84154-0.33394-0.54767-0.17365-1.2824-0.17365-0.37402 0-0.6946 0.080147-0.32059 0.080147-0.56103 0.24044t-0.38738 0.41409q-0.13358 0.24044-0.13358 0.57439 0 0.37402 0.14694 0.62782t0.41409 0.45417q0.26716 0.18701 0.61446 0.3473 0.36066 0.16029 0.78811 0.32059 0.6011 0.24044 1.0953 0.48088 0.5076 0.24044 0.86826 0.57439 0.37402 0.33394 0.57438 0.80147 0.20037 0.45417 0.20037 1.1087 0 1.2156-0.89497 1.8701-0.88162 0.65453-2.4979 0.65453-0.54767 0-1.0152-0.080147-0.45417-0.066789-0.81483-0.16029-0.36066-0.10686-0.62782-0.21372-0.25379-0.12022-0.40073-0.20037l0.38738-1.0686q0.30723 0.17365 0.93504 0.38738 0.62782 0.21372 1.5362 0.21372z"/><path d="m290.95-1.5228q0.0134 0.10686 0.0134 0.21372 0 0.093505 0 0.20037 0 0.84154-0.2538 1.6564-0.24044 0.82818-0.66789 1.5762l-0.96176-0.30723q0.33395-0.68125 0.44081-1.3892 0.10686-0.69461 0.10686-1.3091 0-0.17365-0.0134-0.33395 0-0.16029-0.0134-0.30723h1.3491z"/><path d="m303.74-4.555h1.2957v4.3279q-0.1603 0.053431-0.46753 0.12022-0.29387 0.066789-0.6946 0.13358-0.38738 0.066789-0.8549 0.10686-0.46752 0.053431-0.9484 0.053431-0.97512 0-1.7766-0.32059-0.80147-0.32059-1.3759-0.93505-0.57438-0.61446-0.89497-1.5094-0.30723-0.89497-0.30723-2.0571t0.34731-2.0571q0.36066-0.90833 0.96176-1.5228 0.6011-0.61446 1.4026-0.93505 0.81482-0.32059 1.7365-0.32059 0.62782 0 1.1087 0.080147 0.49424 0.080147 0.84154 0.18701t0.56103 0.21372q0.22708 0.10686 0.30723 0.16029l-0.4141 1.082q-0.38737-0.2538-1.0286-0.41409-0.64117-0.17365-1.3091-0.17365-0.70796 0-1.2957 0.2538-0.57438 0.2538-0.98847 0.73468-0.40074 0.48088-0.62782 1.1755-0.22708 0.68125-0.22708 1.5361 0 0.82818 0.18701 1.5094 0.20036 0.68125 0.58774 1.1755 0.40073 0.48088 0.97512 0.74804 0.58774 0.26716 1.3758 0.26716 0.56103 0 0.9484-0.053431 0.40074-0.066789 0.57439-0.12022v-3.4463z"/><path d="m308.06 0v-9.257h5.6504v1.1087h-4.3546v2.7517h3.8738v1.082h-3.8738v3.2059h4.6886v1.1087h-5.9843z"/><path d="m323.1 0q-0.22708-0.6011-0.42745-1.1755-0.20037-0.58774-0.41409-1.1888h-4.1944l-0.85 2.3643h-1.35q0.53431-1.4694 1.0018-2.7116 0.46752-1.2556 0.90833-2.3777 0.45416-1.1221 0.89497-2.1372 0.44081-1.0286 0.92169-2.0304h1.1888q0.48088 1.0018 0.92169 2.0304 0.44081 1.0152 0.88161 2.1372 0.45417 1.1221 0.92169 2.3777 0.46 1.2422 1 2.7116h-1.4159zm-1.2156-3.433q-0.42745-1.1621-0.8549-2.2441-0.41409-1.0953-0.86826-2.0972-0.46752 1.0018-0.89497 2.0972-0.41409 1.082-0.82818 2.2441h3.4463z"/><path d="m331.29-3.8738q0.21373 0.26716 0.53431 0.70796 0.33395 0.42745 0.68125 0.96176 0.3473 0.52095 0.68125 1.0953 0.3473 0.57439 0.58774 1.1087h-1.4159q-0.26716-0.5076-0.58775-1.0286-0.30723-0.52095-0.62781-0.98848-0.32059-0.48088-0.64118-0.89497-0.30723-0.41409-0.56103-0.72132-0.17365 0.013358-0.36066 0.013358-0.17365 0-0.36066 0h-1.1621v3.62h-1.2957v-9.1234q0.54767-0.13358 1.2156-0.17365 0.68125-0.053431 1.2423-0.053431 1.9502 0 2.9654 0.73468 1.0286 0.73468 1.0286 2.1907 0 0.92169-0.49424 1.5762-0.48088 0.65453-1.4293 0.97512zm-1.9636-4.3413q-0.82819 0-1.269 0.040073v3.4864h0.92169q0.66789 0 1.2022-0.066789 0.53432-0.066789 0.89498-0.2538 0.37402-0.18701 0.57438-0.52095 0.20037-0.3473 0.20037-0.90833 0-0.52095-0.20037-0.86826-0.20036-0.3473-0.54767-0.54767-0.33394-0.20037-0.80146-0.28051-0.45417-0.080147-0.97512-0.080147z"/><path d="m337.57-1.5228q0.0134 0.10686 0.0134 0.21372 0 0.093505 0 0.20037 0 0.84154-0.2538 1.6564-0.24044 0.82818-0.66789 1.5762l-0.96176-0.30723q0.33394-0.68125 0.44081-1.3892 0.10686-0.69461 0.10686-1.3091 0-0.17365-0.0134-0.33395 0-0.16029-0.0134-0.30723h1.3491z"/><path d="m350.89 0q-0.22708-0.6011-0.42745-1.1755-0.20037-0.58774-0.41409-1.1888h-4.1944l-0.84 2.3643h-1.35q0.53431-1.4694 1.0018-2.7116 0.46753-1.2556 0.90833-2.3777 0.45417-1.1221 0.89498-2.1372 0.4408-1.0286 0.92169-2.0304h1.1888q0.48088 1.0018 0.92169 2.0304 0.44081 1.0152 0.88161 2.1372 0.45417 1.1221 0.92169 2.3777 0.45 1.2422 0.99 2.7116h-1.4159zm-1.2156-3.433q-0.42745-1.1621-0.8549-2.2441-0.41409-1.0953-0.86826-2.0972-0.46752 1.0018-0.89497 2.0972-0.41409 1.082-0.82818 2.2441h3.4463z"/><path d="m357.01-9.3505q1.9502 0 2.9922 0.74804 1.0553 0.73468 1.0553 2.204 0 0.80147-0.29388 1.3759-0.28051 0.56103-0.82818 0.92169-0.53431 0.3473-1.3091 0.5076-0.77476 0.16029-1.7499 0.16029h-1.0286v3.433h-1.2957v-9.1234q0.54767-0.13358 1.2156-0.17365 0.68124-0.053431 1.2423-0.053431zm0.10686 1.1354q-0.82818 0-1.269 0.040073v3.6333h0.97512q0.66789 0 1.2022-0.080147 0.53431-0.093505 0.89497-0.29387 0.37402-0.21372 0.57438-0.57439 0.20037-0.36066 0.20037-0.92169 0-0.53431-0.21372-0.88161-0.20037-0.3473-0.56103-0.54767-0.34731-0.21372-0.81483-0.29387-0.46752-0.080147-0.98848-0.080147z"/><path d="m366.12-9.3505q1.9502 0 2.9922 0.74804 1.0553 0.73468 1.0553 2.204 0 0.80147-0.29388 1.3759-0.28051 0.56103-0.82818 0.92169-0.53431 0.3473-1.3091 0.5076-0.77476 0.16029-1.7499 0.16029h-1.0286v3.433h-1.2957v-9.1234q0.54767-0.13358 1.2156-0.17365 0.68125-0.053431 1.2423-0.053431zm0.10687 1.1354q-0.82819 0-1.269 0.040073v3.6333h0.97512q0.66789 0 1.2022-0.080147 0.53431-0.093505 0.89497-0.29387 0.37402-0.21372 0.57438-0.57439 0.20037-0.36066 0.20037-0.92169 0-0.53431-0.21372-0.88161-0.20037-0.3473-0.56103-0.54767-0.3473-0.21372-0.81483-0.29387-0.46752-0.080147-0.98847-0.080147z"/><path d="m378.29 0q-0.22708-0.6011-0.42744-1.1755-0.20037-0.58774-0.4141-1.1888h-4.1944l-0.85 2.3643h-1.35q0.53431-1.4694 1.0018-2.7116 0.46752-1.2556 0.90833-2.3777 0.45417-1.1221 0.89497-2.1372 0.44081-1.0286 0.92169-2.0304h1.1888q0.48088 1.0018 0.92168 2.0304 0.44081 1.0152 0.88162 2.1372 0.45416 1.1221 0.92169 2.3777 0.47 1.2422 1 2.7116h-1.4159zm-1.2156-3.433q-0.42745-1.1621-0.8549-2.2441-0.4141-1.0953-0.86826-2.0972-0.46752 1.0018-0.89497 2.0972-0.4141 1.082-0.82819 2.2441h3.4463z"/><path d="m386.47-3.8738q0.21372 0.26716 0.53431 0.70796 0.33394 0.42745 0.68125 0.96176 0.3473 0.52095 0.68125 1.0953 0.3473 0.57439 0.58774 1.1087h-1.4159q-0.26715-0.5076-0.58774-1.0286-0.30723-0.52095-0.62782-0.98848-0.32059-0.48088-0.64117-0.89497-0.30723-0.41409-0.56103-0.72132-0.17365 0.013358-0.36066 0.013358-0.17365 0-0.36066 0h-1.1621v3.62h-1.2957v-9.1234q0.54767-0.13358 1.2156-0.17365 0.68125-0.053431 1.2423-0.053431 1.9502 0 2.9654 0.73468 1.0286 0.73468 1.0286 2.1907 0 0.92169-0.49424 1.5762-0.48088 0.65453-1.4293 0.97512zm-1.9636-4.3413q-0.82818 0-1.269 0.040073v3.4864h0.92169q0.66789 0 1.2022-0.066789t0.89497-0.2538q0.37402-0.18701 0.57439-0.52095 0.20037-0.3473 0.20037-0.90833 0-0.52095-0.20037-0.86826-0.20037-0.3473-0.54767-0.54767-0.33395-0.20037-0.80147-0.28051-0.45416-0.080147-0.97512-0.080147z"/><path d="m391.35 0v-9.257h5.6504v1.1087h-4.3546v2.7517h3.8738v1.082h-3.8738v3.2059h4.6886v1.1087h-5.9843z"/><path d="m405.54-1.1221v1.1221h-5.5702v-9.257h1.2957v8.1349h4.2745z"/><path d="m411.45-2.4578q0-0.52095 0.1603-0.92169 0.16029-0.41409 0.42745-0.73468 0.28051-0.33394 0.64117-0.57439 0.36066-0.2538 0.74804-0.44081-0.98848-0.98848-0.98848-2.0437 0-0.53431 0.17365-0.96176 0.18701-0.42745 0.49424-0.72132 0.32059-0.29387 0.74804-0.45417 0.44081-0.16029 0.96176-0.16029 0.53431 0 0.9484 0.16029 0.42745 0.16029 0.70797 0.42745 0.29387 0.26716 0.4408 0.64117 0.14694 0.37402 0.14694 0.78811 0 0.46752-0.16029 0.84154-0.14694 0.37402-0.4141 0.68125-0.25379 0.30723-0.58774 0.56103-0.33394 0.2538-0.70796 0.45417l2.164 2.204q0.45417-0.84154 0.58774-1.8701l1.0286 0.13358q-0.0534 0.54767-0.28052 1.2022-0.21372 0.64117-0.61446 1.2823 0.46753 0.5076 0.8549 1.0018 0.4 0.49448 0.65 0.962h-1.3091q-0.16029-0.26716-0.40073-0.54767-0.22709-0.28051-0.48089-0.56103-0.54766 0.54767-1.269 0.89497-0.72132 0.33394-1.6564 0.33394-0.86826 0-1.4426-0.24044-0.57438-0.2538-0.93504-0.62782-0.3473-0.38738-0.49424-0.84154-0.14694-0.45417-0.14694-0.86826zm1.2423-0.026716q0 0.24044 0.0935 0.52095t0.30723 0.52095q0.21373 0.22708 0.54767 0.38738 0.34731 0.14694 0.8549 0.14694 0.65453 0 1.2022-0.24044 0.56103-0.24044 0.98848-0.68125l-2.6048-2.6315q-0.24044 0.12022-0.49424 0.28051-0.24044 0.16029-0.44081 0.40073-0.20036 0.22708-0.33394 0.54767-0.12022 0.32059-0.12022 0.74804zm3.2459-4.929q0-0.45417-0.30722-0.76139-0.29388-0.32059-0.81483-0.32059-0.58774 0-0.90833 0.36066-0.30723 0.3473-0.30723 0.86826 0 0.86826 0.90833 1.6964 0.29387-0.14694 0.54767-0.32059 0.26716-0.17365 0.45417-0.40073 0.20036-0.22708 0.30722-0.49424 0.12022-0.28051 0.12022-0.62782z"/><path d="m430.11-1.2823q-0.13358-0.32059-0.36066-0.81483-0.21373-0.49424-0.46753-1.0686-0.25379-0.57439-0.54767-1.1755-0.28051-0.61446-0.53431-1.1488-0.2538-0.54767-0.48088-0.97512-0.21372-0.42745-0.3473-0.65453-0.14694 1.5762-0.24044 3.4196-0.09 1.8299-0.16 3.7h-1.269q0.0534-1.2022 0.12022-2.4178 0.0668-1.2289 0.14694-2.4044 0.0935-1.1888 0.18701-2.3109 0.10686-1.1221 0.22708-2.1239h1.1354q0.36066 0.58774 0.77475 1.3892 0.41409 0.80147 0.82818 1.6831 0.41409 0.86826 0.80147 1.7499 0.38738 0.86826 0.70796 1.5896 0.32059-0.72132 0.70797-1.5896 0.38737-0.88161 0.80146-1.7499 0.4141-0.88161 0.82819-1.6831 0.41409-0.80147 0.77475-1.3892h1.1354q0.46 4.4749 0.68 9.257h-1.269q-0.0668-1.8701-0.16029-3.7001-0.0935-1.8434-0.24044-3.4196-0.13358 0.22708-0.36067 0.65453-0.21372 0.42745-0.46752 0.97512-0.2538 0.53431-0.54767 1.1488-0.28051 0.6011-0.53431 1.1755-0.2538 0.57439-0.48088 1.0686-0.21373 0.49424-0.3473 0.81483h-1.0419z"/><path d="m438.22-4.6352q0-1.1888 0.3473-2.0972 0.36066-0.90833 0.96176-1.5094 0.61446-0.61446 1.4159-0.92169 0.81483-0.30723 1.7232-0.30723 0.89497 0 1.6831 0.30723 0.80147 0.30723 1.4026 0.92169 0.6011 0.6011 0.9484 1.5094 0.36066 0.90833 0.36066 2.0972 0 1.1888-0.36066 2.0972-0.3473 0.90833-0.9484 1.5228-0.6011 0.6011-1.4026 0.90833-0.78811 0.30723-1.6831 0.30723-0.90833 0-1.7232-0.30723-0.80147-0.30723-1.4159-0.90833-0.6011-0.61446-0.96176-1.5228-0.3473-0.90833-0.3473-2.0972zm1.3625 0q0 0.84154 0.21373 1.5361 0.21372 0.68125 0.6011 1.1621 0.40073 0.48088 0.96176 0.74804 0.57439 0.2538 1.2824 0.2538 0.70796 0 1.269-0.2538 0.56103-0.26716 0.94841-0.74804 0.40073-0.48088 0.61445-1.1621 0.21373-0.69461 0.21373-1.5361 0-0.84154-0.21373-1.5228-0.21372-0.69461-0.61445-1.1755-0.38738-0.48088-0.94841-0.73468-0.56103-0.26716-1.269-0.26716-0.70796 0-1.2824 0.26716-0.56103 0.2538-0.96176 0.73468-0.38738 0.48088-0.6011 1.1755-0.21373 0.68125-0.21373 1.5228z"/><path d="m454.51-3.8738q0.21372 0.26716 0.53431 0.70796 0.33394 0.42745 0.68125 0.96176 0.3473 0.52095 0.68124 1.0953 0.34 0.57449 0.58 1.1088h-1.4159q-0.26715-0.5076-0.58774-1.0286-0.30723-0.52095-0.62782-0.98848-0.32059-0.48088-0.64117-0.89497-0.30723-0.41409-0.56103-0.72132-0.17365 0.013358-0.36066 0.013358-0.17365 0-0.36066 0h-1.1621v3.62h-1.2957v-9.1234q0.54767-0.13358 1.2156-0.17365 0.68125-0.053431 1.2423-0.053431 1.9502 0 2.9654 0.73468 1.0286 0.73468 1.0286 2.1907 0 0.92169-0.49424 1.5762-0.48088 0.65453-1.4293 0.97512zm-1.9636-4.3413q-0.82818 0-1.269 0.040073v3.4864h0.92169q0.66789 0 1.2022-0.066789t0.89497-0.2538q0.37402-0.18701 0.57439-0.52095 0.20036-0.3473 0.20036-0.90833 0-0.52095-0.20036-0.86826-0.20037-0.3473-0.54767-0.54767-0.33395-0.20037-0.80147-0.28051-0.45416-0.080147-0.97512-0.080147z"/><path d="m459.38 0v-9.257h5.6504v1.1087h-4.3546v2.7517h3.8738v1.082h-3.8738v3.2059h4.6886v1.1087h-5.9843z"/><path d="m469.36-6.7457q0 1.1221-0.0802 2.0437-0.0801 0.90833-0.20036 1.8167h-0.77476q-0.12022-0.90833-0.20036-1.8167-0.0802-0.92169-0.0802-2.0437v-2.5113h1.3358v2.5113zm0.22708 6.0244q0 0.36066-0.24044 0.62782t-0.65453 0.26716-0.65453-0.26716-0.24044-0.62782 0.24044-0.62782 0.65453-0.26716 0.65453 0.26716 0.24044 0.62782z"/></g></g><g transform="translate(-17.664 -17.187)"><path fill-rule="evenodd" clip-rule="evenodd" d="m68.341 47.11h87.697c1.9 0 4.061-0.24 5.64 0.137 1.494 0.357 2.692 1.433 3.302 2.82 0.649 1.478 0.413 3.549 0.413 5.708v30.539c0 2.059 0.244 4.251-0.069 5.984-0.339 1.88-1.9 3.451-3.645 3.852-1.563 0.359-3.345 0.421-5.021 0.619-25.286 2.986-50.509 5.826-75.729 8.804 0.113 1.954 1.186 3.7 0.963 5.709-0.195 1.761-1.331 3.114-1.788 4.608h62.247c2.998 0 6.048-0.273 8.873 0 3.123 0.302 5.292 3.59 3.989 6.74-1.172 2.837-3.994 3.446-8.392 3.096 5.314 0.958 8.954 4.479 8.735 10.248-0.111 2.938-1.272 4.991-2.958 6.603-1.628 1.559-3.713 2.751-6.741 2.751-2.993 0-5.196-1.036-6.878-2.683-1.632-1.597-2.895-3.652-3.026-6.534-0.272-5.945 3.601-9.527 8.735-10.317-22.079-0.161-44.457-0.023-66.649-0.068 5.313 0.958 8.953 4.479 8.735 10.248-0.111 2.938-1.273 4.991-2.958 6.603-1.629 1.559-3.713 2.751-6.741 2.751-2.993 0-5.196-1.036-6.878-2.683-1.631-1.597-2.894-3.652-3.026-6.534-0.272-5.945 3.601-9.527 8.735-10.317-2.475-0.177-4.82 0.225-6.465-0.825-1.439-0.919-2.569-2.633-2.201-4.884 0.291-1.777 1.229-3.606 2.064-5.158 0.878-1.634 1.808-3.19 2.544-4.677-4.525-21.04-9.097-42.03-13.55-63.141h-8.185c-2.53 0-5.479 0.265-8.116-0.069-2.479-0.313-4.314-2.414-4.333-4.814-0.02-2.498 1.812-4.685 4.402-4.952 1.617-0.167 3.516 0 5.365 0h10.661c1.741 0 3.717-0.235 5.228 0.068 4.2 0.845 4.077 5.703 5.021 9.768z"/></g><g transform="translate(-17.664 -17.187)"><g fill-rule="evenodd" clip-rule="evenodd" fill="#fff"><path d="m124.31 63.223c-0.276 0.042-0.508-0.144-0.789-0.212-2.286-0.554-5.055-0.091-6.76 0.849-0.582 0.32-1.119 0.695-1.607 1.182-0.433 0.433-1.029 1.112-0.94 1.849 0.084 0.695 0.862 0.991 1.546 1.182 2.187 0.612 5.277 0.172 7.216 0.97-3.094 0.064-5.57 0.535-8.458 0.94-1.278 0.179-2.755 0.427-4.213 0.485-2.368 0.095-5.222 0.115-5.214-2.274 0.003-1.197 0.866-2.512 1.424-3.183 0.607-0.728 1.468-1.382 2.274-2.001 0.809-0.621 1.667-1.196 2.577-1.697 1.845-1.016 4.102-1.93 6.579-2.062 2.253-0.12 3.541 0.335 4.699 1.333 0.766 0.664 1.467 1.496 1.666 2.639z"/><path d="m127.85 53.764h0.394c1.384 0.083 2.358 0.971 2.486 2.334 0.087 0.935-0.09 2.074 0.03 3.214v13.126c-0.025 2.169-0.061 4.777-0.061 7.003 0 2.335 0.112 4.808-0.606 6.397-0.383 0.845-0.847 1.394-1.698 1.819-0.749 0.375-1.811 0.487-2.789 0.697-8.574 1.837-17.107 3.692-25.829 5.608-0.956 0.21-2.041 0.6-2.971 0.333-1.167-0.334-1.554-1.382-1.728-2.819v-0.243c0.482-8.28 0.986-16.569 1.425-24.95 0.069-1.324 0.084-2.899 0.485-3.911 0.4-1.012 1.141-1.751 2.183-2.183 0.535-0.222 1.154-0.312 1.759-0.455 4.092-0.972 8.346-1.966 12.429-2.911 4.827-1.114 9.434-2.199 14.491-3.059zm-24.466 6.67c-2.296 0.597-3.913 2.524-4.759 4.578-0.301 0.732-0.579 1.542-0.667 2.425-0.088 0.895-0.14 1.861-0.212 2.91-0.266 3.862-0.594 7.722-0.727 11.702-0.134 3.992-0.712 8.892 2.273 9.974 1.449 0.525 3.249-0.154 4.668-0.424 1.626-0.31 3.1-0.511 4.608-0.91 0.852-0.225 1.694-0.662 2.516-1 2.497-1.025 4.947-2.165 7.034-3.517 2.866-1.856 5.335-4.153 7.669-6.396-0.019 0.002-0.036 0.005-0.03 0.03-0.453 0.979-1.192 1.911-1.94 2.729-2.118 2.314-4.576 4.337-7.033 6.215-0.102 0.078-0.327 0.159-0.243 0.242 1.414-0.292 2.81-0.647 4.184-0.97 1.402-0.33 2.807-0.597 3.971-1.183 2.231-1.121 3.894-3.061 4.244-6.093 0.092-0.793 0.092-1.648 0.092-2.486 0-2.519 0.064-5.103 0.151-7.609 0.116-3.381 0.061-6.811 0.061-10.216 0-1.822-0.219-3.135-1.183-3.971-0.893-0.776-2.547-1.065-4.183-0.697-1.345 0.302-2.789 0.616-4.214 0.939-1.446 0.329-2.863 0.64-4.093 1.091-5.017 1.844-9.006 4.916-12.066 8.549 0.919-1.589 2.004-3.022 3.305-4.274 1.211-1.167 2.602-2.188 3.941-3.184 0.058-0.042 0.217-0.06 0.182-0.182-2.573 0.614-5.106 1.092-7.549 1.728z"/><path d="m102.02 83.837c0.096-0.041 0.24 0.08 0.394 0.151 1.818 0.846 4.809 0.756 6.852 0.061 0.914-0.312 1.734-0.728 2.456-1.212 0.657-0.442 1.514-1.059 1.849-1.819 0.197-0.445 0.219-1.027 0.062-1.425-0.307-0.77-1.295-1.027-2.395-1.183-1.086-0.153-2.23-0.22-3.214-0.333-3.25-0.375-5.608-1.256-6.426-4.063-0.037-0.035-0.012-0.076 0-0.03 1.086 1.161 3.145 1.054 5.124 0.939 1.958-0.113 3.714-0.306 5.639-0.545 1.742-0.217 3.582-0.558 5.548-0.637 2.702-0.108 5.306 0.136 6.154 1.94 0.616 1.309 0.079 2.942-0.515 3.941-1.862 3.134-5.062 5.005-8.367 6.64-2.158 1.067-4.642 2.08-7.792 2.213-3.349 0.141-5.343-1.302-5.369-4.638z"/></g></g><g transform="translate(-17.664 -17.187)"><polygon fill-rule="evenodd" points="674.42 122.77 674.42 54.491 721.92 88.631" clip-rule="evenodd" fill="#aaa"/></g></svg>
