<?xml version="1.0" encoding="UTF-8" standalone="no"?>
<svg
   version="1.1"
   x="0px"
   y="0px"
   viewBox="0 0 489.73444 154.5511"
   xml:space="preserve"
   id="svg150"
   width="489.73444"
   height="154.5511"
   xmlns="http://www.w3.org/2000/svg"
   xmlns:svg="http://www.w3.org/2000/svg"><defs
   id="defs154" />
<style
   type="text/css"
   id="style2">
	.st0{fill:url(#SVGID_1_);stroke:#FFFFFF;stroke-width:0.25;stroke-miterlimit:10;}
	.st1{fill:url(#SVGID_2_);stroke:#FFFFFF;stroke-width:0.25;stroke-miterlimit:10;}
	.st2{fill:url(#SVGID_3_);stroke:#FFFFFF;stroke-width:0.25;stroke-miterlimit:10;}
	.st3{fill:url(#SVGID_4_);stroke:#FFFFFF;stroke-width:0.25;stroke-miterlimit:10;}
	.st4{fill:url(#SVGID_5_);stroke:#FFFFFF;stroke-width:0.25;stroke-miterlimit:10;}
	.st5{fill:url(#SVGID_6_);stroke:#FFFFFF;stroke-width:0.25;stroke-miterlimit:10;}
	.st6{fill:#FF0000;stroke:#FFFFFF;stroke-width:0.25;stroke-miterlimit:10;}
</style>
<g
   id="Layer_2"
   transform="translate(-384.62557,-15.208896)">
	<g
   id="g32">
		<path
   d="m 452.4,143.15 -6.63,-27.76 h 5.74 l 4.18,19.07 5.07,-19.07 h 6.67 l 4.87,19.39 4.26,-19.39 h 5.64 l -6.74,27.76 h -5.95 l -5.53,-20.75 -5.51,20.75 z"
   id="path4" />
		<path
   d="m 485.07,143.15 v -27.76 h 20.58 v 4.7 h -14.98 v 6.15 h 13.94 v 4.68 h -13.94 v 7.55 h 15.51 v 4.68 z"
   id="path6" />
		<path
   d="m 535.96,143.15 h -6.1 l -2.42,-6.3 h -11.1 l -2.29,6.3 h -5.95 l 10.81,-27.76 h 5.93 z m -10.32,-10.99 -3.82,-10.3 -3.75,10.3 z"
   id="path8" />
		<path
   d="m 542.3,143.15 v -23.06 h -8.24 v -4.7 h 22.06 v 4.7 h -8.22 v 23.06 z"
   id="path10" />
		<path
   d="m 559.76,143.15 v -27.76 h 5.6 v 10.93 h 10.98 v -10.93 h 5.6 v 27.76 h -5.6 v -12.14 h -10.98 v 12.14 z"
   id="path12" />
		<path
   d="m 587.75,143.15 v -27.76 h 20.58 v 4.7 h -14.98 v 6.15 h 13.94 v 4.68 h -13.94 v 7.55 h 15.51 v 4.68 z"
   id="path14" />
		<path
   d="m 613.63,143.15 v -27.76 h 11.8 c 2.97,0 5.12,0.25 6.47,0.75 1.34,0.5 2.42,1.39 3.23,2.66 0.81,1.28 1.21,2.73 1.21,4.37 0,2.08 -0.61,3.8 -1.84,5.16 -1.22,1.36 -3.05,2.21 -5.49,2.57 1.21,0.71 2.21,1.48 3,2.33 0.79,0.85 1.85,2.35 3.19,4.51 l 3.39,5.42 h -6.7 l -4.05,-6.04 c -1.44,-2.16 -2.42,-3.52 -2.95,-4.08 -0.53,-0.56 -1.09,-0.95 -1.69,-1.16 -0.6,-0.21 -1.53,-0.31 -2.82,-0.31 h -1.14 v 11.59 h -5.61 z m 5.6,-16.02 h 4.15 c 2.69,0 4.37,-0.11 5.04,-0.34 0.67,-0.23 1.19,-0.62 1.57,-1.17 0.38,-0.56 0.57,-1.25 0.57,-2.08 0,-0.93 -0.25,-1.69 -0.75,-2.26 -0.5,-0.57 -1.2,-0.94 -2.11,-1.09 -0.45,-0.06 -1.82,-0.09 -4.09,-0.09 h -4.37 v 7.03 z"
   id="path16" />
		<path
   d="m 650.97,134.11 5.45,-0.53 c 0.33,1.83 0.99,3.17 2,4.03 1,0.86 2.36,1.29 4.06,1.29 1.8,0 3.17,-0.38 4.08,-1.15 0.91,-0.77 1.37,-1.66 1.37,-2.68 0,-0.66 -0.19,-1.21 -0.58,-1.67 -0.39,-0.46 -1.06,-0.86 -2.02,-1.2 -0.66,-0.23 -2.15,-0.63 -4.49,-1.21 -3,-0.74 -5.11,-1.66 -6.32,-2.75 -1.7,-1.53 -2.56,-3.39 -2.56,-5.58 0,-1.41 0.4,-2.74 1.2,-3.97 0.8,-1.23 1.96,-2.17 3.46,-2.81 1.51,-0.64 3.33,-0.96 5.46,-0.96 3.48,0 6.11,0.76 7.87,2.29 1.76,1.53 2.69,3.57 2.77,6.12 l -5.6,0.25 c -0.24,-1.43 -0.75,-2.45 -1.54,-3.08 -0.79,-0.62 -1.97,-0.94 -3.55,-0.94 -1.63,0 -2.9,0.33 -3.82,1 -0.59,0.43 -0.89,1 -0.89,1.72 0,0.66 0.28,1.22 0.83,1.68 0.71,0.59 2.42,1.21 5.15,1.86 2.73,0.64 4.74,1.31 6.05,2 1.31,0.69 2.33,1.63 3.07,2.82 0.74,1.19 1.11,2.67 1.11,4.42 0,1.59 -0.44,3.08 -1.33,4.47 -0.88,1.39 -2.13,2.42 -3.75,3.1 -1.62,0.67 -3.63,1.01 -6.04,1.01 -3.51,0 -6.2,-0.81 -8.08,-2.43 -1.88,-1.62 -3,-3.99 -3.36,-7.1 z"
   id="path18" />
		<path
   d="m 684.5,143.15 v -23.06 h -8.24 v -4.7 h 22.06 v 4.7 h -8.22 v 23.06 z"
   id="path20" />
		<path
   d="m 724.09,143.15 h -6.1 l -2.42,-6.3 h -11.1 l -2.29,6.3 h -5.95 l 10.81,-27.76 h 5.93 z m -10.32,-10.99 -3.83,-10.3 -3.75,10.3 z"
   id="path22" />
		<path
   d="m 730.43,143.15 v -23.06 h -8.24 v -4.7 h 22.06 v 4.7 h -8.22 v 23.06 z"
   id="path24" />
		<path
   d="m 747.7,143.15 v -27.76 h 5.6 v 27.76 z"
   id="path26" />
		<path
   d="m 757.51,129.44 c 0,-2.83 0.42,-5.2 1.27,-7.12 0.63,-1.41 1.49,-2.68 2.58,-3.81 1.09,-1.12 2.29,-1.96 3.59,-2.5 1.73,-0.73 3.72,-1.1 5.98,-1.1 4.09,0 7.36,1.27 9.82,3.81 2.46,2.54 3.68,6.07 3.68,10.58 0,4.48 -1.22,7.99 -3.65,10.52 -2.44,2.53 -5.69,3.8 -9.77,3.8 -4.13,0 -7.41,-1.26 -9.85,-3.78 -2.43,-2.52 -3.65,-5.98 -3.65,-10.4 z m 5.77,-0.19 c 0,3.14 0.73,5.53 2.18,7.15 1.45,1.62 3.29,2.43 5.53,2.43 2.24,0 4.07,-0.8 5.5,-2.41 1.43,-1.61 2.15,-4.02 2.15,-7.24 0,-3.18 -0.7,-5.55 -2.09,-7.12 -1.4,-1.57 -3.25,-2.35 -5.56,-2.35 -2.31,0 -4.17,0.79 -5.58,2.38 -1.42,1.58 -2.13,3.96 -2.13,7.16 z"
   id="path28" />
		<path
   d="m 788.87,143.15 v -27.76 h 5.45 l 11.36,18.54 v -18.54 h 5.21 v 27.76 h -5.62 l -11.19,-18.1 v 18.1 z"
   id="path30" />
	</g>
	<g
   id="g78">
		<path
   d="m 498.74,164.78 v -1.24 h 3.78 v 1.24 z"
   id="path34" />
		<path
   d="m 513.08,164.56 1.25,-0.11 c 0.06,0.5 0.2,0.91 0.41,1.23 0.22,0.32 0.55,0.58 1.01,0.78 0.46,0.2 0.97,0.3 1.54,0.3 0.51,0 0.95,-0.08 1.34,-0.23 0.39,-0.15 0.68,-0.36 0.86,-0.62 0.19,-0.26 0.28,-0.55 0.28,-0.86 0,-0.31 -0.09,-0.59 -0.27,-0.82 -0.18,-0.23 -0.48,-0.43 -0.9,-0.59 -0.27,-0.1 -0.86,-0.27 -1.78,-0.49 -0.92,-0.22 -1.57,-0.43 -1.93,-0.62 -0.48,-0.25 -0.83,-0.56 -1.07,-0.93 -0.23,-0.37 -0.35,-0.79 -0.35,-1.25 0,-0.51 0.14,-0.98 0.43,-1.42 0.29,-0.44 0.71,-0.77 1.26,-1 0.55,-0.23 1.16,-0.34 1.84,-0.34 0.74,0 1.4,0.12 1.96,0.36 0.57,0.24 1,0.59 1.31,1.06 0.3,0.46 0.47,0.99 0.49,1.58 l -1.27,0.1 c -0.07,-0.63 -0.3,-1.11 -0.69,-1.44 -0.39,-0.32 -0.98,-0.49 -1.75,-0.49 -0.8,0 -1.39,0.15 -1.75,0.44 -0.37,0.29 -0.55,0.65 -0.55,1.06 0,0.36 0.13,0.66 0.39,0.89 0.25,0.23 0.92,0.47 2,0.71 1.08,0.24 1.82,0.46 2.22,0.64 0.58,0.27 1.01,0.61 1.29,1.02 0.28,0.41 0.42,0.89 0.42,1.43 0,0.53 -0.15,1.04 -0.46,1.51 -0.31,0.47 -0.74,0.84 -1.32,1.1 -0.57,0.26 -1.22,0.39 -1.93,0.39 -0.91,0 -1.67,-0.13 -2.28,-0.4 -0.61,-0.26 -1.09,-0.66 -1.44,-1.19 -0.36,-0.53 -0.55,-1.13 -0.56,-1.8 z"
   id="path36" />
		<path
   d="m 528.21,167.78 v -8.84 h -3.3 v -1.18 h 7.94 v 1.18 h -3.32 v 8.84 z"
   id="path38" />
		<path
   d="m 535.66,167.78 v -1.4 h 1.4 v 1.4 z"
   id="path40" />
		<path
   d="m 546.97,167.78 3.85,-10.02 h 1.43 l 4.1,10.02 h -1.51 l -1.17,-3.04 h -4.19 l -1.1,3.04 z m 2.89,-4.11 h 3.4 l -1.05,-2.78 c -0.32,-0.84 -0.56,-1.54 -0.71,-2.08 -0.13,0.64 -0.31,1.28 -0.54,1.91 z"
   id="path42" />
		<path
   d="m 566.79,157.76 h 1.33 v 5.79 c 0,1.01 -0.11,1.81 -0.34,2.4 -0.23,0.59 -0.64,1.07 -1.23,1.45 -0.59,0.37 -1.38,0.56 -2.34,0.56 -0.94,0 -1.71,-0.16 -2.3,-0.49 -0.6,-0.32 -1.02,-0.79 -1.28,-1.4 -0.26,-0.61 -0.38,-1.45 -0.38,-2.51 v -5.79 h 1.33 v 5.78 c 0,0.87 0.08,1.51 0.24,1.92 0.16,0.41 0.44,0.73 0.83,0.95 0.39,0.22 0.88,0.33 1.45,0.33 0.97,0 1.67,-0.22 2.08,-0.66 0.41,-0.44 0.62,-1.29 0.62,-2.55 v -5.78 z"
   id="path44" />
		<path
   d="m 577.81,163.85 v -1.18 l 4.25,-0.01 v 3.72 c -0.65,0.52 -1.32,0.91 -2.02,1.17 -0.69,0.26 -1.4,0.39 -2.13,0.39 -0.98,0 -1.88,-0.21 -2.68,-0.63 -0.8,-0.42 -1.41,-1.03 -1.82,-1.83 -0.41,-0.8 -0.62,-1.69 -0.62,-2.67 0,-0.98 0.2,-1.89 0.61,-2.73 0.41,-0.85 1,-1.47 1.76,-1.88 0.76,-0.41 1.65,-0.62 2.65,-0.62 0.72,0 1.38,0.12 1.96,0.35 0.59,0.23 1.04,0.56 1.38,0.98 0.33,0.42 0.58,0.97 0.76,1.64 l -1.2,0.33 c -0.15,-0.51 -0.34,-0.91 -0.56,-1.2 -0.22,-0.29 -0.54,-0.53 -0.96,-0.7 -0.42,-0.17 -0.88,-0.26 -1.38,-0.26 -0.61,0 -1.13,0.09 -1.57,0.28 -0.44,0.19 -0.8,0.43 -1.07,0.73 -0.27,0.3 -0.48,0.63 -0.63,0.99 -0.26,0.62 -0.38,1.29 -0.38,2.02 0,0.89 0.15,1.64 0.46,2.24 0.31,0.6 0.76,1.05 1.34,1.34 0.58,0.29 1.21,0.44 1.87,0.44 0.57,0 1.13,-0.11 1.68,-0.33 0.55,-0.22 0.96,-0.46 1.24,-0.71 v -1.87 z"
   id="path46" />
		<path
   d="m 593.38,157.76 h 1.33 v 5.79 c 0,1.01 -0.11,1.81 -0.34,2.4 -0.23,0.59 -0.64,1.07 -1.23,1.45 -0.59,0.37 -1.38,0.56 -2.34,0.56 -0.94,0 -1.71,-0.16 -2.3,-0.49 -0.6,-0.32 -1.02,-0.79 -1.28,-1.4 -0.25,-0.61 -0.38,-1.45 -0.38,-2.51 v -5.79 h 1.33 v 5.78 c 0,0.87 0.08,1.51 0.24,1.92 0.16,0.41 0.44,0.73 0.83,0.95 0.39,0.22 0.88,0.33 1.45,0.33 0.98,0 1.67,-0.22 2.08,-0.66 0.42,-0.44 0.62,-1.29 0.62,-2.55 v -5.78 z"
   id="path48" />
		<path
   d="m 599.27,164.56 1.25,-0.11 c 0.06,0.5 0.2,0.91 0.41,1.23 0.22,0.32 0.55,0.58 1.01,0.78 0.46,0.2 0.97,0.3 1.54,0.3 0.51,0 0.95,-0.08 1.34,-0.23 0.39,-0.15 0.68,-0.36 0.87,-0.62 0.19,-0.26 0.28,-0.55 0.28,-0.86 0,-0.31 -0.09,-0.59 -0.27,-0.82 -0.18,-0.23 -0.48,-0.43 -0.9,-0.59 -0.27,-0.1 -0.86,-0.27 -1.78,-0.49 -0.92,-0.22 -1.57,-0.43 -1.93,-0.62 -0.48,-0.25 -0.83,-0.56 -1.07,-0.93 -0.24,-0.37 -0.35,-0.79 -0.35,-1.25 0,-0.51 0.14,-0.98 0.43,-1.42 0.29,-0.44 0.71,-0.77 1.26,-1 0.55,-0.23 1.17,-0.34 1.84,-0.34 0.74,0 1.4,0.12 1.97,0.36 0.57,0.24 1,0.59 1.31,1.06 0.31,0.46 0.47,0.99 0.49,1.58 l -1.27,0.1 c -0.07,-0.63 -0.3,-1.11 -0.69,-1.44 -0.39,-0.32 -0.98,-0.49 -1.75,-0.49 -0.8,0 -1.39,0.15 -1.75,0.44 -0.37,0.29 -0.55,0.65 -0.55,1.06 0,0.36 0.13,0.66 0.39,0.89 0.26,0.23 0.92,0.47 2,0.71 1.08,0.24 1.82,0.46 2.22,0.64 0.58,0.27 1.01,0.61 1.29,1.02 0.28,0.41 0.42,0.89 0.42,1.43 0,0.53 -0.15,1.04 -0.46,1.51 -0.3,0.47 -0.74,0.84 -1.32,1.1 -0.57,0.26 -1.22,0.39 -1.93,0.39 -0.91,0 -1.67,-0.13 -2.28,-0.4 -0.61,-0.26 -1.09,-0.66 -1.44,-1.19 -0.38,-0.53 -0.56,-1.13 -0.58,-1.8 z"
   id="path50" />
		<path
   d="m 614.41,167.78 v -8.84 h -3.3 v -1.18 h 7.94 v 1.18 h -3.32 v 8.84 z"
   id="path52" />
		<path
   d="m 623.43,167.78 v -10.02 h 1.33 v 10.02 z"
   id="path54" />
		<path
   d="m 629.88,167.78 v -10.02 h 1.36 l 5.26,7.87 v -7.87 h 1.27 v 10.02 h -1.36 l -5.26,-7.88 v 7.88 z"
   id="path56" />
		<path
   d="m 642.84,167.78 v -10.02 h 7.25 v 1.18 h -5.92 v 3.07 h 5.54 v 1.18 h -5.54 v 3.41 h 6.15 v 1.18 z"
   id="path58" />
		<path
   d="m 655.11,167.78 v -1.4 h 1.4 v 1.4 c 0,0.51 -0.09,0.93 -0.27,1.25 -0.18,0.32 -0.47,0.56 -0.87,0.73 l -0.34,-0.53 c 0.26,-0.11 0.45,-0.28 0.57,-0.5 0.12,-0.22 0.19,-0.54 0.21,-0.95 z"
   id="path60" />
		<path
   d="m 668.39,167.78 v -10.02 h 6.76 v 1.18 h -5.43 v 3.1 h 4.7 v 1.18 h -4.7 v 4.55 h -1.33 z"
   id="path62" />
		<path
   d="m 679.62,167.78 v -10.02 h 1.33 v 8.84 h 4.94 v 1.18 z"
   id="path64" />
		<path
   d="m 689.86,162.9 c 0,-1.66 0.45,-2.97 1.34,-3.91 0.89,-0.94 2.05,-1.41 3.46,-1.41 0.93,0 1.76,0.22 2.5,0.66 0.74,0.44 1.31,1.06 1.7,1.85 0.39,0.79 0.58,1.69 0.58,2.69 0,1.02 -0.21,1.93 -0.62,2.73 -0.41,0.8 -0.99,1.41 -1.74,1.82 -0.75,0.41 -1.56,0.62 -2.43,0.62 -0.94,0 -1.79,-0.23 -2.53,-0.68 -0.74,-0.46 -1.31,-1.08 -1.69,-1.87 -0.38,-0.79 -0.57,-1.62 -0.57,-2.5 z m 1.37,0.02 c 0,1.21 0.33,2.16 0.97,2.85 0.65,0.69 1.46,1.04 2.44,1.04 1,0 1.82,-0.35 2.46,-1.05 0.64,-0.7 0.97,-1.7 0.97,-2.99 0,-0.82 -0.14,-1.53 -0.41,-2.14 -0.28,-0.61 -0.68,-1.08 -1.21,-1.41 -0.53,-0.34 -1.13,-0.5 -1.79,-0.5 -0.94,0 -1.75,0.32 -2.42,0.97 -0.67,0.65 -1.01,1.72 -1.01,3.23 z"
   id="path66" />
		<path
   d="m 703.97,167.78 v -10.02 h 4.44 c 0.89,0 1.57,0.09 2.04,0.27 0.46,0.18 0.84,0.5 1.11,0.95 0.28,0.46 0.42,0.96 0.42,1.51 0,0.71 -0.23,1.31 -0.69,1.8 -0.46,0.49 -1.17,0.8 -2.13,0.93 0.35,0.17 0.62,0.33 0.8,0.5 0.39,0.36 0.75,0.8 1.1,1.33 l 1.74,2.73 h -1.67 l -1.33,-2.08 c -0.39,-0.6 -0.71,-1.06 -0.96,-1.38 -0.25,-0.32 -0.47,-0.54 -0.67,-0.67 -0.2,-0.13 -0.4,-0.22 -0.61,-0.27 -0.15,-0.03 -0.4,-0.05 -0.74,-0.05 h -1.54 v 4.45 z m 1.33,-5.6 h 2.85 c 0.61,0 1.08,-0.06 1.42,-0.19 0.34,-0.12 0.6,-0.33 0.78,-0.6 0.18,-0.28 0.27,-0.58 0.27,-0.9 0,-0.47 -0.17,-0.86 -0.52,-1.17 -0.34,-0.31 -0.89,-0.46 -1.63,-0.46 h -3.17 z"
   id="path68" />
		<path
   d="m 717.09,167.78 v -10.02 h 1.33 v 10.02 z"
   id="path70" />
		<path
   d="M 723.55,167.78 V 157.76 H 727 c 0.78,0 1.37,0.05 1.78,0.14 0.57,0.13 1.06,0.37 1.47,0.72 0.53,0.45 0.92,1.02 1.19,1.71 0.26,0.69 0.39,1.49 0.39,2.38 0,0.76 -0.09,1.44 -0.27,2.02 -0.18,0.58 -0.41,1.07 -0.68,1.46 -0.28,0.38 -0.58,0.69 -0.91,0.91 -0.33,0.22 -0.73,0.39 -1.2,0.5 -0.47,0.11 -1,0.17 -1.61,0.17 h -3.61 z m 1.33,-1.18 h 2.14 c 0.66,0 1.18,-0.06 1.55,-0.18 0.37,-0.12 0.68,-0.3 0.9,-0.52 0.31,-0.31 0.56,-0.74 0.73,-1.27 0.18,-0.53 0.26,-1.17 0.26,-1.93 0,-1.05 -0.17,-1.85 -0.52,-2.42 -0.34,-0.56 -0.76,-0.94 -1.25,-1.13 -0.36,-0.14 -0.93,-0.21 -1.72,-0.21 h -2.11 v 7.66 z"
   id="path72" />
		<path
   d="m 735.36,167.78 3.85,-10.02 h 1.43 l 4.1,10.02 h -1.51 l -1.17,-3.04 h -4.19 l -1.1,3.04 z m 2.89,-4.11 h 3.4 l -1.05,-2.78 c -0.32,-0.84 -0.56,-1.54 -0.71,-2.08 -0.13,0.64 -0.31,1.28 -0.54,1.91 z"
   id="path74" />
		<path
   d="m 753.88,164.78 v -1.24 h 3.78 v 1.24 z"
   id="path76" />
	</g>
</g>
<g
   id="Layer_4"
   transform="translate(-384.62557,-15.208896)">
	<g
   id="g85">
		<path
   d="m 516.18,83.42 c -1.37,0.37 -2.3,0.49 -3.11,0.87 -5.13,2.39 -10.47,3.13 -16.08,2.32 -2.68,-0.39 -4.86,-1.55 -6.57,-3.54 -0.88,-1.03 -1.54,-1.08 -2.71,-0.44 -3.3,1.8 -6.6,3.6 -10.47,3.97 -2.77,0.27 -5.07,-0.44 -6.68,-2.77 -0.86,-1.26 -1.56,-1.32 -2.95,-0.57 -3.39,1.83 -6.71,3.93 -10.9,3.67 -4.81,-0.3 -7.66,-3.09 -7.84,-7.86 -0.16,-4.26 1.49,-8.01 2.97,-11.81 2.13,-5.51 4.31,-11 6.56,-16.46 0.45,-1.08 1.25,-2.06 2.05,-2.94 1.36,-1.49 3.02,-1.58 4.77,-0.67 1.83,0.96 2.49,2.55 1.88,4.4 -1.15,3.51 -2.48,6.95 -3.79,10.41 -1.5,3.95 -3.12,7.86 -4.51,11.85 -0.33,0.94 0.05,2.13 0.11,3.2 1.13,-0.1 2.36,0.05 3.37,-0.35 5.3,-2.13 7.85,-6.58 9.75,-11.65 1.92,-5.15 4.05,-10.23 6.14,-15.32 0.7,-1.71 1.89,-2.92 3.88,-3.08 3.31,-0.26 5.34,1.84 4.31,4.99 -1.62,4.97 -3.58,9.83 -5.44,14.73 -1.02,2.7 -2.21,5.34 -3.14,8.07 -0.25,0.74 -0.14,2.04 0.35,2.46 0.52,0.46 1.76,0.43 2.53,0.17 1.05,-0.36 2.05,-1.03 2.92,-1.75 5.46,-4.51 11.75,-8.01 16.46,-13.44 0.7,-0.81 1.47,-1.57 2.14,-2.41 0.94,-1.18 1.34,-2.38 -0.2,-3.44 -1.55,-1.06 -2.57,-0.81 -3.61,0.89 -1.68,2.74 -3.57,3.62 -5.74,2.67 -1.34,-0.59 -2.33,-1.54 -2.13,-3.08 0.26,-2.03 0.58,-4.08 1.16,-6.03 0.69,-2.31 1.69,-4.53 2.54,-6.79 1.04,-2.77 2.63,-4.13 4.83,-4.13 3.07,0.01 4.79,1.91 4.19,4.96 -0.39,2.01 -0.24,3.24 2.2,3.29 0.9,0.02 1.82,0.44 2.68,0.8 6.07,2.51 6.43,9.1 3.16,13.5 -2.71,3.64 -6.08,6.79 -9.14,10.17 -0.85,0.94 -1.85,1.82 -2.44,2.91 -1.13,2.08 0.11,4.06 2.42,3.59 2.79,-0.57 5.6,-1.45 8.17,-2.69 3.62,-1.74 7.05,-3.89 10.52,-5.93 0.59,-0.35 1.15,-0.97 1.42,-1.6 1.54,-3.58 3.01,-7.19 4.45,-10.8 0.48,-1.19 -0.09,-1.79 -1.31,-1.83 -1.14,-0.04 -2.29,-0.01 -3.43,-0.11 -2.2,-0.18 -3.62,-1.67 -3.68,-3.78 -0.07,-2.24 1.1,-3.85 3.3,-4.07 2.19,-0.22 4.42,-0.22 6.63,-0.11 1.78,0.09 2.86,-0.38 3.51,-2.19 1.96,-5.5 4.02,-10.97 6.18,-16.39 1.13,-2.83 2.71,-3.64 5.5,-3.35 2.53,0.26 4.07,2.24 3.34,4.69 -0.79,2.63 -1.89,5.17 -2.86,7.74 -0.92,2.44 -1.83,4.89 -2.81,7.31 -0.69,1.69 -0.05,2.2 1.59,2.11 2.88,-0.15 5.77,-0.38 8.65,-0.34 1.7,0.03 3.39,0.53 3.79,2.63 0.39,2.03 -0.56,3.96 -2.41,4.88 -0.42,0.21 -0.88,0.39 -1.33,0.43 -2.4,0.25 -4.8,0.48 -7.2,0.65 -3.21,0.22 -3.33,0.53 -2.03,3.41 2.46,5.5 3.41,11.34 3,17.32 -0.61,9.05 -3.77,17.19 -9.77,24.03 -3.68,4.2 -8.09,7.47 -13.92,8.19 -5.92,0.73 -10.18,-2.98 -10.34,-8.93 -0.13,-4.92 2.19,-9.08 3.84,-13.45 0.36,-0.91 0.73,-1.8 1.28,-3.18 z m 18.08,-19.21 c -0.18,0.03 -0.36,0.06 -0.53,0.09 -0.6,1.25 -1.26,2.48 -1.78,3.77 -3.09,7.63 -6.15,15.28 -9.22,22.92 -0.87,2.18 -1.81,4.33 -2.52,6.56 -0.2,0.62 0.07,1.73 0.54,2.13 0.43,0.37 1.54,0.34 2.13,0.04 1.18,-0.59 2.46,-1.28 3.24,-2.28 2.27,-2.96 4.69,-5.9 6.37,-9.2 3.26,-6.4 4.75,-13.24 3.16,-20.45 -0.27,-1.23 -0.92,-2.39 -1.39,-3.58 z"
   id="path81" />
		<path
   d="m 409.3,77.72 c 5.5,0 11.01,0.04 16.51,-0.02 2.61,-0.03 5.25,-0.36 6.55,-3.05 1.32,-2.75 -0.05,-5.23 -1.62,-7.28 -2.84,-3.73 -5.87,-7.35 -9.08,-10.77 -8.01,-8.56 -8.33,-18.18 -2.56,-27.45 1.86,-2.99 5.11,-5.29 8.09,-7.39 5.74,-4.04 12.17,-6.19 19.33,-5.55 3.26,0.29 6.35,1 9.02,3.04 2.64,2.01 4.19,4.76 3.33,7.89 -1.56,5.67 -3.52,11.24 -5.64,16.73 -0.95,2.45 -3.45,2.95 -6.02,1.84 -1.9,-0.83 -2.97,-3.4 -2.22,-5.7 1.12,-3.44 2.36,-6.85 3.52,-10.27 0.22,-0.63 0.38,-1.28 0.52,-1.94 0.5,-2.28 -0.52,-3.58 -2.88,-3.73 -3.3,-0.21 -6.16,1.21 -9.02,2.52 -3,1.37 -5.68,3.18 -7.99,5.63 -5.24,5.55 -5.37,11.47 -0.21,17.14 2.98,3.28 6.1,6.47 8.82,9.95 3.09,3.95 5.51,8.3 5.02,13.65 -0.78,8.5 -6.08,13.58 -15.06,13.91 -7.64,0.28 -15.3,0.23 -22.96,0.19 -4.63,-0.02 -9.25,-0.25 -13.88,-0.45 -2.39,-0.1 -3.89,-1.48 -4.14,-3.62 -0.33,-2.85 0.49,-4.4 3.07,-5.07 1.46,-0.38 3.05,-0.35 4.58,-0.36 4.97,-0.04 9.94,-0.02 14.9,-0.02 0.02,0.06 0.02,0.12 0.02,0.18 z"
   id="path83" />
	</g>
	<g
   id="g95">
		<path
   d="m 874.36,76.84 c -4.04,6.97 -10.09,11.39 -17.78,13.39 -7.02,1.82 -12.3,-3.65 -10.24,-10.63 1.3,-4.41 3.3,-8.62 4.99,-12.92 0.59,-1.5 1.31,-2.95 1.8,-4.48 0.55,-1.7 -0.47,-2.91 -2.03,-2.24 -3.65,1.56 -7.22,3.43 -8.97,7.31 -2.87,6.36 -5.59,12.79 -8.43,19.16 -0.43,0.96 -1.05,1.88 -1.75,2.67 -1.17,1.32 -2.92,1.51 -4.26,0.81 -1.07,-0.56 -2.04,-1.95 -2.34,-3.15 -0.3,-1.18 0.06,-2.69 0.55,-3.88 3.91,-9.28 7.88,-18.54 11.92,-27.76 0.96,-2.18 1.92,-4.53 4.98,-4.61 1.57,-0.04 2.84,0.43 3.58,1.77 0.72,1.32 1.45,1.17 2.61,0.58 1.77,-0.91 3.6,-1.96 5.51,-2.29 5.76,-1.02 9.56,2.6 8.62,8.82 -0.46,3.07 -1.81,6.03 -2.96,8.95 -1.33,3.37 -2.95,6.62 -4.3,9.99 -0.3,0.75 -0.28,2.28 0.14,2.52 0.68,0.4 2.06,0.4 2.7,-0.05 3.01,-2.12 5.85,-4.5 8.81,-6.7 3.01,-2.23 5.07,-1.73 6.85,1.54 0,0.39 0,0.79 0,1.2 z"
   id="path87" />
		<path
   d="m 708.6,56.92 c -5.01,-0.03 -5.02,-0.03 -6.93,4.63 -1.93,4.72 -3.88,9.43 -5.72,14.19 -0.28,0.72 -0.31,2.14 0.07,2.38 0.74,0.45 2.05,0.69 2.77,0.32 3.16,-1.62 6.19,-3.48 9.27,-5.26 1.21,-0.7 2.48,-1.35 3.59,-2.19 0.76,-0.58 1.52,-1.36 1.89,-2.22 3.44,-8.02 9.35,-13.57 17.22,-16.97 4.42,-1.91 8.99,-3.57 13.98,-3.39 2.97,0.11 4.84,1.23 4.99,3.31 0.17,2.31 -1.61,4.19 -4.4,4.61 -9.33,1.4 -17.15,5.36 -22.35,13.5 -1.08,1.7 -1.76,3.82 -2.01,5.82 -0.14,1.15 0.65,2.75 1.54,3.61 1.12,1.09 2.66,0.6 3.86,-0.38 2.7,-2.22 5.22,-4.47 6.38,-8.05 0.98,-3.04 2.61,-5.89 4.12,-8.73 1.15,-2.15 3.65,-2.9 5.92,-2.04 1.99,0.76 2.75,2.52 1.81,5.03 -1.21,3.27 -2.68,6.44 -3.97,9.69 -0.58,1.45 -1.86,3.14 -0.34,4.47 1.61,1.41 3.17,-0.14 4.51,-1.01 2.13,-1.4 4.18,-2.93 6.16,-4.54 0.75,-0.61 1.36,-1.51 1.76,-2.41 1.66,-3.75 3.18,-7.56 4.81,-11.32 0.54,-1.25 0.14,-1.76 -1.1,-1.88 -0.4,-0.04 -0.8,-0.12 -1.19,-0.19 -2.21,-0.38 -3.38,-1.51 -3.42,-3.3 -0.05,-2.02 1.51,-4.11 3.43,-4.4 1.46,-0.22 2.95,-0.35 4.41,-0.3 1.69,0.06 2.58,-0.69 3.17,-2.19 0.94,-2.37 1.94,-4.73 3.07,-7.02 1.28,-2.59 2.98,-3.32 5.39,-2.58 2.06,0.63 3.27,2.38 2.8,4.48 -0.37,1.69 -1.01,3.34 -1.65,4.96 -0.89,2.25 -0.81,2.43 1.69,2.58 0.8,0.05 1.61,0.07 2.41,0.15 2.59,0.26 4.03,1.56 4.01,3.63 -0.01,2.37 -1.49,4.07 -3.96,4.26 -2.07,0.16 -4.17,0.2 -6.24,0.06 -1.75,-0.12 -2.71,0.46 -3.37,2.11 -2.18,5.42 -4.52,10.77 -6.7,16.19 -0.33,0.82 -0.08,1.87 -0.09,2.81 1.16,0.01 2.46,0.38 3.44,-0.04 2.15,-0.92 4.13,-2.22 6.18,-3.38 2.09,-1.19 4.24,-2.3 6.24,-3.63 0.83,-0.55 1.56,-1.48 1.97,-2.4 2.46,-5.52 4.8,-11.1 7.23,-16.63 0.4,-0.9 1,-1.75 1.65,-2.5 1.15,-1.32 2.67,-1.49 4.23,-0.89 1.55,0.6 2.9,1.73 2.56,3.44 -0.5,2.53 -1.34,5.02 -2.32,7.42 -2.07,5.1 -4.41,10.09 -6.43,15.21 -0.46,1.17 -0.09,2.67 -0.11,4.02 1.2,-0.23 2.57,-0.17 3.57,-0.75 1.95,-1.15 3.91,-2.45 5.44,-4.08 0.96,-1.02 1.42,-2.71 1.67,-4.18 1.24,-7.38 4.33,-13.64 10.47,-18.16 3.78,-2.79 8.11,-3.33 12.47,-2.23 4.53,1.14 6.8,4.69 7.46,9.1 1.39,9.32 -1.05,17.65 -7.44,24.58 -3.66,3.97 -8.11,6.64 -13.93,5.66 -2.87,-0.48 -5.21,-1.84 -6.78,-4.27 -0.9,-1.4 -1.65,-1.37 -2.91,-0.46 -3.35,2.42 -7.02,4.2 -11.16,4.76 -3.51,0.48 -7,-1.41 -8.37,-4.64 -0.55,-1.29 -1.23,-1.43 -2.33,-0.94 -2.64,1.17 -5.26,2.37 -7.91,3.52 -2.79,1.21 -5.77,1.71 -8.67,0.95 -1.84,-0.48 -3.75,-1.55 -5.09,-2.9 -1.11,-1.11 -1.75,-1.08 -2.84,-0.38 -3.28,2.1 -6.76,3.46 -10.79,3.33 -2.18,-0.07 -3.85,-0.78 -4.9,-2.57 -0.89,-1.52 -1.79,-1.34 -2.89,-0.45 -3.16,2.58 -6.73,3.05 -10.63,2.34 -2.98,-0.54 -4.91,-2.25 -6.22,-4.87 -1.02,-2.05 -1.42,-2.24 -3.35,-0.99 -3.9,2.53 -7.89,4.91 -12.47,5.89 -1.91,0.41 -4.14,0.57 -5.94,-0.02 -5.49,-1.8 -6.44,-5.19 -4.97,-10.8 1.6,-6.12 4.36,-11.94 6.76,-17.83 0.68,-1.66 0.74,-2.35 -1.32,-2.62 -2.92,-0.39 -3.98,-1.51 -4.08,-3.59 -0.09,-2.02 1.21,-3.69 3.2,-4.02 1.06,-0.17 2.17,-0.42 3.2,-0.26 2.89,0.43 4.07,-1.17 4.97,-3.55 0.88,-2.32 1.98,-4.56 3.13,-6.76 0.91,-1.74 2.56,-2.25 4.45,-2.13 1.68,0.1 2.79,0.96 3.22,2.56 0.18,0.67 0.19,1.47 0.01,2.14 -0.42,1.55 -0.95,3.08 -1.55,4.58 -1.01,2.53 -0.69,3.03 2.09,3.05 0.87,0.01 1.76,-0.03 2.61,0.14 2.52,0.48 3.46,1.57 3.37,3.72 -0.1,2.28 -1.39,3.68 -3.78,3.95 -1.3,0.08 -2.65,0.08 -4,0.14 z m 108.54,6.73 c 0,-0.4 0.15,-0.89 -0.03,-1.19 -0.71,-1.21 -1.29,-2.66 -2.34,-3.45 -1.21,-0.91 -2.59,-0.25 -3.81,0.74 -3.06,2.46 -4.32,5.98 -5.39,9.47 -0.78,2.52 -1,5.26 -1.09,7.91 -0.06,1.63 0.79,3.22 2.59,3.69 1.61,0.42 3.05,-0.1 4.1,-1.47 3.54,-4.65 5.88,-9.75 5.97,-15.7 z"
   id="path89" />
		<path
   d="m 649.54,87.25 c -6.51,-0.28 -12.88,-0.49 -19.25,-0.84 -2.45,-0.14 -4.92,-0.54 -5.76,-3.47 -0.88,-3.05 0.43,-5.4 3.59,-5.67 2.99,-0.26 6.02,0.1 9.04,0.12 8.73,0.06 17.47,0.3 26.19,0.06 5.6,-0.15 7.83,-2.76 5.28,-8.32 -0.98,-2.15 -2.67,-4 -4.13,-5.91 -2.76,-3.63 -5.7,-7.12 -8.35,-10.83 -4.6,-6.44 -4.32,-13.22 -1.12,-20.18 3.55,-7.71 10.06,-11.65 17.69,-14.17 4.23,-1.4 8.57,-2.27 13.07,-1.85 3.76,0.35 7,1.75 9.53,4.63 1.58,1.8 2.23,4.01 1.73,6.2 -0.87,3.77 -2.06,7.48 -3.34,11.14 -0.75,2.14 -1.9,4.15 -2.97,6.17 -0.94,1.76 -2.55,2.84 -4.48,2.37 -1.27,-0.31 -2.84,-1.29 -3.34,-2.39 -0.55,-1.23 -0.37,-3.04 0.06,-4.42 1.04,-3.32 2.42,-6.54 3.65,-9.81 1.79,-4.76 0.41,-6.71 -4.55,-5.81 -7.04,1.29 -13.03,4.59 -17.24,10.56 -3.08,4.36 -2.7,9.12 0.66,13.39 3.82,4.85 7.88,9.55 11.23,14.72 3.62,5.57 3.78,11.71 0.36,17.57 -2.22,3.8 -5.87,5.73 -10.16,6.03 -5.82,0.42 -11.67,0.5 -17.39,0.71 z"
   id="path91" />
		<path
   d="m 799.29,42.61 c -0.05,3.41 -2.38,5.86 -5.58,5.84 -2.8,-0.02 -4.68,-2.11 -4.62,-5.15 0.07,-3.4 2.28,-5.72 5.44,-5.7 2.95,0.02 4.81,1.97 4.76,5.01 z"
   id="path93" />
	</g>
</g>
<g
   id="Layer_5"
   transform="translate(-384.62557,-15.208896)">
	<g
   id="g112">
		<linearGradient
   id="SVGID_1_"
   gradientUnits="userSpaceOnUse"
   x1="500.0946"
   y1="108.3035"
   x2="500.0946"
   y2="25.1008">
			<stop
   offset="0.0298"
   style="stop-color:#3175A2"
   id="stop98" />
			<stop
   offset="1"
   style="stop-color:#00AEEF"
   id="stop100" />
		</linearGradient>
		<path
   class="st0"
   d="m 514.27,82.66 c -1.37,0.37 -2.3,0.49 -3.11,0.87 -5.13,2.39 -10.47,3.13 -16.08,2.32 -2.68,-0.39 -4.86,-1.55 -6.57,-3.54 -0.88,-1.03 -1.54,-1.08 -2.71,-0.44 -3.3,1.8 -6.6,3.6 -10.47,3.97 -2.77,0.27 -5.07,-0.44 -6.68,-2.77 -0.86,-1.26 -1.56,-1.32 -2.95,-0.57 -3.39,1.83 -6.71,3.93 -10.9,3.67 -4.81,-0.3 -7.66,-3.09 -7.84,-7.86 -0.16,-4.26 1.49,-8.01 2.97,-11.81 2.13,-5.51 4.31,-11 6.56,-16.46 0.45,-1.08 1.25,-2.06 2.05,-2.94 1.36,-1.49 3.02,-1.58 4.77,-0.67 1.83,0.96 2.49,2.55 1.88,4.4 -1.15,3.51 -2.48,6.95 -3.79,10.41 -1.5,3.95 -3.12,7.86 -4.51,11.85 -0.33,0.94 0.05,2.13 0.11,3.2 1.13,-0.1 2.36,0.05 3.37,-0.35 5.3,-2.13 7.85,-6.58 9.75,-11.65 1.92,-5.15 4.05,-10.23 6.14,-15.32 0.7,-1.71 1.89,-2.92 3.88,-3.08 3.31,-0.26 5.34,1.84 4.31,4.99 -1.62,4.97 -3.58,9.83 -5.44,14.73 -1.02,2.7 -2.21,5.34 -3.14,8.07 -0.25,0.74 -0.14,2.04 0.35,2.46 0.52,0.46 1.76,0.43 2.53,0.17 1.05,-0.36 2.05,-1.03 2.92,-1.75 5.46,-4.51 11.75,-8.01 16.46,-13.44 0.7,-0.81 1.47,-1.57 2.14,-2.41 0.94,-1.18 1.34,-2.38 -0.2,-3.44 -1.55,-1.06 -2.57,-0.81 -3.61,0.89 -1.68,2.74 -3.57,3.62 -5.74,2.67 -1.34,-0.59 -2.33,-1.54 -2.13,-3.08 0.26,-2.03 0.58,-4.08 1.16,-6.03 0.69,-2.31 1.69,-4.53 2.54,-6.79 1.04,-2.77 2.63,-4.13 4.83,-4.13 3.07,0.01 4.79,1.91 4.19,4.96 -0.39,2.01 -0.24,3.24 2.2,3.29 0.9,0.02 1.82,0.44 2.68,0.8 6.07,2.51 6.43,9.1 3.16,13.5 -2.71,3.64 -6.08,6.79 -9.14,10.17 -0.85,0.94 -1.85,1.82 -2.44,2.91 -1.13,2.08 0.11,4.06 2.42,3.59 2.79,-0.57 5.6,-1.45 8.17,-2.69 3.62,-1.74 7.05,-3.89 10.52,-5.93 0.59,-0.35 1.15,-0.97 1.42,-1.6 1.54,-3.58 3.01,-7.19 4.45,-10.8 0.48,-1.19 -0.09,-1.79 -1.31,-1.83 -1.14,-0.04 -2.29,-0.01 -3.43,-0.11 -2.2,-0.18 -3.62,-1.67 -3.68,-3.78 -0.07,-2.24 1.1,-3.85 3.3,-4.07 2.19,-0.22 4.42,-0.22 6.63,-0.11 1.78,0.09 2.86,-0.38 3.51,-2.19 1.96,-5.5 4.02,-10.97 6.18,-16.39 1.13,-2.83 2.71,-3.64 5.5,-3.35 2.53,0.26 4.07,2.24 3.34,4.69 -0.79,2.63 -1.89,5.17 -2.86,7.74 -0.92,2.44 -1.83,4.89 -2.81,7.31 -0.69,1.69 -0.05,2.2 1.59,2.11 2.88,-0.15 5.77,-0.38 8.65,-0.34 1.7,0.03 3.39,0.53 3.79,2.63 0.39,2.03 -0.56,3.96 -2.41,4.88 -0.42,0.21 -0.88,0.39 -1.33,0.43 -2.4,0.25 -4.8,0.48 -7.2,0.65 -3.21,0.22 -3.33,0.53 -2.03,3.41 2.46,5.5 3.41,11.34 3,17.32 -0.61,9.05 -3.77,17.19 -9.77,24.03 -3.68,4.2 -8.09,7.47 -13.92,8.19 -5.92,0.73 -10.18,-2.98 -10.34,-8.93 -0.13,-4.92 2.19,-9.08 3.84,-13.45 0.36,-0.91 0.73,-1.8 1.28,-3.18 z m 18.08,-19.21 c -0.18,0.03 -0.36,0.06 -0.53,0.09 -0.6,1.25 -1.26,2.48 -1.78,3.77 -3.09,7.63 -6.15,15.28 -9.22,22.92 -0.87,2.18 -1.81,4.33 -2.52,6.56 -0.2,0.62 0.07,1.73 0.54,2.13 0.43,0.37 1.54,0.34 2.13,0.04 1.18,-0.59 2.46,-1.28 3.24,-2.28 2.27,-2.96 4.69,-5.9 6.37,-9.2 3.26,-6.4 4.75,-13.24 3.16,-20.45 -0.27,-1.23 -0.92,-2.39 -1.39,-3.58 z"
   id="path103"
   style="fill:url(#SVGID_1_)" />
		<linearGradient
   id="SVGID_2_"
   gradientUnits="userSpaceOnUse"
   x1="420.98331"
   y1="86.328697"
   x2="420.98331"
   y2="15.3288">
			<stop
   offset="0.0298"
   style="stop-color:#3175A2"
   id="stop105" />
			<stop
   offset="1"
   style="stop-color:#00AEEF"
   id="stop107" />
		</linearGradient>
		<path
   class="st1"
   d="m 407.39,76.96 c 5.5,0 11.01,0.04 16.51,-0.02 2.61,-0.03 5.25,-0.36 6.55,-3.05 1.32,-2.75 -0.05,-5.23 -1.62,-7.28 -2.84,-3.73 -5.87,-7.35 -9.08,-10.77 -8.01,-8.56 -8.33,-18.18 -2.56,-27.45 1.86,-2.99 5.11,-5.29 8.09,-7.39 5.74,-4.04 12.17,-6.19 19.33,-5.55 3.26,0.29 6.35,1 9.02,3.04 2.64,2.01 4.19,4.76 3.33,7.89 -1.56,5.67 -3.52,11.24 -5.64,16.73 -0.95,2.45 -3.45,2.95 -6.02,1.84 -1.9,-0.83 -2.97,-3.4 -2.22,-5.7 1.12,-3.44 2.36,-6.85 3.52,-10.27 0.22,-0.63 0.38,-1.28 0.52,-1.94 0.5,-2.28 -0.52,-3.58 -2.88,-3.73 -3.3,-0.21 -6.16,1.21 -9.02,2.52 -3,1.37 -5.68,3.18 -7.99,5.63 -5.24,5.55 -5.37,11.47 -0.21,17.14 2.98,3.28 6.1,6.47 8.82,9.95 3.09,3.95 5.51,8.3 5.02,13.65 -0.78,8.5 -6.08,13.58 -15.06,13.91 -7.64,0.28 -15.3,0.23 -22.96,0.19 -4.63,-0.02 -9.25,-0.25 -13.88,-0.45 -2.39,-0.1 -3.89,-1.48 -4.14,-3.62 -0.33,-2.85 0.49,-4.4 3.07,-5.07 1.46,-0.38 3.05,-0.35 4.58,-0.36 4.97,-0.04 9.94,-0.02 14.9,-0.02 0.02,0.06 0.02,0.12 0.02,0.18 z"
   id="path110"
   style="fill:url(#SVGID_2_)" />
	</g>
	<g
   id="g142">
		<linearGradient
   id="SVGID_3_"
   gradientUnits="userSpaceOnUse"
   x1="847.89508"
   y1="89.819099"
   x2="847.89508"
   y2="49.6334">
			<stop
   offset="0.0298"
   style="stop-color:#3175A2"
   id="stop114" />
			<stop
   offset="1"
   style="stop-color:#00AEEF"
   id="stop116" />
		</linearGradient>
		<path
   class="st2"
   d="m 872.45,76.08 c -4.04,6.97 -10.09,11.39 -17.78,13.39 -7.02,1.82 -12.3,-3.65 -10.24,-10.63 1.3,-4.41 3.3,-8.62 4.99,-12.92 0.59,-1.5 1.31,-2.95 1.8,-4.48 0.55,-1.7 -0.47,-2.91 -2.03,-2.24 -3.65,1.56 -7.22,3.43 -8.97,7.31 -2.87,6.36 -5.59,12.79 -8.43,19.16 -0.43,0.96 -1.05,1.88 -1.75,2.67 -1.17,1.32 -2.92,1.51 -4.26,0.81 -1.07,-0.56 -2.04,-1.95 -2.34,-3.15 -0.3,-1.18 0.06,-2.69 0.55,-3.88 3.91,-9.28 7.88,-18.54 11.92,-27.76 0.96,-2.18 1.92,-4.53 4.98,-4.61 1.57,-0.04 2.84,0.43 3.58,1.77 0.72,1.32 1.45,1.17 2.61,0.58 1.77,-0.91 3.6,-1.96 5.51,-2.29 5.76,-1.02 9.56,2.6 8.62,8.82 -0.46,3.07 -1.81,6.03 -2.96,8.95 -1.33,3.37 -2.95,6.62 -4.3,9.99 -0.3,0.75 -0.28,2.28 0.14,2.52 0.68,0.4 2.06,0.4 2.7,-0.05 3.01,-2.12 5.85,-4.5 8.81,-6.7 3.01,-2.23 5.07,-1.73 6.85,1.54 0,0.39 0,0.8 0,1.2 z"
   id="path119"
   style="fill:url(#SVGID_3_)" />
		<linearGradient
   id="SVGID_4_"
   gradientUnits="userSpaceOnUse"
   x1="754.10388"
   y1="89.314796"
   x2="754.10388"
   y2="35.811798">
			<stop
   offset="0.0298"
   style="stop-color:#3175A2"
   id="stop121" />
			<stop
   offset="1"
   style="stop-color:#00AEEF"
   id="stop123" />
		</linearGradient>
		<path
   class="st3"
   d="m 706.69,56.16 c -5.01,-0.03 -5.02,-0.03 -6.93,4.63 -1.93,4.72 -3.88,9.43 -5.72,14.19 -0.28,0.72 -0.31,2.14 0.07,2.38 0.74,0.45 2.05,0.69 2.77,0.32 3.16,-1.62 6.19,-3.48 9.27,-5.26 1.21,-0.7 2.48,-1.35 3.59,-2.19 0.76,-0.58 1.52,-1.36 1.89,-2.22 3.44,-8.02 9.35,-13.57 17.22,-16.97 4.42,-1.91 8.99,-3.57 13.98,-3.39 2.97,0.11 4.84,1.23 4.99,3.31 0.17,2.31 -1.61,4.19 -4.4,4.61 -9.33,1.4 -17.15,5.36 -22.35,13.5 -1.08,1.7 -1.76,3.82 -2.01,5.82 -0.14,1.15 0.65,2.75 1.54,3.61 1.12,1.09 2.66,0.6 3.86,-0.38 2.7,-2.22 5.22,-4.47 6.38,-8.05 0.98,-3.04 2.61,-5.89 4.12,-8.73 1.15,-2.15 3.65,-2.9 5.92,-2.04 1.99,0.76 2.75,2.52 1.81,5.03 -1.21,3.27 -2.68,6.44 -3.97,9.69 -0.58,1.45 -1.86,3.14 -0.34,4.47 1.61,1.41 3.17,-0.14 4.51,-1.01 2.13,-1.4 4.18,-2.93 6.16,-4.54 0.75,-0.61 1.36,-1.51 1.76,-2.41 1.66,-3.75 3.18,-7.56 4.81,-11.32 0.54,-1.25 0.14,-1.76 -1.1,-1.88 -0.4,-0.04 -0.8,-0.12 -1.19,-0.19 -2.21,-0.38 -3.38,-1.51 -3.42,-3.3 -0.05,-2.02 1.51,-4.11 3.43,-4.4 1.46,-0.22 2.95,-0.35 4.41,-0.3 1.69,0.06 2.58,-0.69 3.17,-2.19 0.94,-2.37 1.94,-4.73 3.07,-7.02 1.28,-2.59 2.98,-3.32 5.39,-2.58 2.06,0.63 3.27,2.38 2.8,4.48 -0.37,1.69 -1.01,3.34 -1.65,4.96 -0.89,2.25 -0.81,2.43 1.69,2.58 0.8,0.05 1.61,0.07 2.41,0.15 2.59,0.26 4.03,1.56 4.01,3.63 -0.01,2.37 -1.49,4.07 -3.96,4.26 -2.07,0.16 -4.17,0.2 -6.24,0.06 -1.75,-0.12 -2.71,0.46 -3.37,2.11 -2.18,5.42 -4.52,10.77 -6.7,16.19 -0.33,0.82 -0.08,1.87 -0.09,2.81 1.16,0.01 2.46,0.38 3.44,-0.04 2.15,-0.92 4.13,-2.22 6.18,-3.38 2.09,-1.19 4.24,-2.3 6.24,-3.63 0.83,-0.55 1.56,-1.48 1.97,-2.4 2.46,-5.52 4.8,-11.1 7.23,-16.63 0.4,-0.9 1,-1.75 1.65,-2.5 1.15,-1.32 2.67,-1.49 4.23,-0.89 1.55,0.6 2.9,1.73 2.56,3.44 -0.5,2.53 -1.34,5.02 -2.32,7.42 -2.07,5.1 -4.41,10.09 -6.43,15.21 -0.46,1.17 -0.09,2.67 -0.11,4.02 1.2,-0.23 2.57,-0.17 3.57,-0.75 1.95,-1.15 3.91,-2.45 5.44,-4.08 0.96,-1.02 1.42,-2.71 1.67,-4.18 1.24,-7.38 4.33,-13.64 10.47,-18.16 3.78,-2.79 8.11,-3.33 12.47,-2.23 4.53,1.14 6.8,4.69 7.46,9.1 1.39,9.32 -1.05,17.65 -7.44,24.58 -3.66,3.97 -8.11,6.64 -13.93,5.66 -2.87,-0.48 -5.21,-1.84 -6.78,-4.27 -0.9,-1.4 -1.65,-1.37 -2.91,-0.46 -3.35,2.42 -7.02,4.2 -11.16,4.76 -3.51,0.48 -7,-1.41 -8.37,-4.64 -0.55,-1.29 -1.23,-1.43 -2.33,-0.94 -2.64,1.17 -5.26,2.37 -7.91,3.52 -2.79,1.21 -5.77,1.71 -8.67,0.95 -1.84,-0.48 -3.75,-1.55 -5.09,-2.9 -1.11,-1.11 -1.75,-1.08 -2.84,-0.38 -3.28,2.1 -6.76,3.46 -10.79,3.33 -2.18,-0.07 -3.85,-0.78 -4.9,-2.57 -0.89,-1.52 -1.79,-1.34 -2.89,-0.45 -3.16,2.58 -6.73,3.05 -10.63,2.34 -2.98,-0.54 -4.91,-2.25 -6.22,-4.87 -1.02,-2.05 -1.42,-2.24 -3.35,-0.99 -3.9,2.53 -7.89,4.91 -12.47,5.89 -1.91,0.41 -4.14,0.57 -5.94,-0.02 -5.49,-1.8 -6.44,-5.19 -4.97,-10.8 1.6,-6.12 4.36,-11.94 6.76,-17.83 0.68,-1.66 0.74,-2.35 -1.32,-2.62 -2.92,-0.39 -3.98,-1.51 -4.08,-3.59 -0.09,-2.02 1.21,-3.69 3.2,-4.02 1.06,-0.17 2.17,-0.42 3.2,-0.26 2.89,0.43 4.07,-1.17 4.97,-3.55 0.88,-2.32 1.98,-4.56 3.13,-6.76 0.91,-1.74 2.56,-2.25 4.45,-2.13 1.68,0.1 2.79,0.96 3.22,2.56 0.18,0.67 0.19,1.47 0.01,2.14 -0.42,1.55 -0.95,3.08 -1.55,4.58 -1.01,2.53 -0.69,3.03 2.09,3.05 0.87,0.01 1.76,-0.03 2.61,0.14 2.52,0.48 3.46,1.57 3.37,3.72 -0.1,2.28 -1.39,3.68 -3.78,3.95 -1.3,0.09 -2.65,0.08 -4,0.14 z m 108.54,6.73 c 0,-0.4 0.15,-0.89 -0.03,-1.19 -0.71,-1.21 -1.29,-2.66 -2.34,-3.45 -1.21,-0.91 -2.59,-0.25 -3.81,0.74 -3.06,2.46 -4.32,5.98 -5.39,9.47 -0.78,2.52 -1,5.26 -1.09,7.91 -0.06,1.63 0.79,3.22 2.59,3.69 1.61,0.42 3.05,-0.1 4.1,-1.47 3.54,-4.64 5.88,-9.74 5.97,-15.7 z"
   id="path126"
   style="fill:url(#SVGID_4_)" />
		<linearGradient
   id="SVGID_5_"
   gradientUnits="userSpaceOnUse"
   x1="658.82562"
   y1="86.496101"
   x2="658.82562"
   y2="15.3288">
			<stop
   offset="0.0298"
   style="stop-color:#3175A2"
   id="stop128" />
			<stop
   offset="1"
   style="stop-color:#00AEEF"
   id="stop130" />
		</linearGradient>
		<path
   class="st4"
   d="m 647.63,86.5 c -6.51,-0.28 -12.88,-0.49 -19.25,-0.84 -2.45,-0.14 -4.92,-0.54 -5.76,-3.47 -0.88,-3.05 0.43,-5.4 3.59,-5.67 2.99,-0.26 6.02,0.1 9.04,0.12 8.73,0.06 17.47,0.3 26.19,0.06 5.6,-0.15 7.83,-2.76 5.28,-8.32 -0.98,-2.15 -2.67,-4 -4.13,-5.91 -2.76,-3.63 -5.7,-7.12 -8.35,-10.83 -4.6,-6.44 -4.32,-13.22 -1.12,-20.18 3.55,-7.71 10.06,-11.65 17.68,-14.17 4.23,-1.4 8.57,-2.27 13.07,-1.85 3.76,0.35 7,1.75 9.53,4.63 1.58,1.8 2.23,4.01 1.73,6.2 -0.87,3.77 -2.06,7.48 -3.34,11.14 -0.75,2.14 -1.9,4.15 -2.97,6.17 -0.94,1.76 -2.55,2.84 -4.48,2.37 -1.27,-0.31 -2.84,-1.29 -3.34,-2.39 -0.55,-1.23 -0.37,-3.04 0.06,-4.42 1.04,-3.32 2.42,-6.54 3.65,-9.81 1.79,-4.76 0.41,-6.71 -4.55,-5.81 -7.04,1.29 -13.03,4.59 -17.24,10.56 -3.08,4.36 -2.7,9.12 0.66,13.39 3.82,4.85 7.88,9.55 11.23,14.72 3.62,5.57 3.78,11.71 0.36,17.57 -2.22,3.8 -5.87,5.73 -10.16,6.03 -5.81,0.41 -11.66,0.49 -17.38,0.71 z"
   id="path133"
   style="fill:url(#SVGID_5_)" />
		<linearGradient
   id="SVGID_6_"
   gradientUnits="userSpaceOnUse"
   x1="792.28387"
   y1="47.688499"
   x2="792.28387"
   y2="36.837299">
			<stop
   offset="0.0298"
   style="stop-color:#3175A2"
   id="stop135" />
			<stop
   offset="1"
   style="stop-color:#00AEEF"
   id="stop137" />
		</linearGradient>
		<path
   class="st5"
   d="m 797.38,41.85 c -0.05,3.41 -2.38,5.86 -5.58,5.84 -2.8,-0.02 -4.68,-2.11 -4.62,-5.15 0.07,-3.4 2.28,-5.72 5.44,-5.7 2.95,0.02 4.81,1.98 4.76,5.01 z"
   id="path140"
   style="fill:url(#SVGID_6_)" />
	</g>
</g>
<g
   id="Layer_3"
   transform="translate(-384.62557,-15.208896)">
	<path
   d="m 558.6,91.34 c 1.16,-0.18 2.33,-0.33 3.48,-0.56 2.87,-0.57 5.67,-1.35 8.35,-2.54 1.74,-0.77 3.36,-1.73 4.72,-3.07 2.23,-2.2 2.6,-4.8 1.46,-7.67 -0.41,-1.03 -1.09,-1.89 -1.74,-2.77 -2.61,-3.5 -4.16,-7.4 -4.48,-11.77 -0.26,-3.49 0.2,-6.86 1.49,-10.12 1.02,-2.55 2.45,-4.87 4.19,-6.98 1.34,-1.63 2.73,-3.23 4.23,-4.71 3.38,-3.32 7.28,-5.9 11.62,-7.83 3.83,-1.71 7.82,-2.82 11.94,-3.5 3.67,-0.61 7.36,-0.81 11.07,-0.68 3.83,0.14 7.62,0.6 11.39,1.3 0.09,0.02 0.18,0.05 0.28,0.13 -0.48,0.09 -0.97,0.18 -1.45,0.27 -0.48,0.09 -0.97,0.19 -1.45,0.29 -4.04,0.85 -7.96,2 -11.45,4.31 -1.28,0.85 -2.38,1.9 -3.13,3.26 -1.21,2.2 -1.03,4.39 0.23,6.48 0.65,1.07 1.49,2.03 2.21,3.06 1.88,2.7 3.12,5.68 3.65,8.93 1.13,6.82 -0.53,12.92 -4.76,18.35 -1.5,1.93 -3.12,3.76 -4.88,5.46 -2.18,2.11 -4.63,3.85 -7.25,5.37 -2.75,1.61 -5.65,2.88 -8.68,3.85 -3.41,1.1 -6.91,1.8 -10.48,2.2 -3.05,0.34 -6.11,0.43 -9.17,0.28 -2.01,-0.1 -4.02,-0.33 -6.02,-0.55 -1.72,-0.19 -3.43,-0.44 -5.14,-0.67 -0.08,-0.01 -0.16,-0.04 -0.24,-0.05 0.01,-0.02 0.01,-0.04 0.01,-0.07 z m 41.01,-30.18 c -0.01,-3.76 -2.97,-6.68 -6.77,-6.68 -3.67,0.01 -6.68,3.03 -6.65,6.73 0.02,3.73 3.12,6.74 6.89,6.68 3.56,-0.06 6.54,-3.08 6.53,-6.73 z"
   id="path145" />
	<path
   class="st6"
   d="m 556.6,90.08 c 1.16,-0.18 2.33,-0.33 3.48,-0.56 2.87,-0.57 5.67,-1.35 8.35,-2.54 1.74,-0.77 3.36,-1.73 4.72,-3.07 2.23,-2.2 2.6,-4.8 1.46,-7.67 -0.41,-1.03 -1.09,-1.89 -1.74,-2.77 -2.61,-3.5 -4.16,-7.4 -4.48,-11.77 -0.26,-3.49 0.2,-6.86 1.49,-10.12 1.02,-2.55 2.45,-4.87 4.19,-6.98 1.34,-1.63 2.73,-3.23 4.23,-4.71 3.38,-3.32 7.28,-5.9 11.62,-7.83 3.83,-1.71 7.82,-2.82 11.94,-3.5 3.67,-0.61 7.36,-0.81 11.07,-0.68 3.83,0.14 7.62,0.6 11.39,1.3 0.09,0.02 0.18,0.05 0.28,0.13 -0.48,0.09 -0.97,0.18 -1.45,0.27 -0.48,0.09 -0.97,0.19 -1.45,0.29 -4.04,0.85 -7.96,2 -11.45,4.31 -1.28,0.85 -2.38,1.9 -3.13,3.26 -1.21,2.2 -1.03,4.39 0.23,6.48 0.65,1.07 1.49,2.03 2.21,3.06 1.88,2.7 3.12,5.68 3.65,8.93 1.13,6.82 -0.53,12.92 -4.76,18.35 -1.5,1.93 -3.12,3.76 -4.88,5.46 -2.18,2.11 -4.63,3.85 -7.25,5.37 -2.75,1.61 -5.65,2.88 -8.68,3.85 -3.41,1.1 -6.91,1.8 -10.48,2.2 -3.05,0.34 -6.11,0.43 -9.17,0.28 -2.01,-0.1 -4.02,-0.33 -6.02,-0.55 -1.72,-0.19 -3.43,-0.44 -5.14,-0.67 -0.08,-0.01 -0.16,-0.04 -0.24,-0.05 0.01,-0.02 0.01,-0.04 0.01,-0.07 z M 597.61,59.9 c -0.01,-3.76 -2.97,-6.68 -6.77,-6.68 -3.67,0.01 -6.68,3.03 -6.65,6.73 0.02,3.73 3.12,6.74 6.89,6.68 3.56,-0.06 6.54,-3.08 6.53,-6.73 z"
   id="path147" />
</g>
</svg>
