<?xml version="1.0" encoding="utf-8"?>
<!-- Generator: Adobe Illustrator 25.2.1, SVG Export Plug-In . SVG Version: 6.00 Build 0)  -->
<svg version="1.1" xmlns="http://www.w3.org/2000/svg" xmlns:xlink="http://www.w3.org/1999/xlink" x="0px" y="0px"
	 viewBox="0 0 1286 186" style="enable-background:new 0 0 1286 186;" xml:space="preserve">
<style type="text/css">
	.st0{fill:url(#SVGID_1_);stroke:#FFFFFF;stroke-width:0.25;stroke-miterlimit:10;}
	.st1{fill:url(#SVGID_2_);stroke:#FFFFFF;stroke-width:0.25;stroke-miterlimit:10;}
	.st2{fill:url(#SVGID_3_);stroke:#FFFFFF;stroke-width:0.25;stroke-miterlimit:10;}
	.st3{fill:url(#SVGID_4_);stroke:#FFFFFF;stroke-width:0.25;stroke-miterlimit:10;}
	.st4{fill:url(#SVGID_5_);stroke:#FFFFFF;stroke-width:0.25;stroke-miterlimit:10;}
	.st5{fill:url(#SVGID_6_);stroke:#FFFFFF;stroke-width:0.25;stroke-miterlimit:10;}
	.st6{fill:#FF0000;stroke:#FFFFFF;stroke-width:0.25;stroke-miterlimit:10;}
</style>
<g id="Layer_2">
	<g>
		<path d="M452.4,143.15l-6.63-27.76h5.74l4.18,19.07l5.07-19.07h6.67l4.87,19.39l4.26-19.39h5.64l-6.74,27.76h-5.95l-5.53-20.75
			l-5.51,20.75H452.4z"/>
		<path d="M485.07,143.15v-27.76h20.58v4.7h-14.98v6.15h13.94v4.68h-13.94v7.55h15.51v4.68H485.07z"/>
		<path d="M535.96,143.15h-6.1l-2.42-6.3h-11.1l-2.29,6.3h-5.95l10.81-27.76h5.93L535.96,143.15z M525.64,132.16l-3.82-10.3
			l-3.75,10.3H525.64z"/>
		<path d="M542.3,143.15v-23.06h-8.24v-4.7h22.06v4.7h-8.22v23.06H542.3z"/>
		<path d="M559.76,143.15v-27.76h5.6v10.93h10.98v-10.93h5.6v27.76h-5.6v-12.14h-10.98v12.14H559.76z"/>
		<path d="M587.75,143.15v-27.76h20.58v4.7h-14.98v6.15h13.94v4.68h-13.94v7.55h15.51v4.68H587.75z"/>
		<path d="M613.63,143.15v-27.76h11.8c2.97,0,5.12,0.25,6.47,0.75c1.34,0.5,2.42,1.39,3.23,2.66c0.81,1.28,1.21,2.73,1.21,4.37
			c0,2.08-0.61,3.8-1.84,5.16c-1.22,1.36-3.05,2.21-5.49,2.57c1.21,0.71,2.21,1.48,3,2.33c0.79,0.85,1.85,2.35,3.19,4.51l3.39,5.42
			h-6.7l-4.05-6.04c-1.44-2.16-2.42-3.52-2.95-4.08c-0.53-0.56-1.09-0.95-1.69-1.16s-1.53-0.31-2.82-0.31h-1.14v11.59H613.63z
			 M619.23,127.13h4.15c2.69,0,4.37-0.11,5.04-0.34c0.67-0.23,1.19-0.62,1.57-1.17c0.38-0.56,0.57-1.25,0.57-2.08
			c0-0.93-0.25-1.69-0.75-2.26c-0.5-0.57-1.2-0.94-2.11-1.09c-0.45-0.06-1.82-0.09-4.09-0.09h-4.37V127.13z"/>
		<path d="M650.97,134.11l5.45-0.53c0.33,1.83,0.99,3.17,2,4.03c1,0.86,2.36,1.29,4.06,1.29c1.8,0,3.17-0.38,4.08-1.15
			s1.37-1.66,1.37-2.68c0-0.66-0.19-1.21-0.58-1.67c-0.39-0.46-1.06-0.86-2.02-1.2c-0.66-0.23-2.15-0.63-4.49-1.21
			c-3-0.74-5.11-1.66-6.32-2.75c-1.7-1.53-2.56-3.39-2.56-5.58c0-1.41,0.4-2.74,1.2-3.97c0.8-1.23,1.96-2.17,3.46-2.81
			c1.51-0.64,3.33-0.96,5.46-0.96c3.48,0,6.11,0.76,7.87,2.29s2.69,3.57,2.77,6.12l-5.6,0.25c-0.24-1.43-0.75-2.45-1.54-3.08
			c-0.79-0.62-1.97-0.94-3.55-0.94c-1.63,0-2.9,0.33-3.82,1c-0.59,0.43-0.89,1-0.89,1.72c0,0.66,0.28,1.22,0.83,1.68
			c0.71,0.59,2.42,1.21,5.15,1.86c2.73,0.64,4.74,1.31,6.05,2c1.31,0.69,2.33,1.63,3.07,2.82c0.74,1.19,1.11,2.67,1.11,4.42
			c0,1.59-0.44,3.08-1.33,4.47c-0.88,1.39-2.13,2.42-3.75,3.1c-1.62,0.67-3.63,1.01-6.04,1.01c-3.51,0-6.2-0.81-8.08-2.43
			S651.33,137.22,650.97,134.11z"/>
		<path d="M684.5,143.15v-23.06h-8.24v-4.7h22.06v4.7h-8.22v23.06H684.5z"/>
		<path d="M724.09,143.15h-6.1l-2.42-6.3h-11.1l-2.29,6.3h-5.95l10.81-27.76h5.93L724.09,143.15z M713.77,132.16l-3.83-10.3
			l-3.75,10.3H713.77z"/>
		<path d="M730.43,143.15v-23.06h-8.24v-4.7h22.06v4.7h-8.22v23.06H730.43z"/>
		<path d="M747.7,143.15v-27.76h5.6v27.76H747.7z"/>
		<path d="M757.51,129.44c0-2.83,0.42-5.2,1.27-7.12c0.63-1.41,1.49-2.68,2.58-3.81c1.09-1.12,2.29-1.96,3.59-2.5
			c1.73-0.73,3.72-1.1,5.98-1.1c4.09,0,7.36,1.27,9.82,3.81s3.68,6.07,3.68,10.58c0,4.48-1.22,7.99-3.65,10.52
			c-2.44,2.53-5.69,3.8-9.77,3.8c-4.13,0-7.41-1.26-9.85-3.78C758.73,137.32,757.51,133.86,757.51,129.44z M763.28,129.25
			c0,3.14,0.73,5.53,2.18,7.15c1.45,1.62,3.29,2.43,5.53,2.43s4.07-0.8,5.5-2.41s2.15-4.02,2.15-7.24c0-3.18-0.7-5.55-2.09-7.12
			c-1.4-1.57-3.25-2.35-5.56-2.35c-2.31,0-4.17,0.79-5.58,2.38C763.99,123.67,763.28,126.05,763.28,129.25z"/>
		<path d="M788.87,143.15v-27.76h5.45l11.36,18.54v-18.54h5.21v27.76h-5.62l-11.19-18.1v18.1H788.87z"/>
	</g>
	<g>
		<path d="M498.74,164.78v-1.24h3.78v1.24H498.74z"/>
		<path d="M513.08,164.56l1.25-0.11c0.06,0.5,0.2,0.91,0.41,1.23c0.22,0.32,0.55,0.58,1.01,0.78c0.46,0.2,0.97,0.3,1.54,0.3
			c0.51,0,0.95-0.08,1.34-0.23c0.39-0.15,0.68-0.36,0.86-0.62c0.19-0.26,0.28-0.55,0.28-0.86c0-0.31-0.09-0.59-0.27-0.82
			c-0.18-0.23-0.48-0.43-0.9-0.59c-0.27-0.1-0.86-0.27-1.78-0.49c-0.92-0.22-1.57-0.43-1.93-0.62c-0.48-0.25-0.83-0.56-1.07-0.93
			c-0.23-0.37-0.35-0.79-0.35-1.25c0-0.51,0.14-0.98,0.43-1.42c0.29-0.44,0.71-0.77,1.26-1c0.55-0.23,1.16-0.34,1.84-0.34
			c0.74,0,1.4,0.12,1.96,0.36c0.57,0.24,1,0.59,1.31,1.06c0.3,0.46,0.47,0.99,0.49,1.58l-1.27,0.1c-0.07-0.63-0.3-1.11-0.69-1.44
			c-0.39-0.32-0.98-0.49-1.75-0.49c-0.8,0-1.39,0.15-1.75,0.44c-0.37,0.29-0.55,0.65-0.55,1.06c0,0.36,0.13,0.66,0.39,0.89
			c0.25,0.23,0.92,0.47,2,0.71c1.08,0.24,1.82,0.46,2.22,0.64c0.58,0.27,1.01,0.61,1.29,1.02c0.28,0.41,0.42,0.89,0.42,1.43
			c0,0.53-0.15,1.04-0.46,1.51c-0.31,0.47-0.74,0.84-1.32,1.1c-0.57,0.26-1.22,0.39-1.93,0.39c-0.91,0-1.67-0.13-2.28-0.4
			c-0.61-0.26-1.09-0.66-1.44-1.19C513.28,165.83,513.09,165.23,513.08,164.56z"/>
		<path d="M528.21,167.78v-8.84h-3.3v-1.18h7.94v1.18h-3.32v8.84H528.21z"/>
		<path d="M535.66,167.78v-1.4h1.4v1.4H535.66z"/>
		<path d="M546.97,167.78l3.85-10.02h1.43l4.1,10.02h-1.51l-1.17-3.04h-4.19l-1.1,3.04H546.97z M549.86,163.67h3.4l-1.05-2.78
			c-0.32-0.84-0.56-1.54-0.71-2.08c-0.13,0.64-0.31,1.28-0.54,1.91L549.86,163.67z"/>
		<path d="M566.79,157.76h1.33v5.79c0,1.01-0.11,1.81-0.34,2.4c-0.23,0.59-0.64,1.07-1.23,1.45c-0.59,0.37-1.38,0.56-2.34,0.56
			c-0.94,0-1.71-0.16-2.3-0.49c-0.6-0.32-1.02-0.79-1.28-1.4c-0.26-0.61-0.38-1.45-0.38-2.51v-5.79h1.33v5.78
			c0,0.87,0.08,1.51,0.24,1.92c0.16,0.41,0.44,0.73,0.83,0.95c0.39,0.22,0.88,0.33,1.45,0.33c0.97,0,1.67-0.22,2.08-0.66
			c0.41-0.44,0.62-1.29,0.62-2.55V157.76z"/>
		<path d="M577.81,163.85v-1.18l4.25-0.01v3.72c-0.65,0.52-1.32,0.91-2.02,1.17c-0.69,0.26-1.4,0.39-2.13,0.39
			c-0.98,0-1.88-0.21-2.68-0.63c-0.8-0.42-1.41-1.03-1.82-1.83s-0.62-1.69-0.62-2.67c0-0.98,0.2-1.89,0.61-2.73
			c0.41-0.85,1-1.47,1.76-1.88s1.65-0.62,2.65-0.62c0.72,0,1.38,0.12,1.96,0.35c0.59,0.23,1.04,0.56,1.38,0.98
			c0.33,0.42,0.58,0.97,0.76,1.64l-1.2,0.33c-0.15-0.51-0.34-0.91-0.56-1.2c-0.22-0.29-0.54-0.53-0.96-0.7
			c-0.42-0.17-0.88-0.26-1.38-0.26c-0.61,0-1.13,0.09-1.57,0.28c-0.44,0.19-0.8,0.43-1.07,0.73c-0.27,0.3-0.48,0.63-0.63,0.99
			c-0.26,0.62-0.38,1.29-0.38,2.02c0,0.89,0.15,1.64,0.46,2.24s0.76,1.05,1.34,1.34s1.21,0.44,1.87,0.44c0.57,0,1.13-0.11,1.68-0.33
			c0.55-0.22,0.96-0.46,1.24-0.71v-1.87H577.81z"/>
		<path d="M593.38,157.76h1.33v5.79c0,1.01-0.11,1.81-0.34,2.4c-0.23,0.59-0.64,1.07-1.23,1.45c-0.59,0.37-1.38,0.56-2.34,0.56
			c-0.94,0-1.71-0.16-2.3-0.49c-0.6-0.32-1.02-0.79-1.28-1.4c-0.25-0.61-0.38-1.45-0.38-2.51v-5.79h1.33v5.78
			c0,0.87,0.08,1.51,0.24,1.92c0.16,0.41,0.44,0.73,0.83,0.95c0.39,0.22,0.88,0.33,1.45,0.33c0.98,0,1.67-0.22,2.08-0.66
			c0.42-0.44,0.62-1.29,0.62-2.55V157.76z"/>
		<path d="M599.27,164.56l1.25-0.11c0.06,0.5,0.2,0.91,0.41,1.23c0.22,0.32,0.55,0.58,1.01,0.78c0.46,0.2,0.97,0.3,1.54,0.3
			c0.51,0,0.95-0.08,1.34-0.23c0.39-0.15,0.68-0.36,0.87-0.62c0.19-0.26,0.28-0.55,0.28-0.86c0-0.31-0.09-0.59-0.27-0.82
			c-0.18-0.23-0.48-0.43-0.9-0.59c-0.27-0.1-0.86-0.27-1.78-0.49c-0.92-0.22-1.57-0.43-1.93-0.62c-0.48-0.25-0.83-0.56-1.07-0.93
			c-0.24-0.37-0.35-0.79-0.35-1.25c0-0.51,0.14-0.98,0.43-1.42c0.29-0.44,0.71-0.77,1.26-1c0.55-0.23,1.17-0.34,1.84-0.34
			c0.74,0,1.4,0.12,1.97,0.36c0.57,0.24,1,0.59,1.31,1.06c0.31,0.46,0.47,0.99,0.49,1.58l-1.27,0.1c-0.07-0.63-0.3-1.11-0.69-1.44
			c-0.39-0.32-0.98-0.49-1.75-0.49c-0.8,0-1.39,0.15-1.75,0.44c-0.37,0.29-0.55,0.65-0.55,1.06c0,0.36,0.13,0.66,0.39,0.89
			c0.26,0.23,0.92,0.47,2,0.71c1.08,0.24,1.82,0.46,2.22,0.64c0.58,0.27,1.01,0.61,1.29,1.02c0.28,0.41,0.42,0.89,0.42,1.43
			c0,0.53-0.15,1.04-0.46,1.51c-0.3,0.47-0.74,0.84-1.32,1.1c-0.57,0.26-1.22,0.39-1.93,0.39c-0.91,0-1.67-0.13-2.28-0.4
			c-0.61-0.26-1.09-0.66-1.44-1.19C599.47,165.83,599.29,165.23,599.27,164.56z"/>
		<path d="M614.41,167.78v-8.84h-3.3v-1.18h7.94v1.18h-3.32v8.84H614.41z"/>
		<path d="M623.43,167.78v-10.02h1.33v10.02H623.43z"/>
		<path d="M629.88,167.78v-10.02h1.36l5.26,7.87v-7.87h1.27v10.02h-1.36l-5.26-7.88v7.88H629.88z"/>
		<path d="M642.84,167.78v-10.02h7.25v1.18h-5.92v3.07h5.54v1.18h-5.54v3.41h6.15v1.18H642.84z"/>
		<path d="M655.11,167.78v-1.4h1.4v1.4c0,0.51-0.09,0.93-0.27,1.25c-0.18,0.32-0.47,0.56-0.87,0.73l-0.34-0.53
			c0.26-0.11,0.45-0.28,0.57-0.5c0.12-0.22,0.19-0.54,0.21-0.95H655.11z"/>
		<path d="M668.39,167.78v-10.02h6.76v1.18h-5.43v3.1h4.7v1.18h-4.7v4.55H668.39z"/>
		<path d="M679.62,167.78v-10.02h1.33v8.84h4.94v1.18H679.62z"/>
		<path d="M689.86,162.9c0-1.66,0.45-2.97,1.34-3.91c0.89-0.94,2.05-1.41,3.46-1.41c0.93,0,1.76,0.22,2.5,0.66
			c0.74,0.44,1.31,1.06,1.7,1.85c0.39,0.79,0.58,1.69,0.58,2.69c0,1.02-0.21,1.93-0.62,2.73s-0.99,1.41-1.74,1.82
			c-0.75,0.41-1.56,0.62-2.43,0.62c-0.94,0-1.79-0.23-2.53-0.68c-0.74-0.46-1.31-1.08-1.69-1.87S689.86,163.78,689.86,162.9z
			 M691.23,162.92c0,1.21,0.33,2.16,0.97,2.85c0.65,0.69,1.46,1.04,2.44,1.04c1,0,1.82-0.35,2.46-1.05c0.64-0.7,0.97-1.7,0.97-2.99
			c0-0.82-0.14-1.53-0.41-2.14c-0.28-0.61-0.68-1.08-1.21-1.41c-0.53-0.34-1.13-0.5-1.79-0.5c-0.94,0-1.75,0.32-2.42,0.97
			C691.57,160.34,691.23,161.41,691.23,162.92z"/>
		<path d="M703.97,167.78v-10.02h4.44c0.89,0,1.57,0.09,2.04,0.27c0.46,0.18,0.84,0.5,1.11,0.95c0.28,0.46,0.42,0.96,0.42,1.51
			c0,0.71-0.23,1.31-0.69,1.8c-0.46,0.49-1.17,0.8-2.13,0.93c0.35,0.17,0.62,0.33,0.8,0.5c0.39,0.36,0.75,0.8,1.1,1.33l1.74,2.73
			h-1.67l-1.33-2.08c-0.39-0.6-0.71-1.06-0.96-1.38c-0.25-0.32-0.47-0.54-0.67-0.67s-0.4-0.22-0.61-0.27
			c-0.15-0.03-0.4-0.05-0.74-0.05h-1.54v4.45H703.97z M705.3,162.18h2.85c0.61,0,1.08-0.06,1.42-0.19c0.34-0.12,0.6-0.33,0.78-0.6
			c0.18-0.28,0.27-0.58,0.27-0.9c0-0.47-0.17-0.86-0.52-1.17c-0.34-0.31-0.89-0.46-1.63-0.46h-3.17V162.18z"/>
		<path d="M717.09,167.78v-10.02h1.33v10.02H717.09z"/>
		<path d="M723.55,167.78v-10.02h3.45c0.78,0,1.37,0.05,1.78,0.14c0.57,0.13,1.06,0.37,1.47,0.72c0.53,0.45,0.92,1.02,1.19,1.71
			c0.26,0.69,0.39,1.49,0.39,2.38c0,0.76-0.09,1.44-0.27,2.02s-0.41,1.07-0.68,1.46c-0.28,0.38-0.58,0.69-0.91,0.91
			c-0.33,0.22-0.73,0.39-1.2,0.5c-0.47,0.11-1,0.17-1.61,0.17H723.55z M724.88,166.6h2.14c0.66,0,1.18-0.06,1.55-0.18
			s0.68-0.3,0.9-0.52c0.31-0.31,0.56-0.74,0.73-1.27c0.18-0.53,0.26-1.17,0.26-1.93c0-1.05-0.17-1.85-0.52-2.42
			c-0.34-0.56-0.76-0.94-1.25-1.13c-0.36-0.14-0.93-0.21-1.72-0.21h-2.11V166.6z"/>
		<path d="M735.36,167.78l3.85-10.02h1.43l4.1,10.02h-1.51l-1.17-3.04h-4.19l-1.1,3.04H735.36z M738.25,163.67h3.4l-1.05-2.78
			c-0.32-0.84-0.56-1.54-0.71-2.08c-0.13,0.64-0.31,1.28-0.54,1.91L738.25,163.67z"/>
		<path d="M753.88,164.78v-1.24h3.78v1.24H753.88z"/>
	</g>
</g>
<g id="Layer_4">
	<g>
		<path d="M516.18,83.42c-1.37,0.37-2.3,0.49-3.11,0.87c-5.13,2.39-10.47,3.13-16.08,2.32c-2.68-0.39-4.86-1.55-6.57-3.54
			c-0.88-1.03-1.54-1.08-2.71-0.44c-3.3,1.8-6.6,3.6-10.47,3.97c-2.77,0.27-5.07-0.44-6.68-2.77c-0.86-1.26-1.56-1.32-2.95-0.57
			c-3.39,1.83-6.71,3.93-10.9,3.67c-4.81-0.3-7.66-3.09-7.84-7.86c-0.16-4.26,1.49-8.01,2.97-11.81c2.13-5.51,4.31-11,6.56-16.46
			c0.45-1.08,1.25-2.06,2.05-2.94c1.36-1.49,3.02-1.58,4.77-0.67c1.83,0.96,2.49,2.55,1.88,4.4c-1.15,3.51-2.48,6.95-3.79,10.41
			c-1.5,3.95-3.12,7.86-4.51,11.85c-0.33,0.94,0.05,2.13,0.11,3.2c1.13-0.1,2.36,0.05,3.37-0.35c5.3-2.13,7.85-6.58,9.75-11.65
			c1.92-5.15,4.05-10.23,6.14-15.32c0.7-1.71,1.89-2.92,3.88-3.08c3.31-0.26,5.34,1.84,4.31,4.99c-1.62,4.97-3.58,9.83-5.44,14.73
			c-1.02,2.7-2.21,5.34-3.14,8.07c-0.25,0.74-0.14,2.04,0.35,2.46c0.52,0.46,1.76,0.43,2.53,0.17c1.05-0.36,2.05-1.03,2.92-1.75
			c5.46-4.51,11.75-8.01,16.46-13.44c0.7-0.81,1.47-1.57,2.14-2.41c0.94-1.18,1.34-2.38-0.2-3.44c-1.55-1.06-2.57-0.81-3.61,0.89
			c-1.68,2.74-3.57,3.62-5.74,2.67c-1.34-0.59-2.33-1.54-2.13-3.08c0.26-2.03,0.58-4.08,1.16-6.03c0.69-2.31,1.69-4.53,2.54-6.79
			c1.04-2.77,2.63-4.13,4.83-4.13c3.07,0.01,4.79,1.91,4.19,4.96c-0.39,2.01-0.24,3.24,2.2,3.29c0.9,0.02,1.82,0.44,2.68,0.8
			c6.07,2.51,6.43,9.1,3.16,13.5c-2.71,3.64-6.08,6.79-9.14,10.17c-0.85,0.94-1.85,1.82-2.44,2.91c-1.13,2.08,0.11,4.06,2.42,3.59
			c2.79-0.57,5.6-1.45,8.17-2.69c3.62-1.74,7.05-3.89,10.52-5.93c0.59-0.35,1.15-0.97,1.42-1.6c1.54-3.58,3.01-7.19,4.45-10.8
			c0.48-1.19-0.09-1.79-1.31-1.83c-1.14-0.04-2.29-0.01-3.43-0.11c-2.2-0.18-3.62-1.67-3.68-3.78c-0.07-2.24,1.1-3.85,3.3-4.07
			c2.19-0.22,4.42-0.22,6.63-0.11c1.78,0.09,2.86-0.38,3.51-2.19c1.96-5.5,4.02-10.97,6.18-16.39c1.13-2.83,2.71-3.64,5.5-3.35
			c2.53,0.26,4.07,2.24,3.34,4.69c-0.79,2.63-1.89,5.17-2.86,7.74c-0.92,2.44-1.83,4.89-2.81,7.31c-0.69,1.69-0.05,2.2,1.59,2.11
			c2.88-0.15,5.77-0.38,8.65-0.34c1.7,0.03,3.39,0.53,3.79,2.63c0.39,2.03-0.56,3.96-2.41,4.88c-0.42,0.21-0.88,0.39-1.33,0.43
			c-2.4,0.25-4.8,0.48-7.2,0.65c-3.21,0.22-3.33,0.53-2.03,3.41c2.46,5.5,3.41,11.34,3,17.32c-0.61,9.05-3.77,17.19-9.77,24.03
			c-3.68,4.2-8.09,7.47-13.92,8.19c-5.92,0.73-10.18-2.98-10.34-8.93c-0.13-4.92,2.19-9.08,3.84-13.45
			C515.26,85.69,515.63,84.8,516.18,83.42z M534.26,64.21c-0.18,0.03-0.36,0.06-0.53,0.09c-0.6,1.25-1.26,2.48-1.78,3.77
			c-3.09,7.63-6.15,15.28-9.22,22.92c-0.87,2.18-1.81,4.33-2.52,6.56c-0.2,0.62,0.07,1.73,0.54,2.13c0.43,0.37,1.54,0.34,2.13,0.04
			c1.18-0.59,2.46-1.28,3.24-2.28c2.27-2.96,4.69-5.9,6.37-9.2c3.26-6.4,4.75-13.24,3.16-20.45
			C535.38,66.56,534.73,65.4,534.26,64.21z"/>
		<path d="M409.3,77.72c5.5,0,11.01,0.04,16.51-0.02c2.61-0.03,5.25-0.36,6.55-3.05c1.32-2.75-0.05-5.23-1.62-7.28
			c-2.84-3.73-5.87-7.35-9.08-10.77c-8.01-8.56-8.33-18.18-2.56-27.45c1.86-2.99,5.11-5.29,8.09-7.39
			c5.74-4.04,12.17-6.19,19.33-5.55c3.26,0.29,6.35,1,9.02,3.04c2.64,2.01,4.19,4.76,3.33,7.89c-1.56,5.67-3.52,11.24-5.64,16.73
			c-0.95,2.45-3.45,2.95-6.02,1.84c-1.9-0.83-2.97-3.4-2.22-5.7c1.12-3.44,2.36-6.85,3.52-10.27c0.22-0.63,0.38-1.28,0.52-1.94
			c0.5-2.28-0.52-3.58-2.88-3.73c-3.3-0.21-6.16,1.21-9.02,2.52c-3,1.37-5.68,3.18-7.99,5.63c-5.24,5.55-5.37,11.47-0.21,17.14
			c2.98,3.28,6.1,6.47,8.82,9.95c3.09,3.95,5.51,8.3,5.02,13.65c-0.78,8.5-6.08,13.58-15.06,13.91c-7.64,0.28-15.3,0.23-22.96,0.19
			c-4.63-0.02-9.25-0.25-13.88-0.45c-2.39-0.1-3.89-1.48-4.14-3.62c-0.33-2.85,0.49-4.4,3.07-5.07c1.46-0.38,3.05-0.35,4.58-0.36
			c4.97-0.04,9.94-0.02,14.9-0.02C409.3,77.6,409.3,77.66,409.3,77.72z"/>
	</g>
	<g>
		<path d="M874.36,76.84c-4.04,6.97-10.09,11.39-17.78,13.39c-7.02,1.82-12.3-3.65-10.24-10.63c1.3-4.41,3.3-8.62,4.99-12.92
			c0.59-1.5,1.31-2.95,1.8-4.48c0.55-1.7-0.47-2.91-2.03-2.24c-3.65,1.56-7.22,3.43-8.97,7.31c-2.87,6.36-5.59,12.79-8.43,19.16
			c-0.43,0.96-1.05,1.88-1.75,2.67c-1.17,1.32-2.92,1.51-4.26,0.81c-1.07-0.56-2.04-1.95-2.34-3.15c-0.3-1.18,0.06-2.69,0.55-3.88
			c3.91-9.28,7.88-18.54,11.92-27.76c0.96-2.18,1.92-4.53,4.98-4.61c1.57-0.04,2.84,0.43,3.58,1.77c0.72,1.32,1.45,1.17,2.61,0.58
			c1.77-0.91,3.6-1.96,5.51-2.29c5.76-1.02,9.56,2.6,8.62,8.82c-0.46,3.07-1.81,6.03-2.96,8.95c-1.33,3.37-2.95,6.62-4.3,9.99
			c-0.3,0.75-0.28,2.28,0.14,2.52c0.68,0.4,2.06,0.4,2.7-0.05c3.01-2.12,5.85-4.5,8.81-6.7c3.01-2.23,5.07-1.73,6.85,1.54
			C874.36,76.03,874.36,76.43,874.36,76.84z"/>
		<path d="M708.6,56.92c-5.01-0.03-5.02-0.03-6.93,4.63c-1.93,4.72-3.88,9.43-5.72,14.19c-0.28,0.72-0.31,2.14,0.07,2.38
			c0.74,0.45,2.05,0.69,2.77,0.32c3.16-1.62,6.19-3.48,9.27-5.26c1.21-0.7,2.48-1.35,3.59-2.19c0.76-0.58,1.52-1.36,1.89-2.22
			c3.44-8.02,9.35-13.57,17.22-16.97c4.42-1.91,8.99-3.57,13.98-3.39c2.97,0.11,4.84,1.23,4.99,3.31c0.17,2.31-1.61,4.19-4.4,4.61
			c-9.33,1.4-17.15,5.36-22.35,13.5c-1.08,1.7-1.76,3.82-2.01,5.82c-0.14,1.15,0.65,2.75,1.54,3.61c1.12,1.09,2.66,0.6,3.86-0.38
			c2.7-2.22,5.22-4.47,6.38-8.05c0.98-3.04,2.61-5.89,4.12-8.73c1.15-2.15,3.65-2.9,5.92-2.04c1.99,0.76,2.75,2.52,1.81,5.03
			c-1.21,3.27-2.68,6.44-3.97,9.69c-0.58,1.45-1.86,3.14-0.34,4.47c1.61,1.41,3.17-0.14,4.51-1.01c2.13-1.4,4.18-2.93,6.16-4.54
			c0.75-0.61,1.36-1.51,1.76-2.41c1.66-3.75,3.18-7.56,4.81-11.32c0.54-1.25,0.14-1.76-1.1-1.88c-0.4-0.04-0.8-0.12-1.19-0.19
			c-2.21-0.38-3.38-1.51-3.42-3.3c-0.05-2.02,1.51-4.11,3.43-4.4c1.46-0.22,2.95-0.35,4.41-0.3c1.69,0.06,2.58-0.69,3.17-2.19
			c0.94-2.37,1.94-4.73,3.07-7.02c1.28-2.59,2.98-3.32,5.39-2.58c2.06,0.63,3.27,2.38,2.8,4.48c-0.37,1.69-1.01,3.34-1.65,4.96
			c-0.89,2.25-0.81,2.43,1.69,2.58c0.8,0.05,1.61,0.07,2.41,0.15c2.59,0.26,4.03,1.56,4.01,3.63c-0.01,2.37-1.49,4.07-3.96,4.26
			c-2.07,0.16-4.17,0.2-6.24,0.06c-1.75-0.12-2.71,0.46-3.37,2.11c-2.18,5.42-4.52,10.77-6.7,16.19c-0.33,0.82-0.08,1.87-0.09,2.81
			c1.16,0.01,2.46,0.38,3.44-0.04c2.15-0.92,4.13-2.22,6.18-3.38c2.09-1.19,4.24-2.3,6.24-3.63c0.83-0.55,1.56-1.48,1.97-2.4
			c2.46-5.52,4.8-11.1,7.23-16.63c0.4-0.9,1-1.75,1.65-2.5c1.15-1.32,2.67-1.49,4.23-0.89c1.55,0.6,2.9,1.73,2.56,3.44
			c-0.5,2.53-1.34,5.02-2.32,7.42c-2.07,5.1-4.41,10.09-6.43,15.21c-0.46,1.17-0.09,2.67-0.11,4.02c1.2-0.23,2.57-0.17,3.57-0.75
			c1.95-1.15,3.91-2.45,5.44-4.08c0.96-1.02,1.42-2.71,1.67-4.18c1.24-7.38,4.33-13.64,10.47-18.16c3.78-2.79,8.11-3.33,12.47-2.23
			c4.53,1.14,6.8,4.69,7.46,9.1c1.39,9.32-1.05,17.65-7.44,24.58c-3.66,3.97-8.11,6.64-13.93,5.66c-2.87-0.48-5.21-1.84-6.78-4.27
			c-0.9-1.4-1.65-1.37-2.91-0.46c-3.35,2.42-7.02,4.2-11.16,4.76c-3.51,0.48-7-1.41-8.37-4.64c-0.55-1.29-1.23-1.43-2.33-0.94
			c-2.64,1.17-5.26,2.37-7.91,3.52c-2.79,1.21-5.77,1.71-8.67,0.95c-1.84-0.48-3.75-1.55-5.09-2.9c-1.11-1.11-1.75-1.08-2.84-0.38
			c-3.28,2.1-6.76,3.46-10.79,3.33c-2.18-0.07-3.85-0.78-4.9-2.57c-0.89-1.52-1.79-1.34-2.89-0.45c-3.16,2.58-6.73,3.05-10.63,2.34
			c-2.98-0.54-4.91-2.25-6.22-4.87c-1.02-2.05-1.42-2.24-3.35-0.99c-3.9,2.53-7.89,4.91-12.47,5.89c-1.91,0.41-4.14,0.57-5.94-0.02
			c-5.49-1.8-6.44-5.19-4.97-10.8c1.6-6.12,4.36-11.94,6.76-17.83c0.68-1.66,0.74-2.35-1.32-2.62c-2.92-0.39-3.98-1.51-4.08-3.59
			c-0.09-2.02,1.21-3.69,3.2-4.02c1.06-0.17,2.17-0.42,3.2-0.26c2.89,0.43,4.07-1.17,4.97-3.55c0.88-2.32,1.98-4.56,3.13-6.76
			c0.91-1.74,2.56-2.25,4.45-2.13c1.68,0.1,2.79,0.96,3.22,2.56c0.18,0.67,0.19,1.47,0.01,2.14c-0.42,1.55-0.95,3.08-1.55,4.58
			c-1.01,2.53-0.69,3.03,2.09,3.05c0.87,0.01,1.76-0.03,2.61,0.14c2.52,0.48,3.46,1.57,3.37,3.72c-0.1,2.28-1.39,3.68-3.78,3.95
			C711.3,56.86,709.95,56.86,708.6,56.92z M817.14,63.65c0-0.4,0.15-0.89-0.03-1.19c-0.71-1.21-1.29-2.66-2.34-3.45
			c-1.21-0.91-2.59-0.25-3.81,0.74c-3.06,2.46-4.32,5.98-5.39,9.47c-0.78,2.52-1,5.26-1.09,7.91c-0.06,1.63,0.79,3.22,2.59,3.69
			c1.61,0.42,3.05-0.1,4.1-1.47C814.71,74.7,817.05,69.6,817.14,63.65z"/>
		<path d="M649.54,87.25c-6.51-0.28-12.88-0.49-19.25-0.84c-2.45-0.14-4.92-0.54-5.76-3.47c-0.88-3.05,0.43-5.4,3.59-5.67
			c2.99-0.26,6.02,0.1,9.04,0.12c8.73,0.06,17.47,0.3,26.19,0.06c5.6-0.15,7.83-2.76,5.28-8.32c-0.98-2.15-2.67-4-4.13-5.91
			c-2.76-3.63-5.7-7.12-8.35-10.83c-4.6-6.44-4.32-13.22-1.12-20.18c3.55-7.71,10.06-11.65,17.69-14.17
			c4.23-1.4,8.57-2.27,13.07-1.85c3.76,0.35,7,1.75,9.53,4.63c1.58,1.8,2.23,4.01,1.73,6.2c-0.87,3.77-2.06,7.48-3.34,11.14
			c-0.75,2.14-1.9,4.15-2.97,6.17c-0.94,1.76-2.55,2.84-4.48,2.37c-1.27-0.31-2.84-1.29-3.34-2.39c-0.55-1.23-0.37-3.04,0.06-4.42
			c1.04-3.32,2.42-6.54,3.65-9.81c1.79-4.76,0.41-6.71-4.55-5.81c-7.04,1.29-13.03,4.59-17.24,10.56c-3.08,4.36-2.7,9.12,0.66,13.39
			c3.82,4.85,7.88,9.55,11.23,14.72c3.62,5.57,3.78,11.71,0.36,17.57c-2.22,3.8-5.87,5.73-10.16,6.03
			C661.11,86.96,655.26,87.04,649.54,87.25z"/>
		<path d="M799.29,42.61c-0.05,3.41-2.38,5.86-5.58,5.84c-2.8-0.02-4.68-2.11-4.62-5.15c0.07-3.4,2.28-5.72,5.44-5.7
			C797.48,37.62,799.34,39.57,799.29,42.61z"/>
	</g>
</g>
<g id="Layer_5">
	<g>
		<linearGradient id="SVGID_1_" gradientUnits="userSpaceOnUse" x1="500.0946" y1="108.3035" x2="500.0946" y2="25.1008">
			<stop  offset="0.0298" style="stop-color:#3175A2"/>
			<stop  offset="1" style="stop-color:#00AEEF"/>
		</linearGradient>
		<path class="st0" d="M514.27,82.66c-1.37,0.37-2.3,0.49-3.11,0.87c-5.13,2.39-10.47,3.13-16.08,2.32
			c-2.68-0.39-4.86-1.55-6.57-3.54c-0.88-1.03-1.54-1.08-2.71-0.44c-3.3,1.8-6.6,3.6-10.47,3.97c-2.77,0.27-5.07-0.44-6.68-2.77
			c-0.86-1.26-1.56-1.32-2.95-0.57c-3.39,1.83-6.71,3.93-10.9,3.67c-4.81-0.3-7.66-3.09-7.84-7.86c-0.16-4.26,1.49-8.01,2.97-11.81
			c2.13-5.51,4.31-11,6.56-16.46c0.45-1.08,1.25-2.06,2.05-2.94c1.36-1.49,3.02-1.58,4.77-0.67c1.83,0.96,2.49,2.55,1.88,4.4
			c-1.15,3.51-2.48,6.95-3.79,10.41c-1.5,3.95-3.12,7.86-4.51,11.85c-0.33,0.94,0.05,2.13,0.11,3.2c1.13-0.1,2.36,0.05,3.37-0.35
			c5.3-2.13,7.85-6.58,9.75-11.65c1.92-5.15,4.05-10.23,6.14-15.32c0.7-1.71,1.89-2.92,3.88-3.08c3.31-0.26,5.34,1.84,4.31,4.99
			c-1.62,4.97-3.58,9.83-5.44,14.73c-1.02,2.7-2.21,5.34-3.14,8.07c-0.25,0.74-0.14,2.04,0.35,2.46c0.52,0.46,1.76,0.43,2.53,0.17
			c1.05-0.36,2.05-1.03,2.92-1.75c5.46-4.51,11.75-8.01,16.46-13.44c0.7-0.81,1.47-1.57,2.14-2.41c0.94-1.18,1.34-2.38-0.2-3.44
			c-1.55-1.06-2.57-0.81-3.61,0.89c-1.68,2.74-3.57,3.62-5.74,2.67c-1.34-0.59-2.33-1.54-2.13-3.08c0.26-2.03,0.58-4.08,1.16-6.03
			c0.69-2.31,1.69-4.53,2.54-6.79c1.04-2.77,2.63-4.13,4.83-4.13c3.07,0.01,4.79,1.91,4.19,4.96c-0.39,2.01-0.24,3.24,2.2,3.29
			c0.9,0.02,1.82,0.44,2.68,0.8c6.07,2.51,6.43,9.1,3.16,13.5c-2.71,3.64-6.08,6.79-9.14,10.17c-0.85,0.94-1.85,1.82-2.44,2.91
			c-1.13,2.08,0.11,4.06,2.42,3.59c2.79-0.57,5.6-1.45,8.17-2.69c3.62-1.74,7.05-3.89,10.52-5.93c0.59-0.35,1.15-0.97,1.42-1.6
			c1.54-3.58,3.01-7.19,4.45-10.8c0.48-1.19-0.09-1.79-1.31-1.83c-1.14-0.04-2.29-0.01-3.43-0.11c-2.2-0.18-3.62-1.67-3.68-3.78
			c-0.07-2.24,1.1-3.85,3.3-4.07c2.19-0.22,4.42-0.22,6.63-0.11c1.78,0.09,2.86-0.38,3.51-2.19c1.96-5.5,4.02-10.97,6.18-16.39
			c1.13-2.83,2.71-3.64,5.5-3.35c2.53,0.26,4.07,2.24,3.34,4.69c-0.79,2.63-1.89,5.17-2.86,7.74c-0.92,2.44-1.83,4.89-2.81,7.31
			c-0.69,1.69-0.05,2.2,1.59,2.11c2.88-0.15,5.77-0.38,8.65-0.34c1.7,0.03,3.39,0.53,3.79,2.63c0.39,2.03-0.56,3.96-2.41,4.88
			c-0.42,0.21-0.88,0.39-1.33,0.43c-2.4,0.25-4.8,0.48-7.2,0.65c-3.21,0.22-3.33,0.53-2.03,3.41c2.46,5.5,3.41,11.34,3,17.32
			c-0.61,9.05-3.77,17.19-9.77,24.03c-3.68,4.2-8.09,7.47-13.92,8.19c-5.92,0.73-10.18-2.98-10.34-8.93
			c-0.13-4.92,2.19-9.08,3.84-13.45C513.35,84.93,513.72,84.04,514.27,82.66z M532.35,63.45c-0.18,0.03-0.36,0.06-0.53,0.09
			c-0.6,1.25-1.26,2.48-1.78,3.77c-3.09,7.63-6.15,15.28-9.22,22.92c-0.87,2.18-1.81,4.33-2.52,6.56c-0.2,0.62,0.07,1.73,0.54,2.13
			c0.43,0.37,1.54,0.34,2.13,0.04c1.18-0.59,2.46-1.28,3.24-2.28c2.27-2.96,4.69-5.9,6.37-9.2c3.26-6.4,4.75-13.24,3.16-20.45
			C533.47,65.8,532.82,64.64,532.35,63.45z"/>
		<linearGradient id="SVGID_2_" gradientUnits="userSpaceOnUse" x1="420.9833" y1="86.3287" x2="420.9833" y2="15.3288">
			<stop  offset="0.0298" style="stop-color:#3175A2"/>
			<stop  offset="1" style="stop-color:#00AEEF"/>
		</linearGradient>
		<path class="st1" d="M407.39,76.96c5.5,0,11.01,0.04,16.51-0.02c2.61-0.03,5.25-0.36,6.55-3.05c1.32-2.75-0.05-5.23-1.62-7.28
			c-2.84-3.73-5.87-7.35-9.08-10.77c-8.01-8.56-8.33-18.18-2.56-27.45c1.86-2.99,5.11-5.29,8.09-7.39
			c5.74-4.04,12.17-6.19,19.33-5.55c3.26,0.29,6.35,1,9.02,3.04c2.64,2.01,4.19,4.76,3.33,7.89c-1.56,5.67-3.52,11.24-5.64,16.73
			c-0.95,2.45-3.45,2.95-6.02,1.84c-1.9-0.83-2.97-3.4-2.22-5.7c1.12-3.44,2.36-6.85,3.52-10.27c0.22-0.63,0.38-1.28,0.52-1.94
			c0.5-2.28-0.52-3.58-2.88-3.73c-3.3-0.21-6.16,1.21-9.02,2.52c-3,1.37-5.68,3.18-7.99,5.63c-5.24,5.55-5.37,11.47-0.21,17.14
			c2.98,3.28,6.1,6.47,8.82,9.95c3.09,3.95,5.51,8.3,5.02,13.65c-0.78,8.5-6.08,13.58-15.06,13.91c-7.64,0.28-15.3,0.23-22.96,0.19
			c-4.63-0.02-9.25-0.25-13.88-0.45c-2.39-0.1-3.89-1.48-4.14-3.62c-0.33-2.85,0.49-4.4,3.07-5.07c1.46-0.38,3.05-0.35,4.58-0.36
			c4.97-0.04,9.94-0.02,14.9-0.02C407.39,76.84,407.39,76.9,407.39,76.96z"/>
	</g>
	<g>
		<linearGradient id="SVGID_3_" gradientUnits="userSpaceOnUse" x1="847.8951" y1="89.8191" x2="847.8951" y2="49.6334">
			<stop  offset="0.0298" style="stop-color:#3175A2"/>
			<stop  offset="1" style="stop-color:#00AEEF"/>
		</linearGradient>
		<path class="st2" d="M872.45,76.08c-4.04,6.97-10.09,11.39-17.78,13.39c-7.02,1.82-12.3-3.65-10.24-10.63
			c1.3-4.41,3.3-8.62,4.99-12.92c0.59-1.5,1.31-2.95,1.8-4.48c0.55-1.7-0.47-2.91-2.03-2.24c-3.65,1.56-7.22,3.43-8.97,7.31
			c-2.87,6.36-5.59,12.79-8.43,19.16c-0.43,0.96-1.05,1.88-1.75,2.67c-1.17,1.32-2.92,1.51-4.26,0.81
			c-1.07-0.56-2.04-1.95-2.34-3.15c-0.3-1.18,0.06-2.69,0.55-3.88c3.91-9.28,7.88-18.54,11.92-27.76c0.96-2.18,1.92-4.53,4.98-4.61
			c1.57-0.04,2.84,0.43,3.58,1.77c0.72,1.32,1.45,1.17,2.61,0.58c1.77-0.91,3.6-1.96,5.51-2.29c5.76-1.02,9.56,2.6,8.62,8.82
			c-0.46,3.07-1.81,6.03-2.96,8.95c-1.33,3.37-2.95,6.62-4.3,9.99c-0.3,0.75-0.28,2.28,0.14,2.52c0.68,0.4,2.06,0.4,2.7-0.05
			c3.01-2.12,5.85-4.5,8.81-6.7c3.01-2.23,5.07-1.73,6.85,1.54C872.45,75.27,872.45,75.68,872.45,76.08z"/>
		<linearGradient id="SVGID_4_" gradientUnits="userSpaceOnUse" x1="754.1039" y1="89.3148" x2="754.1039" y2="35.8118">
			<stop  offset="0.0298" style="stop-color:#3175A2"/>
			<stop  offset="1" style="stop-color:#00AEEF"/>
		</linearGradient>
		<path class="st3" d="M706.69,56.16c-5.01-0.03-5.02-0.03-6.93,4.63c-1.93,4.72-3.88,9.43-5.72,14.19
			c-0.28,0.72-0.31,2.14,0.07,2.38c0.74,0.45,2.05,0.69,2.77,0.32c3.16-1.62,6.19-3.48,9.27-5.26c1.21-0.7,2.48-1.35,3.59-2.19
			c0.76-0.58,1.52-1.36,1.89-2.22c3.44-8.02,9.35-13.57,17.22-16.97c4.42-1.91,8.99-3.57,13.98-3.39c2.97,0.11,4.84,1.23,4.99,3.31
			c0.17,2.31-1.61,4.19-4.4,4.61c-9.33,1.4-17.15,5.36-22.35,13.5c-1.08,1.7-1.76,3.82-2.01,5.82c-0.14,1.15,0.65,2.75,1.54,3.61
			c1.12,1.09,2.66,0.6,3.86-0.38c2.7-2.22,5.22-4.47,6.38-8.05c0.98-3.04,2.61-5.89,4.12-8.73c1.15-2.15,3.65-2.9,5.92-2.04
			c1.99,0.76,2.75,2.52,1.81,5.03c-1.21,3.27-2.68,6.44-3.97,9.69c-0.58,1.45-1.86,3.14-0.34,4.47c1.61,1.41,3.17-0.14,4.51-1.01
			c2.13-1.4,4.18-2.93,6.16-4.54c0.75-0.61,1.36-1.51,1.76-2.41c1.66-3.75,3.18-7.56,4.81-11.32c0.54-1.25,0.14-1.76-1.1-1.88
			c-0.4-0.04-0.8-0.12-1.19-0.19c-2.21-0.38-3.38-1.51-3.42-3.3c-0.05-2.02,1.51-4.11,3.43-4.4c1.46-0.22,2.95-0.35,4.41-0.3
			c1.69,0.06,2.58-0.69,3.17-2.19c0.94-2.37,1.94-4.73,3.07-7.02c1.28-2.59,2.98-3.32,5.39-2.58c2.06,0.63,3.27,2.38,2.8,4.48
			c-0.37,1.69-1.01,3.34-1.65,4.96c-0.89,2.25-0.81,2.43,1.69,2.58c0.8,0.05,1.61,0.07,2.41,0.15c2.59,0.26,4.03,1.56,4.01,3.63
			c-0.01,2.37-1.49,4.07-3.96,4.26c-2.07,0.16-4.17,0.2-6.24,0.06c-1.75-0.12-2.71,0.46-3.37,2.11c-2.18,5.42-4.52,10.77-6.7,16.19
			c-0.33,0.82-0.08,1.87-0.09,2.81c1.16,0.01,2.46,0.38,3.44-0.04c2.15-0.92,4.13-2.22,6.18-3.38c2.09-1.19,4.24-2.3,6.24-3.63
			c0.83-0.55,1.56-1.48,1.97-2.4c2.46-5.52,4.8-11.1,7.23-16.63c0.4-0.9,1-1.75,1.65-2.5c1.15-1.32,2.67-1.49,4.23-0.89
			c1.55,0.6,2.9,1.73,2.56,3.44c-0.5,2.53-1.34,5.02-2.32,7.42c-2.07,5.1-4.41,10.09-6.43,15.21c-0.46,1.17-0.09,2.67-0.11,4.02
			c1.2-0.23,2.57-0.17,3.57-0.75c1.95-1.15,3.91-2.45,5.44-4.08c0.96-1.02,1.42-2.71,1.67-4.18c1.24-7.38,4.33-13.64,10.47-18.16
			c3.78-2.79,8.11-3.33,12.47-2.23c4.53,1.14,6.8,4.69,7.46,9.1c1.39,9.32-1.05,17.65-7.44,24.58c-3.66,3.97-8.11,6.64-13.93,5.66
			c-2.87-0.48-5.21-1.84-6.78-4.27c-0.9-1.4-1.65-1.37-2.91-0.46c-3.35,2.42-7.02,4.2-11.16,4.76c-3.51,0.48-7-1.41-8.37-4.64
			c-0.55-1.29-1.23-1.43-2.33-0.94c-2.64,1.17-5.26,2.37-7.91,3.52c-2.79,1.21-5.77,1.71-8.67,0.95c-1.84-0.48-3.75-1.55-5.09-2.9
			c-1.11-1.11-1.75-1.08-2.84-0.38c-3.28,2.1-6.76,3.46-10.79,3.33c-2.18-0.07-3.85-0.78-4.9-2.57c-0.89-1.52-1.79-1.34-2.89-0.45
			c-3.16,2.58-6.73,3.05-10.63,2.34c-2.98-0.54-4.91-2.25-6.22-4.87c-1.02-2.05-1.42-2.24-3.35-0.99c-3.9,2.53-7.89,4.91-12.47,5.89
			c-1.91,0.41-4.14,0.57-5.94-0.02c-5.49-1.8-6.44-5.19-4.97-10.8c1.6-6.12,4.36-11.94,6.76-17.83c0.68-1.66,0.74-2.35-1.32-2.62
			c-2.92-0.39-3.98-1.51-4.08-3.59c-0.09-2.02,1.21-3.69,3.2-4.02c1.06-0.17,2.17-0.42,3.2-0.26c2.89,0.43,4.07-1.17,4.97-3.55
			c0.88-2.32,1.98-4.56,3.13-6.76c0.91-1.74,2.56-2.25,4.45-2.13c1.68,0.1,2.79,0.96,3.22,2.56c0.18,0.67,0.19,1.47,0.01,2.14
			c-0.42,1.55-0.95,3.08-1.55,4.58c-1.01,2.53-0.69,3.03,2.09,3.05c0.87,0.01,1.76-0.03,2.61,0.14c2.52,0.48,3.46,1.57,3.37,3.72
			c-0.1,2.28-1.39,3.68-3.78,3.95C709.39,56.11,708.04,56.1,706.69,56.16z M815.23,62.89c0-0.4,0.15-0.89-0.03-1.19
			c-0.71-1.21-1.29-2.66-2.34-3.45c-1.21-0.91-2.59-0.25-3.81,0.74c-3.06,2.46-4.32,5.98-5.39,9.47c-0.78,2.52-1,5.26-1.09,7.91
			c-0.06,1.63,0.79,3.22,2.59,3.69c1.61,0.42,3.05-0.1,4.1-1.47C812.8,73.95,815.14,68.85,815.23,62.89z"/>
		<linearGradient id="SVGID_5_" gradientUnits="userSpaceOnUse" x1="658.8256" y1="86.4961" x2="658.8256" y2="15.3288">
			<stop  offset="0.0298" style="stop-color:#3175A2"/>
			<stop  offset="1" style="stop-color:#00AEEF"/>
		</linearGradient>
		<path class="st4" d="M647.63,86.5c-6.51-0.28-12.88-0.49-19.25-0.84c-2.45-0.14-4.92-0.54-5.76-3.47
			c-0.88-3.05,0.43-5.4,3.59-5.67c2.99-0.26,6.02,0.1,9.04,0.12c8.73,0.06,17.47,0.3,26.19,0.06c5.6-0.15,7.83-2.76,5.28-8.32
			c-0.98-2.15-2.67-4-4.13-5.91c-2.76-3.63-5.7-7.12-8.35-10.83c-4.6-6.44-4.32-13.22-1.12-20.18c3.55-7.71,10.06-11.65,17.68-14.17
			c4.23-1.4,8.57-2.27,13.07-1.85c3.76,0.35,7,1.75,9.53,4.63c1.58,1.8,2.23,4.01,1.73,6.2c-0.87,3.77-2.06,7.48-3.34,11.14
			c-0.75,2.14-1.9,4.15-2.97,6.17c-0.94,1.76-2.55,2.84-4.48,2.37c-1.27-0.31-2.84-1.29-3.34-2.39c-0.55-1.23-0.37-3.04,0.06-4.42
			c1.04-3.32,2.42-6.54,3.65-9.81c1.79-4.76,0.41-6.71-4.55-5.81c-7.04,1.29-13.03,4.59-17.24,10.56c-3.08,4.36-2.7,9.12,0.66,13.39
			c3.82,4.85,7.88,9.55,11.23,14.72c3.62,5.57,3.78,11.71,0.36,17.57c-2.22,3.8-5.87,5.73-10.16,6.03
			C659.2,86.2,653.35,86.28,647.63,86.5z"/>
		<linearGradient id="SVGID_6_" gradientUnits="userSpaceOnUse" x1="792.2839" y1="47.6885" x2="792.2839" y2="36.8373">
			<stop  offset="0.0298" style="stop-color:#3175A2"/>
			<stop  offset="1" style="stop-color:#00AEEF"/>
		</linearGradient>
		<path class="st5" d="M797.38,41.85c-0.05,3.41-2.38,5.86-5.58,5.84c-2.8-0.02-4.68-2.11-4.62-5.15c0.07-3.4,2.28-5.72,5.44-5.7
			C795.57,36.86,797.43,38.82,797.38,41.85z"/>
	</g>
</g>
<g id="Layer_3">
	<path d="M558.6,91.34c1.16-0.18,2.33-0.33,3.48-0.56c2.87-0.57,5.67-1.35,8.35-2.54c1.74-0.77,3.36-1.73,4.72-3.07
		c2.23-2.2,2.6-4.8,1.46-7.67c-0.41-1.03-1.09-1.89-1.74-2.77c-2.61-3.5-4.16-7.4-4.48-11.77c-0.26-3.49,0.2-6.86,1.49-10.12
		c1.02-2.55,2.45-4.87,4.19-6.98c1.34-1.63,2.73-3.23,4.23-4.71c3.38-3.32,7.28-5.9,11.62-7.83c3.83-1.71,7.82-2.82,11.94-3.5
		c3.67-0.61,7.36-0.81,11.07-0.68c3.83,0.14,7.62,0.6,11.39,1.3c0.09,0.02,0.18,0.05,0.28,0.13c-0.48,0.09-0.97,0.18-1.45,0.27
		c-0.48,0.09-0.97,0.19-1.45,0.29c-4.04,0.85-7.96,2-11.45,4.31c-1.28,0.85-2.38,1.9-3.13,3.26c-1.21,2.2-1.03,4.39,0.23,6.48
		c0.65,1.07,1.49,2.03,2.21,3.06c1.88,2.7,3.12,5.68,3.65,8.93c1.13,6.82-0.53,12.92-4.76,18.35c-1.5,1.93-3.12,3.76-4.88,5.46
		c-2.18,2.11-4.63,3.85-7.25,5.37c-2.75,1.61-5.65,2.88-8.68,3.85c-3.41,1.1-6.91,1.8-10.48,2.2c-3.05,0.34-6.11,0.43-9.17,0.28
		c-2.01-0.1-4.02-0.33-6.02-0.55c-1.72-0.19-3.43-0.44-5.14-0.67c-0.08-0.01-0.16-0.04-0.24-0.05
		C558.6,91.39,558.6,91.37,558.6,91.34z M599.61,61.16c-0.01-3.76-2.97-6.68-6.77-6.68c-3.67,0.01-6.68,3.03-6.65,6.73
		c0.02,3.73,3.12,6.74,6.89,6.68C596.64,67.83,599.62,64.81,599.61,61.16z"/>
	<path class="st6" d="M556.6,90.08c1.16-0.18,2.33-0.33,3.48-0.56c2.87-0.57,5.67-1.35,8.35-2.54c1.74-0.77,3.36-1.73,4.72-3.07
		c2.23-2.2,2.6-4.8,1.46-7.67c-0.41-1.03-1.09-1.89-1.74-2.77c-2.61-3.5-4.16-7.4-4.48-11.77c-0.26-3.49,0.2-6.86,1.49-10.12
		c1.02-2.55,2.45-4.87,4.19-6.98c1.34-1.63,2.73-3.23,4.23-4.71c3.38-3.32,7.28-5.9,11.62-7.83c3.83-1.71,7.82-2.82,11.94-3.5
		c3.67-0.61,7.36-0.81,11.07-0.68c3.83,0.14,7.62,0.6,11.39,1.3c0.09,0.02,0.18,0.05,0.28,0.13c-0.48,0.09-0.97,0.18-1.45,0.27
		c-0.48,0.09-0.97,0.19-1.45,0.29c-4.04,0.85-7.96,2-11.45,4.31c-1.28,0.85-2.38,1.9-3.13,3.26c-1.21,2.2-1.03,4.39,0.23,6.48
		c0.65,1.07,1.49,2.03,2.21,3.06c1.88,2.7,3.12,5.68,3.65,8.93c1.13,6.82-0.53,12.92-4.76,18.35c-1.5,1.93-3.12,3.76-4.88,5.46
		c-2.18,2.11-4.63,3.85-7.25,5.37c-2.75,1.61-5.65,2.88-8.68,3.85c-3.41,1.1-6.91,1.8-10.48,2.2c-3.05,0.34-6.11,0.43-9.17,0.28
		c-2.01-0.1-4.02-0.33-6.02-0.55c-1.72-0.19-3.43-0.44-5.14-0.67c-0.08-0.01-0.16-0.04-0.24-0.05
		C556.6,90.13,556.6,90.11,556.6,90.08z M597.61,59.9c-0.01-3.76-2.97-6.68-6.77-6.68c-3.67,0.01-6.68,3.03-6.65,6.73
		c0.02,3.73,3.12,6.74,6.89,6.68C594.64,66.57,597.62,63.55,597.61,59.9z"/>
</g>
</svg>
