<?xml version="1.0" encoding="UTF-8" standalone="no"?>
<svg
   version="1.1"
   x="0px"
   y="0px"
   viewBox="0 0 288 49.999998"
   xml:space="preserve"
   id="svg154"
   sodipodi:docname="weather_shop_button-ca94d221aefd5706dba1d937d92b154f.svg"
   width="288"
   height="50"
   inkscape:version="1.1.2 (0a00cf5339, 2022-02-04)"
   xmlns:inkscape="http://www.inkscape.org/namespaces/inkscape"
   xmlns:sodipodi="http://sodipodi.sourceforge.net/DTD/sodipodi-0.dtd"
   xmlns="http://www.w3.org/2000/svg"
   xmlns:svg="http://www.w3.org/2000/svg"><sodipodi:namedview
   id="namedview100"
   pagecolor="#ffffff"
   bordercolor="#666666"
   borderopacity="1.0"
   inkscape:pageshadow="2"
   inkscape:pageopacity="0.0"
   inkscape:pagecheckerboard="0"
   showgrid="false"
   fit-margin-top="0"
   fit-margin-left="0"
   fit-margin-right="0"
   fit-margin-bottom="0"
   inkscape:zoom="1.8480663"
   inkscape:cx="159.35575"
   inkscape:cy="53.84006"
   inkscape:window-width="1846"
   inkscape:window-height="1016"
   inkscape:window-x="74"
   inkscape:window-y="27"
   inkscape:window-maximized="1"
   inkscape:current-layer="svg154" /><defs
   id="defs158" />
<style
   type="text/css"
   id="style2">
	.st0{fill:#21409A;}
	.st1{fill-rule:evenodd;clip-rule:evenodd;}
	.st2{fill:#808285;}
	.st3{fill:#FFFFFF;}
	.st4{fill:#D1D3D4;}
</style>
<g
   id="Layer_1"
   transform="matrix(0.59242194,0,0,0.45388526,-65.699592,-4.6160131)">
</g>
<g
   id="Layer_5"
   transform="matrix(0.59242194,0,0,0.45388526,-65.699592,-4.6160131)">
	<path
   d="m 205.44,29.96 h 391.6 L 568.91,102.9 H 206.25 c 0,0 7.47,-9.63 9.39,-15.27 8.18,-24 1.25,-36.95 -1.52,-44 -2.82,-7.22 -7.3,-12.22 -8.68,-13.67"
   id="path5" />
</g>
<g
   id="Layer_3"
   transform="matrix(0.59242194,0,0,0.45388526,-65.699592,-4.6160131)">
	<path
   class="st0"
   d="m 204.54,28.52 h 390.69 l -28.06,72.77 H 205.34 c 0,0 7.45,-9.61 9.37,-15.23 8.16,-23.94 1.24,-36.86 -1.51,-43.9 -2.82,-7.21 -7.29,-12.19 -8.66,-13.64"
   id="path8" />
</g>
<g
   id="Layer_2"
   transform="matrix(0.45388526,0,0,0.45388526,-50.335874,-4.6160131)">
	<g
   id="g31">
		<path
   d="m 165.98,120.33 c -7.43,0 -14.65,-1.46 -21.44,-4.33 -6.56,-2.77 -12.45,-6.75 -17.51,-11.8 -5.06,-5.06 -9.03,-10.95 -11.8,-17.51 -2.87,-6.79 -4.33,-14 -4.33,-21.44 0,-7.44 1.46,-14.65 4.33,-21.44 2.77,-6.56 6.75,-12.45 11.8,-17.51 5.06,-5.06 10.95,-9.03 17.51,-11.8 6.79,-2.87 14,-4.33 21.44,-4.33 7.43,0 14.65,1.46 21.44,4.33 6.56,2.77 12.45,6.75 17.51,11.8 5.06,5.06 9.03,10.95 11.8,17.51 2.87,6.79 4.33,14 4.33,21.44 0,7.44 -1.46,14.65 -4.33,21.44 -2.77,6.56 -6.75,12.45 -11.8,17.51 -5.06,5.06 -10.95,9.03 -17.51,11.8 -6.79,2.88 -14.01,4.33 -21.44,4.33 z m 0,-107.03 c -7.02,0 -13.82,1.37 -20.22,4.08 -6.19,2.62 -11.74,6.36 -16.52,11.14 -4.77,4.77 -8.52,10.33 -11.14,16.52 -2.71,6.4 -4.08,13.21 -4.08,20.22 0,7.01 1.37,13.82 4.08,20.22 2.62,6.19 6.36,11.74 11.14,16.52 4.77,4.77 10.33,8.52 16.52,11.14 6.4,2.71 13.21,4.08 20.22,4.08 7.02,0 13.82,-1.37 20.22,-4.08 6.19,-2.62 11.74,-6.36 16.52,-11.14 4.77,-4.77 8.52,-10.33 11.14,-16.52 2.71,-6.4 4.08,-13.21 4.08,-20.22 0,-7.01 -1.37,-13.82 -4.08,-20.22 C 211.24,38.85 207.5,33.3 202.72,28.52 197.95,23.75 192.39,20 186.2,17.38 179.8,14.67 172.99,13.3 165.98,13.3 Z"
   id="path11" />
		<g
   id="g29">
			<path
   class="st1"
   d="m 181.12,59.63 c -1.02,0 -2.04,0 -3.06,0 0.29,-0.9 1.9,-2.95 0.59,-3.26 -0.99,0.11 -2.21,1.25 -3.16,2.07 -0.89,0.77 -2.1,1.56 -2.76,2.47 -1.05,1.43 -1.62,3.36 -2.47,4.93 -0.95,0 -1.91,0 -2.86,0 1.51,-3.52 3.05,-7.02 4.54,-10.56 0.82,0 1.64,0 2.47,0 -0.53,1.61 -1.16,3.12 -1.78,4.64 0.69,-0.54 1.93,-1.62 3.26,-2.66 1.2,-0.95 3.55,-3.17 5.03,-1.87 0.91,0.79 0.63,2.97 0.2,4.24 z"
   id="path13" />
			<path
   class="st1"
   d="m 157.55,55.47 c -0.12,0.62 -0.36,1.58 -0.58,2.39 -0.47,1.72 -0.77,2.96 -1.31,4.93 -0.22,0.81 -0.55,2.12 0.1,2.47 0.76,0.41 1.95,-0.95 2.47,-1.48 2.02,-2.1 3.46,-4.98 4.14,-8.29 1.05,0 2.11,0 3.16,0 -0.38,1.94 -1.07,4.93 -1.58,7.4 -0.15,0.74 -0.46,1.96 0.2,2.17 1.26,0.41 1.9,-0.73 2.36,-1.48 0.27,0.01 0.91,-0.01 1.1,0 -0.65,1.59 -3.72,4.34 -6.22,3.16 -1.2,-0.57 -1.09,-3.08 -0.53,-4.58 -1.3,1.67 -3.18,4.59 -5.88,5.18 -5.54,1.2 -2.35,-8.64 -1.38,-11.05 1.22,-0.29 2.7,-0.53 3.95,-0.82 z"
   id="path15" />
			<path
   class="st1"
   d="m 126.13,70.43 c 0,0 0.43,-0.05 0.52,-0.05 0.51,6.53 1.17,12.91 1.78,19.34 21.75,-0.09 44.11,-0.98 65.75,-1.18 0.05,0.44 0.06,0.55 0.06,0.88 -11.26,0.19 -22.17,0.64 -33.35,0.89 -11.31,0.25 -22.41,0.41 -33.55,0.69 -0.47,-5.32 -0.96,-10.62 -1.48,-15.89 -2.25,0.05 -4.46,0.15 -6.81,0.1 0.33,-0.63 0.98,-1.97 1.38,-2.76 1.61,0.17 3.42,0.23 5.24,0.19 -0.01,-0.46 -0.09,-1.55 -0.1,-2.16 0.3,-0.02 0.56,-0.05 0.56,-0.05 z"
   id="path17" />
			<path
   class="st1"
   d="M 171.45,85.09"
   id="path19" />
			<path
   class="st1"
   d="M 173.13,76.11"
   id="path21" />
			<path
   class="st1"
   d="m 156.35,77 c 0.82,1.7 1.24,2.53 1.88,3.85 -0.74,-0.04 -1.95,-0.12 -2.77,-0.16 0.27,-1.19 0.56,-2.35 0.89,-3.69 z"
   id="path23" />
			<path
   class="st1"
   d="m 179.15,78.28 c 2.39,-0.34 5.01,1.58 3.65,4.34 -0.01,0.02 -0.16,0.25 -0.2,0.3 -2.14,2.65 -7.16,-0.64 -5.03,-3.85 0.3,-0.46 0.8,-0.68 1.58,-0.79 z"
   id="path25" />
			<path
   class="st1"
   d="m 200.66,87.65 c 0.89,0.05 2.47,0.13 3.55,0.2 -1.06,0.52 -2.08,1.01 -3.16,1.48 1.14,1.54 2.15,2.95 3.26,4.34 -1.4,-1.16 -2.77,-2.24 -4.23,-3.42 -0.67,1.99 -1.34,4 -1.99,5.98 0.2,-1.67 0.54,-4.09 0.79,-6.02 -1.25,-0.05 -2.25,-0.08 -3.55,-0.1 1.03,-0.62 2.05,-1.24 3.16,-1.88 -0.12,-0.34 -0.27,-0.72 -0.39,-1.09 -21.97,0.33 -44.61,0.85 -66.81,1.28 -0.58,-6.53 -1.06,-13.91 -1.58,-20.82 3.94,0.57 8.05,0.97 11.94,1.58 0.98,-0.6 2.23,-1.55 3,-2.56 0.63,-0.82 1.14,-2 1.04,-3.26 -0.12,-1.54 -2.04,-2.69 -3.85,-3.55 -4.57,-2.17 -12.16,-3.28 -15.3,-6.91 -0.9,-1.04 -1.54,-3.24 -0.89,-5.53 0.43,-1.52 1.67,-3.25 2.76,-4.34 1.64,-1.64 4.14,-3.23 6.59,-4.46 2.32,-1.17 5.14,-2.37 7.59,-2.43 2.49,-0.07 5.49,0.57 5.84,2.65 0.5,2.95 -1.75,5.54 -3.06,7.5 -1.28,0 -2.86,0.01 -4.14,0.01 0.42,-0.5 1.12,-1.19 1.56,-1.75 1.01,-1.3 3.56,-3.97 2.98,-6.45 -0.24,-1.05 -1.58,-1.48 -3.21,-1.36 -3.72,0.27 -6.19,1.61 -8.73,3.44 -2.2,1.58 -4.88,3.86 -5.53,6.51 -0.33,1.34 0.05,2.55 0.59,3.26 1.66,2.17 5.85,3.17 9.67,4.44 4.35,1.44 10.92,3.18 10.36,8.78 -0.28,2.84 -1.98,4.46 -3.85,6.32 10.27,1.51 20.86,2.69 31.28,4.05 2.4,-3.23 4.42,-6.83 6.71,-10.16 -0.61,-0.35 -1.62,-0.17 -1.68,-0.89 -0.05,-0.7 3.21,-1.95 3.65,-2.47 0.76,-0.87 1.2,-2.39 1.88,-3.65 3.03,-5.67 6.6,-11.52 10.66,-16.48 1.56,-1.91 3.5,-4.3 5.62,-5.23 2.33,-1.02 4.09,0.01 4.14,2.57 0.1,4.42 -4.12,9.06 -6.41,11.35 -3.25,3.25 -6.19,5.65 -9.67,8.09 -1.32,2.04 -2.85,3.86 -4.14,5.92 2.45,-0.08 4.64,-0.95 6.51,-1.28 0.54,0.56 -1.85,1.43 -3.16,1.78 -1.36,0.36 -2.91,0.69 -4.24,0.89 -2.16,3.17 -4.13,6.53 -6.12,9.87 5.67,0.97 11.69,1.6 17.57,2.37 0.25,3.3 0.55,6.55 0.79,9.87 0.27,0.34 0.53,0.64 0.79,0.99 0.6,-1.09 1.24,-2.29 1.87,-3.45 0.02,-0.05 -0.33,2.89 -0.46,4.02 z m 0.39,-47.95 c -3.48,4.53 -6.78,10.14 -9.28,15 2.84,-1.93 5.57,-4.57 8.29,-7.4 2.4,-2.5 5.45,-5.87 5.82,-9.87 0.05,-0.5 0.23,-1.75 -0.39,-1.88 -1.85,0.69 -3.15,2.47 -4.44,4.15 z M 140.4,73.08 c -1.01,-0.89 -4.64,-2.06 -6.15,-0.33 -1.86,2.13 -0.01,5.06 1.57,5.76 1.76,0.79 4.75,1.16 4.94,2.82 0.18,1.58 -1.56,2.08 -2.86,1.48 -1.01,-0.47 -1.36,-1.56 -1.68,-2.37 -0.71,0.06 -1.33,0.17 -2.03,0.24 0.3,3.57 4.38,6.06 7.55,4.1 0.66,-0.41 1.16,-1.24 1.28,-1.97 0.61,-3.68 -2.25,-4.99 -4.54,-5.82 -1.06,-0.39 -2.74,-0.61 -2.57,-2.27 0.53,-1.51 3.91,-0.64 3.75,1.48 0.79,0.03 1.4,0.05 2.13,0.07 -0.13,-1.87 -0.97,-2.82 -1.39,-3.19 z m 5.98,2.24 c 0.39,3.3 0.76,6.57 1.18,9.73 0.69,0 1.42,-0.01 2.16,0 -0.37,-2.97 -0.75,-6.38 -1.07,-9.63 1.03,0.1 1.82,0.17 3.16,0.3 -0.05,-0.67 -0.15,-1.25 -0.2,-1.97 -2.97,-0.25 -5.79,-0.66 -8.78,-0.89 0.1,0.69 0.19,1.38 0.3,2.07 m 14.23,-0.66 c -0.67,-0.02 -1.59,-0.09 -2.4,-0.14 -0.98,3.66 -1.99,7.28 -2.96,10.95 0.79,0 1.58,0 2.37,0 0.23,-0.82 0.48,-1.73 0.69,-2.47 1.46,0.02 2.79,0.05 4.14,0.1 0.37,0.84 0.72,1.61 1.09,2.37 0.83,-0.01 1.82,-0.01 2.41,-0.01 -1.75,-3.46 -3.69,-7.34 -5.34,-10.8 z m 3.69,2.44 c 1.06,0.09 2.24,0.19 3.2,0.29 0.29,2.64 0.48,5.38 0.69,8.09 0.72,0 1.45,0 2.17,0 -0.12,-2.68 -0.33,-5.48 -0.5,-7.93 1,0.09 2.04,0.13 3.06,0.23 -0.01,-0.61 -0.05,-1.16 -0.1,-1.68 -2.9,-0.27 -5.83,-0.54 -8.68,-0.79 0.06,0.56 0.12,1.2 0.16,1.79 z m 10.4,8.38 c 0.72,0 1.45,0 2.17,0 -0.14,-3.11 -0.32,-6.24 -0.49,-8.98 -0.87,-0.1 -1.44,-0.12 -2.27,-0.2 0.18,3.07 0.38,6.11 0.59,9.18 z m 3.75,-2.67 c 1.42,3.76 9.81,4.04 10.16,-0.69 0.28,-3.74 -3.94,-5.52 -7.5,-4.93 -2.54,0.42 -3.64,3.02 -2.66,5.62 z m 11.74,2.67 c 0.5,0.02 1.48,0 2.07,0 -0.03,-1.51 -0.05,-3.09 -0.1,-4.54 1.53,1.56 3.06,3.11 4.44,4.64 0.66,-0.01 1.54,-0.02 2.07,-0.03 0,-2.17 0,-4.5 0,-6.67 -0.67,-0.04 -1.34,-0.06 -2.07,-0.09 0,1.45 0,2.87 0,4.32 -0.71,-0.71 -1.46,-1.46 -2.27,-2.37 -0.78,-0.88 -1.44,-1.55 -2.26,-2.54 -0.44,0.01 -1.14,-0.09 -1.97,-0.08 0.03,2.61 0.08,4.82 0.09,7.36 z"
   id="path27" />
		</g>
	</g>
</g>

<g
   id="Layer_4"
   transform="matrix(0.59242194,0,0,0.45388526,-65.699592,-4.6160131)">
	<g
   id="g151">
		<path
   class="st4"
   d="m 240.45,47.16 1.14,-0.11 -0.01,0.3 c 0,0.34 0.08,0.64 0.23,0.92 0.15,0.28 0.41,0.49 0.76,0.65 0.36,0.15 0.78,0.23 1.27,0.23 0.7,0 1.23,-0.15 1.59,-0.46 0.37,-0.3 0.55,-0.65 0.55,-1.04 0,-0.27 -0.1,-0.52 -0.29,-0.75 -0.2,-0.22 -0.74,-0.52 -1.62,-0.9 -0.68,-0.3 -1.15,-0.52 -1.4,-0.68 -0.39,-0.26 -0.68,-0.54 -0.87,-0.84 -0.19,-0.3 -0.28,-0.65 -0.28,-1.03 0,-0.45 0.12,-0.85 0.37,-1.21 0.25,-0.36 0.6,-0.63 1.08,-0.82 0.47,-0.19 1,-0.28 1.6,-0.28 0.71,0 1.3,0.12 1.79,0.36 0.49,0.24 0.84,0.55 1.06,0.95 0.22,0.4 0.33,0.77 0.33,1.13 0,0.04 0,0.1 -0.01,0.18 l -1.12,0.09 c 0,-0.25 -0.02,-0.44 -0.07,-0.58 -0.08,-0.24 -0.2,-0.44 -0.37,-0.61 -0.17,-0.17 -0.39,-0.3 -0.68,-0.4 -0.29,-0.1 -0.62,-0.15 -0.98,-0.15 -0.63,0 -1.12,0.14 -1.48,0.43 -0.27,0.22 -0.4,0.51 -0.4,0.87 0,0.21 0.06,0.4 0.17,0.57 0.11,0.17 0.31,0.33 0.6,0.5 0.21,0.11 0.69,0.34 1.46,0.68 0.62,0.28 1.06,0.49 1.29,0.65 0.32,0.21 0.56,0.46 0.73,0.76 0.17,0.3 0.26,0.64 0.26,1.02 0,0.47 -0.14,0.9 -0.43,1.3 -0.29,0.4 -0.68,0.7 -1.19,0.92 -0.51,0.22 -1.08,0.33 -1.74,0.33 -0.98,0 -1.79,-0.21 -2.41,-0.64 -0.61,-0.45 -0.93,-1.22 -0.93,-2.34 z"
   id="path83" />
		<path
   class="st4"
   d="m 249.12,49.97 1.82,-8.69 h 1.16 l -0.75,3.61 h 4.51 l 0.75,-3.61 h 1.16 l -1.81,8.69 h -1.16 l 0.85,-4.1 h -4.5 l -0.86,4.1 z"
   id="path85" />
		<path
   class="st4"
   d="m 259.39,46.33 c 0,-1.55 0.45,-2.8 1.34,-3.76 0.9,-0.96 1.98,-1.44 3.26,-1.44 1.08,0 1.97,0.35 2.65,1.06 0.68,0.71 1.02,1.65 1.02,2.84 0,0.85 -0.17,1.63 -0.52,2.35 -0.26,0.54 -0.58,1.01 -0.97,1.4 -0.39,0.39 -0.81,0.7 -1.26,0.91 -0.59,0.28 -1.22,0.43 -1.89,0.43 -0.7,0 -1.33,-0.17 -1.9,-0.5 -0.57,-0.33 -1,-0.8 -1.3,-1.39 -0.28,-0.59 -0.43,-1.22 -0.43,-1.9 z m 1.15,0.06 c 0,0.51 0.11,0.98 0.32,1.41 0.21,0.43 0.53,0.76 0.95,1 0.42,0.24 0.86,0.36 1.32,0.36 0.45,0 0.87,-0.11 1.27,-0.32 0.4,-0.21 0.76,-0.51 1.08,-0.88 0.32,-0.38 0.57,-0.84 0.75,-1.39 0.18,-0.55 0.28,-1.09 0.28,-1.63 0,-0.87 -0.24,-1.56 -0.73,-2.07 -0.48,-0.51 -1.08,-0.77 -1.79,-0.77 -0.91,0 -1.71,0.39 -2.41,1.17 -0.7,0.78 -1.04,1.81 -1.04,3.12 z"
   id="path87" />
		<path
   class="st4"
   d="m 269.16,49.97 1.82,-8.69 h 3.63 c 0.63,0 1.1,0.07 1.41,0.22 0.31,0.14 0.57,0.39 0.78,0.74 0.21,0.35 0.31,0.74 0.31,1.18 0,0.36 -0.07,0.73 -0.22,1.1 -0.15,0.37 -0.33,0.68 -0.55,0.92 -0.22,0.24 -0.45,0.42 -0.68,0.55 -0.23,0.12 -0.47,0.21 -0.74,0.27 -0.56,0.13 -1.12,0.2 -1.69,0.2 h -2.18 l -0.74,3.53 h -1.15 z m 2.11,-4.51 h 1.92 c 0.74,0 1.29,-0.08 1.64,-0.24 0.35,-0.16 0.63,-0.4 0.84,-0.73 0.21,-0.33 0.31,-0.68 0.31,-1.04 0,-0.28 -0.06,-0.52 -0.17,-0.7 -0.11,-0.18 -0.27,-0.31 -0.47,-0.4 -0.2,-0.09 -0.59,-0.13 -1.16,-0.13 h -2.23 z"
   id="path89" />
		<path
   class="st4"
   d="m 282.34,47.16 1.14,-0.11 -0.01,0.3 c 0,0.34 0.08,0.64 0.23,0.92 0.15,0.28 0.41,0.49 0.76,0.65 0.36,0.15 0.78,0.23 1.27,0.23 0.7,0 1.23,-0.15 1.59,-0.46 0.37,-0.3 0.55,-0.65 0.55,-1.04 0,-0.27 -0.1,-0.52 -0.29,-0.75 -0.2,-0.22 -0.74,-0.52 -1.62,-0.9 -0.68,-0.3 -1.15,-0.52 -1.4,-0.68 -0.39,-0.26 -0.68,-0.54 -0.87,-0.84 -0.19,-0.3 -0.28,-0.65 -0.28,-1.03 0,-0.45 0.12,-0.85 0.37,-1.21 0.25,-0.36 0.6,-0.63 1.08,-0.82 0.47,-0.19 1,-0.28 1.6,-0.28 0.71,0 1.3,0.12 1.79,0.36 0.49,0.24 0.84,0.55 1.06,0.95 0.22,0.4 0.33,0.77 0.33,1.13 0,0.04 0,0.1 -0.01,0.18 l -1.12,0.09 c 0,-0.25 -0.02,-0.44 -0.07,-0.58 -0.08,-0.24 -0.2,-0.44 -0.37,-0.61 -0.17,-0.17 -0.39,-0.3 -0.68,-0.4 -0.29,-0.1 -0.62,-0.15 -0.98,-0.15 -0.63,0 -1.12,0.14 -1.48,0.43 -0.27,0.22 -0.4,0.51 -0.4,0.87 0,0.21 0.06,0.4 0.17,0.57 0.11,0.17 0.31,0.33 0.6,0.5 0.21,0.11 0.69,0.34 1.46,0.68 0.62,0.28 1.06,0.49 1.29,0.65 0.32,0.21 0.56,0.46 0.73,0.76 0.17,0.3 0.26,0.64 0.26,1.02 0,0.47 -0.14,0.9 -0.43,1.3 -0.29,0.4 -0.68,0.7 -1.19,0.92 -0.51,0.22 -1.08,0.33 -1.74,0.33 -0.98,0 -1.79,-0.21 -2.41,-0.64 -0.61,-0.45 -0.93,-1.22 -0.93,-2.34 z"
   id="path91" />
		<path
   class="st4"
   d="m 292.9,41.28 h 1.16 l -1.11,5.34 c -0.09,0.44 -0.14,0.77 -0.14,0.98 0,0.47 0.18,0.84 0.55,1.13 0.37,0.29 0.83,0.43 1.39,0.43 0.44,0 0.85,-0.1 1.24,-0.31 0.39,-0.21 0.68,-0.5 0.9,-0.9 0.22,-0.4 0.42,-1.03 0.6,-1.89 l 1,-4.78 h 1.16 l -1.06,5.1 c -0.18,0.87 -0.42,1.56 -0.72,2.07 -0.3,0.51 -0.71,0.92 -1.23,1.22 -0.53,0.31 -1.14,0.46 -1.83,0.46 -0.66,0 -1.22,-0.11 -1.7,-0.33 -0.48,-0.22 -0.84,-0.52 -1.08,-0.9 -0.24,-0.38 -0.36,-0.82 -0.36,-1.3 0,-0.3 0.08,-0.83 0.24,-1.57 z"
   id="path93" />
		<path
   class="st4"
   d="m 300.74,49.97 1.82,-8.69 h 3.65 c 0.72,0 1.26,0.06 1.64,0.18 0.38,0.12 0.66,0.35 0.87,0.68 0.21,0.33 0.32,0.75 0.32,1.26 0,0.71 -0.23,1.29 -0.69,1.76 -0.46,0.47 -1.21,0.77 -2.24,0.91 0.32,0.23 0.56,0.46 0.72,0.69 0.36,0.51 0.66,1.04 0.88,1.58 l 0.66,1.64 h -1.3 l -0.62,-1.62 c -0.23,-0.58 -0.48,-1.09 -0.77,-1.52 -0.2,-0.3 -0.4,-0.49 -0.6,-0.58 -0.2,-0.09 -0.54,-0.14 -1,-0.14 h -1.35 l -0.81,3.86 h -1.18 z m 2.17,-4.8 h 1.61 c 0.74,0 1.23,-0.01 1.45,-0.03 0.44,-0.04 0.8,-0.14 1.08,-0.3 0.28,-0.16 0.5,-0.36 0.65,-0.62 0.15,-0.26 0.23,-0.54 0.23,-0.84 0,-0.25 -0.06,-0.47 -0.17,-0.66 -0.11,-0.19 -0.26,-0.32 -0.45,-0.38 -0.19,-0.07 -0.5,-0.1 -0.95,-0.1 h -2.83 z"
   id="path95" />
		<path
   class="st4"
   d="m 310.4,49.97 1.81,-8.69 h 5.65 l -0.21,0.99 h -4.49 l -0.58,2.77 h 4.57 l -0.21,0.99 h -4.57 l -0.82,3.94 z"
   id="path97" />
		<path
   class="st4"
   d="m 318.71,49.97 1.82,-8.69 h 2.69 c 0.49,0 0.85,0.02 1.09,0.06 0.39,0.07 0.71,0.18 0.98,0.35 0.27,0.17 0.47,0.4 0.62,0.69 0.15,0.29 0.22,0.61 0.22,0.96 0,0.48 -0.13,0.9 -0.39,1.26 -0.26,0.36 -0.67,0.64 -1.21,0.83 0.47,0.15 0.82,0.39 1.06,0.7 0.23,0.31 0.35,0.67 0.35,1.09 0,0.48 -0.14,0.94 -0.41,1.38 -0.27,0.44 -0.64,0.78 -1.09,1.02 -0.45,0.24 -0.96,0.36 -1.51,0.36 h -4.22 z m 1.37,-0.98 h 1.98 c 0.53,0 0.88,-0.02 1.06,-0.05 0.37,-0.06 0.67,-0.17 0.9,-0.32 0.23,-0.15 0.41,-0.35 0.54,-0.6 0.13,-0.25 0.2,-0.51 0.2,-0.78 0,-0.41 -0.13,-0.72 -0.38,-0.93 -0.26,-0.21 -0.74,-0.32 -1.46,-0.32 h -2.21 z m 0.83,-4 h 1.76 c 0.84,0 1.45,-0.13 1.82,-0.4 0.37,-0.27 0.55,-0.66 0.55,-1.17 0,-0.25 -0.06,-0.46 -0.17,-0.63 -0.11,-0.18 -0.27,-0.31 -0.46,-0.39 -0.19,-0.08 -0.55,-0.12 -1.08,-0.12 h -1.85 z"
   id="path99" />
		<path
   class="st4"
   d="m 328.3,46.33 c 0,-1.55 0.45,-2.8 1.34,-3.76 0.9,-0.96 1.98,-1.44 3.26,-1.44 1.08,0 1.97,0.35 2.65,1.06 0.68,0.71 1.02,1.65 1.02,2.84 0,0.85 -0.17,1.63 -0.52,2.35 -0.26,0.54 -0.58,1.01 -0.97,1.4 -0.39,0.39 -0.81,0.7 -1.26,0.91 -0.59,0.28 -1.22,0.43 -1.89,0.43 -0.7,0 -1.33,-0.17 -1.9,-0.5 -0.57,-0.33 -1,-0.8 -1.3,-1.39 -0.28,-0.59 -0.43,-1.22 -0.43,-1.9 z m 1.14,0.06 c 0,0.51 0.11,0.98 0.32,1.41 0.21,0.43 0.53,0.76 0.95,1 0.42,0.24 0.86,0.36 1.32,0.36 0.45,0 0.87,-0.11 1.27,-0.32 0.4,-0.21 0.76,-0.51 1.08,-0.88 0.32,-0.38 0.57,-0.84 0.75,-1.39 0.18,-0.55 0.28,-1.09 0.28,-1.63 0,-0.87 -0.24,-1.56 -0.73,-2.07 -0.48,-0.51 -1.08,-0.77 -1.79,-0.77 -0.91,0 -1.71,0.39 -2.41,1.17 -0.7,0.78 -1.04,1.81 -1.04,3.12 z"
   id="path101" />
		<path
   class="st4"
   d="m 337.3,49.97 4.93,-8.69 h 1.37 l 1.44,8.69 h -1.13 l -0.42,-2.5 h -3.52 l -1.39,2.5 z m 3.17,-3.39 h 2.88 l -0.34,-2.18 c -0.13,-0.87 -0.21,-1.59 -0.24,-2.16 -0.2,0.5 -0.49,1.09 -0.87,1.77 z"
   id="path103" />
		<path
   class="st4"
   d="m 347.12,49.97 1.82,-8.69 h 3.65 c 0.72,0 1.26,0.06 1.64,0.18 0.38,0.12 0.66,0.35 0.87,0.68 0.21,0.33 0.32,0.75 0.32,1.26 0,0.71 -0.23,1.29 -0.69,1.76 -0.46,0.47 -1.21,0.77 -2.24,0.91 0.32,0.23 0.56,0.46 0.72,0.69 0.36,0.51 0.66,1.04 0.88,1.58 l 0.66,1.64 h -1.3 l -0.62,-1.62 c -0.23,-0.58 -0.48,-1.09 -0.77,-1.52 -0.2,-0.3 -0.4,-0.49 -0.6,-0.58 -0.2,-0.09 -0.54,-0.14 -1,-0.14 h -1.35 l -0.81,3.86 h -1.18 z m 2.17,-4.8 h 1.61 c 0.74,0 1.23,-0.01 1.45,-0.03 0.44,-0.04 0.8,-0.14 1.08,-0.3 0.28,-0.16 0.5,-0.36 0.65,-0.62 0.15,-0.26 0.23,-0.54 0.23,-0.84 0,-0.25 -0.06,-0.47 -0.17,-0.66 -0.11,-0.19 -0.26,-0.32 -0.45,-0.38 -0.19,-0.07 -0.5,-0.1 -0.95,-0.1 h -2.83 z"
   id="path105" />
		<path
   class="st4"
   d="m 356.77,49.97 1.81,-8.69 h 2.62 c 0.63,0 1.11,0.05 1.44,0.14 0.47,0.12 0.88,0.34 1.22,0.65 0.34,0.31 0.59,0.71 0.76,1.18 0.17,0.47 0.25,1 0.25,1.58 0,0.7 -0.11,1.34 -0.32,1.91 -0.21,0.58 -0.49,1.08 -0.83,1.52 -0.34,0.44 -0.7,0.78 -1.07,1.03 -0.37,0.25 -0.81,0.43 -1.33,0.55 -0.39,0.09 -0.86,0.14 -1.43,0.14 h -3.12 z m 1.37,-0.98 h 1.38 c 0.62,0 1.17,-0.06 1.65,-0.17 0.3,-0.07 0.56,-0.18 0.77,-0.31 0.28,-0.18 0.54,-0.41 0.76,-0.71 0.3,-0.39 0.54,-0.83 0.72,-1.33 0.18,-0.5 0.27,-1.06 0.27,-1.69 0,-0.7 -0.12,-1.24 -0.37,-1.62 -0.25,-0.38 -0.56,-0.63 -0.94,-0.75 -0.28,-0.09 -0.72,-0.14 -1.31,-0.14 h -1.54 z"
   id="path107" />
		<path
   class="st4"
   d="m 366.77,47.16 1.14,-0.11 -0.01,0.3 c 0,0.34 0.08,0.64 0.23,0.92 0.15,0.28 0.41,0.49 0.76,0.65 0.35,0.16 0.78,0.23 1.27,0.23 0.7,0 1.23,-0.15 1.59,-0.46 0.37,-0.3 0.55,-0.65 0.55,-1.04 0,-0.27 -0.1,-0.52 -0.29,-0.75 -0.2,-0.22 -0.74,-0.52 -1.62,-0.9 -0.68,-0.3 -1.15,-0.52 -1.4,-0.68 -0.39,-0.26 -0.68,-0.54 -0.87,-0.84 -0.19,-0.3 -0.28,-0.65 -0.28,-1.03 0,-0.45 0.12,-0.85 0.37,-1.21 0.25,-0.36 0.6,-0.63 1.08,-0.82 0.47,-0.19 1,-0.28 1.6,-0.28 0.71,0 1.3,0.12 1.79,0.36 0.49,0.24 0.84,0.55 1.06,0.95 0.22,0.4 0.33,0.77 0.33,1.13 0,0.04 0,0.1 -0.01,0.18 l -1.12,0.09 c 0,-0.25 -0.02,-0.44 -0.07,-0.58 -0.08,-0.24 -0.2,-0.44 -0.37,-0.61 -0.17,-0.17 -0.39,-0.3 -0.68,-0.4 -0.29,-0.1 -0.62,-0.15 -0.98,-0.15 -0.63,0 -1.12,0.14 -1.48,0.43 -0.27,0.22 -0.4,0.51 -0.4,0.87 0,0.21 0.06,0.4 0.17,0.57 0.11,0.17 0.31,0.33 0.6,0.5 0.21,0.11 0.69,0.34 1.46,0.68 0.62,0.28 1.05,0.49 1.29,0.65 0.32,0.21 0.56,0.46 0.73,0.76 0.17,0.3 0.25,0.64 0.25,1.02 0,0.47 -0.14,0.9 -0.43,1.3 -0.29,0.4 -0.68,0.7 -1.19,0.92 -0.51,0.22 -1.08,0.33 -1.74,0.33 -0.98,0 -1.79,-0.21 -2.41,-0.64 -0.61,-0.45 -0.92,-1.22 -0.92,-2.34 z"
   id="path109" />
		<path
   class="st4"
   d="m 375.58,49.97 0.25,-1.22 h 1.22 l -0.22,1.06 c -0.13,0.64 -0.34,1.1 -0.63,1.4 -0.28,0.3 -0.62,0.47 -1,0.51 l 0.1,-0.47 c 0.47,-0.13 0.78,-0.56 0.93,-1.29 h -0.65 z"
   id="path111" />
		<path
   class="st4"
   d="m 388.47,46.55 0.21,-0.98 h 3.81 l -0.74,3.54 c -0.48,0.3 -1.02,0.55 -1.64,0.74 -0.61,0.19 -1.21,0.28 -1.81,0.28 -1.26,0 -2.21,-0.38 -2.83,-1.14 -0.53,-0.64 -0.79,-1.47 -0.79,-2.48 0,-1.04 0.23,-1.99 0.69,-2.85 0.46,-0.86 1.04,-1.49 1.74,-1.9 0.7,-0.41 1.48,-0.61 2.34,-0.61 0.62,0 1.17,0.11 1.66,0.33 0.49,0.22 0.87,0.52 1.13,0.9 0.26,0.38 0.45,0.86 0.56,1.46 l -1.14,0.12 c -0.12,-0.6 -0.38,-1.05 -0.76,-1.37 -0.39,-0.32 -0.88,-0.48 -1.49,-0.48 -0.63,0 -1.22,0.17 -1.76,0.51 -0.55,0.34 -0.98,0.86 -1.31,1.55 -0.33,0.69 -0.49,1.47 -0.49,2.35 0,0.87 0.22,1.53 0.65,1.98 0.43,0.45 1.03,0.67 1.78,0.67 0.75,0 1.57,-0.25 2.44,-0.75 l 0.39,-1.87 z"
   id="path113" />
		<path
   class="st4"
   d="m 394.39,49.97 1.82,-8.69 h 6.27 l -0.21,0.99 h -5.11 l -0.57,2.7 h 4.98 l -0.21,0.99 h -4.98 l -0.63,3.02 h 5.47 l -0.21,0.98 h -6.62 z"
   id="path115" />
		<path
   class="st4"
   d="m 402.61,49.97 4.93,-8.69 h 1.37 l 1.43,8.69 h -1.13 l -0.42,-2.5 h -3.52 l -1.39,2.5 z m 3.17,-3.39 h 2.88 l -0.34,-2.18 c -0.13,-0.87 -0.21,-1.59 -0.24,-2.16 -0.2,0.5 -0.49,1.09 -0.87,1.77 z"
   id="path117" />
		<path
   class="st4"
   d="m 412.44,49.97 1.82,-8.69 h 3.65 c 0.72,0 1.27,0.06 1.64,0.18 0.37,0.12 0.66,0.35 0.88,0.68 0.21,0.33 0.32,0.75 0.32,1.26 0,0.71 -0.23,1.29 -0.69,1.76 -0.46,0.47 -1.21,0.77 -2.24,0.91 0.32,0.23 0.56,0.46 0.72,0.69 0.36,0.51 0.66,1.04 0.88,1.58 l 0.66,1.64 h -1.3 l -0.62,-1.62 c -0.22,-0.58 -0.48,-1.09 -0.77,-1.52 -0.2,-0.3 -0.4,-0.49 -0.6,-0.58 -0.21,-0.09 -0.54,-0.14 -1,-0.14 h -1.35 l -0.81,3.86 h -1.19 z m 2.16,-4.8 h 1.61 c 0.74,0 1.23,-0.01 1.45,-0.03 0.44,-0.04 0.8,-0.14 1.08,-0.3 0.28,-0.15 0.5,-0.36 0.65,-0.62 0.15,-0.26 0.23,-0.54 0.23,-0.84 0,-0.25 -0.06,-0.47 -0.17,-0.66 -0.11,-0.19 -0.26,-0.32 -0.45,-0.38 -0.19,-0.07 -0.5,-0.1 -0.95,-0.1 h -2.83 z"
   id="path119" />
		<path
   class="st4"
   d="m 422.2,49.97 0.25,-1.22 h 1.22 l -0.22,1.06 c -0.13,0.64 -0.34,1.1 -0.63,1.4 -0.28,0.3 -0.62,0.47 -1,0.51 l 0.1,-0.47 c 0.47,-0.13 0.78,-0.56 0.93,-1.29 h -0.65 z"
   id="path121" />
		<path
   class="st4"
   d="m 437.44,46.91 1.15,0.16 c -0.36,1 -0.89,1.76 -1.59,2.28 -0.7,0.51 -1.48,0.77 -2.34,0.77 -1.06,0 -1.89,-0.32 -2.51,-0.97 -0.62,-0.64 -0.93,-1.57 -0.93,-2.77 0,-1.57 0.47,-2.86 1.41,-3.88 0.84,-0.91 1.88,-1.37 3.12,-1.37 0.92,0 1.67,0.25 2.24,0.74 0.57,0.49 0.9,1.16 0.99,1.99 l -1.08,0.1 c -0.11,-0.63 -0.35,-1.1 -0.71,-1.41 -0.36,-0.31 -0.82,-0.47 -1.38,-0.47 -1.06,0 -1.92,0.47 -2.58,1.42 -0.57,0.81 -0.85,1.78 -0.85,2.9 0,0.89 0.22,1.58 0.66,2.05 0.44,0.47 1.01,0.71 1.71,0.71 0.6,0 1.14,-0.2 1.63,-0.59 0.48,-0.39 0.84,-0.94 1.06,-1.66 z"
   id="path123" />
		<path
   class="st4"
   d="m 440.28,49.97 1.81,-8.69 h 1.16 l -1.61,7.71 h 4.51 l -0.21,0.98 z"
   id="path125" />
		<path
   class="st4"
   d="m 448.57,46.33 c 0,-1.55 0.45,-2.8 1.34,-3.76 0.9,-0.96 1.98,-1.44 3.26,-1.44 1.08,0 1.96,0.35 2.65,1.06 0.68,0.71 1.02,1.65 1.02,2.84 0,0.85 -0.17,1.63 -0.52,2.35 -0.26,0.54 -0.58,1.01 -0.97,1.4 -0.39,0.39 -0.81,0.7 -1.26,0.91 -0.59,0.28 -1.22,0.43 -1.89,0.43 -0.7,0 -1.33,-0.17 -1.9,-0.5 -0.57,-0.33 -1,-0.8 -1.3,-1.39 -0.29,-0.59 -0.43,-1.22 -0.43,-1.9 z m 1.14,0.06 c 0,0.51 0.11,0.98 0.32,1.41 0.21,0.43 0.53,0.76 0.95,1 0.42,0.24 0.86,0.36 1.32,0.36 0.45,0 0.87,-0.11 1.27,-0.32 0.4,-0.21 0.76,-0.51 1.08,-0.88 0.32,-0.38 0.57,-0.84 0.75,-1.39 0.18,-0.55 0.28,-1.09 0.28,-1.63 0,-0.87 -0.24,-1.56 -0.73,-2.07 -0.48,-0.51 -1.08,-0.77 -1.79,-0.77 -0.91,0 -1.71,0.39 -2.41,1.17 -0.69,0.77 -1.04,1.81 -1.04,3.12 z"
   id="path127" />
		<path
   class="st4"
   d="m 460.57,49.97 1.61,-7.7 h -2.85 l 0.21,-0.99 h 6.84 l -0.21,0.99 h -2.83 l -1.61,7.7 z"
   id="path129" />
		<path
   class="st4"
   d="m 466.65,49.97 1.82,-8.69 h 1.16 l -0.75,3.61 h 4.51 l 0.75,-3.61 h 1.16 l -1.81,8.69 h -1.16 l 0.85,-4.1 h -4.5 l -0.86,4.1 z"
   id="path131" />
		<path
   class="st4"
   d="m 476.51,49.97 1.82,-8.69 h 1.16 l -1.81,8.69 z"
   id="path133" />
		<path
   class="st4"
   d="m 480.7,49.97 1.82,-8.69 h 1.13 l 1.46,3.26 c 0.45,1 0.8,1.83 1.06,2.51 0.15,0.4 0.32,0.93 0.52,1.6 0.11,-0.73 0.24,-1.49 0.4,-2.26 l 1.07,-5.11 h 1.13 l -1.81,8.69 h -1.15 l -2.16,-5.02 c -0.38,-0.89 -0.68,-1.67 -0.9,-2.34 -0.06,0.57 -0.17,1.26 -0.34,2.08 l -1.1,5.28 z"
   id="path135" />
		<path
   class="st4"
   d="m 494.76,46.55 0.21,-0.98 h 3.81 l -0.74,3.54 c -0.48,0.3 -1.02,0.55 -1.64,0.74 -0.61,0.19 -1.21,0.28 -1.81,0.28 -1.27,0 -2.21,-0.38 -2.83,-1.14 -0.53,-0.64 -0.79,-1.47 -0.79,-2.48 0,-1.04 0.23,-1.99 0.69,-2.85 0.46,-0.86 1.04,-1.49 1.74,-1.9 0.7,-0.41 1.48,-0.61 2.34,-0.61 0.62,0 1.17,0.11 1.66,0.33 0.49,0.22 0.87,0.52 1.13,0.9 0.26,0.38 0.45,0.86 0.56,1.46 l -1.14,0.12 c -0.12,-0.6 -0.38,-1.05 -0.76,-1.37 -0.39,-0.32 -0.88,-0.48 -1.49,-0.48 -0.63,0 -1.22,0.17 -1.76,0.51 -0.55,0.34 -0.98,0.86 -1.31,1.55 -0.33,0.69 -0.49,1.47 -0.49,2.35 0,0.87 0.22,1.53 0.65,1.98 0.43,0.45 1.03,0.67 1.79,0.67 0.75,0 1.57,-0.25 2.44,-0.75 l 0.39,-1.87 z"
   id="path137" />
		<path
   class="st4"
   d="m 510.45,49.13 c -0.49,0.4 -0.92,0.68 -1.27,0.82 -0.35,0.14 -0.74,0.22 -1.17,0.22 -0.79,0 -1.43,-0.23 -1.91,-0.7 -0.48,-0.47 -0.72,-1.05 -0.72,-1.75 0,-0.46 0.09,-0.86 0.27,-1.22 0.18,-0.35 0.45,-0.67 0.8,-0.95 0.27,-0.21 0.68,-0.44 1.21,-0.68 -0.21,-0.45 -0.33,-0.76 -0.37,-0.91 -0.05,-0.22 -0.08,-0.46 -0.08,-0.71 0,-0.33 0.09,-0.67 0.28,-1.01 0.19,-0.34 0.45,-0.61 0.79,-0.8 0.34,-0.19 0.71,-0.29 1.11,-0.29 0.56,0 1.01,0.16 1.35,0.49 0.34,0.32 0.51,0.72 0.51,1.18 0,0.39 -0.15,0.78 -0.44,1.17 -0.29,0.39 -0.87,0.79 -1.73,1.22 0.52,0.94 1.02,1.71 1.49,2.31 0.29,-0.35 0.56,-0.76 0.82,-1.24 l 0.94,0.48 c -0.26,0.55 -0.62,1.09 -1.08,1.61 0.26,0.33 0.59,0.72 1,1.19 l -0.81,0.65 c -0.4,-0.37 -0.73,-0.72 -0.99,-1.08 z m -0.62,-0.83 c -0.74,-0.97 -1.31,-1.84 -1.73,-2.6 -0.54,0.25 -0.92,0.5 -1.15,0.74 -0.32,0.33 -0.48,0.72 -0.48,1.16 0,0.45 0.15,0.83 0.46,1.14 0.31,0.31 0.68,0.47 1.12,0.47 0.6,-0.01 1.19,-0.31 1.78,-0.91 z m -1.14,-3.91 c 0.58,-0.3 1,-0.6 1.25,-0.91 0.17,-0.21 0.26,-0.43 0.26,-0.65 0,-0.23 -0.08,-0.43 -0.24,-0.59 -0.16,-0.16 -0.35,-0.24 -0.58,-0.24 -0.28,0 -0.52,0.11 -0.73,0.33 -0.21,0.22 -0.32,0.49 -0.32,0.8 -0.01,0.37 0.11,0.79 0.36,1.26 z"
   id="path139" />
		<path
   class="st4"
   d="m 518.25,49.97 1.81,-8.69 h 1.43 l 0.88,5.63 c 0.11,0.74 0.19,1.45 0.23,2.13 0.24,-0.58 0.64,-1.38 1.21,-2.38 l 3.05,-5.38 h 1.45 l -1.81,8.69 h -1.14 l 0.91,-4.23 c 0.21,-0.98 0.51,-2.07 0.9,-3.28 -0.25,0.56 -0.56,1.17 -0.92,1.83 l -3.24,5.69 h -1.12 L 521,44.4 c -0.08,-0.51 -0.14,-1.1 -0.17,-1.78 -0.1,0.76 -0.2,1.37 -0.29,1.81 l -1.16,5.54 z"
   id="path141" />
		<path
   class="st4"
   d="m 529.85,46.33 c 0,-1.55 0.45,-2.8 1.34,-3.76 0.9,-0.96 1.98,-1.44 3.26,-1.44 1.08,0 1.96,0.35 2.65,1.06 0.68,0.71 1.02,1.65 1.02,2.84 0,0.85 -0.17,1.63 -0.52,2.35 -0.26,0.54 -0.58,1.01 -0.97,1.4 -0.39,0.39 -0.81,0.7 -1.26,0.91 -0.59,0.28 -1.22,0.43 -1.89,0.43 -0.7,0 -1.33,-0.17 -1.9,-0.5 -0.57,-0.33 -1,-0.8 -1.3,-1.39 -0.28,-0.59 -0.43,-1.22 -0.43,-1.9 z m 1.15,0.06 c 0,0.51 0.11,0.98 0.32,1.41 0.21,0.43 0.53,0.76 0.95,1 0.42,0.24 0.86,0.36 1.32,0.36 0.45,0 0.87,-0.11 1.27,-0.32 0.4,-0.21 0.76,-0.51 1.08,-0.88 0.32,-0.38 0.57,-0.84 0.75,-1.39 0.18,-0.55 0.28,-1.09 0.28,-1.63 0,-0.87 -0.24,-1.56 -0.73,-2.07 -0.48,-0.51 -1.08,-0.77 -1.79,-0.77 -0.91,0 -1.71,0.39 -2.41,1.17 -0.7,0.77 -1.04,1.81 -1.04,3.12 z"
   id="path143" />
		<path
   class="st4"
   d="m 539.67,49.97 1.82,-8.69 h 3.65 c 0.72,0 1.27,0.06 1.64,0.18 0.37,0.12 0.66,0.35 0.88,0.68 0.21,0.33 0.32,0.75 0.32,1.26 0,0.71 -0.23,1.29 -0.69,1.76 -0.46,0.47 -1.21,0.77 -2.24,0.91 0.32,0.23 0.56,0.46 0.72,0.69 0.36,0.51 0.66,1.04 0.88,1.58 l 0.66,1.64 h -1.3 l -0.62,-1.62 c -0.22,-0.58 -0.48,-1.09 -0.77,-1.52 -0.2,-0.3 -0.4,-0.49 -0.6,-0.58 -0.21,-0.09 -0.54,-0.14 -1,-0.14 h -1.35 l -0.81,3.86 h -1.19 z m 2.16,-4.8 h 1.61 c 0.74,0 1.23,-0.01 1.45,-0.03 0.44,-0.04 0.8,-0.14 1.08,-0.3 0.28,-0.15 0.5,-0.36 0.65,-0.62 0.15,-0.26 0.23,-0.54 0.23,-0.84 0,-0.25 -0.06,-0.47 -0.17,-0.66 -0.11,-0.19 -0.26,-0.32 -0.45,-0.38 -0.19,-0.07 -0.5,-0.1 -0.95,-0.1 h -2.83 z"
   id="path145" />
		<path
   class="st4"
   d="m 549.32,49.97 1.82,-8.69 h 6.27 l -0.21,0.99 h -5.11 l -0.57,2.7 h 4.98 l -0.21,0.99 h -4.98 l -0.63,3.02 h 5.47 l -0.21,0.98 h -6.62 z"
   id="path147" />
		<path
   class="st4"
   d="m 558.47,49.97 0.25,-1.22 h 1.21 l -0.25,1.22 z m 0.67,-2.19 0.66,-4.72 0.37,-1.78 h 1.3 l -0.4,1.93 -1.26,4.57 z"
   id="path149" />
	</g>
</g>
<g
   id="text5684-7"
   style="font-size:42.6667px;line-height:1.25"
   transform="matrix(0.59242194,0,0,0.45388526,-65.699592,-4.6160131)"><path
     d="m 231.92905,81.223786 4.78072,-0.771085 q 0.66828,2.878717 3.90683,2.878717 3.44418,0 3.44418,-1.953415 0,-1.130925 -1.95341,-1.54217 -6.63133,-1.490764 -8.07069,-2.930123 -1.43936,-1.439358 -1.43936,-3.495585 0,-5.551811 7.60804,-5.551811 6.63133,0 8.01928,4.780726 l -4.5237,0.822491 q -0.56546,-2.159038 -3.39277,-2.159038 -3.23856,0 -3.23856,1.490764 0,1.233736 5.08916,2.364661 3.75262,0.82249 5.19198,2.056226 1.49076,1.18233 1.49076,3.495585 0,2.981528 -2.41607,4.523698 -2.41606,1.54217 -5.80884,1.54217 -7.24819,0 -8.68755,-5.551811 z"
     id="path37048" /><path
     d="m 263.95477,86.364352 v -2.7245 q -2.15904,3.135745 -6.01446,3.135745 -6.01447,0 -6.01447,-7.042575 V 68.269559 h 4.78073 v 8.327717 q 0,3.90683 0.56546,5.243378 0.61687,1.285141 2.41607,1.285141 2.31325,0 3.08434,-1.387953 0.82249,-1.387953 0.82249,-5.860245 v -7.608038 h 4.78073 v 18.094793 z"
     id="path37050" /><path
     d="m 276.85757,86.467163 h -4.78072 V 68.37237 h 4.47229 v 2.570284 q 1.8506,-2.981529 4.11245,-2.981529 1.64498,0 3.13575,0.925302 l -1.49077,4.163859 q -1.18233,-0.771085 -2.26184,-0.771085 -1.7992,0 -2.51888,1.696387 -0.66828,1.696386 -0.66828,6.888358 z"
     id="path37052" /><path
     d="m 283.79733,68.37237 h 2.67309 v -1.336547 q 0,-5.963056 5.55182,-5.963056 2.05622,0 4.00964,0.616868 l -0.66828,3.341368 q -1.13092,-0.308434 -2.21044,-0.308434 -1.90201,0 -1.90201,2.36466 v 1.285141 h 3.54699 v 3.752614 h -3.54699 v 14.342179 h -4.78073 V 72.124984 h -2.67309 z"
     id="path37054" /><path
     d="m 295.82623,81.223786 4.78073,-0.771085 q 0.66827,2.878717 3.90683,2.878717 3.44418,0 3.44418,-1.953415 0,-1.130925 -1.95342,-1.54217 -6.63133,-1.490764 -8.07069,-2.930123 -1.43936,-1.439358 -1.43936,-3.495585 0,-5.551811 7.60804,-5.551811 6.63133,0 8.01928,4.780726 l -4.52369,0.822491 q -0.56547,-2.159038 -3.39278,-2.159038 -3.23855,0 -3.23855,1.490764 0,1.233736 5.08916,2.364661 3.75261,0.82249 5.19197,2.056226 1.49076,1.18233 1.49076,3.495585 0,2.981528 -2.41606,4.523698 -2.41607,1.54217 -5.80884,1.54217 -7.2482,0 -8.68756,-5.551811 z"
     id="path37056" /><path
     d="m 324.6648,68.269559 v 3.804019 h -3.23856 v 7.299604 q 0,2.210443 0.25703,2.827311 0.25703,0.616868 1.02811,0.616868 0.66828,0 1.95342,-0.462651 l 0.41124,3.701208 q -1.69638,0.719679 -3.80402,0.719679 -2.98152,0 -3.85542,-1.490764 -0.82249,-1.490764 -0.82249,-5.294783 v -7.916472 h -2.21044 v -3.804019 h 2.21044 v -3.598396 l 4.83213,-2.775906 v 6.374302 z"
     id="path37058" /><path
     d="m 331.14186,73.769965 -4.31807,-0.771085 q 1.43936,-5.140566 7.81366,-5.140566 4.47229,0 6.01446,1.54217 1.59358,1.54217 1.59358,5.449 l -0.0514,5.551811 q 0,3.752613 1.07952,5.963057 h -4.72932 q -0.25703,-0.719679 -0.61687,-1.953415 -2.46747,2.36466 -5.60322,2.36466 -2.67309,0 -4.36948,-1.439358 -1.64498,-1.439359 -1.64498,-3.906831 0,-1.953415 1.07952,-3.392773 1.07952,-1.439359 5.50041,-2.313255 3.39277,-0.616868 4.67791,-1.130925 v -0.514056 q 0,-2.570283 -3.28996,-2.570283 -2.31326,0 -3.13575,2.261849 z m 6.42571,3.90683 q -2.31325,0.462651 -5.55181,1.54217 -0.9253,0.668274 -0.9253,1.696387 0,1.18233 0.82249,1.850604 0.82249,0.616867 1.8506,0.616867 3.80402,0 3.80402,-4.72932 z"
     id="path37060" /><path
     d="m 354.83987,68.269559 v 3.804019 h -3.23856 v 7.299604 q 0,2.210443 0.25703,2.827311 0.25703,0.616868 1.02811,0.616868 0.66828,0 1.95342,-0.462651 l 0.41125,3.701208 q -1.69639,0.719679 -3.80402,0.719679 -2.98153,0 -3.85543,-1.490764 -0.82249,-1.490764 -0.82249,-5.294783 v -7.916472 h -2.21044 v -3.804019 h 2.21044 v -3.598396 l 4.83213,-2.775906 v 6.374302 z"
     id="path37062" /><path
     d="m 357.46151,65.904899 v -4.420887 h 4.78073 v 4.420887 z m 0,20.562264 V 68.37237 h 4.78073 v 18.094793 z"
     id="path37064" /><path
     d="m 365.17231,77.059927 q 0,-3.804019 2.57028,-6.477113 2.57028,-2.7245 6.73414,-2.7245 4.16386,0 6.73414,2.673094 2.62169,2.621689 2.62169,6.734142 0,4.112453 -2.62169,6.836953 -2.57028,2.673094 -6.68273,2.673094 -4.26667,0 -6.83696,-2.518877 -2.51887,-2.518878 -2.51887,-7.196793 z m 4.88354,0.257028 q 0,2.467472 1.18233,4.009642 1.18233,1.54217 3.23855,1.54217 2.10763,0 3.23856,-1.54217 1.18233,-1.54217 1.18233,-4.061047 0,-2.467472 -1.18233,-3.958236 -1.13093,-1.54217 -3.23856,-1.54217 -2.05622,0 -3.23855,1.54217 -1.18233,1.54217 -1.18233,4.009641 z"
     id="path37066" /><path
     d="m 403.21243,86.467163 h -4.78073 v -9.253019 q 0,-3.187151 -0.61686,-4.369481 -0.56547,-1.233736 -2.36466,-1.233736 -1.59358,0 -2.77591,0.925302 -1.18233,0.925302 -1.18233,5.757434 v 8.1735 h -4.78073 V 68.37237 h 4.42089 v 2.673095 q 2.41607,-3.08434 6.01446,-3.08434 6.06587,0 6.06587,7.248198 z"
     id="path37068" /><path
     d="m 405.62848,81.223786 4.78073,-0.771085 q 0.66827,2.878717 3.90683,2.878717 3.44418,0 3.44418,-1.953415 0,-1.130925 -1.95342,-1.54217 -6.63133,-1.490764 -8.07069,-2.930123 -1.43936,-1.439358 -1.43936,-3.495585 0,-5.551811 7.60804,-5.551811 6.63133,0 8.01928,4.780726 l -4.52369,0.822491 q -0.56547,-2.159038 -3.39278,-2.159038 -3.23855,0 -3.23855,1.490764 0,1.233736 5.08916,2.364661 3.75261,0.82249 5.19197,2.056226 1.49076,1.18233 1.49076,3.495585 0,2.981528 -2.41606,4.523698 -2.41607,1.54217 -5.80884,1.54217 -7.2482,0 -8.68756,-5.551811 z"
     id="path37070" /><path
     d="m 434.46705,68.269559 v 3.804019 h -3.23855 v 7.299604 q 0,2.210443 0.25702,2.827311 0.25703,0.616868 1.02812,0.616868 0.66827,0 1.95341,-0.462651 l 0.41125,3.701208 q -1.69639,0.719679 -3.80402,0.719679 -2.98153,0 -3.85543,-1.490764 -0.82249,-1.490764 -0.82249,-5.294783 v -7.916472 h -2.21044 v -3.804019 h 2.21044 v -3.598396 l 4.83214,-2.775906 v 6.374302 z"
     id="path37072" /><path
     d="m 436.26619,77.059927 q 0,-3.804019 2.57029,-6.477113 2.57028,-2.7245 6.73414,-2.7245 4.16386,0 6.73414,2.673094 2.62169,2.621689 2.62169,6.734142 0,4.112453 -2.62169,6.836953 -2.57028,2.673094 -6.68273,2.673094 -4.26667,0 -6.83696,-2.518877 -2.51888,-2.518878 -2.51888,-7.196793 z m 4.88354,0.257028 q 0,2.467472 1.18233,4.009642 1.18233,1.54217 3.23856,1.54217 2.10763,0 3.23856,-1.54217 1.18233,-1.54217 1.18233,-4.061047 0,-2.467472 -1.18233,-3.958236 -1.13093,-1.54217 -3.23856,-1.54217 -2.05623,0 -3.23856,1.54217 -1.18233,1.54217 -1.18233,4.009641 z"
     id="path37074" /><path
     d="m 462.43161,86.467163 h -4.78073 V 68.37237 h 4.4723 v 2.570284 q 1.8506,-2.981529 4.11245,-2.981529 1.64498,0 3.13574,0.925302 l -1.49076,4.163859 q -1.18233,-0.771085 -2.26185,-0.771085 -1.7992,0 -2.51888,1.696387 -0.66827,1.696386 -0.66827,6.888358 z"
     id="path37076" /><path
     d="m 481.76013,80.606918 4.78072,0.82249 q -1.90201,5.346189 -7.86506,5.346189 -4.67792,0 -6.73415,-2.673094 -2.05622,-2.7245 -2.05622,-6.631331 0,-4.266669 2.21044,-6.939764 2.26185,-2.673094 6.06587,-2.673094 8.63615,0 8.63615,10.846594 h -12.02892 q 0.25702,4.523698 3.95823,4.523698 2.31326,0 3.03294,-2.621688 z m 0.30843,-4.832132 q -0.15422,-4.26667 -3.5984,-4.26667 -3.54699,0 -3.54699,4.26667 z"
     id="path37078" /><path
     d="m 489.77941,86.467163 v -3.649802 h 3.6498 v 3.649802 z"
     id="path37080" /><path
     d="m 513.22031,73.615748 -4.72932,0.873896 q -0.51405,-2.878717 -3.28996,-2.878717 -3.90683,0 -3.90683,5.397595 0,5.860245 4.00964,5.860245 2.77591,0 3.44418,-3.444179 l 4.72932,0.82249 q -1.49076,6.528519 -8.43053,6.528519 -4.06104,0 -6.3743,-2.570283 -2.31325,-2.570283 -2.31325,-6.888359 0,-3.855424 2.05622,-6.63133 2.10764,-2.827311 6.73415,-2.827311 6.3743,0 8.07068,5.757434 z"
     id="path37082" /><path
     d="m 515.22507,77.059927 q 0,-3.804019 2.57029,-6.477113 2.57028,-2.7245 6.73414,-2.7245 4.16386,0 6.73414,2.673094 2.62169,2.621689 2.62169,6.734142 0,4.112453 -2.62169,6.836953 -2.57028,2.673094 -6.68274,2.673094 -4.26667,0 -6.83695,-2.518877 -2.51888,-2.518878 -2.51888,-7.196793 z m 4.88354,0.257028 q 0,2.467472 1.18233,4.009642 1.18233,1.54217 3.23856,1.54217 2.10763,0 3.23855,-1.54217 1.18233,-1.54217 1.18233,-4.061047 0,-2.467472 -1.18233,-3.958236 -1.13092,-1.54217 -3.23855,-1.54217 -2.05623,0 -3.23856,1.54217 -1.18233,1.54217 -1.18233,4.009641 z"
     id="path37084" /><path
     d="m 536.50693,68.37237 h 4.42089 v 2.467472 q 2.36466,-2.878717 5.65462,-2.878717 3.49559,0 5.08916,2.878717 2.36467,-2.878717 5.55182,-2.878717 5.91165,0 5.91165,6.939764 v 11.566274 h -4.78073 V 76.134625 q 0,-3.084339 -0.77108,-3.804019 -0.71968,-0.719679 -1.7992,-0.719679 -3.54699,0 -3.54699,6.168679 v 8.687557 h -4.78073 v -9.921292 q 0,-2.210444 -0.41124,-3.546991 -0.35984,-1.387953 -2.10764,-1.387953 -1.54217,0 -2.62169,1.028113 -1.02811,0.976708 -1.02811,5.037755 v 8.790368 h -4.78073 z"
     id="path37086" /></g><g
   aria-label="surfstationstore.com"
   id="text5684"
   style="font-size:42.6667px;line-height:1.25"
   transform="matrix(0.59242194,0,0,0.45388526,-65.699592,-4.6160131)"><path
     d="m 229.97618,78.817848 4.78073,-0.771084 q 0.66827,2.878717 3.90683,2.878717 3.44418,0 3.44418,-1.953416 0,-1.130924 -1.95342,-1.542169 -6.63133,-1.490765 -8.07069,-2.930123 -1.43935,-1.439359 -1.43935,-3.495585 0,-5.551811 7.60803,-5.551811 6.63133,0 8.01929,4.780726 l -4.5237,0.822491 q -0.56546,-2.159038 -3.39278,-2.159038 -3.23855,0 -3.23855,1.490764 0,1.233736 5.08916,2.364661 3.75261,0.82249 5.19197,2.056226 1.49076,1.18233 1.49076,3.495585 0,2.981528 -2.41606,4.523698 -2.41607,1.54217 -5.80884,1.54217 -7.2482,0 -8.68756,-5.551812 z"
     style="fill:#ffffff"
     id="path37107" /><path
     d="m 262.0019,83.958415 v -2.7245 q -2.15903,3.135745 -6.01446,3.135745 -6.01446,0 -6.01446,-7.042576 V 65.863622 h 4.78073 v 8.327717 q 0,3.90683 0.56546,5.243377 0.61687,1.285142 2.41606,1.285142 2.31326,0 3.08434,-1.387953 0.82249,-1.387953 0.82249,-5.860245 v -7.608038 h 4.78073 v 18.094793 z"
     style="fill:#ffffff"
     id="path37109" /><path
     d="m 274.90471,84.061226 h -4.78073 V 65.966433 h 4.4723 v 2.570283 q 1.8506,-2.981528 4.11245,-2.981528 1.64498,0 3.13574,0.925302 l -1.49076,4.163858 q -1.18233,-0.771084 -2.26185,-0.771084 -1.7992,0 -2.51888,1.696386 -0.66827,1.696387 -0.66827,6.888359 z"
     style="fill:#ffffff"
     id="path37111" /><path
     d="m 281.84446,65.966433 h 2.6731 v -1.336547 q 0,-5.963057 5.55181,-5.963057 2.05623,0 4.00964,0.616868 l -0.66827,3.341368 q -1.13093,-0.308434 -2.21045,-0.308434 -1.90201,0 -1.90201,2.364661 v 1.285141 h 3.547 v 3.752614 h -3.547 v 14.342179 h -4.78072 V 69.719047 h -2.6731 z"
     style="fill:#ffffff"
     id="path37113" /><path
     d="m 293.87336,78.817848 4.78073,-0.771084 q 0.66827,2.878717 3.90683,2.878717 3.44418,0 3.44418,-1.953416 0,-1.130924 -1.95341,-1.542169 -6.63134,-1.490765 -8.07069,-2.930123 -1.43936,-1.439359 -1.43936,-3.495585 0,-5.551811 7.60804,-5.551811 6.63133,0 8.01928,4.780726 l -4.5237,0.822491 q -0.56546,-2.159038 -3.39277,-2.159038 -3.23856,0 -3.23856,1.490764 0,1.233736 5.08916,2.364661 3.75261,0.82249 5.19197,2.056226 1.49077,1.18233 1.49077,3.495585 0,2.981528 -2.41607,4.523698 -2.41607,1.54217 -5.80884,1.54217 -7.2482,0 -8.68756,-5.551812 z"
     style="fill:#ffffff"
     id="path37115" /><path
     d="m 322.71193,65.863622 v 3.804019 h -3.23855 v 7.299604 q 0,2.210443 0.25702,2.827311 0.25703,0.616868 1.02812,0.616868 0.66827,0 1.95341,-0.462651 l 0.41125,3.701208 q -1.69639,0.719679 -3.80402,0.719679 -2.98153,0 -3.85543,-1.490764 -0.82249,-1.490764 -0.82249,-5.294783 v -7.916472 h -2.21044 v -3.804019 h 2.21044 v -3.598396 l 4.83214,-2.775906 v 6.374302 z"
     style="fill:#ffffff"
     id="path37117" /><path
     d="m 329.189,71.364028 -4.31808,-0.771085 q 1.43936,-5.140566 7.81366,-5.140566 4.4723,0 6.01447,1.54217 1.59357,1.542169 1.59357,5.449 l -0.0514,5.551811 q 0,3.752613 1.07951,5.963057 h -4.72932 q -0.25702,-0.71968 -0.61686,-1.953416 -2.46748,2.364661 -5.60322,2.364661 -2.6731,0 -4.36948,-1.439359 -1.64498,-1.439358 -1.64498,-3.90683 0,-1.953415 1.07952,-3.392773 1.07951,-1.439359 5.5004,-2.313255 3.39277,-0.616868 4.67792,-1.130925 v -0.514056 q 0,-2.570283 -3.28997,-2.570283 -2.31325,0 -3.13574,2.261849 z m 6.42571,3.90683 q -2.31326,0.462651 -5.55182,1.54217 -0.9253,0.668273 -0.9253,1.696387 0,1.18233 0.82249,1.850603 0.82249,0.616868 1.85061,0.616868 3.80402,0 3.80402,-4.729321 z"
     style="fill:#ffffff"
     id="path37119" /><path
     d="m 352.887,65.863622 v 3.804019 h -3.23855 v 7.299604 q 0,2.210443 0.25703,2.827311 0.25702,0.616868 1.02811,0.616868 0.66827,0 1.95341,-0.462651 l 0.41125,3.701208 q -1.69639,0.719679 -3.80402,0.719679 -2.98153,0 -3.85542,-1.490764 -0.82249,-1.490764 -0.82249,-5.294783 v -7.916472 h -2.21045 v -3.804019 h 2.21045 v -3.598396 l 4.83213,-2.775906 v 6.374302 z"
     style="fill:#ffffff"
     id="path37121" /><path
     d="m 355.50865,63.498962 v -4.420887 h 4.78072 v 4.420887 z m 0,20.562264 V 65.966433 h 4.78072 v 18.094793 z"
     style="fill:#ffffff"
     id="path37123" /><path
     d="m 363.21944,74.65399 q 0,-3.804019 2.57029,-6.477113 2.57028,-2.7245 6.73414,-2.7245 4.16386,0 6.73414,2.673094 2.62169,2.621689 2.62169,6.734142 0,4.112452 -2.62169,6.836952 -2.57028,2.673095 -6.68274,2.673095 -4.26667,0 -6.83695,-2.518878 -2.51888,-2.518877 -2.51888,-7.196792 z m 4.88354,0.257028 q 0,2.467472 1.18233,4.009642 1.18233,1.54217 3.23856,1.54217 2.10763,0 3.23855,-1.54217 1.18233,-1.54217 1.18233,-4.061047 0,-2.467472 -1.18233,-3.958236 -1.13092,-1.54217 -3.23855,-1.54217 -2.05623,0 -3.23856,1.54217 -1.18233,1.54217 -1.18233,4.009641 z"
     style="fill:#ffffff"
     id="path37125" /><path
     d="m 401.25957,84.061226 h -4.78073 v -9.253019 q 0,-3.187151 -0.61687,-4.369481 -0.56546,-1.233736 -2.36466,-1.233736 -1.59358,0 -2.77591,0.925302 -1.18233,0.925302 -1.18233,5.757434 v 8.1735 h -4.78072 V 65.966433 h 4.42088 v 2.673095 q 2.41607,-3.08434 6.01447,-3.08434 6.06587,0 6.06587,7.248198 z"
     style="fill:#ffffff"
     id="path37127" /><path
     d="m 403.67561,78.817848 4.78073,-0.771084 q 0.66827,2.878717 3.90683,2.878717 3.44418,0 3.44418,-1.953416 0,-1.130924 -1.95341,-1.542169 -6.63134,-1.490765 -8.07069,-2.930123 -1.43936,-1.439359 -1.43936,-3.495585 0,-5.551811 7.60804,-5.551811 6.63133,0 8.01928,4.780726 l -4.5237,0.822491 q -0.56546,-2.159038 -3.39277,-2.159038 -3.23856,0 -3.23856,1.490764 0,1.233736 5.08916,2.364661 3.75261,0.82249 5.19197,2.056226 1.49077,1.18233 1.49077,3.495585 0,2.981528 -2.41607,4.523698 -2.41607,1.54217 -5.80884,1.54217 -7.2482,0 -8.68756,-5.551812 z"
     style="fill:#ffffff"
     id="path37129" /><path
     d="m 432.51419,65.863622 v 3.804019 h -3.23856 v 7.299604 q 0,2.210443 0.25703,2.827311 0.25703,0.616868 1.02811,0.616868 0.66827,0 1.95342,-0.462651 l 0.41124,3.701208 q -1.69639,0.719679 -3.80402,0.719679 -2.98153,0 -3.85542,-1.490764 -0.82249,-1.490764 -0.82249,-5.294783 v -7.916472 h -2.21045 v -3.804019 h 2.21045 v -3.598396 l 4.83213,-2.775906 v 6.374302 z"
     style="fill:#ffffff"
     id="path37131" /><path
     d="m 434.31333,74.65399 q 0,-3.804019 2.57028,-6.477113 2.57029,-2.7245 6.73414,-2.7245 4.16386,0 6.73415,2.673094 2.62168,2.621689 2.62168,6.734142 0,4.112452 -2.62168,6.836952 -2.57029,2.673095 -6.68274,2.673095 -4.26667,0 -6.83695,-2.518878 -2.51888,-2.518877 -2.51888,-7.196792 z m 4.88354,0.257028 q 0,2.467472 1.18233,4.009642 1.18233,1.54217 3.23855,1.54217 2.10764,0 3.23856,-1.54217 1.18233,-1.54217 1.18233,-4.061047 0,-2.467472 -1.18233,-3.958236 -1.13092,-1.54217 -3.23856,-1.54217 -2.05622,0 -3.23855,1.54217 -1.18233,1.54217 -1.18233,4.009641 z"
     style="fill:#ffffff"
     id="path37133" /><path
     d="m 460.47874,84.061226 h -4.78072 V 65.966433 h 4.47229 v 2.570283 q 1.8506,-2.981528 4.11245,-2.981528 1.64498,0 3.13575,0.925302 l -1.49077,4.163858 q -1.18233,-0.771084 -2.26184,-0.771084 -1.7992,0 -2.51888,1.696386 -0.66828,1.696387 -0.66828,6.888359 z"
     style="fill:#ffffff"
     id="path37135" /><path
     d="m 479.80726,78.200981 4.78073,0.82249 q -1.90201,5.346189 -7.86507,5.346189 -4.67791,0 -6.73414,-2.673095 -2.05623,-2.7245 -2.05623,-6.63133 0,-4.26667 2.21045,-6.939764 2.26184,-2.673094 6.06586,-2.673094 8.63615,0 8.63615,10.846594 h -12.02892 q 0.25703,4.523698 3.95824,4.523698 2.31325,0 3.03293,-2.621688 z m 0.30843,-4.832133 q -0.15421,-4.266669 -3.59839,-4.266669 -3.54699,0 -3.54699,4.266669 z"
     style="fill:#ffffff"
     id="path37137" /><path
     d="m 487.82654,84.061226 v -3.649802 h 3.6498 v 3.649802 z"
     style="fill:#ffffff"
     id="path37139" /><path
     d="m 511.26745,71.209811 -4.72932,0.873896 q -0.51406,-2.878717 -3.28996,-2.878717 -3.90683,0 -3.90683,5.397594 0,5.860246 4.00964,5.860246 2.7759,0 3.44418,-3.44418 l 4.72932,0.822491 q -1.49077,6.528519 -8.43053,6.528519 -4.06105,0 -6.3743,-2.570283 -2.31326,-2.570283 -2.31326,-6.888359 0,-3.855424 2.05623,-6.63133 2.10763,-2.827311 6.73414,-2.827311 6.3743,0 8.07069,5.757434 z"
     style="fill:#ffffff"
     id="path37141" /><path
     d="m 513.27221,74.65399 q 0,-3.804019 2.57028,-6.477113 2.57028,-2.7245 6.73414,-2.7245 4.16386,0 6.73414,2.673094 2.62169,2.621689 2.62169,6.734142 0,4.112452 -2.62169,6.836952 -2.57028,2.673095 -6.68273,2.673095 -4.26667,0 -6.83696,-2.518878 -2.51887,-2.518877 -2.51887,-7.196792 z m 4.88353,0.257028 q 0,2.467472 1.18233,4.009642 1.18234,1.54217 3.23856,1.54217 2.10763,0 3.23856,-1.54217 1.18233,-1.54217 1.18233,-4.061047 0,-2.467472 -1.18233,-3.958236 -1.13093,-1.54217 -3.23856,-1.54217 -2.05622,0 -3.23856,1.54217 -1.18233,1.54217 -1.18233,4.009641 z"
     style="fill:#ffffff"
     id="path37143" /><path
     d="m 534.55407,65.966433 h 4.42089 v 2.467472 q 2.36466,-2.878717 5.65462,-2.878717 3.49558,0 5.08916,2.878717 2.36466,-2.878717 5.55181,-2.878717 5.91165,0 5.91165,6.939764 v 11.566274 h -4.78072 V 73.728688 q 0,-3.08434 -0.77109,-3.804019 -0.71968,-0.719679 -1.7992,-0.719679 -3.54699,0 -3.54699,6.168679 v 8.687557 h -4.78072 v -9.921293 q 0,-2.210443 -0.41125,-3.54699 -0.35984,-1.387953 -2.10763,-1.387953 -1.54217,0 -2.62169,1.028113 -1.02811,0.976708 -1.02811,5.037755 v 8.790368 h -4.78073 z"
     style="fill:#ffffff"
     id="path37145" /></g></svg>
