<?xml version="1.0" encoding="utf-8"?>
<!-- Generator: Adobe Illustrator 25.2.1, SVG Export Plug-In . SVG Version: 6.00 Build 0)  -->
<svg version="1.1" xmlns="http://www.w3.org/2000/svg" xmlns:xlink="http://www.w3.org/1999/xlink" x="0px" y="0px"
	 viewBox="0 0 724 128" style="enable-background:new 0 0 724 128;" xml:space="preserve">
<style type="text/css">
	.st0{fill:#21409A;}
	.st1{fill-rule:evenodd;clip-rule:evenodd;}
	.st2{fill:#808285;}
	.st3{fill:#FFFFFF;}
	.st4{fill:#D1D3D4;}
</style>
<g id="Layer_1">
</g>
<g id="Layer_5">
	<path d="M205.44,29.96h391.6l-28.13,72.94H206.25c0,0,7.47-9.63,9.39-15.27c8.18-24,1.25-36.95-1.52-44
		C211.3,36.41,206.82,31.41,205.44,29.96"/>
</g>
<g id="Layer_3">
	<path class="st0" d="M204.54,28.52h390.69l-28.06,72.77H205.34c0,0,7.45-9.61,9.37-15.23c8.16-23.94,1.24-36.86-1.51-43.9
		C210.38,34.95,205.91,29.97,204.54,28.52"/>
</g>
<g id="Layer_2">
	<g>
		<path d="M165.98,120.33c-7.43,0-14.65-1.46-21.44-4.33c-6.56-2.77-12.45-6.75-17.51-11.8c-5.06-5.06-9.03-10.95-11.8-17.51
			c-2.87-6.79-4.33-14-4.33-21.44s1.46-14.65,4.33-21.44c2.77-6.56,6.75-12.45,11.8-17.51c5.06-5.06,10.95-9.03,17.51-11.8
			c6.79-2.87,14-4.33,21.44-4.33c7.43,0,14.65,1.46,21.44,4.33c6.56,2.77,12.45,6.75,17.51,11.8c5.06,5.06,9.03,10.95,11.8,17.51
			c2.87,6.79,4.33,14,4.33,21.44s-1.46,14.65-4.33,21.44c-2.77,6.56-6.75,12.45-11.8,17.51c-5.06,5.06-10.95,9.03-17.51,11.8
			C180.63,118.88,173.41,120.33,165.98,120.33z M165.98,13.3c-7.02,0-13.82,1.37-20.22,4.08c-6.19,2.62-11.74,6.36-16.52,11.14
			c-4.77,4.77-8.52,10.33-11.14,16.52c-2.71,6.4-4.08,13.21-4.08,20.22s1.37,13.82,4.08,20.22c2.62,6.19,6.36,11.74,11.14,16.52
			c4.77,4.77,10.33,8.52,16.52,11.14c6.4,2.71,13.21,4.08,20.22,4.08c7.02,0,13.82-1.37,20.22-4.08
			c6.19-2.62,11.74-6.36,16.52-11.14c4.77-4.77,8.52-10.33,11.14-16.52c2.71-6.4,4.08-13.21,4.08-20.22s-1.37-13.82-4.08-20.22
			c-2.62-6.19-6.36-11.74-11.14-16.52c-4.77-4.77-10.33-8.52-16.52-11.14C179.8,14.67,172.99,13.3,165.98,13.3z"/>
		<g>
			<path class="st1" d="M181.12,59.63c-1.02,0-2.04,0-3.06,0c0.29-0.9,1.9-2.95,0.59-3.26c-0.99,0.11-2.21,1.25-3.16,2.07
				c-0.89,0.77-2.1,1.56-2.76,2.47c-1.05,1.43-1.62,3.36-2.47,4.93c-0.95,0-1.91,0-2.86,0c1.51-3.52,3.05-7.02,4.54-10.56
				c0.82,0,1.64,0,2.47,0c-0.53,1.61-1.16,3.12-1.78,4.64c0.69-0.54,1.93-1.62,3.26-2.66c1.2-0.95,3.55-3.17,5.03-1.87
				C181.83,56.18,181.55,58.36,181.12,59.63z"/>
			<path class="st1" d="M157.55,55.47c-0.12,0.62-0.36,1.58-0.58,2.39c-0.47,1.72-0.77,2.96-1.31,4.93
				c-0.22,0.81-0.55,2.12,0.1,2.47c0.76,0.41,1.95-0.95,2.47-1.48c2.02-2.1,3.46-4.98,4.14-8.29c1.05,0,2.11,0,3.16,0
				c-0.38,1.94-1.07,4.93-1.58,7.4c-0.15,0.74-0.46,1.96,0.2,2.17c1.26,0.41,1.9-0.73,2.36-1.48c0.27,0.01,0.91-0.01,1.1,0
				c-0.65,1.59-3.72,4.34-6.22,3.16c-1.2-0.57-1.09-3.08-0.53-4.58c-1.3,1.67-3.18,4.59-5.88,5.18c-5.54,1.2-2.35-8.64-1.38-11.05
				C154.82,56,156.3,55.76,157.55,55.47z"/>
			<path class="st1" d="M126.13,70.43c0,0,0.43-0.05,0.52-0.05c0.51,6.53,1.17,12.91,1.78,19.34c21.75-0.09,44.11-0.98,65.75-1.18
				c0.05,0.44,0.06,0.55,0.06,0.88c-11.26,0.19-22.17,0.64-33.35,0.89c-11.31,0.25-22.41,0.41-33.55,0.69
				c-0.47-5.32-0.96-10.62-1.48-15.89c-2.25,0.05-4.46,0.15-6.81,0.1c0.33-0.63,0.98-1.97,1.38-2.76c1.61,0.17,3.42,0.23,5.24,0.19
				c-0.01-0.46-0.09-1.55-0.1-2.16C125.87,70.46,126.13,70.43,126.13,70.43z"/>
			<path class="st1" d="M171.45,85.09"/>
			<path class="st1" d="M173.13,76.11"/>
			<path class="st1" d="M156.35,77c0.82,1.7,1.24,2.53,1.88,3.85c-0.74-0.04-1.95-0.12-2.77-0.16
				C155.73,79.5,156.02,78.34,156.35,77z"/>
			<path class="st1" d="M179.15,78.28c2.39-0.34,5.01,1.58,3.65,4.34c-0.01,0.02-0.16,0.25-0.2,0.3c-2.14,2.65-7.16-0.64-5.03-3.85
				C177.87,78.61,178.37,78.39,179.15,78.28z"/>
			<path class="st1" d="M200.66,87.65c0.89,0.05,2.47,0.13,3.55,0.2c-1.06,0.52-2.08,1.01-3.16,1.48c1.14,1.54,2.15,2.95,3.26,4.34
				c-1.4-1.16-2.77-2.24-4.23-3.42c-0.67,1.99-1.34,4-1.99,5.98c0.2-1.67,0.54-4.09,0.79-6.02c-1.25-0.05-2.25-0.08-3.55-0.1
				c1.03-0.62,2.05-1.24,3.16-1.88c-0.12-0.34-0.27-0.72-0.39-1.09c-21.97,0.33-44.61,0.85-66.81,1.28
				c-0.58-6.53-1.06-13.91-1.58-20.82c3.94,0.57,8.05,0.97,11.94,1.58c0.98-0.6,2.23-1.55,3-2.56c0.63-0.82,1.14-2,1.04-3.26
				c-0.12-1.54-2.04-2.69-3.85-3.55c-4.57-2.17-12.16-3.28-15.3-6.91c-0.9-1.04-1.54-3.24-0.89-5.53c0.43-1.52,1.67-3.25,2.76-4.34
				c1.64-1.64,4.14-3.23,6.59-4.46c2.32-1.17,5.14-2.37,7.59-2.43c2.49-0.07,5.49,0.57,5.84,2.65c0.5,2.95-1.75,5.54-3.06,7.5
				c-1.28,0-2.86,0.01-4.14,0.01c0.42-0.5,1.12-1.19,1.56-1.75c1.01-1.3,3.56-3.97,2.98-6.45c-0.24-1.05-1.58-1.48-3.21-1.36
				c-3.72,0.27-6.19,1.61-8.73,3.44c-2.2,1.58-4.88,3.86-5.53,6.51c-0.33,1.34,0.05,2.55,0.59,3.26c1.66,2.17,5.85,3.17,9.67,4.44
				c4.35,1.44,10.92,3.18,10.36,8.78c-0.28,2.84-1.98,4.46-3.85,6.32c10.27,1.51,20.86,2.69,31.28,4.05
				c2.4-3.23,4.42-6.83,6.71-10.16c-0.61-0.35-1.62-0.17-1.68-0.89c-0.05-0.7,3.21-1.95,3.65-2.47c0.76-0.87,1.2-2.39,1.88-3.65
				c3.03-5.67,6.6-11.52,10.66-16.48c1.56-1.91,3.5-4.3,5.62-5.23c2.33-1.02,4.09,0.01,4.14,2.57c0.1,4.42-4.12,9.06-6.41,11.35
				c-3.25,3.25-6.19,5.65-9.67,8.09c-1.32,2.04-2.85,3.86-4.14,5.92c2.45-0.08,4.64-0.95,6.51-1.28c0.54,0.56-1.85,1.43-3.16,1.78
				c-1.36,0.36-2.91,0.69-4.24,0.89c-2.16,3.17-4.13,6.53-6.12,9.87c5.67,0.97,11.69,1.6,17.57,2.37c0.25,3.3,0.55,6.55,0.79,9.87
				c0.27,0.34,0.53,0.64,0.79,0.99c0.6-1.09,1.24-2.29,1.87-3.45C201.14,83.58,200.79,86.52,200.66,87.65z M201.05,39.7
				c-3.48,4.53-6.78,10.14-9.28,15c2.84-1.93,5.57-4.57,8.29-7.4c2.4-2.5,5.45-5.87,5.82-9.87c0.05-0.5,0.23-1.75-0.39-1.88
				C203.64,36.24,202.34,38.02,201.05,39.7z M140.4,73.08c-1.01-0.89-4.64-2.06-6.15-0.33c-1.86,2.13-0.01,5.06,1.57,5.76
				c1.76,0.79,4.75,1.16,4.94,2.82c0.18,1.58-1.56,2.08-2.86,1.48c-1.01-0.47-1.36-1.56-1.68-2.37c-0.71,0.06-1.33,0.17-2.03,0.24
				c0.3,3.57,4.38,6.06,7.55,4.1c0.66-0.41,1.16-1.24,1.28-1.97c0.61-3.68-2.25-4.99-4.54-5.82c-1.06-0.39-2.74-0.61-2.57-2.27
				c0.53-1.51,3.91-0.64,3.75,1.48c0.79,0.03,1.4,0.05,2.13,0.07C141.66,74.4,140.82,73.45,140.4,73.08z M146.38,75.32
				c0.39,3.3,0.76,6.57,1.18,9.73c0.69,0,1.42-0.01,2.16,0c-0.37-2.97-0.75-6.38-1.07-9.63c1.03,0.1,1.82,0.17,3.16,0.3
				c-0.05-0.67-0.15-1.25-0.2-1.97c-2.97-0.25-5.79-0.66-8.78-0.89c0.1,0.69,0.19,1.38,0.3,2.07 M157.36,74.27
				c-0.67-0.02-1.59-0.09-2.4-0.14c-0.98,3.66-1.99,7.28-2.96,10.95c0.79,0,1.58,0,2.37,0c0.23-0.82,0.48-1.73,0.69-2.47
				c1.46,0.02,2.79,0.05,4.14,0.1c0.37,0.84,0.72,1.61,1.09,2.37c0.83-0.01,1.82-0.01,2.41-0.01
				C160.95,81.61,159.01,77.73,157.36,74.27z M161.05,76.71c1.06,0.09,2.24,0.19,3.2,0.29c0.29,2.64,0.48,5.38,0.69,8.09
				c0.72,0,1.45,0,2.17,0c-0.12-2.68-0.33-5.48-0.5-7.93c1,0.09,2.04,0.13,3.06,0.23c-0.01-0.61-0.05-1.16-0.1-1.68
				c-2.9-0.27-5.83-0.54-8.68-0.79C160.95,75.48,161.01,76.12,161.05,76.71z M171.45,85.09c0.72,0,1.45,0,2.17,0
				c-0.14-3.11-0.32-6.24-0.49-8.98c-0.87-0.1-1.44-0.12-2.27-0.2C171.04,78.98,171.24,82.02,171.45,85.09z M175.2,82.42
				c1.42,3.76,9.81,4.04,10.16-0.69c0.28-3.74-3.94-5.52-7.5-4.93C175.32,77.22,174.22,79.82,175.2,82.42z M186.94,85.09
				c0.5,0.02,1.48,0,2.07,0c-0.03-1.51-0.05-3.09-0.1-4.54c1.53,1.56,3.06,3.11,4.44,4.64c0.66-0.01,1.54-0.02,2.07-0.03
				c0-2.17,0-4.5,0-6.67c-0.67-0.04-1.34-0.06-2.07-0.09c0,1.45,0,2.87,0,4.32c-0.71-0.71-1.46-1.46-2.27-2.37
				c-0.78-0.88-1.44-1.55-2.26-2.54c-0.44,0.01-1.14-0.09-1.97-0.08C186.88,80.34,186.93,82.55,186.94,85.09z"/>
		</g>
	</g>
</g>
<g id="Layer_6">
	<g>
		<path class="st2" d="M271.21,79.42l4.38-0.42c0.26,1.47,0.8,2.55,1.6,3.24s1.89,1.03,3.26,1.03c1.45,0,2.54-0.31,3.27-0.92
			c0.73-0.61,1.1-1.33,1.1-2.15c0-0.53-0.15-0.97-0.46-1.34c-0.31-0.37-0.85-0.69-1.62-0.96c-0.53-0.18-1.73-0.51-3.6-0.97
			c-2.41-0.6-4.1-1.33-5.07-2.2c-1.37-1.22-2.05-2.72-2.05-4.48c0-1.13,0.32-2.2,0.96-3.18s1.57-1.74,2.78-2.26
			c1.21-0.52,2.67-0.77,4.38-0.77c2.79,0,4.9,0.61,6.31,1.84c1.41,1.23,2.15,2.86,2.23,4.91l-4.5,0.2c-0.19-1.14-0.6-1.97-1.24-2.47
			c-0.63-0.5-1.58-0.75-2.85-0.75c-1.31,0-2.33,0.27-3.07,0.81c-0.48,0.34-0.71,0.8-0.71,1.38c0,0.53,0.22,0.98,0.67,1.35
			c0.57,0.48,1.94,0.97,4.13,1.49s3.81,1.05,4.85,1.6c1.05,0.55,1.87,1.31,2.46,2.26c0.59,0.96,0.89,2.14,0.89,3.55
			c0,1.28-0.35,2.47-1.06,3.58c-0.71,1.11-1.71,1.94-3.01,2.48c-1.3,0.54-2.91,0.81-4.85,0.81c-2.82,0-4.98-0.65-6.49-1.95
			C272.41,83.81,271.5,81.92,271.21,79.42z"/>
		<path class="st2" d="M293.12,86.67V64.4h4.5v8.77h8.81V64.4h4.5v22.27h-4.5v-9.74h-8.81v9.74H293.12z"/>
		<path class="st2" d="M314.66,75.67c0-2.27,0.34-4.17,1.02-5.71c0.51-1.13,1.2-2.15,2.07-3.05c0.88-0.9,1.84-1.57,2.88-2.01
			c1.39-0.59,2.99-0.88,4.8-0.88c3.28,0,5.91,1.02,7.88,3.05c1.97,2.04,2.95,4.87,2.95,8.49c0,3.6-0.98,6.41-2.93,8.44
			s-4.57,3.05-7.84,3.05c-3.31,0-5.94-1.01-7.9-3.03C315.63,82,314.66,79.22,314.66,75.67z M319.29,75.52
			c0,2.52,0.58,4.43,1.75,5.73c1.16,1.3,2.64,1.95,4.44,1.95s3.26-0.65,4.41-1.94c1.15-1.29,1.72-3.23,1.72-5.81
			c0-2.55-0.56-4.46-1.68-5.71c-1.12-1.26-2.6-1.88-4.46-1.88c-1.85,0-3.35,0.63-4.48,1.91C319.86,71.04,319.29,72.96,319.29,75.52z
			"/>
		<path class="st2" d="M339.77,86.67V64.4h7.22c2.73,0,4.52,0.11,5.35,0.33c1.28,0.33,2.34,1.06,3.21,2.18
			c0.86,1.12,1.29,2.57,1.29,4.34c0,1.37-0.25,2.52-0.74,3.45c-0.5,0.93-1.13,1.66-1.89,2.19c-0.76,0.53-1.54,0.88-2.33,1.06
			c-1.07,0.21-2.63,0.32-4.66,0.32h-2.93v8.4H339.77z M344.26,68.17v6.32h2.46c1.77,0,2.96-0.12,3.55-0.35
			c0.6-0.23,1.07-0.6,1.4-1.09s0.51-1.07,0.51-1.73c0-0.81-0.24-1.48-0.71-2c-0.48-0.53-1.08-0.86-1.81-0.99
			c-0.54-0.1-1.62-0.15-3.24-0.15H344.26z"/>
		<path class="st2" d="M367.69,75.67c0-2.27,0.34-4.17,1.02-5.71c0.51-1.13,1.2-2.15,2.07-3.05c0.88-0.9,1.84-1.57,2.88-2.01
			c1.39-0.59,2.99-0.88,4.8-0.88c3.28,0,5.91,1.02,7.88,3.05c1.97,2.04,2.96,4.87,2.96,8.49c0,3.6-0.98,6.41-2.93,8.44
			s-4.57,3.05-7.84,3.05c-3.31,0-5.95-1.01-7.9-3.03C368.66,82,367.69,79.22,367.69,75.67z M372.32,75.52
			c0,2.52,0.58,4.43,1.75,5.73c1.16,1.3,2.64,1.95,4.44,1.95s3.26-0.65,4.41-1.94c1.15-1.29,1.72-3.23,1.72-5.81
			c0-2.55-0.56-4.46-1.68-5.71s-2.61-1.88-4.46-1.88s-3.35,0.63-4.48,1.91C372.89,71.04,372.32,72.96,372.32,75.52z"/>
		<path class="st2" d="M392.84,86.67V64.4h4.38l9.11,14.87V64.4h4.18v22.27H406l-8.98-14.52v14.52H392.84z"/>
		<path class="st2" d="M415.38,86.67V64.58h4.5v18.34h11.18v3.75H415.38z"/>
		<path class="st2" d="M434.13,86.67V64.4h4.5v22.27H434.13z"/>
		<path class="st2" d="M442.95,86.67V64.4h4.38l9.11,14.87V64.4h4.18v22.27h-4.51l-8.98-14.52v14.52H442.95z"/>
		<path class="st2" d="M465.38,86.67V64.4h16.51v3.77h-12.02v4.94h11.18v3.75h-11.18v6.06h12.44v3.75H465.38z"/>
		<path class="st2" d="M493.95,84.15v-4.3l10.66-4.19l-10.66-4.15v-4.27l15.28,6.61v3.65L493.95,84.15z"/>
	</g>
	<g>
		<path class="st3" d="M270.62,78.23l4.38-0.42c0.26,1.47,0.8,2.55,1.6,3.24s1.89,1.03,3.26,1.03c1.45,0,2.54-0.31,3.27-0.92
			c0.73-0.61,1.1-1.33,1.1-2.15c0-0.53-0.15-0.97-0.46-1.34c-0.31-0.37-0.85-0.69-1.62-0.96c-0.53-0.18-1.73-0.51-3.6-0.97
			c-2.41-0.6-4.1-1.33-5.07-2.2c-1.37-1.22-2.05-2.72-2.05-4.48c0-1.13,0.32-2.19,0.96-3.18c0.64-0.99,1.57-1.74,2.78-2.26
			c1.21-0.52,2.67-0.77,4.38-0.77c2.79,0,4.9,0.61,6.31,1.84c1.41,1.23,2.15,2.86,2.23,4.91l-4.5,0.2c-0.19-1.14-0.6-1.97-1.24-2.47
			c-0.63-0.5-1.58-0.75-2.85-0.75c-1.31,0-2.33,0.27-3.07,0.8c-0.48,0.34-0.71,0.8-0.71,1.38c0,0.53,0.22,0.98,0.67,1.35
			c0.57,0.48,1.94,0.97,4.13,1.49s3.81,1.05,4.85,1.6c1.05,0.55,1.87,1.31,2.46,2.26c0.59,0.96,0.89,2.14,0.89,3.55
			c0,1.28-0.35,2.47-1.06,3.58c-0.71,1.11-1.71,1.94-3.01,2.48c-1.3,0.54-2.91,0.81-4.85,0.81c-2.82,0-4.98-0.65-6.49-1.95
			C271.82,82.62,270.92,80.72,270.62,78.23z"/>
		<path class="st3" d="M292.53,85.48V63.21h4.5v8.77h8.81v-8.77h4.5v22.27h-4.5v-9.74h-8.81v9.74H292.53z"/>
		<path class="st3" d="M314.07,74.48c0-2.27,0.34-4.17,1.02-5.71c0.51-1.13,1.2-2.15,2.07-3.05c0.88-0.9,1.84-1.57,2.88-2.01
			c1.39-0.59,2.99-0.88,4.8-0.88c3.28,0,5.91,1.02,7.88,3.05c1.97,2.04,2.95,4.87,2.95,8.49c0,3.6-0.98,6.41-2.93,8.44
			s-4.57,3.05-7.84,3.05c-3.31,0-5.94-1.01-7.9-3.03C315.05,80.81,314.07,78.03,314.07,74.48z M318.7,74.33
			c0,2.52,0.58,4.43,1.75,5.73c1.16,1.3,2.64,1.95,4.44,1.95s3.26-0.65,4.41-1.94c1.15-1.29,1.72-3.23,1.72-5.81
			c0-2.55-0.56-4.46-1.68-5.71c-1.12-1.26-2.6-1.88-4.46-1.88c-1.85,0-3.35,0.63-4.48,1.91C319.27,69.85,318.7,71.77,318.7,74.33z"
			/>
		<path class="st3" d="M339.18,85.48V63.21h7.22c2.73,0,4.52,0.11,5.35,0.33c1.28,0.33,2.34,1.06,3.21,2.18
			c0.86,1.12,1.29,2.56,1.29,4.34c0,1.37-0.25,2.52-0.74,3.45c-0.5,0.93-1.13,1.66-1.89,2.19c-0.76,0.53-1.54,0.88-2.33,1.06
			c-1.07,0.21-2.63,0.32-4.66,0.32h-2.93v8.4H339.18z M343.68,66.98v6.32h2.46c1.77,0,2.96-0.12,3.55-0.35
			c0.6-0.23,1.07-0.6,1.4-1.09s0.51-1.07,0.51-1.73c0-0.81-0.24-1.48-0.71-2c-0.48-0.53-1.08-0.86-1.81-0.99
			c-0.54-0.1-1.62-0.15-3.24-0.15H343.68z"/>
		<path class="st3" d="M367.1,74.48c0-2.27,0.34-4.17,1.02-5.71c0.51-1.13,1.2-2.15,2.07-3.05c0.88-0.9,1.84-1.57,2.88-2.01
			c1.39-0.59,2.99-0.88,4.8-0.88c3.28,0,5.91,1.02,7.88,3.05c1.97,2.04,2.96,4.87,2.96,8.49c0,3.6-0.98,6.41-2.93,8.44
			s-4.57,3.05-7.84,3.05c-3.31,0-5.95-1.01-7.9-3.03C368.08,80.81,367.1,78.03,367.1,74.48z M371.73,74.33
			c0,2.52,0.58,4.43,1.75,5.73c1.16,1.3,2.64,1.95,4.44,1.95s3.26-0.65,4.41-1.94c1.15-1.29,1.72-3.23,1.72-5.81
			c0-2.55-0.56-4.46-1.68-5.71s-2.61-1.88-4.46-1.88s-3.35,0.63-4.48,1.91C372.3,69.85,371.73,71.77,371.73,74.33z"/>
		<path class="st3" d="M392.25,85.48V63.21h4.38l9.11,14.87V63.21h4.18v22.27h-4.51l-8.98-14.52v14.52H392.25z"/>
		<path class="st3" d="M414.8,85.48V63.39h4.5v18.33h11.18v3.75H414.8z"/>
		<path class="st3" d="M433.54,85.48V63.21h4.5v22.27H433.54z"/>
		<path class="st3" d="M442.37,85.48V63.21h4.38l9.11,14.87V63.21h4.18v22.27h-4.51l-8.98-14.52v14.52H442.37z"/>
		<path class="st3" d="M464.79,85.48V63.21h16.51v3.77h-12.02v4.94h11.18v3.75h-11.18v6.06h12.44v3.75H464.79z"/>
		<path class="st3" d="M493.36,82.96v-4.3l10.66-4.19l-10.66-4.15v-4.27l15.28,6.61v3.65L493.36,82.96z"/>
	</g>
</g>
<g id="Layer_4">
	<g>
		<path class="st4" d="M240.45,47.16l1.14-0.11l-0.01,0.3c0,0.34,0.08,0.64,0.23,0.92c0.15,0.28,0.41,0.49,0.76,0.65
			c0.36,0.15,0.78,0.23,1.27,0.23c0.7,0,1.23-0.15,1.59-0.46c0.37-0.3,0.55-0.65,0.55-1.04c0-0.27-0.1-0.52-0.29-0.75
			c-0.2-0.22-0.74-0.52-1.62-0.9c-0.68-0.3-1.15-0.52-1.4-0.68c-0.39-0.26-0.68-0.54-0.87-0.84c-0.19-0.3-0.28-0.65-0.28-1.03
			c0-0.45,0.12-0.85,0.37-1.21c0.25-0.36,0.6-0.63,1.08-0.82c0.47-0.19,1-0.28,1.6-0.28c0.71,0,1.3,0.12,1.79,0.36
			c0.49,0.24,0.84,0.55,1.06,0.95c0.22,0.4,0.33,0.77,0.33,1.13c0,0.04,0,0.1-0.01,0.18l-1.12,0.09c0-0.25-0.02-0.44-0.07-0.58
			c-0.08-0.24-0.2-0.44-0.37-0.61s-0.39-0.3-0.68-0.4c-0.29-0.1-0.62-0.15-0.98-0.15c-0.63,0-1.12,0.14-1.48,0.43
			c-0.27,0.22-0.4,0.51-0.4,0.87c0,0.21,0.06,0.4,0.17,0.57c0.11,0.17,0.31,0.33,0.6,0.5c0.21,0.11,0.69,0.34,1.46,0.68
			c0.62,0.28,1.06,0.49,1.29,0.65c0.32,0.21,0.56,0.46,0.73,0.76s0.26,0.64,0.26,1.02c0,0.47-0.14,0.9-0.43,1.3
			c-0.29,0.4-0.68,0.7-1.19,0.92c-0.51,0.22-1.08,0.33-1.74,0.33c-0.98,0-1.79-0.21-2.41-0.64
			C240.77,49.05,240.45,48.28,240.45,47.16z"/>
		<path class="st4" d="M249.12,49.97l1.82-8.69h1.16l-0.75,3.61h4.51l0.75-3.61h1.16l-1.81,8.69h-1.16l0.85-4.1h-4.5l-0.86,4.1
			H249.12z"/>
		<path class="st4" d="M259.39,46.33c0-1.55,0.45-2.8,1.34-3.76c0.9-0.96,1.98-1.44,3.26-1.44c1.08,0,1.97,0.35,2.65,1.06
			c0.68,0.71,1.02,1.65,1.02,2.84c0,0.85-0.17,1.63-0.52,2.35c-0.26,0.54-0.58,1.01-0.97,1.4c-0.39,0.39-0.81,0.7-1.26,0.91
			c-0.59,0.28-1.22,0.43-1.89,0.43c-0.7,0-1.33-0.17-1.9-0.5c-0.57-0.33-1-0.8-1.3-1.39C259.54,47.64,259.39,47.01,259.39,46.33z
			 M260.54,46.39c0,0.51,0.11,0.98,0.32,1.41s0.53,0.76,0.95,1s0.86,0.36,1.32,0.36c0.45,0,0.87-0.11,1.27-0.32
			c0.4-0.21,0.76-0.51,1.08-0.88c0.32-0.38,0.57-0.84,0.75-1.39c0.18-0.55,0.28-1.09,0.28-1.63c0-0.87-0.24-1.56-0.73-2.07
			c-0.48-0.51-1.08-0.77-1.79-0.77c-0.91,0-1.71,0.39-2.41,1.17S260.54,45.08,260.54,46.39z"/>
		<path class="st4" d="M269.16,49.97l1.82-8.69h3.63c0.63,0,1.1,0.07,1.41,0.22c0.31,0.14,0.57,0.39,0.78,0.74
			c0.21,0.35,0.31,0.74,0.31,1.18c0,0.36-0.07,0.73-0.22,1.1c-0.15,0.37-0.33,0.68-0.55,0.92c-0.22,0.24-0.45,0.42-0.68,0.55
			c-0.23,0.12-0.47,0.21-0.74,0.27c-0.56,0.13-1.12,0.2-1.69,0.2h-2.18l-0.74,3.53H269.16z M271.27,45.46h1.92
			c0.74,0,1.29-0.08,1.64-0.24c0.35-0.16,0.63-0.4,0.84-0.73s0.31-0.68,0.31-1.04c0-0.28-0.06-0.52-0.17-0.7
			c-0.11-0.18-0.27-0.31-0.47-0.4s-0.59-0.13-1.16-0.13h-2.23L271.27,45.46z"/>
		<path class="st4" d="M282.34,47.16l1.14-0.11l-0.01,0.3c0,0.34,0.08,0.64,0.23,0.92c0.15,0.28,0.41,0.49,0.76,0.65
			c0.36,0.15,0.78,0.23,1.27,0.23c0.7,0,1.23-0.15,1.59-0.46c0.37-0.3,0.55-0.65,0.55-1.04c0-0.27-0.1-0.52-0.29-0.75
			c-0.2-0.22-0.74-0.52-1.62-0.9c-0.68-0.3-1.15-0.52-1.4-0.68c-0.39-0.26-0.68-0.54-0.87-0.84c-0.19-0.3-0.28-0.65-0.28-1.03
			c0-0.45,0.12-0.85,0.37-1.21c0.25-0.36,0.6-0.63,1.08-0.82c0.47-0.19,1-0.28,1.6-0.28c0.71,0,1.3,0.12,1.79,0.36
			c0.49,0.24,0.84,0.55,1.06,0.95c0.22,0.4,0.33,0.77,0.33,1.13c0,0.04,0,0.1-0.01,0.18l-1.12,0.09c0-0.25-0.02-0.44-0.07-0.58
			c-0.08-0.24-0.2-0.44-0.37-0.61s-0.39-0.3-0.68-0.4c-0.29-0.1-0.62-0.15-0.98-0.15c-0.63,0-1.12,0.14-1.48,0.43
			c-0.27,0.22-0.4,0.51-0.4,0.87c0,0.21,0.06,0.4,0.17,0.57c0.11,0.17,0.31,0.33,0.6,0.5c0.21,0.11,0.69,0.34,1.46,0.68
			c0.62,0.28,1.06,0.49,1.29,0.65c0.32,0.21,0.56,0.46,0.73,0.76s0.26,0.64,0.26,1.02c0,0.47-0.14,0.9-0.43,1.3
			c-0.29,0.4-0.68,0.7-1.19,0.92c-0.51,0.22-1.08,0.33-1.74,0.33c-0.98,0-1.79-0.21-2.41-0.64
			C282.66,49.05,282.34,48.28,282.34,47.16z"/>
		<path class="st4" d="M292.9,41.28h1.16l-1.11,5.34c-0.09,0.44-0.14,0.77-0.14,0.98c0,0.47,0.18,0.84,0.55,1.13
			s0.83,0.43,1.39,0.43c0.44,0,0.85-0.1,1.24-0.31s0.68-0.5,0.9-0.9c0.22-0.4,0.42-1.03,0.6-1.89l1-4.78h1.16l-1.06,5.1
			c-0.18,0.87-0.42,1.56-0.72,2.07c-0.3,0.51-0.71,0.92-1.23,1.22c-0.53,0.31-1.14,0.46-1.83,0.46c-0.66,0-1.22-0.11-1.7-0.33
			c-0.48-0.22-0.84-0.52-1.08-0.9c-0.24-0.38-0.36-0.82-0.36-1.3c0-0.3,0.08-0.83,0.24-1.57L292.9,41.28z"/>
		<path class="st4" d="M300.74,49.97l1.82-8.69h3.65c0.72,0,1.26,0.06,1.64,0.18s0.66,0.35,0.87,0.68s0.32,0.75,0.32,1.26
			c0,0.71-0.23,1.29-0.69,1.76c-0.46,0.47-1.21,0.77-2.24,0.91c0.32,0.23,0.56,0.46,0.72,0.69c0.36,0.51,0.66,1.04,0.88,1.58
			l0.66,1.64h-1.3l-0.62-1.62c-0.23-0.58-0.48-1.09-0.77-1.52c-0.2-0.3-0.4-0.49-0.6-0.58s-0.54-0.14-1-0.14h-1.35l-0.81,3.86
			H300.74z M302.91,45.17h1.61c0.74,0,1.23-0.01,1.45-0.03c0.44-0.04,0.8-0.14,1.08-0.3s0.5-0.36,0.65-0.62
			c0.15-0.26,0.23-0.54,0.23-0.84c0-0.25-0.06-0.47-0.17-0.66c-0.11-0.19-0.26-0.32-0.45-0.38c-0.19-0.07-0.5-0.1-0.95-0.1h-2.83
			L302.91,45.17z"/>
		<path class="st4" d="M310.4,49.97l1.81-8.69h5.65l-0.21,0.99h-4.49l-0.58,2.77h4.57l-0.21,0.99h-4.57l-0.82,3.94H310.4z"/>
		<path class="st4" d="M318.71,49.97l1.82-8.69h2.69c0.49,0,0.85,0.02,1.09,0.06c0.39,0.07,0.71,0.18,0.98,0.35
			c0.27,0.17,0.47,0.4,0.62,0.69c0.15,0.29,0.22,0.61,0.22,0.96c0,0.48-0.13,0.9-0.39,1.26c-0.26,0.36-0.67,0.64-1.21,0.83
			c0.47,0.15,0.82,0.39,1.06,0.7c0.23,0.31,0.35,0.67,0.35,1.09c0,0.48-0.14,0.94-0.41,1.38c-0.27,0.44-0.64,0.78-1.09,1.02
			c-0.45,0.24-0.96,0.36-1.51,0.36H318.71z M320.08,48.99h1.98c0.53,0,0.88-0.02,1.06-0.05c0.37-0.06,0.67-0.17,0.9-0.32
			c0.23-0.15,0.41-0.35,0.54-0.6s0.2-0.51,0.2-0.78c0-0.41-0.13-0.72-0.38-0.93c-0.26-0.21-0.74-0.32-1.46-0.32h-2.21L320.08,48.99z
			 M320.91,44.99h1.76c0.84,0,1.45-0.13,1.82-0.4c0.37-0.27,0.55-0.66,0.55-1.17c0-0.25-0.06-0.46-0.17-0.63
			c-0.11-0.18-0.27-0.31-0.46-0.39c-0.19-0.08-0.55-0.12-1.08-0.12h-1.85L320.91,44.99z"/>
		<path class="st4" d="M328.3,46.33c0-1.55,0.45-2.8,1.34-3.76c0.9-0.96,1.98-1.44,3.26-1.44c1.08,0,1.97,0.35,2.65,1.06
			c0.68,0.71,1.02,1.65,1.02,2.84c0,0.85-0.17,1.63-0.52,2.35c-0.26,0.54-0.58,1.01-0.97,1.4c-0.39,0.39-0.81,0.7-1.26,0.91
			c-0.59,0.28-1.22,0.43-1.89,0.43c-0.7,0-1.33-0.17-1.9-0.5c-0.57-0.33-1-0.8-1.3-1.39C328.45,47.64,328.3,47.01,328.3,46.33z
			 M329.44,46.39c0,0.51,0.11,0.98,0.32,1.41s0.53,0.76,0.95,1s0.86,0.36,1.32,0.36c0.45,0,0.87-0.11,1.27-0.32
			c0.4-0.21,0.76-0.51,1.08-0.88c0.32-0.38,0.57-0.84,0.75-1.39c0.18-0.55,0.28-1.09,0.28-1.63c0-0.87-0.24-1.56-0.73-2.07
			c-0.48-0.51-1.08-0.77-1.79-0.77c-0.91,0-1.71,0.39-2.41,1.17S329.44,45.08,329.44,46.39z"/>
		<path class="st4" d="M337.3,49.97l4.93-8.69h1.37l1.44,8.69h-1.13l-0.42-2.5h-3.52l-1.39,2.5H337.3z M340.47,46.58h2.88
			l-0.34-2.18c-0.13-0.87-0.21-1.59-0.24-2.16c-0.2,0.5-0.49,1.09-0.87,1.77L340.47,46.58z"/>
		<path class="st4" d="M347.12,49.97l1.82-8.69h3.65c0.72,0,1.26,0.06,1.64,0.18s0.66,0.35,0.87,0.68s0.32,0.75,0.32,1.26
			c0,0.71-0.23,1.29-0.69,1.76c-0.46,0.47-1.21,0.77-2.24,0.91c0.32,0.23,0.56,0.46,0.72,0.69c0.36,0.51,0.66,1.04,0.88,1.58
			l0.66,1.64h-1.3l-0.62-1.62c-0.23-0.58-0.48-1.09-0.77-1.52c-0.2-0.3-0.4-0.49-0.6-0.58s-0.54-0.14-1-0.14h-1.35l-0.81,3.86
			H347.12z M349.29,45.17h1.61c0.74,0,1.23-0.01,1.45-0.03c0.44-0.04,0.8-0.14,1.08-0.3s0.5-0.36,0.65-0.62
			c0.15-0.26,0.23-0.54,0.23-0.84c0-0.25-0.06-0.47-0.17-0.66c-0.11-0.19-0.26-0.32-0.45-0.38c-0.19-0.07-0.5-0.1-0.95-0.1h-2.83
			L349.29,45.17z"/>
		<path class="st4" d="M356.77,49.97l1.81-8.69h2.62c0.63,0,1.11,0.05,1.44,0.14c0.47,0.12,0.88,0.34,1.22,0.65
			c0.34,0.31,0.59,0.71,0.76,1.18c0.17,0.47,0.25,1,0.25,1.58c0,0.7-0.11,1.34-0.32,1.91c-0.21,0.58-0.49,1.08-0.83,1.52
			s-0.7,0.78-1.07,1.03c-0.37,0.25-0.81,0.43-1.33,0.55c-0.39,0.09-0.86,0.14-1.43,0.14H356.77z M358.14,48.99h1.38
			c0.62,0,1.17-0.06,1.65-0.17c0.3-0.07,0.56-0.18,0.77-0.31c0.28-0.18,0.54-0.41,0.76-0.71c0.3-0.39,0.54-0.83,0.72-1.33
			c0.18-0.5,0.27-1.06,0.27-1.69c0-0.7-0.12-1.24-0.37-1.62s-0.56-0.63-0.94-0.75c-0.28-0.09-0.72-0.14-1.31-0.14h-1.54
			L358.14,48.99z"/>
		<path class="st4" d="M366.77,47.16l1.14-0.11l-0.01,0.3c0,0.34,0.08,0.64,0.23,0.92c0.15,0.28,0.41,0.49,0.76,0.65
			s0.78,0.23,1.27,0.23c0.7,0,1.23-0.15,1.59-0.46c0.37-0.3,0.55-0.65,0.55-1.04c0-0.27-0.1-0.52-0.29-0.75
			c-0.2-0.22-0.74-0.52-1.62-0.9c-0.68-0.3-1.15-0.52-1.4-0.68c-0.39-0.26-0.68-0.54-0.87-0.84c-0.19-0.3-0.28-0.65-0.28-1.03
			c0-0.45,0.12-0.85,0.37-1.21c0.25-0.36,0.6-0.63,1.08-0.82c0.47-0.19,1-0.28,1.6-0.28c0.71,0,1.3,0.12,1.79,0.36
			c0.49,0.24,0.84,0.55,1.06,0.95c0.22,0.4,0.33,0.77,0.33,1.13c0,0.04,0,0.1-0.01,0.18l-1.12,0.09c0-0.25-0.02-0.44-0.07-0.58
			c-0.08-0.24-0.2-0.44-0.37-0.61s-0.39-0.3-0.68-0.4c-0.29-0.1-0.62-0.15-0.98-0.15c-0.63,0-1.12,0.14-1.48,0.43
			c-0.27,0.22-0.4,0.51-0.4,0.87c0,0.21,0.06,0.4,0.17,0.57s0.31,0.33,0.6,0.5c0.21,0.11,0.69,0.34,1.46,0.68
			c0.62,0.28,1.05,0.49,1.29,0.65c0.32,0.21,0.56,0.46,0.73,0.76s0.25,0.64,0.25,1.02c0,0.47-0.14,0.9-0.43,1.3
			c-0.29,0.4-0.68,0.7-1.19,0.92c-0.51,0.22-1.08,0.33-1.74,0.33c-0.98,0-1.79-0.21-2.41-0.64
			C367.08,49.05,366.77,48.28,366.77,47.16z"/>
		<path class="st4" d="M375.58,49.97l0.25-1.22h1.22l-0.22,1.06c-0.13,0.64-0.34,1.1-0.63,1.4c-0.28,0.3-0.62,0.47-1,0.51l0.1-0.47
			c0.47-0.13,0.78-0.56,0.93-1.29H375.58z"/>
		<path class="st4" d="M388.47,46.55l0.21-0.98h3.81l-0.74,3.54c-0.48,0.3-1.02,0.55-1.64,0.74c-0.61,0.19-1.21,0.28-1.81,0.28
			c-1.26,0-2.21-0.38-2.83-1.14c-0.53-0.64-0.79-1.47-0.79-2.48c0-1.04,0.23-1.99,0.69-2.85c0.46-0.86,1.04-1.49,1.74-1.9
			c0.7-0.41,1.48-0.61,2.34-0.61c0.62,0,1.17,0.11,1.66,0.33s0.87,0.52,1.13,0.9s0.45,0.86,0.56,1.46l-1.14,0.12
			c-0.12-0.6-0.38-1.05-0.76-1.37c-0.39-0.32-0.88-0.48-1.49-0.48c-0.63,0-1.22,0.17-1.76,0.51c-0.55,0.34-0.98,0.86-1.31,1.55
			c-0.33,0.69-0.49,1.47-0.49,2.35c0,0.87,0.22,1.53,0.65,1.98c0.43,0.45,1.03,0.67,1.78,0.67c0.75,0,1.57-0.25,2.44-0.75l0.39-1.87
			H388.47z"/>
		<path class="st4" d="M394.39,49.97l1.82-8.69h6.27l-0.21,0.99h-5.11l-0.57,2.7h4.98l-0.21,0.99h-4.98l-0.63,3.02h5.47l-0.21,0.98
			H394.39z"/>
		<path class="st4" d="M402.61,49.97l4.93-8.69h1.37l1.43,8.69h-1.13l-0.42-2.5h-3.52l-1.39,2.5H402.61z M405.78,46.58h2.88
			l-0.34-2.18c-0.13-0.87-0.21-1.59-0.24-2.16c-0.2,0.5-0.49,1.09-0.87,1.77L405.78,46.58z"/>
		<path class="st4" d="M412.44,49.97l1.82-8.69h3.65c0.72,0,1.27,0.06,1.64,0.18c0.37,0.12,0.66,0.35,0.88,0.68
			c0.21,0.33,0.32,0.75,0.32,1.26c0,0.71-0.23,1.29-0.69,1.76c-0.46,0.47-1.21,0.77-2.24,0.91c0.32,0.23,0.56,0.46,0.72,0.69
			c0.36,0.51,0.66,1.04,0.88,1.58l0.66,1.64h-1.3l-0.62-1.62c-0.22-0.58-0.48-1.09-0.77-1.52c-0.2-0.3-0.4-0.49-0.6-0.58
			c-0.21-0.09-0.54-0.14-1-0.14h-1.35l-0.81,3.86H412.44z M414.6,45.17h1.61c0.74,0,1.23-0.01,1.45-0.03
			c0.44-0.04,0.8-0.14,1.08-0.3c0.28-0.15,0.5-0.36,0.65-0.62s0.23-0.54,0.23-0.84c0-0.25-0.06-0.47-0.17-0.66
			c-0.11-0.19-0.26-0.32-0.45-0.38c-0.19-0.07-0.5-0.1-0.95-0.1h-2.83L414.6,45.17z"/>
		<path class="st4" d="M422.2,49.97l0.25-1.22h1.22l-0.22,1.06c-0.13,0.64-0.34,1.1-0.63,1.4c-0.28,0.3-0.62,0.47-1,0.51l0.1-0.47
			c0.47-0.13,0.78-0.56,0.93-1.29H422.2z"/>
		<path class="st4" d="M437.44,46.91l1.15,0.16c-0.36,1-0.89,1.76-1.59,2.28c-0.7,0.51-1.48,0.77-2.34,0.77
			c-1.06,0-1.89-0.32-2.51-0.97c-0.62-0.64-0.93-1.57-0.93-2.77c0-1.57,0.47-2.86,1.41-3.88c0.84-0.91,1.88-1.37,3.12-1.37
			c0.92,0,1.67,0.25,2.24,0.74c0.57,0.49,0.9,1.16,0.99,1.99l-1.08,0.1c-0.11-0.63-0.35-1.1-0.71-1.41
			c-0.36-0.31-0.82-0.47-1.38-0.47c-1.06,0-1.92,0.47-2.58,1.42c-0.57,0.81-0.85,1.78-0.85,2.9c0,0.89,0.22,1.58,0.66,2.05
			c0.44,0.47,1.01,0.71,1.71,0.71c0.6,0,1.14-0.2,1.63-0.59C436.86,48.18,437.22,47.63,437.44,46.91z"/>
		<path class="st4" d="M440.28,49.97l1.81-8.69h1.16l-1.61,7.71h4.51l-0.21,0.98H440.28z"/>
		<path class="st4" d="M448.57,46.33c0-1.55,0.45-2.8,1.34-3.76c0.9-0.96,1.98-1.44,3.26-1.44c1.08,0,1.96,0.35,2.65,1.06
			c0.68,0.71,1.02,1.65,1.02,2.84c0,0.85-0.17,1.63-0.52,2.35c-0.26,0.54-0.58,1.01-0.97,1.4c-0.39,0.39-0.81,0.7-1.26,0.91
			c-0.59,0.28-1.22,0.43-1.89,0.43c-0.7,0-1.33-0.17-1.9-0.5s-1-0.8-1.3-1.39C448.71,47.64,448.57,47.01,448.57,46.33z
			 M449.71,46.39c0,0.51,0.11,0.98,0.32,1.41c0.21,0.43,0.53,0.76,0.95,1s0.86,0.36,1.32,0.36c0.45,0,0.87-0.11,1.27-0.32
			c0.4-0.21,0.76-0.51,1.08-0.88c0.32-0.38,0.57-0.84,0.75-1.39c0.18-0.55,0.28-1.09,0.28-1.63c0-0.87-0.24-1.56-0.73-2.07
			c-0.48-0.51-1.08-0.77-1.79-0.77c-0.91,0-1.71,0.39-2.41,1.17C450.06,44.04,449.71,45.08,449.71,46.39z"/>
		<path class="st4" d="M460.57,49.97l1.61-7.7h-2.85l0.21-0.99h6.84l-0.21,0.99h-2.83l-1.61,7.7H460.57z"/>
		<path class="st4" d="M466.65,49.97l1.82-8.69h1.16l-0.75,3.61h4.51l0.75-3.61h1.16l-1.81,8.69h-1.16l0.85-4.1h-4.5l-0.86,4.1
			H466.65z"/>
		<path class="st4" d="M476.51,49.97l1.82-8.69h1.16l-1.81,8.69H476.51z"/>
		<path class="st4" d="M480.7,49.97l1.82-8.69h1.13l1.46,3.26c0.45,1,0.8,1.83,1.06,2.51c0.15,0.4,0.32,0.93,0.52,1.6
			c0.11-0.73,0.24-1.49,0.4-2.26l1.07-5.11h1.13l-1.81,8.69h-1.15l-2.16-5.02c-0.38-0.89-0.68-1.67-0.9-2.34
			c-0.06,0.57-0.17,1.26-0.34,2.08l-1.1,5.28H480.7z"/>
		<path class="st4" d="M494.76,46.55l0.21-0.98h3.81l-0.74,3.54c-0.48,0.3-1.02,0.55-1.64,0.74c-0.61,0.19-1.21,0.28-1.81,0.28
			c-1.27,0-2.21-0.38-2.83-1.14c-0.53-0.64-0.79-1.47-0.79-2.48c0-1.04,0.23-1.99,0.69-2.85c0.46-0.86,1.04-1.49,1.74-1.9
			c0.7-0.41,1.48-0.61,2.34-0.61c0.62,0,1.17,0.11,1.66,0.33s0.87,0.52,1.13,0.9s0.45,0.86,0.56,1.46l-1.14,0.12
			c-0.12-0.6-0.38-1.05-0.76-1.37c-0.39-0.32-0.88-0.48-1.49-0.48c-0.63,0-1.22,0.17-1.76,0.51c-0.55,0.34-0.98,0.86-1.31,1.55
			c-0.33,0.69-0.49,1.47-0.49,2.35c0,0.87,0.22,1.53,0.65,1.98c0.43,0.45,1.03,0.67,1.79,0.67c0.75,0,1.57-0.25,2.44-0.75l0.39-1.87
			H494.76z"/>
		<path class="st4" d="M510.45,49.13c-0.49,0.4-0.92,0.68-1.27,0.82c-0.35,0.14-0.74,0.22-1.17,0.22c-0.79,0-1.43-0.23-1.91-0.7
			s-0.72-1.05-0.72-1.75c0-0.46,0.09-0.86,0.27-1.22c0.18-0.35,0.45-0.67,0.8-0.95c0.27-0.21,0.68-0.44,1.21-0.68
			c-0.21-0.45-0.33-0.76-0.37-0.91c-0.05-0.22-0.08-0.46-0.08-0.71c0-0.33,0.09-0.67,0.28-1.01c0.19-0.34,0.45-0.61,0.79-0.8
			c0.34-0.19,0.71-0.29,1.11-0.29c0.56,0,1.01,0.16,1.35,0.49c0.34,0.32,0.51,0.72,0.51,1.18c0,0.39-0.15,0.78-0.44,1.17
			c-0.29,0.39-0.87,0.79-1.73,1.22c0.52,0.94,1.02,1.71,1.49,2.31c0.29-0.35,0.56-0.76,0.82-1.24l0.94,0.48
			c-0.26,0.55-0.62,1.09-1.08,1.61c0.26,0.33,0.59,0.72,1,1.19l-0.81,0.65C511.04,49.84,510.71,49.49,510.45,49.13z M509.83,48.3
			c-0.74-0.97-1.31-1.84-1.73-2.6c-0.54,0.25-0.92,0.5-1.15,0.74c-0.32,0.33-0.48,0.72-0.48,1.16c0,0.45,0.15,0.83,0.46,1.14
			c0.31,0.31,0.68,0.47,1.12,0.47C508.65,49.2,509.24,48.9,509.83,48.3z M508.69,44.39c0.58-0.3,1-0.6,1.25-0.91
			c0.17-0.21,0.26-0.43,0.26-0.65c0-0.23-0.08-0.43-0.24-0.59s-0.35-0.24-0.58-0.24c-0.28,0-0.52,0.11-0.73,0.33
			c-0.21,0.22-0.32,0.49-0.32,0.8C508.32,43.5,508.44,43.92,508.69,44.39z"/>
		<path class="st4" d="M518.25,49.97l1.81-8.69h1.43l0.88,5.63c0.11,0.74,0.19,1.45,0.23,2.13c0.24-0.58,0.64-1.38,1.21-2.38
			l3.05-5.38h1.45l-1.81,8.69h-1.14l0.91-4.23c0.21-0.98,0.51-2.07,0.9-3.28c-0.25,0.56-0.56,1.17-0.92,1.83l-3.24,5.69h-1.12
			L521,44.4c-0.08-0.51-0.14-1.1-0.17-1.78c-0.1,0.76-0.2,1.37-0.29,1.81l-1.16,5.54H518.25z"/>
		<path class="st4" d="M529.85,46.33c0-1.55,0.45-2.8,1.34-3.76c0.9-0.96,1.98-1.44,3.26-1.44c1.08,0,1.96,0.35,2.65,1.06
			c0.68,0.71,1.02,1.65,1.02,2.84c0,0.85-0.17,1.63-0.52,2.35c-0.26,0.54-0.58,1.01-0.97,1.4c-0.39,0.39-0.81,0.7-1.26,0.91
			c-0.59,0.28-1.22,0.43-1.89,0.43c-0.7,0-1.33-0.17-1.9-0.5s-1-0.8-1.3-1.39C530,47.64,529.85,47.01,529.85,46.33z M531,46.39
			c0,0.51,0.11,0.98,0.32,1.41c0.21,0.43,0.53,0.76,0.95,1s0.86,0.36,1.32,0.36c0.45,0,0.87-0.11,1.27-0.32
			c0.4-0.21,0.76-0.51,1.08-0.88c0.32-0.38,0.57-0.84,0.75-1.39c0.18-0.55,0.28-1.09,0.28-1.63c0-0.87-0.24-1.56-0.73-2.07
			c-0.48-0.51-1.08-0.77-1.79-0.77c-0.91,0-1.71,0.39-2.41,1.17C531.34,44.04,531,45.08,531,46.39z"/>
		<path class="st4" d="M539.67,49.97l1.82-8.69h3.65c0.72,0,1.27,0.06,1.64,0.18c0.37,0.12,0.66,0.35,0.88,0.68
			c0.21,0.33,0.32,0.75,0.32,1.26c0,0.71-0.23,1.29-0.69,1.76c-0.46,0.47-1.21,0.77-2.24,0.91c0.32,0.23,0.56,0.46,0.72,0.69
			c0.36,0.51,0.66,1.04,0.88,1.58l0.66,1.64h-1.3l-0.62-1.62c-0.22-0.58-0.48-1.09-0.77-1.52c-0.2-0.3-0.4-0.49-0.6-0.58
			c-0.21-0.09-0.54-0.14-1-0.14h-1.35l-0.81,3.86H539.67z M541.83,45.17h1.61c0.74,0,1.23-0.01,1.45-0.03
			c0.44-0.04,0.8-0.14,1.08-0.3c0.28-0.15,0.5-0.36,0.65-0.62s0.23-0.54,0.23-0.84c0-0.25-0.06-0.47-0.17-0.66
			c-0.11-0.19-0.26-0.32-0.45-0.38c-0.19-0.07-0.5-0.1-0.95-0.1h-2.83L541.83,45.17z"/>
		<path class="st4" d="M549.32,49.97l1.82-8.69h6.27l-0.21,0.99h-5.11l-0.57,2.7h4.98l-0.21,0.99h-4.98l-0.63,3.02h5.47l-0.21,0.98
			H549.32z"/>
		<path class="st4" d="M558.47,49.97l0.25-1.22h1.21l-0.25,1.22H558.47z M559.14,47.78l0.66-4.72l0.37-1.78h1.3l-0.4,1.93
			l-1.26,4.57H559.14z"/>
	</g>
</g>
</svg>
