<?xml version="1.0" encoding="UTF-8" standalone="no"?>
<!--
#!/usr/bin/env python3
import math
cx = 50
cy = 50
r = 50
# essentially drawing lines from the circle with radius r (-1 just for style purposes) to the inner circle with radius r - 10
for degrees in range(0, 360, 45):
  print('  <line x1="{:0.4f}" y1="{:0.4f}" x2="{:0.4f}" y2="{:0.4f}"/>'.format(cx + (r - 1) * math.cos(math.radians(degrees)), cy + (r - 1) * math.sin(math.radians(degrees)), cx + (r - 10) * math.cos(math.radians(degrees)), cy + (r - 10) * math.sin(math.radians(degrees))))
-->
<svg viewBox="0 0 100 100" version="1.1" xmlns="http://www.w3.org/2000/svg">
  <style>
    svg line {
      stroke:#000000;stroke-width:1px;stroke-linecap:round;
    }
    svg text {
      font-size:8px;font-weight:800;font-family:'Open Sans',sans-serif;
    }
    svg > text.direction, svg > text.speed {
      dominant-baseline:middle;text-anchor:middle;font-size:6px;font-weight:600;
    }
    svg > g.arrow {
      stroke:#000000;stroke-width:0;fill:#000000;opacity:0.5;transform-origin:center;transform:rotate(30deg);
    }
  </style>
  <circle cx="50" cy="50" r="50" style="fill:#e0dedb;"/>
  <line x1="99.0000" y1="50.0000" x2="90.0000" y2="50.0000"/>
  <line x1="84.6482" y1="84.6482" x2="78.2843" y2="78.2843"/>
  <line x1="50.0000" y1="99.0000" x2="50.0000" y2="90.0000"/>
  <line x1="15.3518" y1="84.6482" x2="21.7157" y2="78.2843"/>
  <line x1="1.0000" y1="50.0000" x2="10.0000" y2="50.0000"/>
  <line x1="15.3518" y1="15.3518" x2="21.7157" y2="21.7157"/>
  <line x1="50.0000" y1="1.0000" x2="50.0000" y2="10.0000"/>
  <line x1="84.6482" y1="15.3518" x2="78.2843" y2="21.7157"/>
  <text x="88.0000" y="50.0000" style="dominant-baseline:middle;text-anchor:end;">E</text>
  <text x="77.2843" y="77.2843" style="dominant-baseline:auto;text-anchor:end;">SE</text>
  <text x="50.0000" y="88.0000" style="dominant-baseline:auto;text-anchor:middle;">S</text>
  <text x="22.7157" y="77.2843" style="dominant-baseline:auto;text-anchor:start;">SW</text>
  <text x="12.0000" y="50.0000" style="dominant-baseline:middle;text-anchor:start;">W</text>
  <text x="22.7157" y="22.7157" style="dominant-baseline:hanging;text-anchor:start;">NW</text>
  <text x="50.0000" y="12.0000" style="dominant-baseline:hanging;text-anchor:middle;">N</text>
  <text x="77.2843" y="22.7157" style="dominant-baseline:hanging;text-anchor:end;">NE</text>
  <g class="arrow">
    <line x1="50" y1="50" x2="50" y2="1"/>
    <path d="M 50,0 46,6 54,6 z"/>
  </g>
  <circle cx="50" cy="50" r="2" style="fill:#000000;"/>
  <text class="direction" x="50" y="38">From 270°</text>
  <text class="speed" x="50" y="62">10 MPH</text>
</svg>
